<svg xmlns="http://www.w3.org/2000/svg" viewBox="0 0 3092.4 1441.6"><title>bn-1</title><g style="isolation:isolate"><g id="a5e85fcf-941f-4803-bac5-7a77fbaf18dc" data-name="Layer 2"><g id="b6059062-a88f-4eb8-b5d6-baf22d880fbe" data-name="window"><rect x="593.5" width="702.6" height="663.14" fill="#e3fafa"/><rect x="1737" y="59.1" width="632.8" height="597.24" fill="#e3fafa"/></g><g id="b8c5af01-5aa8-4ca4-934a-3719f8dc58a6" data-name="illustration"><g id="a1b9da46-37ae-43f9-9bbd-330f16d4e857" data-name="phone"><path d="M2979.9,989.2l-17,2.3a138.4,138.4,0,0,0-17.9-51.8l14.7-8.7a156.5,156.5,0,0,0-40.2-45.3l-10.3,13.6a140.2,140.2,0,0,0-49.4-23.9l4.3-16.6a157.8,157.8,0,0,0-42.3-5v80.9a79.4,79.4,0,0,1,22,2.4,75.7,75.7,0,0,1-22,148.9v80.8a148.6,148.6,0,0,0,24.1-1.4l-2.3-17a138.8,138.8,0,0,0,51.9-17.9l8.6,14.7a155.2,155.2,0,0,0,45.3-40.2h-.1l-3.9-3-9.6-7.3a136.8,136.8,0,0,0,23.9-49.4l16.6,4.3A155.1,155.1,0,0,0,2979.9,989.2Z" fill="#a3eefa"/><path d="M2934.3,661.1a87.1,87.1,0,0,0-12.7,31.1l9.4,1.8a78.8,78.8,0,0,0,.1,30.6l-9.2,1.9a85.4,85.4,0,0,0,13,31l1.8-1.2,6.1-4.1a79,79,0,0,0,21.7,21.4l-5.2,7.9a85.1,85.1,0,0,0,31.2,12.7l1.8-9.3a78.3,78.3,0,0,0,30.5-.2l1.9,9.3a87.4,87.4,0,0,0,31-13.1h0l-1.6-2.3-3.7-5.6a75.1,75.1,0,0,0,21.4-21.7l7.9,5.2a82.9,82.9,0,0,0,12.7-31.1l-9.3-1.9a77.7,77.7,0,0,0-.2-30.4l9.3-2a88.2,88.2,0,0,0-13.1-31l-7.9,5.3a77.6,77.6,0,0,0-21.7-21.4l5.2-7.9a86.4,86.4,0,0,0-31.1-12.7l-1.9,9.4a77.8,77.8,0,0,0-30.4.1l-2-9.2a85.4,85.4,0,0,0-31,13h.1l3.5,5.2,1.7,2.6a79,79,0,0,0-21.4,21.7Zm38.1,23.9a42,42,0,1,1,13.9,60.4A42.1,42.1,0,0,1,2972.4,685Z" fill="#a3eefa"/><path d="M2784.5,236.9c-10.3-59.3-101.9-85.7-99.9-47l-419.3,4.2c-29,.3-52.5,26.5-52.3,58.6l3.6,1102.7c.1,33.2,24.2,60.3,53.8,60.4l428,1.9c2.7,5.6,7.7,10.6,15.5,14.8,49.1.9,72.6-23.5,81.1-50.9a67.8,67.8,0,0,0,4.1-24.1C2797.3,1343.2,2787.6,250.8,2784.5,236.9Z" fill="#48c6c6"/><path d="M2709.4,1432.7l-491.3-1.1c-30.7-.1-55.6-27.9-55.7-62.1l-2.8-1134c-.1-33,24.2-59.9,54.3-60.1l481.7-3.5c30.3-.3,55.2,26.4,55.6,59.5l13.4,1139.2C2765,1405,2740.3,1432.8,2709.4,1432.7Z" fill="#48c6c6"/><path d="M2716.1,1424.5c-2,.2-4.1.4-6.2.4l-491.1-1.7c-26.4-.1-48-24.5-48.1-54.3l-3-1132.8c0-28.8,21.1-52.4,46.9-52.6l481.7-4.1h2.3a45.4,45.4,0,0,1,31.9,15.4,54.6,54.6,0,0,1,13.8,36l13.3,1140.3C2757.9,1398.3,2740.1,1421.1,2716.1,1424.5Z" fill="#312a52"/><polygon points="2727.4 236.7 2740.4 1373.1 2187.1 1372 2183.8 238.9 2727.4 236.7" fill="#fff"/><path d="M2278.1,1185.6s-66.5-40.7-22.9-201.2-84.7-243.5-14.2-331.8c47-58.6,155,37.2,261.9-44.3,77.4-58.9,159.3-55.1,194.2,81.5,51.5,201.3-60.8,288-29.5,389.2,39.3,127-64.3,202.4-178.9,145C2415.7,1187.3,2324,1235.9,2278.1,1185.6Z" fill="#cffafa"/><rect x="2233" y="326.7" width="214.5" height="171.84" rx="13.7" fill="#48c6c6"/><path d="M2437.6,479.8H2253.8V353.2a1,1,0,0,1,1-1,.9.9,0,0,1,1,1V477.9h181.8a.9.9,0,0,1,.9,1A.9.9,0,0,1,2437.6,479.8Z" fill="#fdfdff"/><rect x="2272.1" y="440.1" width="20.3" height="38.79" fill="#fdfdff"/><rect x="2300.4" y="431.2" width="20.3" height="47.62" fill="#fdfdff"/><rect x="2328.7" y="413.3" width="20.3" height="65.55" fill="#fdfdff"/><rect x="2356.9" y="400.8" width="20.3" height="78.07" fill="#fdfdff"/><rect x="2385.2" y="373.8" width="20.3" height="105.07" fill="#fdfdff"/><rect x="2463.4" y="326.7" width="214.5" height="171.84" rx="13.7" fill="#48c6c6"/><path d="M2667.9,479.8H2484.2V360a.9.9,0,0,1,1-.9,1,1,0,0,1,1,.9V477.9h181.7a.9.9,0,0,1,1,1A.9.9,0,0,1,2667.9,479.8Z" fill="#fdfdff"/><path d="M2485.2,478.9c30.8-2.7,35-126.5,80.7-71,43.4,52.7,45.7-45.2,92.8-45.2V477.8Z" fill="#fdfdff"/><path d="M2678,310.5H2233.2V272.6H2678Zm-443.7-1.1h442.6V273.6H2234.3Z" fill="#48c6c6"/><rect x="2341.4" y="285.1" width="73.8" height="12.73" fill="#48c6c6"/><rect x="2422.5" y="285.1" width="38.2" height="12.73" fill="#48c6c6"/><rect x="2241.4" y="285.1" width="90.2" height="12.73" fill="#48c6c6"/><path d="M2678,1323H2233.2v-37.9H2678Zm-443.7-1.1h442.6v-35.8H2234.3Z" fill="#48c6c6"/><rect x="2341.4" y="1297.6" width="73.8" height="12.73" fill="#48c6c6"/><rect x="2422.5" y="1297.6" width="38.2" height="12.73" fill="#48c6c6"/><rect x="2548" y="1297.6" width="38.2" height="12.73" fill="#48c6c6"/><rect x="2241.4" y="1297.6" width="90.2" height="12.73" fill="#48c6c6"/><rect x="2234.5" y="522.7" width="211.7" height="12" fill="#cffafa"/><rect x="2234.5" y="566.9" width="185.1" height="12" fill="#cffafa"/><rect x="2234.5" y="544.5" width="321.1" height="12" fill="#cffafa"/><circle cx="2582.5" cy="125.7" r="18.7" fill="#a3eefa"/><path d="M2516.3,67.1l-8-9.1c44.6-44.7,114-43.1,156.4,3.7l-8.4,8.6C2618.3,28.6,2556.2,27.1,2516.3,67.1Z" fill="#a3eefa"/><path d="M2532.8,85.8l-8-9c35-34.8,89.2-33.6,122.5,2.8l-8.4,8.7C2610,56.9,2563.1,55.8,2532.8,85.8Z" fill="#a3eefa"/><path d="M2548.8,104l-8-9c25.7-25.3,65.2-24.4,89.7,2l-8.4,8.7C2602,84.3,2569.8,83.5,2548.8,104Z" fill="#a3eefa"/></g><g id="bf6eb6b5-c755-4f18-bc15-5fc211ce3bab" data-name=" robotic arms"><rect x="1647.7" y="184.6" width="27" height="124.52" fill="#241f3c"/><path d="M1677.6,271.1h-31.7a24.9,24.9,0,0,0-9.2,19.3v22.8h50V290.3A24.8,24.8,0,0,0,1677.6,271.1Z" fill="#48c6c6"/><path d="M1643.4,324.7h0a12.7,12.7,0,0,0-20.2,5.3L1599,398a3.9,3.9,0,0,0,1.8,4.8h0a4,4,0,0,0,5.3-1.3l39.7-60.2A12.6,12.6,0,0,0,1643.4,324.7Z" fill="#241f3c"/><path d="M1683.9,322.3h0a12.6,12.6,0,0,1,19.3,7.6l16.1,70.4a3.9,3.9,0,0,1-2.4,4.6h0a4,4,0,0,1-5-1.9l-32.4-64.5A12.7,12.7,0,0,1,1683.9,322.3Z" fill="#241f3c"/><rect x="1632.4" y="313.1" width="59.2" height="7.14" fill="#241f3c"/><path d="M1648.5,321a5.8,5.8,0,1,1-5.8-5.8A5.8,5.8,0,0,1,1648.5,321Z" fill="#241f3c"/><path d="M1686.8,321a5.8,5.8,0,1,1-5.8-5.8A5.8,5.8,0,0,1,1686.8,321Z" fill="#241f3c"/><rect x="1558.8" y="164" width="102.1" height="41.23" fill="#241f3c"/><path d="M1574.4,229.7h-83.7a45.1,45.1,0,0,1-45.1-45.1h0a45.1,45.1,0,0,1,45.1-45.1h83.7Z" fill="#48c6c6"/><path d="M1656,229.7h-59V139.5h59a45.1,45.1,0,0,1,45.2,45.1h0A45.1,45.1,0,0,1,1656,229.7Z" fill="#48c6c6"/><path d="M1666.5,206.1a23.9,23.9,0,0,1-31.3-12.7,23.7,23.7,0,0,1,12.8-31.1,23.9,23.9,0,0,1,31.3,12.7A23.7,23.7,0,0,1,1666.5,206.1Zm-14.6-34.6a13.7,13.7,0,0,0-7.4,18,13.9,13.9,0,0,0,18.1,7.4,13.7,13.7,0,0,0,7.4-18A13.9,13.9,0,0,0,1651.9,171.5Z" fill="#241f3c"/><polygon points="1301 388.9 1229.1 278.1 1252.3 263.2 1324.3 373.9 1301 388.9" fill="#241f3c"/><path d="M1095.9,442h0a35.8,35.8,0,0,1,10.8-49.7l185.9-119,39.1,60.4L1145.8,452.8A36.2,36.2,0,0,1,1095.9,442Z" fill="#241f3c"/><path d="M1315.7,391l201.1-148.1a60.5,60.5,0,0,0,14.8-81.7h0a61.1,61.1,0,0,0-81-19.7L1233.2,264Z" fill="#48c6c6"/><path d="M1501.6,226.9a39.1,39.1,0,0,1-54-11.4,38.7,38.7,0,0,1,11.5-53.7,39.1,39.1,0,0,1,54,11.4A38.7,38.7,0,0,1,1501.6,226.9ZM1468,175.5a22.5,22.5,0,1,0,31.3,6.6A22.7,22.7,0,0,0,1468,175.5Z" fill="#241f3c"/><path d="M1190,1037.8h0c-60.2-23.9-89.6-91.7-65.6-151.6l108.7-271.7c24-59.8,92.2-89,152.4-65.2h0c60.1,23.8,89.5,91.7,65.5,151.5L1342.3,972.5C1318.4,1032.4,1250.2,1061.6,1190,1037.8Z" fill="#3ca6a6"/><path d="M1422.1,735.6h0a117.8,117.8,0,0,1-165.5-11.7L1064,503a116.3,116.3,0,0,1,11.8-164.6h0a117.7,117.7,0,0,1,165.4,11.7l192.6,221A116.1,116.1,0,0,1,1422.1,735.6Z" fill="#41b3b3"/><path d="M1107.7,375a61.1,61.1,0,0,0-6.2,86.6,62,62,0,0,0,87.1,6.2,61.2,61.2,0,0,0,6.2-86.6A61.9,61.9,0,0,0,1107.7,375Zm64.6,74.1a36.8,36.8,0,1,1,3.7-51.8A36.5,36.5,0,0,1,1172.3,449.1Z" fill="#241f3c"/><path d="M1367.5,594.3A61.5,61.5,0,1,0,1402,674,61.8,61.8,0,0,0,1367.5,594.3ZM1331,685.4a36.7,36.7,0,0,1-20.7-47.7,37.1,37.1,0,0,1,48-20.5,36.7,36.7,0,1,1-27.3,68.2Z" fill="#241f3c"/><path d="M1233.3,887.8a61.5,61.5,0,1,0,34.5,79.7A61.8,61.8,0,0,0,1233.3,887.8Zm-36.5,91.1a36.7,36.7,0,0,1-20.7-47.7,37.1,37.1,0,0,1,48-20.5,36.7,36.7,0,1,1-27.3,68.2Z" fill="#241f3c"/><path d="M1212.4,1055.4h14.2a99.5,99.5,0,0,1,99.5,99.5v97.5a0,0,0,0,1,0,0H1113a0,0,0,0,1,0,0v-97.5A99.5,99.5,0,0,1,1212.4,1055.4Z" fill="#241f3c"/><path d="M1189,1123.4a48,48,0,0,0-4.9,68,48.6,48.6,0,0,0,68.4,4.8,48,48,0,0,0,4.8-68A48.5,48.5,0,0,0,1189,1123.4Zm50.7,58.2a29.2,29.2,0,0,1-40.9-2.9,28.7,28.7,0,0,1,2.9-40.7,29.2,29.2,0,0,1,40.9,2.9A28.7,28.7,0,0,1,1239.7,1181.6Z" fill="#48c6c6"/><path d="M1425.7,1355.3H1019v-56.5a52,52,0,0,1,51.9-51.9h302.9a51.9,51.9,0,0,1,51.9,51.9Z" fill="#312a52"/><rect x="952.2" y="1322.1" width="539.7" height="108.42" fill="#241f3c"/></g><path d="M3076.8,1441.6H29.5a5.4,5.4,0,1,1,0-10.7H3076.8a5.4,5.4,0,0,1,0,10.7Z" fill="#2a7373"/><g id="bfa8246c-6f23-49b8-99b9-588801c5e3ac" data-name="Machine"><rect x="168.8" y="716.2" width="252.6" height="221.7" fill="#e68d45"/><rect x="245" y="716.2" width="252.6" height="221.7" fill="#fdb477"/><g style="mix-blend-mode:soft-light"><rect x="350.2" y="716.2" width="27.3" height="44.73" fill="#fff"/></g><rect x="422.6" y="896.7" width="26.3" height="25.09" fill="#e68d45"/><rect x="459" y="896.7" width="26.3" height="25.09" fill="#e68d45"/><rect x="385.9" y="896.7" width="26.3" height="25.09" fill="#e68d45"/><path d="M2554.7,948.6H825.3a74.4,74.4,0,0,0-74.4,74.4h0a74.5,74.5,0,0,0,74.4,74.5H2554.7Z" fill="#48c6c6"/><rect x="1729.7" y="1095" width="16.4" height="13.18" fill="#241f3c"/><rect x="1696.8" y="1095" width="16.4" height="13.18" fill="#241f3c"/><rect x="1762.1" y="937.9" width="16.4" height="13.18" fill="#241f3c"/><rect x="1762.5" y="1095" width="16.4" height="13.18" fill="#241f3c"/><rect x="1729.2" y="937.9" width="16.4" height="13.18" fill="#241f3c"/><rect x="1795.4" y="1095" width="16.4" height="13.18" fill="#241f3c"/><rect x="1828.3" y="1095" width="16.4" height="13.18" fill="#241f3c"/><rect x="1795" y="937.9" width="16.4" height="13.18" fill="#241f3c"/><rect x="1860.7" y="937.9" width="16.4" height="13.18" fill="#241f3c"/><rect x="1827.8" y="937.9" width="16.4" height="13.18" fill="#241f3c"/><rect x="1696.3" y="937.9" width="16.4" height="13.18" fill="#241f3c"/><rect x="1565.3" y="1095" width="16.4" height="13.18" fill="#241f3c"/><rect x="1861.2" y="1095" width="16.4" height="13.18" fill="#241f3c"/><rect x="1532.4" y="1095" width="16.4" height="13.18" fill="#241f3c"/><rect x="1564.8" y="937.9" width="16.4" height="13.18" fill="#241f3c"/><rect x="1663.9" y="1095" width="16.4" height="13.18" fill="#241f3c"/><rect x="1531.9" y="937.9" width="16.4" height="13.18" fill="#241f3c"/><rect x="1499.5" y="1095" width="16.4" height="13.18" fill="#241f3c"/><rect x="1663.4" y="937.9" width="16.4" height="13.18" fill="#241f3c"/><rect x="2255.7" y="1095" width="16.4" height="13.18" fill="#241f3c"/><rect x="1631" y="1095" width="16.4" height="13.18" fill="#241f3c"/><rect x="1630.6" y="937.9" width="16.4" height="13.18" fill="#241f3c"/><rect x="1598.1" y="1095" width="16.4" height="13.18" fill="#241f3c"/><rect x="2025.1" y="937.9" width="16.4" height="13.18" fill="#241f3c"/><rect x="2090.9" y="937.9" width="16.4" height="13.18" fill="#241f3c"/><rect x="2157.1" y="1095" width="16.4" height="13.18" fill="#241f3c"/><rect x="2124.2" y="1095" width="16.4" height="13.18" fill="#241f3c"/><rect x="2123.7" y="937.9" width="16.4" height="13.18" fill="#241f3c"/><rect x="2091.3" y="1095" width="16.4" height="13.18" fill="#241f3c"/><rect x="2156.6" y="937.9" width="16.4" height="13.18" fill="#241f3c"/><rect x="2222.8" y="1095" width="16.4" height="13.18" fill="#241f3c"/><rect x="2189.5" y="937.9" width="16.4" height="13.18" fill="#241f3c"/><rect x="2255.3" y="937.9" width="16.4" height="13.18" fill="#241f3c"/><rect x="2190" y="1095" width="16.4" height="13.18" fill="#241f3c"/><rect x="2222.4" y="937.9" width="16.4" height="13.18" fill="#241f3c"/><rect x="2058" y="937.9" width="16.4" height="13.18" fill="#241f3c"/><rect x="1959.4" y="937.9" width="16.4" height="13.18" fill="#241f3c"/><rect x="1926.9" y="1095" width="16.4" height="13.18" fill="#241f3c"/><rect x="1894.1" y="1095" width="16.4" height="13.18" fill="#241f3c"/><rect x="1926.5" y="937.9" width="16.4" height="13.18" fill="#241f3c"/><rect x="1959.8" y="1095" width="16.4" height="13.18" fill="#241f3c"/><rect x="1893.6" y="937.9" width="16.4" height="13.18" fill="#241f3c"/><rect x="2058.4" y="1095" width="16.4" height="13.18" fill="#241f3c"/><rect x="2025.6" y="1095" width="16.4" height="13.18" fill="#241f3c"/><rect x="1499.1" y="937.9" width="16.4" height="13.18" fill="#241f3c"/><rect x="1992.7" y="1095" width="16.4" height="13.18" fill="#241f3c"/><rect x="1992.2" y="937.9" width="16.4" height="13.18" fill="#241f3c"/><rect x="1597.7" y="937.9" width="16.4" height="13.18" fill="#241f3c"/><rect x="940.6" y="1095" width="16.4" height="13.18" fill="#241f3c"/><rect x="973" y="937.9" width="16.4" height="13.18" fill="#241f3c"/><rect x="874.8" y="1095" width="16.4" height="13.18" fill="#241f3c"/><rect x="907.7" y="1095" width="16.4" height="13.18" fill="#241f3c"/><rect x="973.5" y="1095" width="16.4" height="13.18" fill="#241f3c"/><rect x="907.2" y="937.9" width="16.4" height="13.18" fill="#241f3c"/><rect x="940.1" y="937.9" width="16.4" height="13.18" fill="#241f3c"/><rect x="1039.2" y="1095" width="16.4" height="13.18" fill="#241f3c"/><rect x="1005.9" y="937.9" width="16.4" height="13.18" fill="#241f3c"/><rect x="1071.6" y="937.9" width="16.4" height="13.18" fill="#241f3c"/><rect x="1038.8" y="937.9" width="16.4" height="13.18" fill="#241f3c"/><rect x="1006.3" y="1095" width="16.4" height="13.18" fill="#241f3c"/><rect x="841.9" y="1095" width="16.4" height="13.18" fill="#241f3c"/><rect x="1466.6" y="1095" width="16.4" height="13.18" fill="#241f3c"/><path d="M753.7,1030.7l-13.1,1.3a84.3,84.3,0,0,0,3.8,17.4l12.5-4.1A73.2,73.2,0,0,1,753.7,1030.7Z" fill="#241f3c"/><path d="M795.9,957.4l-5.5-12.1a90.3,90.3,0,0,0-15.3,9l7.8,10.6A69.8,69.8,0,0,1,795.9,957.4Z" fill="#241f3c"/><path d="M771.7,975l-9.8-8.8a86.4,86.4,0,0,0-10.4,14.4l11.4,6.6A80.3,80.3,0,0,1,771.7,975Z" fill="#241f3c"/><path d="M756.8,1000.9l-12.5-4a79.3,79.3,0,0,0-3.7,17.4l13.1,1.3A74,74,0,0,1,756.8,1000.9Z" fill="#241f3c"/><path d="M775.3,1091.9a84.4,84.4,0,0,0,15.4,8.9l5.4-12a75.8,75.8,0,0,1-13-7.5Z" fill="#241f3c"/><rect x="874.4" y="937.9" width="16.4" height="13.18" fill="#241f3c"/><rect x="841.5" y="937.9" width="16.4" height="13.18" fill="#241f3c"/><rect x="1072.1" y="1095" width="16.4" height="13.18" fill="#241f3c"/><path d="M825.1,951V937.9a81.3,81.3,0,0,0-17.7,1.9l2.8,12.9A74.9,74.9,0,0,1,825.1,951Z" fill="#241f3c"/><path d="M810.4,1093.4l-2.8,12.9a81.3,81.3,0,0,0,17.7,1.9h.2V1095h-.2A67.3,67.3,0,0,1,810.4,1093.4Z" fill="#241f3c"/><path d="M751.6,1065.7a86.2,86.2,0,0,0,10.5,14.3l9.8-8.8a69.8,69.8,0,0,1-8.9-12.1Z" fill="#241f3c"/><rect x="1335.1" y="1095" width="16.4" height="13.18" fill="#241f3c"/><rect x="1367.5" y="937.9" width="16.4" height="13.18" fill="#241f3c"/><rect x="1301.8" y="937.9" width="16.4" height="13.18" fill="#241f3c"/><rect x="1302.2" y="1095" width="16.4" height="13.18" fill="#241f3c"/><rect x="1368" y="1095" width="16.4" height="13.18" fill="#241f3c"/><rect x="1334.7" y="937.9" width="16.4" height="13.18" fill="#241f3c"/><rect x="1466.2" y="937.9" width="16.4" height="13.18" fill="#241f3c"/><rect x="1433.8" y="1095" width="16.4" height="13.18" fill="#241f3c"/><rect x="1433.3" y="937.9" width="16.4" height="13.18" fill="#241f3c"/><rect x="1400.4" y="937.9" width="16.4" height="13.18" fill="#241f3c"/><rect x="1400.9" y="1095" width="16.4" height="13.18" fill="#241f3c"/><rect x="1236.5" y="1095" width="16.4" height="13.18" fill="#241f3c"/><rect x="1170.7" y="1095" width="16.4" height="13.18" fill="#241f3c"/><rect x="1170.3" y="937.9" width="16.4" height="13.18" fill="#241f3c"/><rect x="1137.8" y="1095" width="16.4" height="13.18" fill="#241f3c"/><rect x="1105" y="1095" width="16.4" height="13.18" fill="#241f3c"/><rect x="1137.4" y="937.9" width="16.4" height="13.18" fill="#241f3c"/><rect x="1268.9" y="937.9" width="16.4" height="13.18" fill="#241f3c"/><rect x="1203.1" y="937.9" width="16.4" height="13.18" fill="#241f3c"/><rect x="1269.4" y="1095" width="16.4" height="13.18" fill="#241f3c"/><rect x="1104.5" y="937.9" width="16.4" height="13.18" fill="#241f3c"/><rect x="1203.6" y="1095" width="16.4" height="13.18" fill="#241f3c"/><rect x="1236" y="937.9" width="16.4" height="13.18" fill="#241f3c"/><rect x="2353.9" y="937.9" width="16.4" height="13.18" fill="#241f3c"/><rect x="2551.2" y="937.9" width="3.6" height="13.18" fill="#241f3c"/><rect x="2485.4" y="937.9" width="16.4" height="13.18" fill="#241f3c"/><rect x="2551.6" y="1095" width="3.1" height="13.18" fill="#241f3c"/><rect x="2518.3" y="937.9" width="16.4" height="13.18" fill="#241f3c"/><rect x="2485.9" y="1095" width="16.4" height="13.18" fill="#241f3c"/><rect x="2288.1" y="937.9" width="16.4" height="13.18" fill="#241f3c"/><rect x="2354.4" y="1095" width="16.4" height="13.18" fill="#241f3c"/><rect x="2321.5" y="1095" width="16.4" height="13.18" fill="#241f3c"/><rect x="2321" y="937.9" width="16.4" height="13.18" fill="#241f3c"/><rect x="2288.6" y="1095" width="16.4" height="13.18" fill="#241f3c"/><rect x="2420.1" y="1095" width="16.4" height="13.18" fill="#241f3c"/><rect x="2453" y="1095" width="16.4" height="13.18" fill="#241f3c"/><rect x="2452.5" y="937.9" width="16.4" height="13.18" fill="#241f3c"/><rect x="2386.8" y="937.9" width="16.4" height="13.18" fill="#241f3c"/><rect x="2387.2" y="1095" width="16.4" height="13.18" fill="#241f3c"/><rect x="2419.6" y="937.9" width="16.4" height="13.18" fill="#241f3c"/><rect x="2518.7" y="1095" width="16.4" height="13.18" fill="#241f3c"/><path d="M2554.7,1090.9H825.3a67.9,67.9,0,0,1,0-135.7H2554.7V942H825.3a81.1,81.1,0,0,0,0,162.1H2554.7Z" fill="#241f3c"/><path d="M2538.3,1090.9H808.9a67.9,67.9,0,1,1,0-135.7H2538.3V942H808.9a81.1,81.1,0,1,0,0,162.1H2538.3Z" fill="#241f3c"/><path d="M804.3,992.3a38.6,38.6,0,1,0,54.5,3.9A38.7,38.7,0,0,0,804.3,992.3Zm40.4,46.7a23.1,23.1,0,1,1,2.3-32.6A23.1,23.1,0,0,1,844.7,1039Z" fill="#312a52"/><path d="M1207.5,992.3a38.7,38.7,0,1,0,54.6,3.9A38.7,38.7,0,0,0,1207.5,992.3ZM1248,1039a23.1,23.1,0,1,1,2.3-32.6A23.1,23.1,0,0,1,1248,1039Z" fill="#312a52"/><path d="M1610.8,992.3a38.7,38.7,0,1,0,54.6,3.9A38.7,38.7,0,0,0,1610.8,992.3Zm40.5,46.7a23.1,23.1,0,1,1,2.3-32.6A23.1,23.1,0,0,1,1651.3,1039Z" fill="#312a52"/><path d="M2014.1,992.3a38.7,38.7,0,1,0,54.5,3.9A38.8,38.8,0,0,0,2014.1,992.3Zm40.5,46.7a23.1,23.1,0,1,1,2.3-32.6A23.1,23.1,0,0,1,2054.6,1039Z" fill="#312a52"/><path d="M2417.4,992.3a38.7,38.7,0,1,0,54.5,3.9A38.8,38.8,0,0,0,2417.4,992.3Zm40.5,46.7a23.1,23.1,0,1,1,2.3-32.6A23.1,23.1,0,0,1,2457.9,1039Z" fill="#312a52"/><rect y="948.6" width="659.5" height="148.89" fill="#48c6c6"/><rect x="360.5" y="1095" width="16.4" height="13.18" fill="#241f3c"/><rect x="129.9" y="937.9" width="16.4" height="13.18" fill="#241f3c"/><rect x="195.7" y="937.9" width="16.4" height="13.18" fill="#241f3c"/><rect x="261.9" y="1095" width="16.4" height="13.18" fill="#241f3c"/><rect x="229" y="1095" width="16.4" height="13.18" fill="#241f3c"/><rect x="228.6" y="937.9" width="16.4" height="13.18" fill="#241f3c"/><rect x="196.2" y="1095" width="16.4" height="13.18" fill="#241f3c"/><rect x="261.4" y="937.9" width="16.4" height="13.18" fill="#241f3c"/><rect x="327.7" y="1095" width="16.4" height="13.18" fill="#241f3c"/><rect x="294.3" y="937.9" width="16.4" height="13.18" fill="#241f3c"/><rect x="360.1" y="937.9" width="16.4" height="13.18" fill="#241f3c"/><rect x="294.8" y="1095" width="16.4" height="13.18" fill="#241f3c"/><rect x="327.2" y="937.9" width="16.4" height="13.18" fill="#241f3c"/><rect x="162.8" y="937.9" width="16.4" height="13.18" fill="#241f3c"/><rect x="64.2" y="937.9" width="16.4" height="13.18" fill="#241f3c"/><rect x="31.8" y="1095" width="16.4" height="13.18" fill="#241f3c"/><rect y="1095" width="15.3" height="13.18" fill="#241f3c"/><rect x="31.3" y="937.9" width="16.4" height="13.18" fill="#241f3c"/><rect x="64.6" y="1095" width="16.4" height="13.18" fill="#241f3c"/><rect y="937.9" width="14.9" height="13.18" fill="#241f3c"/><rect x="163.3" y="1095" width="16.4" height="13.18" fill="#241f3c"/><rect x="130.4" y="1095" width="16.4" height="13.18" fill="#241f3c"/><rect x="97.5" y="1095" width="16.4" height="13.18" fill="#241f3c"/><rect x="97.1" y="937.9" width="16.4" height="13.18" fill="#241f3c"/><rect x="458.7" y="937.9" width="16.4" height="13.18" fill="#241f3c"/><rect x="656" y="937.9" width="3.6" height="13.18" fill="#241f3c"/><rect x="590.2" y="937.9" width="16.4" height="13.18" fill="#241f3c"/><rect x="656.5" y="1095" width="3.1" height="13.18" fill="#241f3c"/><rect x="623.1" y="937.9" width="16.4" height="13.18" fill="#241f3c"/><rect x="590.7" y="1095" width="16.4" height="13.18" fill="#241f3c"/><rect x="393" y="937.9" width="16.4" height="13.18" fill="#241f3c"/><rect x="459.2" y="1095" width="16.4" height="13.18" fill="#241f3c"/><rect x="426.3" y="1095" width="16.4" height="13.18" fill="#241f3c"/><rect x="425.8" y="937.9" width="16.4" height="13.18" fill="#241f3c"/><rect x="393.4" y="1095" width="16.4" height="13.18" fill="#241f3c"/><rect x="524.9" y="1095" width="16.4" height="13.18" fill="#241f3c"/><rect x="557.8" y="1095" width="16.4" height="13.18" fill="#241f3c"/><rect x="557.4" y="937.9" width="16.4" height="13.18" fill="#241f3c"/><rect x="491.6" y="937.9" width="16.4" height="13.18" fill="#241f3c"/><rect x="492.1" y="1095" width="16.4" height="13.18" fill="#241f3c"/><rect x="524.5" y="937.9" width="16.4" height="13.18" fill="#241f3c"/><rect x="623.6" y="1095" width="16.4" height="13.18" fill="#241f3c"/><rect y="1090.9" width="659.5" height="13.18" fill="#241f3c"/><rect y="942" width="659.5" height="13.18" fill="#241f3c"/><rect y="1090.9" width="643.1" height="13.18" fill="#241f3c"/><rect y="942" width="643.1" height="13.18" fill="#241f3c"/><path d="M119,992.3a38.6,38.6,0,1,0,54.5,3.9A38.7,38.7,0,0,0,119,992.3Zm40.4,46.7a23.1,23.1,0,1,1,2.3-32.6A23.1,23.1,0,0,1,159.4,1039Z" fill="#312a52"/><path d="M522.2,992.3a38.7,38.7,0,1,0,54.6,3.9A38.7,38.7,0,0,0,522.2,992.3Zm40.5,46.7a23.1,23.1,0,1,1,2.3-32.6A23.1,23.1,0,0,1,562.7,1039Z" fill="#312a52"/><rect y="1092.7" width="659.6" height="32.37" fill="#312a52"/><polygon points="266.2 937.7 266.2 1125.3 199.7 1125.3 245 937.9 266.2 937.7" fill="#312a52"/><path d="M2554.8,1092.7H660.6a16.2,16.2,0,0,0,0,32.4H2554.8Z" fill="#312a52"/><rect x="694.6" y="559.1" width="361.6" height="878.18" fill="#3d3466"/><rect x="694.6" y="559.1" width="288.5" height="878.18" fill="#241f3c"/><rect x="309.3" y="312.9" width="604.9" height="45.4" fill="#338c8c"/><circle cx="411.9" cy="313.6" r="25.4" transform="translate(-101.1 383.1) rotate(-45)" fill="#338c8c"/><path d="M963.6,1437.2V375.1A30.6,30.6,0,0,0,933,344.5H297.6A30.6,30.6,0,0,0,267,375.1V1437.2Z" fill="#48c6c6"/><rect x="315.5" y="1177.9" width="23.9" height="189.65" fill="#312a52"/><rect x="361.9" y="1177.9" width="23.9" height="189.65" fill="#312a52"/><rect x="408.4" y="1177.9" width="23.9" height="189.65" fill="#312a52"/><rect x="454.9" y="1177.9" width="23.9" height="189.65" fill="#312a52"/><rect x="501.4" y="1177.9" width="23.9" height="189.65" fill="#312a52"/><rect x="547.8" y="1177.9" width="23.9" height="189.65" fill="#312a52"/><rect x="594.3" y="1177.9" width="23.9" height="189.65" fill="#312a52"/><rect x="311" y="394.6" width="607.3" height="646.53" fill="#cffafa"/><circle cx="508.5" cy="792.8" r="75.1" fill="#48c6c6"/><path d="M457,748.9,482.5,773a32.8,32.8,0,0,0-7.2,20.1h-35A67.5,67.5,0,0,1,457,748.9Z" fill="#82eded"/><path d="M462.8,743A67.6,67.6,0,0,1,507,725.4l-.5,35.1a32.8,32.8,0,0,0-18.1,6.7Z" fill="#82eded"/><path d="M555.2,743.8,530,768.3a33.2,33.2,0,0,0-15.2-7.3l.4-35.3A68.2,68.2,0,0,1,555.2,743.8Z" fill="#82eded"/><path d="M576.7,793.1h-35a32.6,32.6,0,0,0-6.1-18.7l25.2-24.6A67.4,67.4,0,0,1,576.7,793.1Z" fill="#82eded"/><polygon points="487.4 739.1 515.1 786.9 502.1 792.4 487.4 739.1" fill="#268080"/><path d="M519,785.8a11.1,11.1,0,1,1-14.5-5.9A11.1,11.1,0,0,1,519,785.8Z" fill="#268080"/><circle cx="719.8" cy="792.8" r="75.1" fill="#48c6c6"/><path d="M668.3,748.9,693.8,773a32.8,32.8,0,0,0-7.2,20.1h-35A67.5,67.5,0,0,1,668.3,748.9Z" fill="#82eded"/><path d="M674.1,743a67.6,67.6,0,0,1,44.2-17.6l-.5,35.1a32.8,32.8,0,0,0-18.1,6.7Z" fill="#82eded"/><path d="M766.5,743.8l-25.1,24.5a34,34,0,0,0-15.3-7.3l.5-35.3A67.9,67.9,0,0,1,766.5,743.8Z" fill="#82eded"/><path d="M788.1,793.1H753a32.6,32.6,0,0,0-6.1-18.7l25.3-24.6A68.5,68.5,0,0,1,788.1,793.1Z" fill="#82eded"/><polygon points="773.5 775.6 722.5 796.8 718.8 783.2 773.5 775.6" fill="#268080"/><circle cx="720.1" cy="790.1" r="11.1" transform="translate(-261.9 1212.7) rotate(-70.9)" fill="#268080"/><rect x="388" y="478.8" width="447.6" height="168.27" fill="#48c6c6"/><rect x="527.4" y="598.5" width="36.2" height="23.75" fill="#82eded"/><rect x="527.4" y="570.5" width="36.2" height="23.75" fill="#82eded"/><rect x="527.4" y="542.4" width="36.2" height="23.75" fill="#82eded"/><rect x="527.4" y="514.4" width="36.2" height="23.75" fill="#82eded"/><rect x="569.3" y="598.5" width="36.2" height="23.75" fill="#82eded"/><rect x="569.3" y="570.5" width="36.2" height="23.75" fill="#82eded"/><rect x="569.3" y="542.4" width="36.2" height="23.75" fill="#82eded"/><rect x="696.2" y="598.5" width="36.2" height="23.75" fill="#82eded"/><rect x="696.2" y="570.5" width="36.2" height="23.75" fill="#82eded"/><rect x="696.2" y="542.4" width="36.2" height="23.75" fill="#82eded"/><rect x="611.9" y="598.5" width="36.2" height="23.75" fill="#82eded"/><rect x="611.9" y="570.5" width="36.2" height="23.75" fill="#82eded"/><rect x="611.9" y="542.4" width="36.2" height="23.75" fill="#82eded"/><rect x="611.9" y="514.4" width="36.2" height="23.75" fill="#82eded"/><rect x="653.7" y="598.5" width="36.2" height="23.75" fill="#82eded"/><rect x="443" y="598.5" width="36.2" height="23.75" fill="#82eded"/><rect x="653.7" y="570.5" width="36.2" height="23.75" fill="#82eded"/><rect x="485.6" y="598.5" width="36.2" height="23.75" fill="#82eded"/><rect x="485.6" y="570.5" width="36.2" height="23.75" fill="#82eded"/><rect x="737.5" y="598.5" width="36.2" height="23.75" fill="#82eded"/><rect x="737.5" y="570.5" width="36.2" height="23.75" fill="#82eded"/><rect x="446.8" y="932.5" width="40.8" height="40.81" fill="#48c6c6"/><rect x="508.3" y="932.5" width="40.8" height="40.81" fill="#48c6c6"/><rect x="569.9" y="932.5" width="40.8" height="40.81" fill="#48c6c6"/><rect x="631.5" y="932.5" width="40.8" height="40.81" fill="#48c6c6"/><rect x="693.1" y="932.5" width="40.8" height="40.81" fill="#48c6c6"/><rect x="754.7" y="932.5" width="40.8" height="40.81" fill="#48c6c6"/><rect x="1310.1" y="716.2" width="252.6" height="221.7" fill="#e68d45"/><rect x="1386.2" y="716.2" width="252.6" height="221.7" fill="#fdb477"/><g style="mix-blend-mode:soft-light"><rect x="1491.5" y="716.2" width="27.3" height="44.73" fill="#fff"/></g><rect x="1563.9" y="896.7" width="26.3" height="25.09" fill="#e68d45"/><rect x="1600.3" y="896.7" width="26.3" height="25.09" fill="#e68d45"/><rect x="1527.2" y="896.7" width="26.3" height="25.09" fill="#e68d45"/><rect x="1766.2" y="716.2" width="252.6" height="221.7" fill="#e68d45"/><rect x="1842.3" y="716.2" width="252.6" height="221.7" fill="#fdb477"/><g style="mix-blend-mode:soft-light"><rect x="1947.5" y="716.2" width="27.3" height="44.73" fill="#fff"/></g><rect x="2019.9" y="896.7" width="26.3" height="25.09" fill="#e68d45"/><rect x="2056.3" y="896.7" width="26.3" height="25.09" fill="#e68d45"/><rect x="1983.3" y="896.7" width="26.3" height="25.09" fill="#e68d45"/><circle cx="413.5" cy="243.8" r="22.8" fill="#a3eefa"/><path d="M332.6,172.2l-9.6-11c54.3-54.6,139-52.6,190.7,4.5l-10.2,10.5C457.2,125.3,381.4,123.5,332.6,172.2Z" fill="#a3eefa"/><path d="M352.8,195.1l-9.7-11c42.6-42.5,108.8-40.9,149.4,3.5l-10.2,10.5C447,159.8,389.8,158.5,352.8,195.1Z" fill="#a3eefa"/><path d="M372.3,217.3l-9.7-11c31.3-30.8,79.5-29.7,109.4,2.5l-10.3,10.5C437.2,193.2,397.9,192.3,372.3,217.3Z" fill="#a3eefa"/><circle cx="1976.5" cy="559.6" r="74.2" transform="translate(183.2 1561.5) rotate(-45)" fill="#48c6aa"/><path d="M1959.2,598.6a10.9,10.9,0,0,1-7.6-3.2L1928.2,572a10.8,10.8,0,0,1,15.2-15.3l15.8,15.8,47-46.9a10.7,10.7,0,1,1,15.2,15.2l-54.5,54.6A11.2,11.2,0,0,1,1959.2,598.6Z" fill="#fff"/><circle cx="1976.5" cy="328.3" r="74.2" transform="translate(1202.8 2176.5) rotate(-76.7)" fill="#48c6aa"/><path d="M1959.2,367.3a10.9,10.9,0,0,1-7.6-3.2l-23.4-23.4a10.8,10.8,0,0,1,15.2-15.3l15.8,15.8,47-46.9a10.7,10.7,0,1,1,15.2,15.2l-54.5,54.6A11.2,11.2,0,0,1,1959.2,367.3Z" fill="#fff"/><rect x="2222.2" y="716.2" width="252.6" height="221.7" fill="#e68d45"/><rect x="2298.3" y="716.2" width="252.6" height="221.7" fill="#fdb477"/><g style="mix-blend-mode:soft-light"><rect x="2403.6" y="716.2" width="27.3" height="44.73" fill="#fff"/></g><rect x="2476" y="896.7" width="26.3" height="25.09" fill="#e68d45"/><rect x="2512.4" y="896.7" width="26.3" height="25.09" fill="#e68d45"/><rect x="2439.3" y="896.7" width="26.3" height="25.09" fill="#e68d45"/></g></g></g></g></svg>