<?xml version="1.0"?>
<svg xmlns="http://www.w3.org/2000/svg" xmlns:xlink="http://www.w3.org/1999/xlink" xmlns:svgjs="http://svgjs.com/svgjs" version="1.1" width="512" height="512" x="0" y="0" viewBox="0 0 512 512" style="enable-background:new 0 0 512 512" xml:space="preserve" class=""><g><g xmlns="http://www.w3.org/2000/svg" id="outline_edit" data-name="outline edit"><path d="m492.8 353.6-30-22.5-11.563-34.69a23.97 23.97 0 0 0 -22.769-16.41h-60.468v-56a8 8 0 0 0 -8-8h-336a8 8 0 0 0 -8 8v208a8 8 0 0 0 8 8h24.805a40 40 0 0 0 78.39 0h257.61a40 40 0 0 0 78.39 0h24.805a8 8 0 0 0 8-8v-72a8 8 0 0 0 -3.2-6.4zm-56.742-52.13 8.842 26.53h-44.9v-32h28.468a7.99 7.99 0 0 1 7.59 5.47zm-84.058-69.47v160h-320v-160zm-320 176h24.026a39.847 39.847 0 0 0 -7.216 16h-16.81zm56 48a24 24 0 1 1 24-24 24.028 24.028 0 0 1 -24 24zm39.18-32a39.84 39.84 0 0 0 -7.2-16h232.02v16zm296.82 32a24 24 0 1 1 24-24 24.028 24.028 0 0 1 -24 24zm56-32h-16.8a40 40 0 0 0 -78.39 0h-16.81v-128h16v40a8 8 0 0 0 8 8h61.334l26.666 20z" fill="#ffffff" data-original="#000000" style=""/><path d="m184 376h96a8 8 0 0 0 8-8v-96a8 8 0 0 0 -8-8h-96a8 8 0 0 0 -8 8v96a8 8 0 0 0 8 8zm56-96v16h-16v-16zm-48 0h16v24a8 8 0 0 0 8 8h32a8 8 0 0 0 8-8v-24h16v80h-80z" fill="#ffffff" data-original="#000000" style=""/><path d="m136 280h24v16h-24z" fill="#ffffff" data-original="#000000" style=""/><path d="m112 312h48v16h-48z" fill="#ffffff" data-original="#000000" style=""/><path d="m128 344h32v16h-32z" fill="#ffffff" data-original="#000000" style=""/><path d="m96 280h24v16h-24z" fill="#ffffff" data-original="#000000" style=""/><path d="m254.563 56a71.974 71.974 0 0 1 21.6 3.3l4.8-15.265a88.1 88.1 0 0 0 -99.615 35.145l13.3 8.888a71.933 71.933 0 0 1 59.915-32.068z" fill="#ffffff" data-original="#000000" style=""/><path d="m305.813 77.456a48.273 48.273 0 0 0 -12.865 9.8 56.026 56.026 0 0 0 -47.71-14.483l2.651 15.78a40.037 40.037 0 0 1 36.082 12.354 47.71 47.71 0 0 0 -3.971 19.093 46.318 46.318 0 0 0 13.657 32.97l28.686 28.687a8 8 0 0 0 11.314 0l28.686-28.687a46.318 46.318 0 0 0 13.657-32.97 47.949 47.949 0 0 0 -53.331-47.7 87.773 87.773 0 0 0 -24.1-20.52l-8.014 13.848a71.928 71.928 0 0 1 15.258 11.828zm54.187 42.544a30.43 30.43 0 0 1 -8.97 21.657l-23.03 23.03-23.03-23.03a30.43 30.43 0 0 1 -8.97-21.657 32 32 0 0 1 64 0z" fill="#ffffff" data-original="#000000" style=""/><path d="m207.973 96.931 13.3 8.887a40.432 40.432 0 0 1 13.293-12.469l-8.01-13.849a56.524 56.524 0 0 0 -18.583 17.431z" fill="#ffffff" data-original="#000000" style=""/><path d="m254.563 104a23.966 23.966 0 0 0 -19.963 10.682l13.305 8.888a7.981 7.981 0 0 1 13.509.329l13.711-8.245a24.126 24.126 0 0 0 -20.562-11.654z" fill="#ffffff" data-original="#000000" style=""/><path d="m248 136h16v16h-16z" fill="#ffffff" data-original="#000000" style=""/><path d="m248 168h16v32h-16z" fill="#ffffff" data-original="#000000" style=""/><path d="m392 360h32v16h-32z" fill="#ffffff" data-original="#000000" style=""/><path d="m328 144a24 24 0 1 0 -24-24 24.027 24.027 0 0 0 24 24zm0-32a8 8 0 1 1 -8 8 8.009 8.009 0 0 1 8-8z" fill="#ffffff" data-original="#000000" style=""/></g></g></svg>
