<?xml version="1.0"?>
<svg xmlns="http://www.w3.org/2000/svg" xmlns:xlink="http://www.w3.org/1999/xlink" xmlns:svgjs="http://svgjs.com/svgjs" version="1.1" width="512" height="512" x="0" y="0" viewBox="0 0 512 512" style="enable-background:new 0 0 512 512" xml:space="preserve" class=""><g><path xmlns="http://www.w3.org/2000/svg" d="m272.652344 110.414062v18.921876h-72.636719v254.75h78.957031v-15h-63.957031v-224.75h76.457031v96.34375h15v-111.34375h-18.820312v-18.921876zm0 0" fill="#ffffff" data-original="#000000" style=""/><path xmlns="http://www.w3.org/2000/svg" d="m226.332031 168.75h53.820313v15h-53.820313zm0 0" fill="#ffffff" data-original="#000000" style=""/><path xmlns="http://www.w3.org/2000/svg" d="m398.53125 263.851562-53.527344-46.839843-53.53125 46.839843v120.234376h141.558594v-15h-34.5zm-15 105.234376h-77.058594v-98.429688l38.53125-33.710938 38.527344 33.710938zm0 0" fill="#ffffff" data-original="#000000" style=""/><path xmlns="http://www.w3.org/2000/svg" d="m142.671875 233.210938h15v120.109374h-15zm0 0" fill="#ffffff" data-original="#000000" style=""/><path xmlns="http://www.w3.org/2000/svg" d="m226.332031 197.996094h53.820313v15h-53.820313zm0 0" fill="#ffffff" data-original="#000000" style=""/><path xmlns="http://www.w3.org/2000/svg" d="m226.332031 227.246094h53.820313v15h-53.820313zm0 0" fill="#ffffff" data-original="#000000" style=""/><path xmlns="http://www.w3.org/2000/svg" d="m226.332031 256.496094h53.820313v15h-53.820313zm0 0" fill="#ffffff" data-original="#000000" style=""/><path xmlns="http://www.w3.org/2000/svg" d="m226.332031 285.742188h53.820313v15h-53.820313zm0 0" fill="#ffffff" data-original="#000000" style=""/><path xmlns="http://www.w3.org/2000/svg" d="m320.828125 285.730469h16.585937v15h-16.585937zm0 0" fill="#ffffff" data-original="#000000" style=""/><path xmlns="http://www.w3.org/2000/svg" d="m352.113281 285.730469h16.585938v15h-16.585938zm0 0" fill="#ffffff" data-original="#000000" style=""/><path xmlns="http://www.w3.org/2000/svg" d="m320.828125 315.769531h16.585937v15h-16.585937zm0 0" fill="#ffffff" data-original="#000000" style=""/><path xmlns="http://www.w3.org/2000/svg" d="m352.113281 315.769531h16.585938v15h-16.585938zm0 0" fill="#ffffff" data-original="#000000" style=""/><path xmlns="http://www.w3.org/2000/svg" d="m263.496094 428.570312v-31.984374h-15v31.984374c-12.605469 3.324219-21.925782 14.824219-21.925782 28.457032 0 16.226562 13.199219 29.429687 29.425782 29.429687 16.226562 0 29.425781-13.203125 29.425781-29.429687 0-13.632813-9.320313-25.132813-21.925781-28.457032zm-7.5 42.882813c-7.953125 0-14.425782-6.46875-14.425782-14.425781 0-7.953125 6.472657-14.425782 14.425782-14.425782s14.425781 6.472657 14.425781 14.425782c0 7.957031-6.472656 14.425781-14.425781 14.425781zm0 0" fill="#ffffff" data-original="#000000" style=""/><path xmlns="http://www.w3.org/2000/svg" d="m346.191406 454.117188v-31.914063l-30.917968-30.921875-10.609376 10.605469 26.527344 26.527343v25.699219c-12.601562 3.328125-21.925781 14.824219-21.925781 28.457031 0 16.226563 13.203125 29.429688 29.425781 29.429688 16.226563 0 29.429688-13.203125 29.429688-29.429688 0-13.632812-9.324219-25.128906-21.929688-28.453124zm-7.5 42.882812c-7.953125 0-14.425781-6.472656-14.425781-14.425781 0-7.957031 6.472656-14.425781 14.425781-14.425781 7.957032 0 14.429688 6.46875 14.429688 14.425781 0 7.953125-6.472656 14.425781-14.429688 14.425781zm0 0" fill="#ffffff" data-original="#000000" style=""/><path xmlns="http://www.w3.org/2000/svg" d="m207.328125 401.890625-10.605469-10.609375-30.921875 30.921875v31.914063c-12.605469 3.324218-21.925781 14.820312-21.925781 28.457031 0 16.226562 13.199219 29.425781 29.425781 29.425781 16.226563 0 29.425781-13.199219 29.425781-29.425781 0-13.636719-9.320312-25.132813-21.925781-28.457031v-25.703126zm-19.601563 80.683594c0 7.953125-6.472656 14.425781-14.425781 14.425781s-14.425781-6.472656-14.425781-14.425781c0-7.957031 6.472656-14.425781 14.425781-14.425781s14.425781 6.46875 14.425781 14.425781zm0 0" fill="#ffffff" data-original="#000000" style=""/><path xmlns="http://www.w3.org/2000/svg" d="m418.355469 122.011719c-3.167969-67.8125-59.332031-122.011719-127.914063-122.011719-52.328125 0-97.203125 31.347656-117.039062 76.03125-34.226563-13.257812-71.292969 9.644531-75.546875 45.382812-55.382813 6.882813-97.855469 54.355469-97.855469 110.882813 0 57.445313 43.539062 105.332031 100.199219 111.152344l1.535156-14.921875c-49.449219-5.078125-86.734375-46.449219-86.734375-96.230469 0-50.878906 39.730469-93.28125 90.449219-96.535156l7.109375-.457031c-.003906-.335938-.089844-7.007813-.097656-7.339844.046874-22.453125 18.324218-40.703125 40.789062-40.703125 7.144531 0 14.179688 1.886719 20.351562 5.449219l7.699219 4.445312 3.085938-8.339844c16.339843-44.152344 58.960937-73.816406 106.054687-73.816406 62.335938 0 113.050782 50.714844 113.050782 113.050781l-.042969 7.316407 6.773437.691406c49.472656 5.058594 86.777344 46.429687 86.777344 96.234375 0 49.785156-37.289062 91.15625-86.734375 96.234375l1.53125 14.921875c56.621094-5.8125 100.203125-53.664063 100.203125-111.152344 0-55.003906-39.988281-101.535156-93.644531-110.285156zm0 0" fill="#ffffff" data-original="#000000" style=""/><path xmlns="http://www.w3.org/2000/svg" d="m187.515625 384.085938v-15h-59.046875v-146.386719l62.300781-30.050781-6.511719-13.507813-70.789062 34.140625v155.804688h-34.5v15zm0 0" fill="#ffffff" data-original="#000000" style=""/><path xmlns="http://www.w3.org/2000/svg" d="m425.519531 315.289062-4.375-14.347656c14.71875-4.492187 27.867188-13.847656 37.023438-26.347656l12.101562 8.867188c-11.0625 15.097656-26.953125 26.398437-44.75 31.828124zm50.644531-41.039062-13.117187-7.277344c2.195313-3.953125 4.019531-8.132812 5.421875-12.421875l14.253906 4.664063c-1.699218 5.191406-3.90625 10.253906-6.558594 15.035156zm9.296876-25.640625-14.734376-2.8125c.84375-4.421875 1.273438-8.964844 1.273438-13.5h15c0 5.476563-.519531 10.96875-1.539062 16.3125zm0 0" fill="#ffffff" data-original="#000000" style=""/><path xmlns="http://www.w3.org/2000/svg" d="m185.808594 353.320312h-15v-70.109374h15zm0-80.109374h-15v-15h15zm0-25h-15v-15h15zm0 0" fill="#ffffff" data-original="#000000" style=""/></g></svg>
