<svg xmlns="http://www.w3.org/2000/svg" viewBox="0 0 919 1173.2"><title>7</title><g id="e9fad1f7-10b9-4e4d-8e9a-400ce080974a" data-name="Layer 2"><g id="bb34e534-ac5f-4439-a62d-263a94b4697e" data-name="BLACK"><path d="M681.3,824.3a74.5,74.5,0,0,0-48.4-21.6L665,770.6a82.4,82.4,0,0,0-59.8-140.7,82.4,82.4,0,0,0-67.7-128.3L675.2,363.9A82.5,82.5,0,1,0,558.5,247.2l-372.9,373V502.6A92.8,92.8,0,0,0,0,502.6V863.9a308.2,308.2,0,0,0,90.6,218.7c120.7,120.8,316.6,120.8,437.3,0L681.3,929.3A74.4,74.4,0,0,0,681.3,824.3ZM488.6,1074.1A276.3,276.3,0,0,1,33,863.9V502.6a59.8,59.8,0,0,1,119.6,0V650.2a20.3,20.3,0,0,0,6,14.5,20.6,20.6,0,0,0,29.2-.1l394.1-394a49.5,49.5,0,0,1,70,69.9L340.4,652a20.6,20.6,0,1,0,29.1,29.2L501.7,549a49.5,49.5,0,1,1,70,70L454.3,736.3a20.6,20.6,0,1,0,29.2,29.2l88.2-88.2a49.5,49.5,0,1,1,69.9,70l-103,103a20.6,20.6,0,0,0,29.2,29.2l31.8-31.9A41.3,41.3,0,0,1,658,905.9Z" fill="#fff"/><circle cx="787.4" cy="135" r="16.5" fill="#fff"/><circle cx="746.6" cy="175.8" r="12.4" fill="#fff"/><circle cx="713.1" cy="209.3" r="8.2" fill="#fff"/><circle cx="819.2" cy="174.2" r="16.5" fill="#fff"/><circle cx="770.8" cy="205.6" r="12.4" fill="#fff"/><circle cx="731" cy="231.4" r="8.2" fill="#fff"/><circle cx="842.1" cy="219.1" r="16.5" fill="#fff"/><circle cx="788.2" cy="239.8" r="12.4" fill="#fff"/><circle cx="743.9" cy="256.8" r="8.2" fill="#fff"/><circle cx="855.1" cy="267.8" r="16.5" fill="#fff"/><circle cx="798.1" cy="276.8" r="12.4" fill="#fff"/><circle cx="751.3" cy="284.3" r="8.2" fill="#fff"/><circle cx="857.8" cy="318.2" r="16.5" fill="#fff"/><circle cx="800.1" cy="315.2" r="12.4" fill="#fff"/><circle cx="752.7" cy="312.7" r="8.2" fill="#fff"/><circle cx="849.9" cy="368" r="16.5" fill="#fff"/><circle cx="794.1" cy="353" r="12.4" fill="#fff"/><circle cx="748.3" cy="340.8" r="8.2" fill="#fff"/><circle cx="831.8" cy="415.1" r="16.5" fill="#fff"/><circle cx="780.4" cy="388.9" r="12.4" fill="#fff"/><circle cx="738.1" cy="367.3" r="8.2" fill="#fff"/><circle cx="804.3" cy="457.4" r="16.5" fill="#fff"/><circle cx="759.5" cy="421" r="12.4" fill="#fff"/><circle cx="722.6" cy="391.2" r="8.2" fill="#fff"/><circle cx="768.7" cy="493" r="16.5" fill="#fff"/><circle cx="732.3" cy="448.2" r="12.4" fill="#fff"/><circle cx="702.5" cy="411.3" r="8.2" fill="#fff"/><circle cx="726.4" cy="520.5" r="16.5" fill="#fff"/><circle cx="700.2" cy="469" r="12.4" fill="#fff"/><circle cx="678.6" cy="426.8" r="8.2" fill="#fff"/><circle cx="679.3" cy="538.6" r="16.5" fill="#fff"/><circle cx="664.4" cy="482.8" r="12.4" fill="#fff"/><circle cx="652.1" cy="437" r="8.2" fill="#fff"/><circle cx="748.2" cy="103.2" r="16.5" fill="#fff"/><circle cx="716.8" cy="151.7" r="12.4" fill="#fff"/><circle cx="691" cy="191.4" r="8.2" fill="#fff"/><circle cx="703.3" cy="80.4" r="16.5" fill="#fff"/><circle cx="682.6" cy="134.2" r="12.4" fill="#fff"/><circle cx="665.6" cy="178.5" r="8.2" fill="#fff"/><circle cx="654.6" cy="67.3" r="16.5" fill="#fff"/><circle cx="645.6" cy="124.3" r="12.4" fill="#fff"/><circle cx="638.1" cy="171.2" r="8.2" fill="#fff"/><circle cx="604.2" cy="64.7" r="16.5" fill="#fff"/><circle cx="607.3" cy="122.3" r="12.4" fill="#fff"/><circle cx="609.7" cy="169.7" r="8.2" fill="#fff"/><circle cx="554.4" cy="72.6" r="16.5" fill="#fff"/><circle cx="569.4" cy="128.3" r="12.4" fill="#fff"/><circle cx="581.6" cy="174.1" r="8.2" fill="#fff"/><circle cx="507.4" cy="90.6" r="16.5" fill="#fff"/><circle cx="533.6" cy="142.1" r="12.4" fill="#fff"/><circle cx="555.1" cy="184.3" r="8.2" fill="#fff"/><circle cx="465.1" cy="118.1" r="16.5" fill="#fff"/><circle cx="501.4" cy="163" r="12.4" fill="#fff"/><circle cx="531.2" cy="199.8" r="8.2" fill="#fff"/><circle cx="429.4" cy="153.7" r="16.5" fill="#fff"/><circle cx="474.3" cy="190.1" r="12.4" fill="#fff"/><circle cx="511.1" cy="219.9" r="8.2" fill="#fff"/><circle cx="401.9" cy="196" r="16.5" fill="#fff"/><circle cx="453.4" cy="222.2" r="12.4" fill="#fff"/><circle cx="495.6" cy="243.8" r="8.2" fill="#fff"/><circle cx="383.9" cy="243.1" r="16.5" fill="#fff"/><circle cx="439.6" cy="258.1" r="12.4" fill="#fff"/><circle cx="485.4" cy="270.3" r="8.2" fill="#fff"/><line x1="319.4" y1="11.3" x2="906.3" y2="598.2" fill="#fff" stroke="#fff" stroke-miterlimit="10" stroke-width="30"/><line x1="321.6" y1="597.4" x2="908.4" y2="10.6" fill="#fff" stroke="#fff" stroke-miterlimit="10" stroke-width="30"/></g></g></svg>