<svg xmlns="http://www.w3.org/2000/svg" viewBox="0 0 2412.6 1024.5"><title>8</title><g id="e3bfc15e-b072-4840-9732-48d4d507be0e" data-name="Layer 2"><g id="abc757e1-fefb-479c-8360-803627713b66" data-name="—ÎÓÈ_3"><path d="M678.8,380.8l-13.7,1.6C673,381.3,677.6,380.9,678.8,380.8Z" fill="#64b9f9"/><rect x="1289.2" y="339.3" width="128.7" height="41.53" rx="20.8" fill="#fff"/><path d="M1645.9,339.3h-93.4a14.8,14.8,0,0,0-14.6,14.6v12.4a14.8,14.8,0,0,0,14.6,14.6h93.4a20.8,20.8,0,0,0,20.7-20.8h0A20.8,20.8,0,0,0,1645.9,339.3Z" fill="#fff"/><rect x="1786.6" y="339.3" width="128.7" height="41.53" rx="20.8" fill="#fff"/><rect x="2035.3" y="339.3" width="128.7" height="41.53" rx="20.8" fill="#fff"/><rect x="2283.9" y="339.3" width="128.7" height="41.53" rx="20.8" fill="#fff"/><path d="M143.6,596.7c58.7-12.1,101.3-57.7,101.3-108.4a89.1,89.1,0,0,0-22.1-59.2l178.5-68.5-32.6-8.9A13.6,13.6,0,0,1,359,341l-.5-2.4c-.2-1-2.1-10.3-8.8-23.1-16.2,20.2-42.2,41.8-83.2,55.3l-11.1,3.7c-38.3,12.5-78.6,17.1-118.9,15.6a145.2,145.2,0,0,0-35.2,2.9c-35.4,7.3-65,26.8-82.9,52.2C6.7,462,0,481.3,0,501.4a80.1,80.1,0,0,0,1,12.9,45.1,45.1,0,0,0,.9,5.3c5.9,28.5,25.7,52.9,54.2,67C81.9,599.4,113,603,143.6,596.7ZM38.4,512.1a52.3,52.3,0,0,1-1-11.8c.6-32.1,30.1-62.4,71.5-70.9,28.9-6,56.8.2,75.6,14.5,11.2,8.5,19.2,20.1,22,33.6,7.5,36.2-24,73.2-70.4,82.7S45.9,548.2,38.4,512.1ZM887.3,159.5a250.1,250.1,0,0,0-109.2-4.7l-9.5,1.7L457.4,241.9,584,290.5l325.6-125Z" fill="#fff"/><path d="M887.3,440.2l22.3-6L222.8,170.6a92.8,92.8,0,0,0,20.3-40.9,93.8,93.8,0,0,0,1.8-18.3c0-50.7-42.6-96.3-101.3-108.4C113-3.3,81.9.3,56.1,13.1,27.6,27.2,7.8,51.6,1.9,80.1A45.1,45.1,0,0,0,1,85.4,80.1,80.1,0,0,0,0,98.3c0,20.1,6.7,39.4,18.4,56.2,17.9,25.4,47.5,44.9,82.9,52.2a145.2,145.2,0,0,0,35.2,2.9c40.3-1.6,80.5,3.1,118.9,15.6l11.1,3.7c77.4,25.5,101.1,79.6,107.3,99.2a14.4,14.4,0,0,0,9.8,9.5l385,105.6,9.5,1.7A250.1,250.1,0,0,0,887.3,440.2ZM108.9,170.3C67.5,161.8,38,131.5,37.4,99.4a52.3,52.3,0,0,1,1-11.8c7.5-36.1,51.2-57.7,97.7-48.1S214,86,206.5,122.2c-2.8,13.5-10.8,25.1-22,33.6C165.7,170.1,137.8,176.3,108.9,170.3ZM391.8,303.5a21.9,21.9,0,1,1,17.8,17.9A21.8,21.8,0,0,1,391.8,303.5Z" fill="#fff"/><path d="M424.6,289.5A15.3,15.3,0,0,0,398,299.8a15,15,0,0,0,1.6,6.7Z" fill="#fff"/><path d="M426,291.3Z" fill="#fff"/><path d="M400.7,308.4h0Z" fill="#fff"/><path d="M428.6,299.8a14.5,14.5,0,0,0-1.5-6.6L402,310.1a15.3,15.3,0,0,0,26.6-10.3Z" fill="#fff"/><path d="M1268.4,345.9C609.7,426.5,285,575.6,125.8,679.4l-3.9,2.5-8.7,5.8h-.1C85.3,706.9,65.2,727,50.8,746.5c-3.1,4.1-5.8,8.1-8.4,12.1l-1.7,2.7-1.2,2.1-1.1,1.9L36,769.4c-1,1.7-1.9,3.5-2.8,5.3s-1.7,3.4-2.5,5.1c-2.1,4.4-4,8.8-5.6,13l-1.6,4.5a22.5,22.5,0,0,0-.8,2.4c-.1.4-.3.8-.4,1.2l-1.5,4.7c-.2.6-.3,1.2-.5,1.7s-.3,1.1-.4,1.7-.3,1.1-.5,1.6v.2a7.5,7.5,0,0,0-.4,1.6c-.3,1.1-.6,2.3-.8,3.4s-.6,2.6-.9,3.9l-.3,1.8c-.1.6-.3,1.2-.4,1.8l-.3,1.8-.9,6.5c0,.4-.1.8-.1,1.2a.9.9,0,0,0-.1.5c.9-3.7,23.3-90.8,101.5-76.6l.7.2c66.6,12.9,155.7,68.3,236.3,244.6,3.4,7.5,6.8,15.1,10.2,23l18-23c456.3-574.9,866.1-652.1,933-661.1Z" fill="#edf3f7"/></g></g></svg>