<svg xmlns="http://www.w3.org/2000/svg" viewBox="0 0 414.3 270.9"><title>9</title><g id="b4f822aa-de14-4f9e-9822-f7432169f040" data-name="Layer 2"><g id="f76d3252-cc9b-435f-b750-7561b78144af" data-name="Layer 1"><path d="M319,91.1l5.3-5.2,30.8-31.3,14.5-14.9c3.2-3.2,7.4-3.6,10.2-.8s2.4,6.8-.8,10L330.5,98.2a7.6,7.6,0,0,0-1.8,2.5,10.1,10.1,0,0,0,1.8-.9Q359.9,82,389.1,63.9l1.9-1.1c3.5-1.9,7.3-1,9.2,2.1a6.6,6.6,0,0,1-2.5,9.1L364.1,94.6l-26.8,16.5a2.7,2.7,0,0,0-1.2,1.5l9.2-2.9L404.8,91c3.6-1.1,6.5-.3,8.3,2.3a6.2,6.2,0,0,1-.4,7.8,10,10,0,0,1-4.2,2.5l-64.8,20.3c-7.1,2.2-14.1,4.5-21.2,6.6s-8.6-.8-9.5-6.6a16.5,16.5,0,0,0-4.6-8.1c-1.6-1.5-3.8-2.2-4.4-4.7a1.1,1.1,0,0,0-.9-.6c-2.5-.1-3.9-1.8-5.8-3a15.7,15.7,0,0,0-8.4-2.6c-2.2,0-4.3.7-6.5-.5-.4-.2-1.2.3-1.9.4s-4.6.1-6.3,1.1-3.2,3-5.6,2.9-2.4,2.7-4,3.7-3.9.4-3.8,3.1c0,.3-.1.8-.3.9-3.9,2.1-3.8,6.7-6.1,9.8a3.3,3.3,0,0,0-.4,2.2c.9,4.9-2.5,8.7-7.5,7.9L212,130.8l-29.6-4.2L156,122.5c-4.4-.7-6.6-3.6-6-7.7s3.8-5.8,8-5.2l59,9.1a107.2,107.2,0,0,0,12.7,1.4c-2.2-1.1-4.4-2.4-6.8-3.4L163,91.8c-4-1.6-5.7-5.2-4.2-8.8s5.3-4.9,9.3-3.2L225.6,104a103,103,0,0,0,10.2,4c-.5-.5-.9-1.2-1.4-1.6L181.3,66.9l-4.2-3.2c-3.3-2.5-4-6.3-1.7-9.4s6.2-3.5,9.5-1c13.4,9.9,26.7,20,40,29.9,6.1,4.6,12.1,9.1,18.6,13.3l-3.8-4.9L197.8,40.3c-2.7-3.4-2.6-7.3.3-9.8s7-2,9.8,1.5l35.3,43.2c3.7,4.5,7.4,9.1,11.6,13.4l-1.1-2.2C243.6,65,233.4,43.5,223.3,22c-2-4.4,0-8.7,4.3-9.6s5.9.6,7.5,3.9l16.2,34.3,14.4,30.5a1.3,1.3,0,0,0,1,.9c-.6-3.4-1.2-6.8-1.9-10.1-4-20.3-8.1-40.5-12.1-60.8-.9-4.8,1.2-8.3,5.4-8.8s6.5,1.7,7.4,5.9l5.4,27.7c2.8,13.9,5.6,27.9,8.3,41.9l.8,2.3c.2-.8.5-1.1.5-1.5.7-16.9,1.5-33.8,2.2-50.7.3-6.9.6-13.9,1-20.9.1-4.3,2.9-7.1,6.8-7s6.4,3.2,6.2,7.5c-.9,20.9-1.9,41.8-2.8,62.7l-.6,10.1h.6c.7-2,1.3-4.1,1.9-6.1,6.3-21,12.5-42,18.8-63a11.1,11.1,0,0,1,2.5-4.5,6.2,6.2,0,0,1,7.8-.5c2.6,1.7,3.5,4.5,2.4,8l-8.7,29.4c-3.8,12.6-7.6,25.2-11.3,37.8a4.5,4.5,0,0,0-.2,2.6L314,72.6c10.1-17,20.1-34,30.2-50.9,2.2-3.7,6.2-4.9,9.3-2.9s4.1,6,1.9,9.7c-12,20.1-23.9,40.3-35.8,60.4a16.2,16.2,0,0,0-1,1.8Z" fill="#fff"/><path d="M99.7,163.5c4.4-1.2,7.5,0,9.3,4.1,3.7-2.3,7.1-2.3,10.1,1.3,2.7-3.5,5.9-4.5,10.1-2,1-3.4,3.6-4.3,6.4-5.6s4.4-3.8,6.4-5.8,1.6-4.2,3.8-5.4c-.6-3.6,3-6.1,2.4-9.6a16.2,16.2,0,0,1-.1-2.2,6.5,6.5,0,0,1,7.3-5.7l45,4.1,43,3.8,3.7.4c3.9.6,6.3,3.4,6,7a6.5,6.5,0,0,1-7.3,6l-17.9-1.7-53-4.7a3.1,3.1,0,0,0-2,.4l7,2.5,61.3,21.3c3.9,1.4,5.6,3.9,5.2,7.3s-4.6,6.7-9.4,5.1L210.8,175,170,160.8a1.6,1.6,0,0,0-1.6.2l7,4.5,53.7,35.2c3.4,2.2,4.5,6.2,2.5,9.3s-6,4-9.6,1.7L182.6,186c-7-4.7-14.1-9.3-21.6-13.6a16.7,16.7,0,0,0,1.2,1.6l47.7,51.5a7.9,7.9,0,0,1,2.1,3.8,6.2,6.2,0,0,1-3.3,7.1,6.8,6.8,0,0,1-8-1.6l-44.9-48.4a28.3,28.3,0,0,0-5.1-4.6l4.1,7.6,30.1,54.5a14.3,14.3,0,0,1,1.7,3.8,6.5,6.5,0,0,1-4,7.5,6.6,6.6,0,0,1-8-2.9l-8.4-15.1q-11.7-21.4-23.6-42.9l-8-14.3a5.1,5.1,0,0,0-1.8-2.1l3,15.3c1.8,8.8,3.5,17.6,5.3,26.4,2.6,13.3,5.2,26.7,7.9,40a5,5,0,0,0,.2,1.2c.7,4.5-1.2,7.6-5.1,8.3s-6.8-1.5-7.7-5.9c-2.1-10.2-4.1-20.4-6.1-30.6s-4.1-20.8-6.1-31.1l-3.6-18.4-.6-2.6h-.7c-.3,2.8-.7,5.6-1,8.4-1.1,8.7-2.2,17.3-3.1,26l-5.1,47.9a24.8,24.8,0,0,1-.3,2.7,6.3,6.3,0,0,1-7.3,5.3,6.2,6.2,0,0,1-5.5-7.3c1.4-12.7,3-25.4,4.4-38.2s2.8-26.7,4.2-40.1a28.6,28.6,0,0,0,.2-5.9,6,6,0,0,0-.9,1.3L84.1,227.4c-4.3,9.5-8.5,19.1-12.8,28.6-1.7,3.8-5.3,5.5-8.8,4s-4.9-5.2-3.2-9c4.4-10.1,8.9-20.2,13.4-30.4,6.8-15.1,13.5-30.2,20.3-45.4a2.2,2.2,0,0,0,.1-1.8c-1.6,1.8-3.3,3.5-4.9,5.4q-25.7,28.6-51.1,57.5c-2.8,3.2-7,3.6-9.8,1s-2.8-6.6.1-9.8l42-47.3,12.9-14.6a2.4,2.4,0,0,0,.6-1.6L80,165.7,11.6,206.4A11.6,11.6,0,0,1,6,208.2c-2.9.2-5.2-2-5.8-4.9a6.5,6.5,0,0,1,3.2-7.2l37.3-22.3,40.8-24.2c2.6-1.6,5.1-2.2,7.7-.7s3.5,4.1,3,7.1a4.1,4.1,0,0,0,.2.7C96.5,156.9,99.4,158.7,99.7,163.5Z" fill="#fff"/></g></g></svg>