<?xml version="1.0" encoding="utf-8"?>
<!-- Generator: Adobe Illustrator 19.0.0, SVG Export Plug-In . SVG Version: 6.00 Build 0)  -->
<svg version="1.1" id="Layer_1" xmlns="http://www.w3.org/2000/svg" xmlns:xlink="http://www.w3.org/1999/xlink" x="0px" y="0px"
	 viewBox="519 -265.6 1124 560" style="enable-background:new 519 -265.6 1124 560;" xml:space="preserve">
<style type="text/css">
	.st0{font-family:'OpenSans-Semibold';}
	.st1{font-size:14px;}
	.st2{fill:#53B1C8;}
	.st3{fill:#FFFFFF;}
	.st4{font-size:15px;}
	.st5{fill:none;stroke:#009245;stroke-width:2;stroke-miterlimit:10;}
	.st6{fill:#FF0000;}
	.st7{font-family:'OpenSans';}
	.st8{fill:#B3B3B3;}
	.st9{fill:#BCDDE2;}
	.st10{fill:#DDF0F2;}
</style>
<text transform="matrix(1 0 0 1 608 -136.65)" class="st0 st1">Temperature Monitoring</text>
<text transform="matrix(1 0 0 1 608 -126.65)" class="st0 st1"> </text>
<text transform="matrix(1 0 0 1 608 -121.65)" class="st0 st1"> </text>
<text transform="matrix(1 0 0 1 608 -116.65)" class="st0 st1"> </text>
<text transform="matrix(1 0 0 1 608 -111.65)" class="st0 st1"> </text>
<text transform="matrix(1 0 0 1 608 -106.65)" class="st0 st1"> </text>
<text transform="matrix(1 0 0 1 608 -101.65)" class="st0 st1">Impact/Fall/Tilt Monitoring</text>
<text transform="matrix(1 0 0 1 608 -96.65)" class="st0 st1"> </text>
<text transform="matrix(1 0 0 1 608 -91.65)" class="st0 st1"> </text>
<text transform="matrix(1 0 0 1 608 -86.65)" class="st0 st1"> </text>
<text transform="matrix(1 0 0 1 608 -81.65)" class="st0 st1"> </text>
<text transform="matrix(1 0 0 1 608 -76.65)" class="st0 st1"> </text>
<text transform="matrix(1 0 0 1 608 -71.65)" class="st0 st1"> </text>
<text transform="matrix(1 0 0 1 608 -66.65)" class="st0 st1">Autonomous Arrival &amp; Departure Tracking</text>
<text transform="matrix(1 0 0 1 608 -61.65)" class="st0 st1"> </text>
<text transform="matrix(1 0 0 1 608 -56.65)" class="st0 st1"> </text>
<text transform="matrix(1 0 0 1 608 -51.65)" class="st0 st1"> </text>
<text transform="matrix(1 0 0 1 608 -46.65)" class="st0 st1"> </text>
<text transform="matrix(1 0 0 1 608 -41.65)" class="st0 st1"> </text>
<text transform="matrix(1 0 0 1 608 -36.65)" class="st0 st1"> </text>
<text transform="matrix(1 0 0 1 608 -31.65)" class="st0 st1">Autonomous Real Time Yard Monitoring </text>
<text transform="matrix(1 0 0 1 608 -26.65)" class="st0 st1"> </text>
<text transform="matrix(1 0 0 1 608 -21.65)" class="st0 st1"> </text>
<text transform="matrix(1 0 0 1 608 -16.65)" class="st0 st1"> </text>
<text transform="matrix(1 0 0 1 608 -11.65)" class="st0 st1"> </text>
<text transform="matrix(1 0 0 1 608 -6.65)" class="st0 st1"> </text>
<text transform="matrix(1 0 0 1 608 -1.65)" class="st0 st1"> </text>
<text transform="matrix(1 0 0 1 608 3.35)" class="st0 st1">Autonomous Real Time In-Facility Monitoring</text>
<text transform="matrix(1 0 0 1 608 8.35)" class="st0 st1"> </text>
<text transform="matrix(1 0 0 1 608 13.35)" class="st0 st1"> </text>
<text transform="matrix(1 0 0 1 608 18.35)" class="st0 st1"> </text>
<text transform="matrix(1 0 0 1 608 23.35)" class="st0 st1"> </text>
<text transform="matrix(1 0 0 1 608 28.35)" class="st0 st1"> </text>
<text transform="matrix(1 0 0 1 608 33.35)" class="st0 st1"> </text>
<text transform="matrix(1 0 0 1 608 38.35)" class="st0 st1">First/Last Mile Location Tracking</text>
<text transform="matrix(1 0 0 1 608 43.35)" class="st0 st1"> </text>
<text transform="matrix(1 0 0 1 608 48.35)" class="st0 st1"> </text>
<text transform="matrix(1 0 0 1 608 53.35)" class="st0 st1"> </text>
<text transform="matrix(1 0 0 1 608 58.35)" class="st0 st1"> </text>
<text transform="matrix(1 0 0 1 608 63.35)" class="st0 st1"> </text>
<text transform="matrix(1 0 0 1 608 68.35)" class="st0 st1"> </text>
<text transform="matrix(1 0 0 1 608 73.35)" class="st0 st1">Multi-Leg Tracking</text>
<text transform="matrix(1 0 0 1 608 78.35)" class="st0 st1"> </text>
<text transform="matrix(1 0 0 1 608 113.35)" class="st0 st1"> </text>
<text transform="matrix(1 0 0 1 608 118.35)" class="st0 st1"> </text>
<text transform="matrix(1 0 0 1 608 123.35)" class="st0 st1"> </text>
<text transform="matrix(1 0 0 1 608 128.35)" class="st0 st1"> </text>
<text transform="matrix(1 0 0 1 608 133.35)" class="st0 st1"> </text>
<text transform="matrix(1 0 0 1 608 138.35)" class="st0 st1"> </text>
<text transform="matrix(1 0 0 1 608 143.35)" class="st0 st1">Size</text>
<text transform="matrix(1 0 0 1 608 148.35)" class="st0 st1"> </text>
<text transform="matrix(1 0 0 1 608 153.35)" class="st0 st1"> </text>
<text transform="matrix(1 0 0 1 608 158.35)" class="st0 st1"> </text>
<text transform="matrix(1 0 0 1 608 163.35)" class="st0 st1"> </text>
<text transform="matrix(1 0 0 1 608 168.35)" class="st0 st1"> </text>
<text transform="matrix(1 0 0 1 608 173.35)" class="st0 st1"> </text>
<text transform="matrix(1 0 0 1 608 178.35)" class="st0 st1">Battery Life</text>
<text transform="matrix(1 0 0 1 608 183.35)" class="st0 st1"> </text>
<text transform="matrix(1 0 0 1 608 188.35)" class="st0 st1"> </text>
<text transform="matrix(1 0 0 1 608 193.35)" class="st0 st1"> </text>
<text transform="matrix(1 0 0 1 608 198.35)" class="st0 st1"> </text>
<text transform="matrix(1 0 0 1 608 203.35)" class="st0 st1"> </text>
<text transform="matrix(1 0 0 1 608 208.35)" class="st0 st1"> </text>
<text transform="matrix(1 0 0 1 608 213.35)" class="st0 st1">Wireless Range</text>
<text transform="matrix(1 0 0 1 608 218.35)" class="st0 st1"> </text>
<text transform="matrix(1 0 0 1 608 223.35)" class="st0 st1"> </text>
<text transform="matrix(1 0 0 1 608 228.35)" class="st0 st1"> </text>
<text transform="matrix(1 0 0 1 608 233.35)" class="st0 st1"> </text>
<text transform="matrix(1 0 0 1 608 238.35)" class="st0 st1"> </text>
<text transform="matrix(1 0 0 1 608 243.35)" class="st0 st1"> </text>
<text transform="matrix(1 0 0 1 608 248.35)" class="st0 st1">Cost</text>
<text transform="matrix(1 0 0 1 608 253.35)" class="st0 st1"> </text>
<text transform="matrix(1 0 0 1 608 258.35)" class="st0 st1"> </text>
<text transform="matrix(1 0 0 1 608 263.35)" class="st0 st1"> </text>
<text transform="matrix(1 0 0 1 608 268.35)" class="st0 st1"> </text>
<text transform="matrix(1 0 0 1 608 273.35)" class="st0 st1"> </text>
<text transform="matrix(1 0 0 1 608 278.35)" class="st0 st1"> </text>
<path id="XMLID_2_" class="st2" d="M587.6,81.4h-12.7c-3,0-5.4-2.4-5.4-5.4v-227.2c0-3,2.4-5.4,5.4-5.4h12.7c3,0,5.4,2.4,5.4,5.4
	V75.9C593,79,590.6,81.4,587.6,81.4z"/>
<text id="XMLID_3_" transform="matrix(0 -1 1 0 585.709 3.2547)" class="st3 st0 st4">Capabilities</text>
<path id="XMLID_6_" class="st2" d="M588.7,263.4h-14.9c-2.4,0-4.3-2-4.3-4.3V115.9c0-2.4,2-4.3,4.3-4.3h14.9c2.4,0,4.3,2,4.3,4.3
	v143.1C593,261.4,591.1,263.4,588.7,263.4z"/>
<text id="XMLID_5_" transform="matrix(0 -1 1 0 585.709 224.2547)" class="st3 st0 st4">Attributes</text>
<polyline id="Done__x2014__Displayed_on_the_left_side_of_a_contextual_action_bar__x28_CAB_x29__to_allow_the_user_to_dismiss_it._9_" class="st5" points="
	1099,-144.6 1088,-133.6 1083,-138.6 "/>
<polyline id="Done__x2014__Displayed_on_the_left_side_of_a_contextual_action_bar__x28_CAB_x29__to_allow_the_user_to_dismiss_it._8_" class="st5" points="
	1099,-111.6 1088,-100.6 1083,-105.6 "/>
<g id="Layer_2">
	<path id="XMLID_34_" class="st6" d="M1084.6-62.4c-0.1,0-0.3-0.1-0.4-0.2c-0.2-0.2-0.2-0.5,0-0.7l0,0l12.5-12.5
		c0.2-0.2,0.5-0.2,0.7,0c0.2,0.2,0.2,0.5,0,0.7L1085-62.6C1084.9-62.5,1084.8-62.4,1084.6-62.4z"/>
	<path id="XMLID_33_" class="st6" d="M1097.2-62.4c-0.1,0-0.3-0.1-0.4-0.2l-12.5-12.5c-0.2-0.2-0.2-0.5,0-0.7c0.2-0.2,0.5-0.2,0.7,0
		l12.5,12.5c0.2,0.2,0.2,0.5,0,0.7l0,0C1097.4-62.5,1097.3-62.4,1097.2-62.4z"/>
</g>
<g id="Layer_2_1_">
	<path id="XMLID_35_" class="st6" d="M1084.6-28.4c-0.1,0-0.3-0.1-0.4-0.2c-0.2-0.2-0.2-0.5,0-0.7l0,0l12.5-12.5
		c0.2-0.2,0.5-0.2,0.7,0c0.2,0.2,0.2,0.5,0,0.7L1085-28.6C1084.9-28.5,1084.8-28.4,1084.6-28.4z"/>
	<path id="XMLID_32_" class="st6" d="M1097.2-28.4c-0.1,0-0.3-0.1-0.4-0.2l-12.5-12.5c-0.2-0.2-0.2-0.5,0-0.7c0.2-0.2,0.5-0.2,0.7,0
		l12.5,12.5c0.2,0.2,0.2,0.5,0,0.7l0,0C1097.4-28.5,1097.3-28.4,1097.2-28.4z"/>
</g>
<g id="Layer_2_2_">
	<path id="XMLID_41_" class="st6" d="M1084.6,5.6c-0.1,0-0.3-0.1-0.4-0.2c-0.2-0.2-0.2-0.5,0-0.7l0,0l12.5-12.5
		c0.2-0.2,0.5-0.2,0.7,0c0.2,0.2,0.2,0.5,0,0.7L1085,5.4C1084.9,5.5,1084.8,5.6,1084.6,5.6z"/>
	<path id="XMLID_40_" class="st6" d="M1097.2,5.6c-0.1,0-0.3-0.1-0.4-0.2l-12.5-12.5c-0.2-0.2-0.2-0.5,0-0.7c0.2-0.2,0.5-0.2,0.7,0
		l12.5,12.5c0.2,0.2,0.2,0.5,0,0.7l0,0C1097.4,5.5,1097.3,5.6,1097.2,5.6z"/>
</g>
<g id="Layer_2_3_">
	<path id="XMLID_47_" class="st6" d="M1084.6,41.6c-0.1,0-0.3-0.1-0.4-0.2c-0.2-0.2-0.2-0.5,0-0.7l0,0l12.5-12.5
		c0.2-0.2,0.5-0.2,0.7,0c0.2,0.2,0.2,0.5,0,0.7L1085,41.4C1084.9,41.5,1084.8,41.6,1084.6,41.6z"/>
	<path id="XMLID_46_" class="st6" d="M1097.2,41.6c-0.1,0-0.3-0.1-0.4-0.2l-12.5-12.5c-0.2-0.2-0.2-0.5,0-0.7c0.2-0.2,0.5-0.2,0.7,0
		l12.5,12.5c0.2,0.2,0.2,0.5,0,0.7l0,0C1097.4,41.5,1097.3,41.6,1097.2,41.6z"/>
</g>
<g id="Layer_2_4_">
	<path id="XMLID_49_" class="st6" d="M1084.6,75.6c-0.1,0-0.3-0.1-0.4-0.2c-0.2-0.2-0.2-0.5,0-0.7l0,0l12.5-12.5
		c0.2-0.2,0.5-0.2,0.7,0c0.2,0.2,0.2,0.5,0,0.7L1085,75.4C1084.9,75.5,1084.8,75.6,1084.6,75.6z"/>
	<path id="XMLID_48_" class="st6" d="M1097.2,75.6c-0.1,0-0.3-0.1-0.4-0.2l-12.5-12.5c-0.2-0.2-0.2-0.5,0-0.7c0.2-0.2,0.5-0.2,0.7,0
		l12.5,12.5c0.2,0.2,0.2,0.5,0,0.7l0,0C1097.4,75.5,1097.3,75.6,1097.2,75.6z"/>
</g>
<polyline id="Done__x2014__Displayed_on_the_left_side_of_a_contextual_action_bar__x28_CAB_x29__to_allow_the_user_to_dismiss_it._11_" class="st5" points="
	1209,-144.6 1198,-133.6 1193,-138.6 "/>
<polyline id="Done__x2014__Displayed_on_the_left_side_of_a_contextual_action_bar__x28_CAB_x29__to_allow_the_user_to_dismiss_it._10_" class="st5" points="
	1209,-111.6 1198,-100.6 1193,-105.6 "/>
<g id="Layer_2_9_">
	<path id="XMLID_59_" class="st6" d="M1194.6-62.4c-0.1,0-0.3-0.1-0.4-0.2c-0.2-0.2-0.2-0.5,0-0.7l0,0l12.5-12.5
		c0.2-0.2,0.5-0.2,0.7,0c0.2,0.2,0.2,0.5,0,0.7L1195-62.6C1194.9-62.5,1194.8-62.4,1194.6-62.4z"/>
	<path id="XMLID_58_" class="st6" d="M1207.2-62.4c-0.1,0-0.3-0.1-0.4-0.2l-12.5-12.5c-0.2-0.2-0.2-0.5,0-0.7c0.2-0.2,0.5-0.2,0.7,0
		l12.5,12.5c0.2,0.2,0.2,0.5,0,0.7l0,0C1207.4-62.5,1207.3-62.4,1207.2-62.4z"/>
</g>
<g id="Layer_2_8_">
	<path id="XMLID_57_" class="st6" d="M1194.6-28.4c-0.1,0-0.3-0.1-0.4-0.2c-0.2-0.2-0.2-0.5,0-0.7l0,0l12.5-12.5
		c0.2-0.2,0.5-0.2,0.7,0c0.2,0.2,0.2,0.5,0,0.7L1195-28.6C1194.9-28.5,1194.8-28.4,1194.6-28.4z"/>
	<path id="XMLID_56_" class="st6" d="M1207.2-28.4c-0.1,0-0.3-0.1-0.4-0.2l-12.5-12.5c-0.2-0.2-0.2-0.5,0-0.7c0.2-0.2,0.5-0.2,0.7,0
		l12.5,12.5c0.2,0.2,0.2,0.5,0,0.7l0,0C1207.4-28.5,1207.3-28.4,1207.2-28.4z"/>
</g>
<g id="Layer_2_7_">
	<path id="XMLID_55_" class="st6" d="M1194.6,5.6c-0.1,0-0.3-0.1-0.4-0.2c-0.2-0.2-0.2-0.5,0-0.7l0,0l12.5-12.5
		c0.2-0.2,0.5-0.2,0.7,0c0.2,0.2,0.2,0.5,0,0.7L1195,5.4C1194.9,5.5,1194.8,5.6,1194.6,5.6z"/>
	<path id="XMLID_54_" class="st6" d="M1207.2,5.6c-0.1,0-0.3-0.1-0.4-0.2l-12.5-12.5c-0.2-0.2-0.2-0.5,0-0.7c0.2-0.2,0.5-0.2,0.7,0
		l12.5,12.5c0.2,0.2,0.2,0.5,0,0.7l0,0C1207.4,5.5,1207.3,5.6,1207.2,5.6z"/>
</g>
<g id="Layer_2_6_">
	<path id="XMLID_53_" class="st6" d="M1194.6,41.6c-0.1,0-0.3-0.1-0.4-0.2c-0.2-0.2-0.2-0.5,0-0.7l0,0l12.5-12.5
		c0.2-0.2,0.5-0.2,0.7,0c0.2,0.2,0.2,0.5,0,0.7L1195,41.4C1194.9,41.5,1194.8,41.6,1194.6,41.6z"/>
	<path id="XMLID_52_" class="st6" d="M1207.2,41.6c-0.1,0-0.3-0.1-0.4-0.2l-12.5-12.5c-0.2-0.2-0.2-0.5,0-0.7c0.2-0.2,0.5-0.2,0.7,0
		l12.5,12.5c0.2,0.2,0.2,0.5,0,0.7l0,0C1207.4,41.5,1207.3,41.6,1207.2,41.6z"/>
</g>
<g id="Layer_2_5_">
	<path id="XMLID_51_" class="st6" d="M1194.6,75.6c-0.1,0-0.3-0.1-0.4-0.2c-0.2-0.2-0.2-0.5,0-0.7l0,0l12.5-12.5
		c0.2-0.2,0.5-0.2,0.7,0c0.2,0.2,0.2,0.5,0,0.7L1195,75.4C1194.9,75.5,1194.8,75.6,1194.6,75.6z"/>
	<path id="XMLID_50_" class="st6" d="M1207.2,75.6c-0.1,0-0.3-0.1-0.4-0.2l-12.5-12.5c-0.2-0.2-0.2-0.5,0-0.7c0.2-0.2,0.5-0.2,0.7,0
		l12.5,12.5c0.2,0.2,0.2,0.5,0,0.7l0,0C1207.4,75.5,1207.3,75.6,1207.2,75.6z"/>
</g>
<g id="Layer_2_14_">
	<path id="XMLID_69_" class="st6" d="M1299.6-62.4c-0.1,0-0.3-0.1-0.4-0.2c-0.2-0.2-0.2-0.5,0-0.7l0,0l12.5-12.5
		c0.2-0.2,0.5-0.2,0.7,0c0.2,0.2,0.2,0.5,0,0.7L1300-62.6C1299.9-62.5,1299.8-62.4,1299.6-62.4z"/>
	<path id="XMLID_68_" class="st6" d="M1312.2-62.4c-0.1,0-0.3-0.1-0.4-0.2l-12.5-12.5c-0.2-0.2-0.2-0.5,0-0.7c0.2-0.2,0.5-0.2,0.7,0
		l12.5,12.5c0.2,0.2,0.2,0.5,0,0.7l0,0C1312.4-62.5,1312.3-62.4,1312.2-62.4z"/>
</g>
<g id="Layer_2_13_">
	<path id="XMLID_67_" class="st6" d="M1299.6-28.4c-0.1,0-0.3-0.1-0.4-0.2c-0.2-0.2-0.2-0.5,0-0.7l0,0l12.5-12.5
		c0.2-0.2,0.5-0.2,0.7,0c0.2,0.2,0.2,0.5,0,0.7L1300-28.6C1299.9-28.5,1299.8-28.4,1299.6-28.4z"/>
	<path id="XMLID_66_" class="st6" d="M1312.2-28.4c-0.1,0-0.3-0.1-0.4-0.2l-12.5-12.5c-0.2-0.2-0.2-0.5,0-0.7c0.2-0.2,0.5-0.2,0.7,0
		l12.5,12.5c0.2,0.2,0.2,0.5,0,0.7l0,0C1312.4-28.5,1312.3-28.4,1312.2-28.4z"/>
</g>
<g id="Layer_2_12_">
	<path id="XMLID_65_" class="st6" d="M1299.6,5.6c-0.1,0-0.3-0.1-0.4-0.2c-0.2-0.2-0.2-0.5,0-0.7l0,0l12.5-12.5
		c0.2-0.2,0.5-0.2,0.7,0c0.2,0.2,0.2,0.5,0,0.7L1300,5.4C1299.9,5.5,1299.8,5.6,1299.6,5.6z"/>
	<path id="XMLID_64_" class="st6" d="M1312.2,5.6c-0.1,0-0.3-0.1-0.4-0.2l-12.5-12.5c-0.2-0.2-0.2-0.5,0-0.7c0.2-0.2,0.5-0.2,0.7,0
		l12.5,12.5c0.2,0.2,0.2,0.5,0,0.7l0,0C1312.4,5.5,1312.3,5.6,1312.2,5.6z"/>
</g>
<g id="Layer_2_11_">
	<path id="XMLID_63_" class="st6" d="M1299.6,41.6c-0.1,0-0.3-0.1-0.4-0.2c-0.2-0.2-0.2-0.5,0-0.7l0,0l12.5-12.5
		c0.2-0.2,0.5-0.2,0.7,0c0.2,0.2,0.2,0.5,0,0.7L1300,41.4C1299.9,41.5,1299.8,41.6,1299.6,41.6z"/>
	<path id="XMLID_62_" class="st6" d="M1312.2,41.6c-0.1,0-0.3-0.1-0.4-0.2l-12.5-12.5c-0.2-0.2-0.2-0.5,0-0.7c0.2-0.2,0.5-0.2,0.7,0
		l12.5,12.5c0.2,0.2,0.2,0.5,0,0.7l0,0C1312.4,41.5,1312.3,41.6,1312.2,41.6z"/>
</g>
<g id="Layer_2_10_">
	<path id="XMLID_61_" class="st6" d="M1299.6,75.6c-0.1,0-0.3-0.1-0.4-0.2c-0.2-0.2-0.2-0.5,0-0.7l0,0l12.5-12.5
		c0.2-0.2,0.5-0.2,0.7,0c0.2,0.2,0.2,0.5,0,0.7L1300,75.4C1299.9,75.5,1299.8,75.6,1299.6,75.6z"/>
	<path id="XMLID_60_" class="st6" d="M1312.2,75.6c-0.1,0-0.3-0.1-0.4-0.2l-12.5-12.5c-0.2-0.2-0.2-0.5,0-0.7c0.2-0.2,0.5-0.2,0.7,0
		l12.5,12.5c0.2,0.2,0.2,0.5,0,0.7l0,0C1312.4,75.5,1312.3,75.6,1312.2,75.6z"/>
</g>
<g id="Layer_2_16_">
	<path id="XMLID_73_" class="st6" d="M1299.6-132.4c-0.1,0-0.3-0.1-0.4-0.2c-0.2-0.2-0.2-0.5,0-0.7l0,0l12.5-12.5
		c0.2-0.2,0.5-0.2,0.7,0c0.2,0.2,0.2,0.5,0,0.7l-12.4,12.5C1299.9-132.5,1299.8-132.4,1299.6-132.4z"/>
	<path id="XMLID_72_" class="st6" d="M1312.2-132.4c-0.1,0-0.3-0.1-0.4-0.2l-12.5-12.5c-0.2-0.2-0.2-0.5,0-0.7
		c0.2-0.2,0.5-0.2,0.7,0l12.5,12.5c0.2,0.2,0.2,0.5,0,0.7l0,0C1312.4-132.5,1312.3-132.4,1312.2-132.4z"/>
</g>
<g id="Layer_2_15_">
	<path id="XMLID_71_" class="st6" d="M1299.6-98.4c-0.1,0-0.3-0.1-0.4-0.2c-0.2-0.2-0.2-0.5,0-0.7l0,0l12.5-12.5
		c0.2-0.2,0.5-0.2,0.7,0c0.2,0.2,0.2,0.5,0,0.7L1300-98.6C1299.9-98.5,1299.8-98.4,1299.6-98.4z"/>
	<path id="XMLID_70_" class="st6" d="M1312.2-98.4c-0.1,0-0.3-0.1-0.4-0.2l-12.5-12.5c-0.2-0.2-0.2-0.5,0-0.7c0.2-0.2,0.5-0.2,0.7,0
		l12.5,12.5c0.2,0.2,0.2,0.5,0,0.7l0,0C1312.4-98.5,1312.3-98.4,1312.2-98.4z"/>
</g>
<polyline id="Done__x2014__Displayed_on_the_left_side_of_a_contextual_action_bar__x28_CAB_x29__to_allow_the_user_to_dismiss_it._13_" class="st5" points="
	1418,-144.6 1407,-133.6 1402,-138.6 "/>
<polyline id="Done__x2014__Displayed_on_the_left_side_of_a_contextual_action_bar__x28_CAB_x29__to_allow_the_user_to_dismiss_it._12_" class="st5" points="
	1418,-111.6 1407,-100.6 1402,-105.6 "/>
<g id="Layer_2_21_">
	<path id="XMLID_83_" class="st6" d="M1403.6-62.4c-0.1,0-0.3-0.1-0.4-0.2c-0.2-0.2-0.2-0.5,0-0.7l0,0l12.5-12.5
		c0.2-0.2,0.5-0.2,0.7,0c0.2,0.2,0.2,0.5,0,0.7L1404-62.6C1403.9-62.5,1403.8-62.4,1403.6-62.4z"/>
	<path id="XMLID_82_" class="st6" d="M1416.2-62.4c-0.1,0-0.3-0.1-0.4-0.2l-12.5-12.5c-0.2-0.2-0.2-0.5,0-0.7c0.2-0.2,0.5-0.2,0.7,0
		l12.5,12.5c0.2,0.2,0.2,0.5,0,0.7l0,0C1416.4-62.5,1416.3-62.4,1416.2-62.4z"/>
</g>
<g id="Layer_2_20_">
	<path id="XMLID_81_" class="st6" d="M1403.6-28.4c-0.1,0-0.3-0.1-0.4-0.2c-0.2-0.2-0.2-0.5,0-0.7l0,0l12.5-12.5
		c0.2-0.2,0.5-0.2,0.7,0c0.2,0.2,0.2,0.5,0,0.7L1404-28.6C1403.9-28.5,1403.8-28.4,1403.6-28.4z"/>
	<path id="XMLID_80_" class="st6" d="M1416.2-28.4c-0.1,0-0.3-0.1-0.4-0.2l-12.5-12.5c-0.2-0.2-0.2-0.5,0-0.7c0.2-0.2,0.5-0.2,0.7,0
		l12.5,12.5c0.2,0.2,0.2,0.5,0,0.7l0,0C1416.4-28.5,1416.3-28.4,1416.2-28.4z"/>
</g>
<g id="Layer_2_19_">
	<path id="XMLID_79_" class="st6" d="M1403.6,5.6c-0.1,0-0.3-0.1-0.4-0.2c-0.2-0.2-0.2-0.5,0-0.7l0,0l12.5-12.5
		c0.2-0.2,0.5-0.2,0.7,0c0.2,0.2,0.2,0.5,0,0.7L1404,5.4C1403.9,5.5,1403.8,5.6,1403.6,5.6z"/>
	<path id="XMLID_78_" class="st6" d="M1416.2,5.6c-0.1,0-0.3-0.1-0.4-0.2l-12.5-12.5c-0.2-0.2-0.2-0.5,0-0.7c0.2-0.2,0.5-0.2,0.7,0
		l12.5,12.5c0.2,0.2,0.2,0.5,0,0.7l0,0C1416.4,5.5,1416.3,5.6,1416.2,5.6z"/>
</g>
<g id="Layer_2_18_">
	<path id="XMLID_77_" class="st6" d="M1403.6,41.6c-0.1,0-0.3-0.1-0.4-0.2c-0.2-0.2-0.2-0.5,0-0.7l0,0l12.5-12.5
		c0.2-0.2,0.5-0.2,0.7,0c0.2,0.2,0.2,0.5,0,0.7L1404,41.4C1403.9,41.5,1403.8,41.6,1403.6,41.6z"/>
	<path id="XMLID_76_" class="st6" d="M1416.2,41.6c-0.1,0-0.3-0.1-0.4-0.2l-12.5-12.5c-0.2-0.2-0.2-0.5,0-0.7c0.2-0.2,0.5-0.2,0.7,0
		l12.5,12.5c0.2,0.2,0.2,0.5,0,0.7l0,0C1416.4,41.5,1416.3,41.6,1416.2,41.6z"/>
</g>
<g id="Layer_2_17_">
	<path id="XMLID_75_" class="st6" d="M1403.6,75.6c-0.1,0-0.3-0.1-0.4-0.2c-0.2-0.2-0.2-0.5,0-0.7l0,0l12.5-12.5
		c0.2-0.2,0.5-0.2,0.7,0c0.2,0.2,0.2,0.5,0,0.7L1404,75.4C1403.9,75.5,1403.8,75.6,1403.6,75.6z"/>
	<path id="XMLID_74_" class="st6" d="M1416.2,75.6c-0.1,0-0.3-0.1-0.4-0.2l-12.5-12.5c-0.2-0.2-0.2-0.5,0-0.7c0.2-0.2,0.5-0.2,0.7,0
		l12.5,12.5c0.2,0.2,0.2,0.5,0,0.7l0,0C1416.4,75.5,1416.3,75.6,1416.2,75.6z"/>
</g>
<polyline id="Done__x2014__Displayed_on_the_left_side_of_a_contextual_action_bar__x28_CAB_x29__to_allow_the_user_to_dismiss_it._15_" class="st5" points="
	1522,-144.6 1511,-133.6 1506,-138.6 "/>
<polyline id="Done__x2014__Displayed_on_the_left_side_of_a_contextual_action_bar__x28_CAB_x29__to_allow_the_user_to_dismiss_it._14_" class="st5" points="
	1522,-111.6 1511,-100.6 1506,-105.6 "/>
<g id="Layer_2_24_">
	<path id="XMLID_88_" class="st6" d="M1507.6,5.6c-0.1,0-0.3-0.1-0.4-0.2c-0.2-0.2-0.2-0.5,0-0.7l0,0l12.5-12.5
		c0.2-0.2,0.5-0.2,0.7,0c0.2,0.2,0.2,0.5,0,0.7L1508,5.4C1507.9,5.5,1507.8,5.6,1507.6,5.6z"/>
	<path id="XMLID_87_" class="st6" d="M1520.2,5.6c-0.1,0-0.3-0.1-0.4-0.2l-12.5-12.5c-0.2-0.2-0.2-0.5,0-0.7c0.2-0.2,0.5-0.2,0.7,0
		l12.5,12.5c0.2,0.2,0.2,0.5,0,0.7l0,0C1520.4,5.5,1520.3,5.6,1520.2,5.6z"/>
</g>
<g id="Layer_2_22_">
	<path id="XMLID_84_" class="st6" d="M1507.6,75.6c-0.1,0-0.3-0.1-0.4-0.2c-0.2-0.2-0.2-0.5,0-0.7l0,0l12.5-12.5
		c0.2-0.2,0.5-0.2,0.7,0c0.2,0.2,0.2,0.5,0,0.7L1508,75.4C1507.9,75.5,1507.8,75.6,1507.6,75.6z"/>
	<path id="XMLID_45_" class="st6" d="M1520.2,75.6c-0.1,0-0.3-0.1-0.4-0.2l-12.5-12.5c-0.2-0.2-0.2-0.5,0-0.7c0.2-0.2,0.5-0.2,0.7,0
		l12.5,12.5c0.2,0.2,0.2,0.5,0,0.7l0,0C1520.4,75.5,1520.3,75.6,1520.2,75.6z"/>
</g>
<polyline id="Done__x2014__Displayed_on_the_left_side_of_a_contextual_action_bar__x28_CAB_x29__to_allow_the_user_to_dismiss_it._17_" class="st5" points="
	1522,-74.6 1511,-63.6 1506,-68.6 "/>
<polyline id="Done__x2014__Displayed_on_the_left_side_of_a_contextual_action_bar__x28_CAB_x29__to_allow_the_user_to_dismiss_it._16_" class="st5" points="
	1522,-41.6 1511,-30.6 1506,-35.6 "/>
<polyline id="Done__x2014__Displayed_on_the_left_side_of_a_contextual_action_bar__x28_CAB_x29__to_allow_the_user_to_dismiss_it._18_" class="st5" points="
	1522,28.4 1511,39.4 1506,34.4 "/>
<text id="XMLID_86_" transform="matrix(1 0 0 1 1182.0835 143.35)" class="st0 st1">Small</text>
<text id="XMLID_93_" transform="matrix(1 0 0 1 1188.6328 180.6)" class="st7 st4">N/A</text>
<text id="XMLID_188_" transform="matrix(1 0 0 1 1075.4662 215.4955)" class="st7 st4">N/A</text>
<text id="XMLID_89_" transform="matrix(1 0 0 1 1288.0825 143.35)" class="st0 st1">Small</text>
<text id="XMLID_90_" transform="matrix(1 0 0 1 1383.0225 143.35)" class="st0 st1">Medium</text>
<text id="XMLID_91_" transform="matrix(1 0 0 1 1490.5615 143.35)" class="st0 st1">Large</text>
<text id="XMLID_85_" transform="matrix(1 0 0 1 1062.9298 143.35)" class="st0 st1">Medium</text>
<g id="XMLID_109_">
	<g id="XMLID_110_">
		<path id="XMLID_111_" d="M1103.5,172.8h-0.6v-0.6c0-1.8-1.4-3.2-3.2-3.2H1078c-1.8,0-3.2,1.4-3.2,3.2v7.6c0,1.8,1.4,3.2,3.2,3.2
			h21.6c1.8,0,3.2-1.4,3.2-3.2v-0.6h0.6c1.1,0,1.9-0.9,1.9-1.9v-2.5C1105.4,173.6,1104.5,172.8,1103.5,172.8z M1100.3,179.8
			c0,0.4-0.3,0.6-0.6,0.6H1078c-0.4,0-0.6-0.3-0.6-0.6v-7.6c0-0.4,0.3-0.6,0.6-0.6h21.6c0.4,0,0.6,0.3,0.6,0.6v7.6H1100.3z"/>
	</g>
</g>
<rect id="XMLID_108_" x="1077.4" y="171.5" class="st2" width="14.7" height="8.9"/>
<g id="XMLID_121_">
	<g id="XMLID_122_">
		<path id="XMLID_123_" d="M1425.1,172.8h-0.6v-0.6c0-1.8-1.4-3.2-3.2-3.2h-21.6c-1.8,0-3.2,1.4-3.2,3.2v7.6c0,1.8,1.4,3.2,3.2,3.2
			h21.6c1.8,0,3.2-1.4,3.2-3.2v-0.6h0.6c1.1,0,1.9-0.9,1.9-1.9v-2.5C1427,173.6,1426.2,172.8,1425.1,172.8z M1422,179.8
			c0,0.4-0.3,0.6-0.6,0.6h-21.6c-0.4,0-0.6-0.3-0.6-0.6v-7.6c0-0.4,0.3-0.6,0.6-0.6h21.6c0.4,0,0.6,0.3,0.6,0.6V179.8z"/>
	</g>
</g>
<rect id="XMLID_120_" x="1399" y="171.5" class="st2" width="22.3" height="8.9"/>
<g id="XMLID_115_">
	<g id="XMLID_116_">
		<path id="XMLID_117_" d="M1525.5,172.8h-0.6v-0.6c0-1.8-1.4-3.2-3.2-3.2H1500c-1.8,0-3.2,1.4-3.2,3.2v7.6c0,1.8,1.4,3.2,3.2,3.2
			h21.6c1.8,0,3.2-1.4,3.2-3.2v-0.6h0.6c1.1,0,1.9-0.9,1.9-1.9v-2.5C1527.4,173.6,1526.5,172.8,1525.5,172.8z M1522.3,179.8
			c0,0.4-0.3,0.6-0.6,0.6H1500c-0.4,0-0.6-0.3-0.6-0.6v-7.6c0-0.4,0.3-0.6,0.6-0.6h21.6c0.4,0,0.6,0.3,0.6,0.6v7.6H1522.3z"/>
	</g>
</g>
<rect id="XMLID_114_" x="1499.4" y="171.5" class="st2" width="6.3" height="8.9"/>
<text id="XMLID_92_" transform="matrix(1 0 0 1 1295.6328 180.6)" class="st7 st4">N/A</text>
<g id="XMLID_148_">
	<g id="XMLID_149_">
		<path id="XMLID_150_" class="st8" d="M1201.2,213.6c-0.9,0-1.6,0.7-1.6,1.6s0.7,1.6,1.6,1.6c0.9,0,1.6-0.7,1.6-1.6
			C1202.8,214.5,1202.1,213.6,1201.2,213.6z"/>
	</g>
</g>
<g id="XMLID_145_">
	<g id="XMLID_146_">
		<path id="XMLID_147_" class="st8" d="M1205.1,211.6c-1-1-2.4-1.6-3.9-1.6s-2.8,0.6-3.9,1.6c-0.4,0.4-0.4,1.1,0,1.5
			c0.2,0.2,0.5,0.3,0.8,0.3c0.3,0,0.6-0.1,0.8-0.3c0.6-0.6,1.5-1,2.4-1s1.7,0.3,2.4,1c0.2,0.2,0.5,0.3,0.8,0.3
			c0.3,0,0.6-0.1,0.8-0.3C1205.5,212.6,1205.5,212,1205.1,211.6z"/>
	</g>
</g>
<g id="XMLID_140_">
	<g id="XMLID_143_">
		<path id="XMLID_144_" class="st8" d="M1210.1,206.6c-2.4-2.4-5.5-3.7-8.9-3.7s-6.5,1.3-8.9,3.7c-0.4,0.4-0.4,1.1,0,1.5
			c0.2,0.2,0.5,0.3,0.8,0.3c0.3,0,0.6-0.1,0.8-0.3c2-2,4.6-3,7.4-3c2.8,0,5.4,1.1,7.4,3c0.2,0.2,0.5,0.3,0.8,0.3
			c0.3,0,0.6-0.1,0.8-0.3C1210.5,207.6,1210.5,207,1210.1,206.6z"/>
	</g>
</g>
<g id="XMLID_100_">
	<g id="XMLID_103_">
		<path id="XMLID_134_" class="st8" d="M1207.5,209.1c-1.7-1.7-3.9-2.6-6.3-2.6c-2.4,0-4.6,0.9-6.3,2.6c-0.2,0.2-0.3,0.5-0.3,0.8
			s0.1,0.6,0.3,0.8c0.2,0.2,0.5,0.3,0.8,0.3c0.3,0,0.6-0.1,0.8-0.3c1.3-1.3,3-2,4.8-2c1.8,0,3.5,0.7,4.8,2c0.2,0.2,0.5,0.3,0.8,0.3
			c0.3,0,0.6-0.1,0.8-0.3c0.2-0.2,0.3-0.5,0.3-0.8C1207.8,209.6,1207.7,209.2,1207.5,209.1z"/>
	</g>
</g>
<g id="XMLID_160_">
	<g id="XMLID_161_">
		<path id="XMLID_162_" class="st8" d="M1308.7,213.6c-0.9,0-1.6,0.7-1.6,1.6s0.7,1.6,1.6,1.6c0.9,0,1.6-0.7,1.6-1.6
			C1310.3,214.5,1309.6,213.6,1308.7,213.6z"/>
	</g>
</g>
<g id="XMLID_157_">
	<g id="XMLID_158_">
		<path id="XMLID_159_" class="st8" d="M1312.6,211.6c-1-1-2.4-1.6-3.9-1.6s-2.8,0.6-3.9,1.6c-0.4,0.4-0.4,1.1,0,1.5
			c0.2,0.2,0.5,0.3,0.8,0.3c0.3,0,0.6-0.1,0.8-0.3c0.6-0.6,1.5-1,2.4-1s1.7,0.3,2.4,1c0.2,0.2,0.5,0.3,0.8,0.3
			c0.3,0,0.6-0.1,0.8-0.3C1313,212.6,1313,212,1312.6,211.6z"/>
	</g>
</g>
<g id="XMLID_154_">
	<g id="XMLID_155_">
		<path id="XMLID_156_" class="st8" d="M1317.6,206.6c-2.4-2.4-5.5-3.7-8.9-3.7s-6.5,1.3-8.9,3.7c-0.4,0.4-0.4,1.1,0,1.5
			c0.2,0.2,0.5,0.3,0.8,0.3c0.3,0,0.6-0.1,0.8-0.3c2-2,4.6-3,7.4-3c2.8,0,5.4,1.1,7.4,3c0.2,0.2,0.5,0.3,0.8,0.3
			c0.3,0,0.6-0.1,0.8-0.3C1318,207.6,1318,207,1317.6,206.6z"/>
	</g>
</g>
<g id="XMLID_151_">
	<g id="XMLID_152_">
		<path id="XMLID_153_" class="st8" d="M1315,209.1c-1.7-1.7-3.9-2.6-6.3-2.6c-2.4,0-4.6,0.9-6.3,2.6c-0.2,0.2-0.3,0.5-0.3,0.8
			s0.1,0.6,0.3,0.8c0.2,0.2,0.5,0.3,0.8,0.3c0.3,0,0.6-0.1,0.8-0.3c1.3-1.3,3-2,4.8-2c1.8,0,3.5,0.7,4.8,2c0.2,0.2,0.5,0.3,0.8,0.3
			c0.3,0,0.6-0.1,0.8-0.3c0.2-0.2,0.3-0.5,0.3-0.8C1315.4,209.6,1315.2,209.2,1315,209.1z"/>
	</g>
</g>
<g id="XMLID_172_">
	<g id="XMLID_173_">
		<path id="XMLID_174_" d="M1410.5,213.6c-0.9,0-1.6,0.7-1.6,1.6s0.7,1.6,1.6,1.6c0.9,0,1.6-0.7,1.6-1.6
			C1412.1,214.5,1411.4,213.6,1410.5,213.6z"/>
	</g>
</g>
<g id="XMLID_169_">
	<g id="XMLID_170_">
		<path id="XMLID_171_" d="M1414.4,211.6c-1-1-2.4-1.6-3.9-1.6s-2.8,0.6-3.9,1.6c-0.4,0.4-0.4,1.1,0,1.5c0.2,0.2,0.5,0.3,0.8,0.3
			c0.3,0,0.6-0.1,0.8-0.3c0.6-0.6,1.5-1,2.4-1s1.7,0.3,2.4,1c0.2,0.2,0.5,0.3,0.8,0.3c0.3,0,0.6-0.1,0.8-0.3
			C1414.8,212.6,1414.8,212,1414.4,211.6z"/>
	</g>
</g>
<g id="XMLID_166_">
	<g id="XMLID_167_">
		<path id="XMLID_168_" class="st8" d="M1419.4,206.6c-2.4-2.4-5.5-3.7-8.9-3.7s-6.5,1.3-8.9,3.7c-0.4,0.4-0.4,1.1,0,1.5
			c0.2,0.2,0.5,0.3,0.8,0.3c0.3,0,0.6-0.1,0.8-0.3c2-2,4.6-3,7.4-3c2.8,0,5.4,1.1,7.4,3c0.2,0.2,0.5,0.3,0.8,0.3
			c0.3,0,0.6-0.1,0.8-0.3C1419.8,207.6,1419.8,207,1419.4,206.6z"/>
	</g>
</g>
<g id="XMLID_163_">
	<g id="XMLID_164_">
		<path id="XMLID_165_" class="st8" d="M1416.8,209.1c-1.7-1.7-3.9-2.6-6.3-2.6c-2.4,0-4.6,0.9-6.3,2.6c-0.2,0.2-0.3,0.5-0.3,0.8
			s0.1,0.6,0.3,0.8c0.2,0.2,0.5,0.3,0.8,0.3s0.6-0.1,0.8-0.3c1.3-1.3,3-2,4.8-2s3.5,0.7,4.8,2c0.2,0.2,0.5,0.3,0.8,0.3
			s0.6-0.1,0.8-0.3c0.2-0.2,0.3-0.5,0.3-0.8C1417.1,209.6,1417,209.2,1416.8,209.1z"/>
	</g>
</g>
<g id="XMLID_184_">
	<g id="XMLID_185_">
		<path id="XMLID_186_" d="M1511.5,213.6c-0.9,0-1.6,0.7-1.6,1.6s0.7,1.6,1.6,1.6c0.9,0,1.6-0.7,1.6-1.6
			C1513.1,214.5,1512.4,213.6,1511.5,213.6z"/>
	</g>
</g>
<g id="XMLID_181_">
	<g id="XMLID_182_">
		<path id="XMLID_183_" d="M1515.4,211.6c-1-1-2.4-1.6-3.9-1.6s-2.8,0.6-3.9,1.6c-0.4,0.4-0.4,1.1,0,1.5c0.2,0.2,0.5,0.3,0.8,0.3
			c0.3,0,0.6-0.1,0.8-0.3c0.6-0.6,1.5-1,2.4-1s1.7,0.3,2.4,1c0.2,0.2,0.5,0.3,0.8,0.3c0.3,0,0.6-0.1,0.8-0.3
			C1515.8,212.6,1515.8,212,1515.4,211.6z"/>
	</g>
</g>
<g id="XMLID_178_">
	<g id="XMLID_179_">
		<path id="XMLID_180_" d="M1520.4,206.6c-2.4-2.4-5.5-3.7-8.9-3.7s-6.5,1.3-8.9,3.7c-0.4,0.4-0.4,1.1,0,1.5
			c0.2,0.2,0.5,0.3,0.8,0.3c0.3,0,0.6-0.1,0.8-0.3c2-2,4.6-3,7.4-3c2.8,0,5.4,1.1,7.4,3c0.2,0.2,0.5,0.3,0.8,0.3
			c0.3,0,0.6-0.1,0.8-0.3C1520.8,207.6,1520.8,207,1520.4,206.6z"/>
	</g>
</g>
<g id="XMLID_175_">
	<g id="XMLID_176_">
		<path id="XMLID_177_" d="M1517.8,209.1c-1.7-1.7-3.9-2.6-6.3-2.6c-2.4,0-4.6,0.9-6.3,2.6c-0.2,0.2-0.3,0.5-0.3,0.8
			s0.1,0.6,0.3,0.8c0.2,0.2,0.5,0.3,0.8,0.3s0.6-0.1,0.8-0.3c1.3-1.3,3-2,4.8-2s3.5,0.7,4.8,2c0.2,0.2,0.5,0.3,0.8,0.3
			s0.6-0.1,0.8-0.3c0.2-0.2,0.3-0.5,0.3-0.8C1518.1,209.6,1518,209.2,1517.8,209.1z"/>
	</g>
</g>
<g id="XMLID_191_">
	<path id="XMLID_192_" d="M1084.8,239.5v-2.1h-2v2.1c-1.2,0.4-2,1.4-2,2.7c0,1.1,0.6,2.1,1.6,2.6l1.9,1c0.3,0.1,0.5,0.4,0.5,0.8
		c0,0.5-0.4,0.9-0.9,0.9h-0.3c-0.5,0-0.9-0.4-0.9-0.9v-0.2h-2v0.1c0,1.3,0.8,2.3,2,2.7v2.1h2v-2.1c1.2-0.4,2-1.4,2-2.7
		c0-1.1-0.6-2.1-1.6-2.6l-1.9-1c-0.3-0.1-0.5-0.4-0.5-0.8c0-0.5,0.4-0.9,0.9-0.9h0.3c0.5,0,0.9,0.4,0.9,0.9v0.1h2V242
		C1086.8,241,1086,239.9,1084.8,239.5z"/>
</g>
<g id="XMLID_189_">
	<path id="XMLID_193_" d="M1092.5,239.5v-2.1h-2v2.1c-1.2,0.4-2,1.4-2,2.7c0,1.1,0.6,2.1,1.6,2.6l1.9,1c0.3,0.1,0.5,0.4,0.5,0.8
		c0,0.5-0.4,0.9-0.9,0.9h-0.3c-0.5,0-0.9-0.4-0.9-0.9v-0.2h-2v0.1c0,1.3,0.8,2.3,2,2.7v2.1h2v-2.1c1.2-0.4,2-1.4,2-2.7
		c0-1.1-0.6-2.1-1.6-2.6l-1.9-1c-0.3-0.1-0.5-0.4-0.5-0.8c0-0.5,0.4-0.9,0.9-0.9h0.3c0.5,0,0.9,0.4,0.9,0.9v0.1h2V242
		C1094.5,241,1093.7,239.9,1092.5,239.5z"/>
</g>
<g id="XMLID_196_">
	<path id="XMLID_197_" d="M1198.5,239.5v-2.1h-2v2.1c-1.2,0.4-2,1.4-2,2.7c0,1.1,0.6,2.1,1.6,2.6l1.9,1c0.3,0.1,0.5,0.4,0.5,0.8
		c0,0.5-0.4,0.9-0.9,0.9h-0.3c-0.5,0-0.9-0.4-0.9-0.9v-0.2h-2v0.1c0,1.3,0.8,2.3,2,2.7v2.1h2v-2.1c1.2-0.4,2-1.4,2-2.7
		c0-1.1-0.6-2.1-1.6-2.6l-1.9-1c-0.3-0.1-0.5-0.4-0.5-0.8c0-0.5,0.4-0.9,0.9-0.9h0.3c0.5,0,0.9,0.4,0.9,0.9v0.1h2V242
		C1200.5,241,1199.6,239.9,1198.5,239.5z"/>
</g>
<g id="XMLID_194_">
	<path id="XMLID_195_" d="M1206.2,239.5v-2.1h-2v2.1c-1.2,0.4-2,1.4-2,2.7c0,1.1,0.6,2.1,1.6,2.6l1.9,1c0.3,0.1,0.5,0.4,0.5,0.8
		c0,0.5-0.4,0.9-0.9,0.9h-0.3c-0.5,0-0.9-0.4-0.9-0.9v-0.2h-2v0.1c0,1.3,0.8,2.3,2,2.7v2.1h2v-2.1c1.2-0.4,2-1.4,2-2.7
		c0-1.1-0.6-2.1-1.6-2.6l-1.9-1c-0.3-0.1-0.5-0.4-0.5-0.8c0-0.5,0.4-0.9,0.9-0.9h0.3c0.5,0,0.9,0.4,0.9,0.9v0.1h2V242
		C1208.2,241,1207.3,239.9,1206.2,239.5z"/>
</g>
<g id="XMLID_198_">
	<path id="XMLID_199_" d="M1311.3,239.5v-2.1h-2v2.1c-1.2,0.4-2,1.4-2,2.7c0,1.1,0.6,2.1,1.6,2.6l1.9,1c0.3,0.1,0.5,0.4,0.5,0.8
		c0,0.5-0.4,0.9-0.9,0.9h-0.3c-0.5,0-0.9-0.4-0.9-0.9v-0.2h-2v0.1c0,1.3,0.8,2.3,2,2.7v2.1h2v-2.1c1.2-0.4,2-1.4,2-2.7
		c0-1.1-0.6-2.1-1.6-2.6l-1.9-1c-0.3-0.1-0.5-0.4-0.5-0.8c0-0.5,0.4-0.9,0.9-0.9h0.3c0.5,0,0.9,0.4,0.9,0.9v0.1h2V242
		C1313.3,241,1312.4,239.9,1311.3,239.5z"/>
</g>
<g id="XMLID_202_">
	<path id="XMLID_203_" d="M1407.8,239.5v-2.1h-2v2.1c-1.2,0.4-2,1.4-2,2.7c0,1.1,0.6,2.1,1.6,2.6l1.9,1c0.3,0.1,0.5,0.4,0.5,0.8
		c0,0.5-0.4,0.9-0.9,0.9h-0.3c-0.5,0-0.9-0.4-0.9-0.9v-0.2h-2v0.1c0,1.3,0.8,2.3,2,2.7v2.1h2v-2.1c1.2-0.4,2-1.4,2-2.7
		c0-1.1-0.6-2.1-1.6-2.6l-1.9-1c-0.3-0.1-0.5-0.4-0.5-0.8c0-0.5,0.4-0.9,0.9-0.9h0.3c0.5,0,0.9,0.4,0.9,0.9v0.1h2V242
		C1409.8,241,1409,239.9,1407.8,239.5z"/>
</g>
<g id="XMLID_200_">
	<path id="XMLID_201_" d="M1415.5,239.5v-2.1h-2v2.1c-1.2,0.4-2,1.4-2,2.7c0,1.1,0.6,2.1,1.6,2.6l1.9,1c0.3,0.1,0.5,0.4,0.5,0.8
		c0,0.5-0.4,0.9-0.9,0.9h-0.3c-0.5,0-0.9-0.4-0.9-0.9v-0.2h-2v0.1c0,1.3,0.8,2.3,2,2.7v2.1h2v-2.1c1.2-0.4,2-1.4,2-2.7
		c0-1.1-0.6-2.1-1.6-2.6l-1.9-1c-0.3-0.1-0.5-0.4-0.5-0.8c0-0.5,0.4-0.9,0.9-0.9h0.3c0.5,0,0.9,0.4,0.9,0.9v0.1h2V242
		C1417.5,241,1416.7,239.9,1415.5,239.5z"/>
</g>
<path id="XMLID_23_" class="st9" d="M1552.5-176.6H965.2c-7.3,0-13.2-6-13.2-13.2v-36.6c0-7.3,6-13.2,13.2-13.2h587.3
	c7.3,0,13.2,6,13.2,13.2v36.6C1565.8-182.6,1559.8-176.6,1552.5-176.6z"/>
<g id="XMLID_8_">
	<text transform="matrix(1 0 0 1 1046.1958 -211.65)" class="st0 st1">Analog Data </text>
	<text transform="matrix(1 0 0 1 1061.7958 -193.65)" class="st0 st1">Loggers</text>
</g>
<g id="XMLID_9_">
	<text transform="matrix(1 0 0 1 1186.1504 -213.65)" class="st0 st1">NFC </text>
	<text transform="matrix(1 0 0 1 1185.8503 -195.65)" class="st0 st1">Tags</text>
</g>
<g id="XMLID_10_">
	<text transform="matrix(1 0 0 1 1293.813 -213.65)" class="st0 st1">RFID</text>
	<text transform="matrix(1 0 0 1 1293.813 -195.65)" class="st0 st1">Tags</text>
</g>
<g id="XMLID_11_">
	<text transform="matrix(1 0 0 1 1378.6006 -213.65)" class="st0 st1">Bluetooth</text>
	<text transform="matrix(1 0 0 1 1385.9006 -195.65)" class="st0 st1">Devices</text>
</g>
<g id="XMLID_39_">
	<text transform="matrix(1 0 0 1 1491.1904 -213.65)" class="st0 st1">Cellular</text>
	<text transform="matrix(1 0 0 1 1490.8904 -195.65)" class="st0 st1">Devices</text>
</g>
<path id="XMLID_12_" class="st10" d="M1011.5,266.4h-63.7c-8.1,0-14.8-6.6-14.8-14.8v-488c0-8.1,6.6-14.8,14.8-14.8h63.7
	c8.1,0,14.8,6.6,14.8,14.8v488.1C1026.3,259.8,1019.6,266.4,1011.5,266.4z"/>
<polyline id="Done__x2014__Displayed_on_the_left_side_of_a_contextual_action_bar__x28_CAB_x29__to_allow_the_user_to_dismiss_it._1_" class="st5" points="
	989,-144.6 978,-133.6 973,-138.6 "/>
<polyline id="Done__x2014__Displayed_on_the_left_side_of_a_contextual_action_bar__x28_CAB_x29__to_allow_the_user_to_dismiss_it._2_" class="st5" points="
	989,-111.6 978,-100.6 973,-105.6 "/>
<polyline id="Done__x2014__Displayed_on_the_left_side_of_a_contextual_action_bar__x28_CAB_x29__to_allow_the_user_to_dismiss_it._4_" class="st5" points="
	989,-75.6 978,-64.6 973,-69.6 "/>
<polyline id="Done__x2014__Displayed_on_the_left_side_of_a_contextual_action_bar__x28_CAB_x29__to_allow_the_user_to_dismiss_it._3_" class="st5" points="
	989,-41.6 978,-30.6 973,-35.6 "/>
<polyline id="Done__x2014__Displayed_on_the_left_side_of_a_contextual_action_bar__x28_CAB_x29__to_allow_the_user_to_dismiss_it._7_" class="st5" points="
	989,-6.6 978,4.4 973,-0.6 "/>
<polyline id="Done__x2014__Displayed_on_the_left_side_of_a_contextual_action_bar__x28_CAB_x29__to_allow_the_user_to_dismiss_it._6_" class="st5" points="
	989,29.4 978,40.4 973,35.4 "/>
<polyline id="Done__x2014__Displayed_on_the_left_side_of_a_contextual_action_bar__x28_CAB_x29__to_allow_the_user_to_dismiss_it._5_" class="st5" points="
	989,63.4 978,74.4 973,69.4 "/>
<text id="XMLID_43_" transform="matrix(1 0 0 1 959.083 143.35)" class="st0 st1">Small</text>
<g id="XMLID_104_">
	<g id="XMLID_105_">
		<path id="XMLID_106_" d="M990.1,172.8h-0.6v-0.6c0-1.8-1.4-3.2-3.2-3.2h-21.6c-1.8,0-3.2,1.4-3.2,3.2v7.6c0,1.8,1.4,3.2,3.2,3.2
			h21.6c1.8,0,3.2-1.4,3.2-3.2v-0.6h0.6c1.1,0,1.9-0.9,1.9-1.9v-2.5C992,173.6,991.2,172.8,990.1,172.8z M987,179.8
			c0,0.4-0.3,0.6-0.6,0.6h-21.6c-0.4,0-0.6-0.3-0.6-0.6v-7.6c0-0.4,0.3-0.6,0.6-0.6h21.6c0.4,0,0.6,0.3,0.6,0.6V179.8z"/>
	</g>
</g>
<rect id="XMLID_98_" x="964" y="171.5" class="st2" width="22.3" height="8.9"/>
<g id="XMLID_141_">
	<g id="XMLID_142_">
		<path id="XMLID_99_" d="M976.2,213.6c-0.9,0-1.6,0.7-1.6,1.6s0.7,1.6,1.6,1.6s1.6-0.7,1.6-1.6
			C977.8,214.5,977.1,213.6,976.2,213.6z"/>
	</g>
</g>
<g id="XMLID_138_">
	<g id="XMLID_139_">
		<path id="XMLID_96_" d="M980.1,211.6c-1-1-2.4-1.6-3.9-1.6s-2.8,0.6-3.9,1.6c-0.4,0.4-0.4,1.1,0,1.5c0.2,0.2,0.5,0.3,0.8,0.3
			c0.3,0,0.6-0.1,0.8-0.3c0.6-0.6,1.5-1,2.4-1s1.7,0.3,2.4,1c0.2,0.2,0.5,0.3,0.8,0.3c0.3,0,0.6-0.1,0.8-0.3
			C980.5,212.6,980.5,212,980.1,211.6z"/>
	</g>
</g>
<g id="XMLID_107_">
	<g id="XMLID_131_">
		<path id="XMLID_95_" d="M985.1,206.6c-2.4-2.4-5.5-3.7-8.9-3.7s-6.5,1.3-8.9,3.7c-0.4,0.4-0.4,1.1,0,1.5c0.2,0.2,0.5,0.3,0.8,0.3
			c0.3,0,0.6-0.1,0.8-0.3c2-2,4.6-3,7.4-3s5.4,1.1,7.4,3c0.2,0.2,0.5,0.3,0.8,0.3c0.3,0,0.6-0.1,0.8-0.3
			C985.5,207.6,985.5,207,985.1,206.6z"/>
	</g>
</g>
<g id="XMLID_101_">
	<g id="XMLID_102_">
		<path id="XMLID_94_" d="M982.5,209.1c-1.7-1.7-3.9-2.6-6.3-2.6s-4.6,0.9-6.3,2.6c-0.2,0.2-0.3,0.5-0.3,0.8s0.1,0.6,0.3,0.8
			c0.2,0.2,0.5,0.3,0.8,0.3s0.6-0.1,0.8-0.3c1.3-1.3,3-2,4.8-2s3.5,0.7,4.8,2c0.2,0.2,0.5,0.3,0.8,0.3s0.6-0.1,0.8-0.3
			c0.2-0.2,0.3-0.5,0.3-0.8C982.8,209.6,982.7,209.2,982.5,209.1z"/>
	</g>
</g>
<g id="XMLID_190_">
	<path id="XMLID_187_" d="M977.6,239.5v-2.1h-2v2.1c-1.2,0.4-2,1.4-2,2.7c0,1.1,0.6,2.1,1.6,2.6l1.9,1c0.3,0.1,0.5,0.4,0.5,0.8
		c0,0.5-0.4,0.9-0.9,0.9h-0.3c-0.5,0-0.9-0.4-0.9-0.9v-0.2h-2v0.1c0,1.3,0.8,2.3,2,2.7v2.1h2v-2.1c1.2-0.4,2-1.4,2-2.7
		c0-1.1-0.6-2.1-1.6-2.6l-1.9-1c-0.3-0.1-0.5-0.4-0.5-0.8c0-0.5,0.4-0.9,0.9-0.9h0.3c0.5,0,0.9,0.4,0.9,0.9v0.1h2V242
		C979.6,241,978.8,239.9,977.6,239.5z"/>
</g>
<text id="XMLID_7_" transform="matrix(1 0 0 1 948 -203.65)" class="st0 st1">NanoTag</text>
<g id="XMLID_14_">
	<path id="XMLID_15_" d="M1500.5,239.5v-2.1h-2v2.1c-1.2,0.4-2,1.4-2,2.7c0,1.1,0.6,2.1,1.6,2.6l1.9,1c0.3,0.1,0.5,0.4,0.5,0.8
		c0,0.5-0.4,0.9-0.9,0.9h-0.3c-0.5,0-0.9-0.4-0.9-0.9v-0.2h-2v0.1c0,1.3,0.8,2.3,2,2.7v2.1h2v-2.1c1.2-0.4,2-1.4,2-2.7
		c0-1.1-0.6-2.1-1.6-2.6l-1.9-1c-0.3-0.1-0.5-0.4-0.5-0.8c0-0.5,0.4-0.9,0.9-0.9h0.3c0.5,0,0.9,0.4,0.9,0.9v0.1h2V242
		C1502.5,241,1501.7,239.9,1500.5,239.5z"/>
</g>
<g id="XMLID_4_">
	<path id="XMLID_13_" d="M1508.2,239.5v-2.1h-2v2.1c-1.2,0.4-2,1.4-2,2.7c0,1.1,0.6,2.1,1.6,2.6l1.9,1c0.3,0.1,0.5,0.4,0.5,0.8
		c0,0.5-0.4,0.9-0.9,0.9h-0.3c-0.5,0-0.9-0.4-0.9-0.9v-0.2h-2v0.1c0,1.3,0.8,2.3,2,2.7v2.1h2v-2.1c1.2-0.4,2-1.4,2-2.7
		c0-1.1-0.6-2.1-1.6-2.6l-1.9-1c-0.3-0.1-0.5-0.4-0.5-0.8c0-0.5,0.4-0.9,0.9-0.9h0.3c0.5,0,0.9,0.4,0.9,0.9v0.1h2V242
		C1510.2,241,1509.4,239.9,1508.2,239.5z"/>
</g>
<g id="XMLID_19_">
	<path id="XMLID_20_" d="M1516.1,239.5v-2.1h-2v2.1c-1.2,0.4-2,1.4-2,2.7c0,1.1,0.6,2.1,1.6,2.6l1.9,1c0.3,0.1,0.5,0.4,0.5,0.8
		c0,0.5-0.4,0.9-0.9,0.9h-0.2c-0.5,0-0.9-0.4-0.9-0.9v-0.2h-2v0.1c0,1.3,0.8,2.3,2,2.7v2.1h2v-2.1c1.2-0.4,2-1.4,2-2.7
		c0-1.1-0.6-2.1-1.6-2.6l-1.9-1c-0.3-0.1-0.5-0.4-0.5-0.8c0-0.5,0.4-0.9,0.9-0.9h0.3c0.5,0,0.9,0.4,0.9,0.9v0.1h2V242
		C1518.1,241,1517.3,239.9,1516.1,239.5z"/>
</g>
<g id="XMLID_17_">
	<path id="XMLID_18_" d="M1523.9,239.5v-2.1h-2v2.1c-1.2,0.4-2,1.4-2,2.7c0,1.1,0.6,2.1,1.6,2.6l1.9,1c0.3,0.1,0.5,0.4,0.5,0.8
		c0,0.5-0.4,0.9-0.9,0.9h-0.3c-0.5,0-0.9-0.4-0.9-0.9v-0.2h-2v0.1c0,1.3,0.8,2.3,2,2.7v2.1h2v-2.1c1.2-0.4,2-1.4,2-2.7
		c0-1.1-0.6-2.1-1.6-2.6l-1.9-1c-0.3-0.1-0.5-0.4-0.5-0.8c0-0.5,0.4-0.9,0.9-0.9h0.3c0.5,0,0.9,0.4,0.9,0.9v0.1h2V242
		C1525.9,241,1525,239.9,1523.9,239.5z"/>
</g>
</svg>
