<svg xmlns="http://www.w3.org/2000/svg" viewBox="0 0 129.3 264">
    <style>
        .it-none {
            animation: fade 3s infinite;
            opacity: 0;
        }
        @keyframes fade {
            0% {
                opacity: 0;
            }
            50% {
                opacity: 1;
            }
            100% {
                opacity: 0;
            }
        }
    </style>
    <title>1</title>
    <g id="ba5d18f4-3a7b-4041-85d3-160b34d869a1" data-name="Layer 2">
        <g id="a946d091-a004-4e25-a94a-a2b1aa038ec0" data-name="Levels">
            <path d="M74.9,0H54.4A10.6,10.6,0,0,0,43.8,10.6v8.3H85.5V10.6A10.6,10.6,0,0,0,74.9,0Z" fill="#262626" />
            <path
                d="M111.8,264H17.5A17.5,17.5,0,0,1,0,246.5V32.2A17.5,17.5,0,0,1,17.5,14.7h94.3a17.5,17.5,0,0,1,17.5,17.5V246.5A17.5,17.5,0,0,1,111.8,264ZM17.5,24.1a8.1,8.1,0,0,0-8.1,8.1V246.5a8.1,8.1,0,0,0,8.1,8.1h94.3a8.1,8.1,0,0,0,8.1-8.1V32.2a8.1,8.1,0,0,0-8.1-8.1Z"
                fill="#262626" />
            <path class="it-none"
                d="M64.6,182.4a43.1,43.1,0,1,1,43.1-43.1A43.1,43.1,0,0,1,64.6,182.4Zm0-78.6a35.6,35.6,0,1,0,35.6,35.5A35.6,35.6,0,0,0,64.6,103.8Z"
                fill="#ff4657" />
            <polygon class="it-none"
                points="62.5 160.1 54.2 160.1 63.4 143.1 51 143.1 65.2 117.5 73.7 117.5 63.7 135.7 75.8 135.7 62.5 160.1"
                fill="#ff4657" />
        </g>
    </g>
</svg>
