<svg xmlns="http://www.w3.org/2000/svg" viewBox="0 0 55.9 45.9"><title>1</title><g id="af4f3fba-6f7e-4f18-872d-5b09ad599f01" data-name="Layer 2"><g id="a69b4000-3019-47dd-84c7-2b86a0792715" data-name="Layer 1"><path d="M.7,13.7l.2.3a2.4,2.4,0,0,0,3.2.1,35.8,35.8,0,0,1,47.7,0A2.4,2.4,0,0,0,55,14l.2-.3a2.3,2.3,0,0,0-.1-3.4,40.9,40.9,0,0,0-54.3,0A2.3,2.3,0,0,0,.7,13.7Z" fill="#d3e1e9"/><path d="M28,27.6a13.2,13.2,0,0,0-7.2,2.1,2.4,2.4,0,0,0-.5,3.7l.3.2a2.4,2.4,0,0,0,3,.3A7.9,7.9,0,0,1,28,32.6a8.4,8.4,0,0,1,4.4,1.3,2.3,2.3,0,0,0,2.9-.3l.3-.2a2.5,2.5,0,0,0-.4-3.7A13.8,13.8,0,0,0,28,27.6Z" fill="#d3e1e9"/><path d="M28,18.4a22.1,22.1,0,0,0-14,4.9,2.3,2.3,0,0,0-.2,3.5l.2.2a2.2,2.2,0,0,0,3.1.2,17.4,17.4,0,0,1,21.7,0,2.2,2.2,0,0,0,3.1-.2l.3-.2a2.3,2.3,0,0,0-.3-3.5A22,22,0,0,0,28,18.4Z" fill="#d3e1e9"/><path d="M28,9.2A32.1,32.1,0,0,0,7.3,16.8a2.4,2.4,0,0,0-.1,3.5l.2.2a2.4,2.4,0,0,0,3.2.1,26.7,26.7,0,0,1,34.7,0,2.4,2.4,0,0,0,3.2-.1l.2-.2a2.4,2.4,0,0,0-.1-3.5A32,32,0,0,0,28,9.2Z" fill="#d3e1e9"/><path d="M32.5,41.4A4.6,4.6,0,1,1,28,36.9,4.5,4.5,0,0,1,32.5,41.4Z" fill="#d3e1e9"/><path d="M52,39c-.2-.2-.2-.5,0-.6l3.7-3.7a.9.9,0,0,0,0-1.2l-1.9-1.8a.8.8,0,0,0-1.1,0L49,35.4a.5.5,0,0,1-.7,0l-3.7-3.7a.8.8,0,0,0-1.1,0l-1.8,1.8a.9.9,0,0,0,0,1.2l3.7,3.7a.6.6,0,0,1,0,.6l-3.7,3.7a.8.8,0,0,0,0,1.1l1.8,1.9a.8.8,0,0,0,1.1,0L48.3,42a.5.5,0,0,1,.7,0l3.7,3.7a.8.8,0,0,0,1.1,0l1.9-1.9a.8.8,0,0,0,0-1.1Z" fill="#231f20"/></g></g></svg>