<svg xmlns="http://www.w3.org/2000/svg" viewBox="0 0 55.9 45.9">
    <style>
        path.it-wf {
            animation: ani 3s infinite;
            opacity: 0.5
        }
        path.it-wf:nth-child(2) {
            animation-delay: .2s;
        }
        path.it-wf:nth-child(3) {
            animation-delay: .4s;
        }
        path.it-wf:nth-child(4) {
            animation-delay: .6s;
        }
        path.it-wf:nth-child(5) {
            animation-delay: .8s;
        }
        path.it-wf:nth-child(6) {
            animation-delay: 1s;
        }
        @keyframes ani {
            0% {
                opacity: 0.5
            }
            50% {
                opacity: 1
            }
            100% {
                opacity: 0.5
            }
        }
    </style>
    <title>2</title>
    <g id="e4cac241-8ffc-40e7-92b2-e91851e8fba4" data-name="Layer 2">
        <g id="ad7aec24-cf6e-4041-bd7f-97ec74dff1a6" data-name="Layer 1">
            <path
                d="M.7,13.7l.2.3a2.4,2.4,0,0,0,3.2.1,35.8,35.8,0,0,1,47.7,0A2.4,2.4,0,0,0,55,14l.2-.3a2.3,2.3,0,0,0-.1-3.4,40.9,40.9,0,0,0-54.3,0A2.3,2.3,0,0,0,.7,13.7Z"
                fill="#d3e1e9" />
            <path
                d="M28,27.6a13.2,13.2,0,0,0-7.2,2.1,2.4,2.4,0,0,0-.5,3.7l.3.2a2.4,2.4,0,0,0,3,.3A7.9,7.9,0,0,1,28,32.6a8.4,8.4,0,0,1,4.4,1.3,2.3,2.3,0,0,0,2.9-.3l.3-.2a2.5,2.5,0,0,0-.4-3.7A13.8,13.8,0,0,0,28,27.6Z"
                fill="#d3e1e9" />
            <path
                d="M28,18.4a22.1,22.1,0,0,0-14,4.9,2.3,2.3,0,0,0-.2,3.5l.2.2a2.2,2.2,0,0,0,3.1.2,17.4,17.4,0,0,1,21.7,0,2.2,2.2,0,0,0,3.1-.2l.3-.2a2.3,2.3,0,0,0-.3-3.5A22,22,0,0,0,28,18.4Z"
                fill="#d3e1e9" />
            <path
                d="M28,9.2A32.1,32.1,0,0,0,7.3,16.8a2.4,2.4,0,0,0-.1,3.5l.2.2a2.4,2.4,0,0,0,3.2.1,26.7,26.7,0,0,1,34.7,0,2.4,2.4,0,0,0,3.2-.1l.2-.2a2.4,2.4,0,0,0-.1-3.5A32,32,0,0,0,28,9.2Z"
                fill="#d3e1e9" />
            <path class="it-wf" d="M32.5,41.4A4.6,4.6,0,1,1,28,36.9,4.5,4.5,0,0,1,32.5,41.4Z" fill="#231f20" />
        </g>
    </g>
</svg>
