<svg xmlns="http://www.w3.org/2000/svg" xmlns:xlink="http://www.w3.org/1999/xlink" viewBox="0 0 71.25 98.99"><defs><style>.cls-1{fill:none;}.cls-2{clip-path:url(#clip-path);}.cls-3{fill:#ff5d00;}</style><clipPath id="clip-path" transform="translate(0 0)"><rect class="cls-1" width="71.25" height="99"/></clipPath></defs><title>2</title><g id="Layer_2" data-name="Layer 2"><g id="Layer_1-2" data-name="Layer 1"><g class="cls-2"><path class="cls-3" d="M60.41,87.55,55.3,89.64l-5.73-2.09v-4.1H60.41ZM49.57,80.36a3.1,3.1,0,0,0-3.1,3.09v4.1a3.22,3.22,0,0,0,2,2.94l5.73,2.09a2.56,2.56,0,0,0,1.09.15,3.24,3.24,0,0,0,1.16-.23l5.11-2.09a3.11,3.11,0,0,0,1.94-2.86v-4.1a3.11,3.11,0,0,0-3.1-3.09Z" transform="translate(0 0)"/><path class="cls-3" d="M56.3,72.62a1.94,1.94,0,1,1-1.93-1.93A1.91,1.91,0,0,1,56.3,72.62Zm11.85,23.2H3.1V74.94A21,21,0,0,1,17.74,55a16.55,16.55,0,0,0-5,7.58,12.36,12.36,0,0,0-.08,6.5,5.72,5.72,0,0,0-2.4,6.26l2.87,10a1.59,1.59,0,0,0,.77.93,2.59,2.59,0,0,0,.7.15,1.27,1.27,0,0,0,.54-.08l2.48-.85a1.58,1.58,0,0,0,.93-2,1.52,1.52,0,0,0-2-.93l-.86.31-2.4-8.35a2.87,2.87,0,0,1,1.94-3.33,3.22,3.22,0,0,1,3.95,1.32l4.1,7.66-.62.23a1.59,1.59,0,0,0-.93,2,1.53,1.53,0,0,0,2,.93l2.24-.85a1.58,1.58,0,0,0,.93-.93,1.55,1.55,0,0,0-.07-1.32l-4.88-9.12A6.33,6.33,0,0,0,15.57,68a9.13,9.13,0,0,1,.15-4.56c1.09-3.87,4.49-6.73,6.82-8.27l-2.33,9.28a1.52,1.52,0,0,0,.78,1.7,1.54,1.54,0,0,0,1.86-.31c3.33-3.56,8.36-1.55,10-.78.54,1.55,1.24,5,1.31,5.11V82.91a1.55,1.55,0,1,0,3.1,0V70.15a31,31,0,0,1,1.09-5c1.23-.69,6.73-3.17,10.22.62a1.54,1.54,0,0,0,2.63-1.39L48.87,55c2.09,1.39,5,3.87,6.12,7.43a9.59,9.59,0,0,1,0,5.1h-.55a5,5,0,1,0,3.41,1.31,12.19,12.19,0,0,0,.08-7.27,16.23,16.23,0,0,0-4.26-6.65,21.26,21.26,0,0,1,14.48,20ZM25.79,54.91a17.94,17.94,0,0,1,5.34,6.35,11.86,11.86,0,0,0-7,.15Zm4.65-9.2a10.37,10.37,0,0,0,5.19,1.39h.3a9.5,9.5,0,0,0,4.88-1.78,14,14,0,0,0,2.95,7,22.57,22.57,0,0,0-8.21,11.22c0-.08-.08-.16-.08-.24a22,22,0,0,0-7.9-11A14,14,0,0,0,30.44,45.71ZM24.09,25.53A25.83,25.83,0,0,0,35.78,15.08,35.29,35.29,0,0,0,47.16,25.29C45.69,35,42.6,39.6,40.27,41.77A7.3,7.3,0,0,1,35.93,44h-.3C27,44,24.63,29.93,24.09,25.53ZM20.21,36.89a4.39,4.39,0,0,1-1.39-2.32C16.73,22.74,18,14,22.46,8.67S33.77,3,35.08,3h.31c6.28.23,10.77,2.24,13.79,6,6,7.42,4.33,20,3.41,25.13A6.39,6.39,0,0,1,51,36.58a30.38,30.38,0,0,1-5,2.87c1.86-3.25,3.49-7.81,4.42-14.39a2.19,2.19,0,0,0-1.09-2.16C46.39,21.27,39.11,16.71,36.4,9.52c-.31-.78-.54-1.09-.77-1.09s-.47.39-.7,1.09A22.63,22.63,0,0,1,22.07,23.05a2.1,2.1,0,0,0-1.16,2.09c.31,2.86,1.24,9.12,3.87,14.23A33.12,33.12,0,0,1,20.21,36.89Zm25.25,18,1.63,6.58a11.07,11.07,0,0,0-3.57-.62,13.36,13.36,0,0,0-3.64.54A17.54,17.54,0,0,1,45.46,54.91ZM47.32,51h-.39c-2.32-1.32-3-5.49-3.17-7a.45.45,0,0,0-.08-.31,32.5,32.5,0,0,0,9.06-4.41,8.17,8.17,0,0,0,2.87-4.4C57.23,26.3,59.94,1,35.55,0h-.47C31.6,0,9.84,1.32,15.8,35.19a7.25,7.25,0,0,0,2.79,4.41,35.9,35.9,0,0,0,9.06,4.1c0,.08-.08.23-.08.31-.08,1.55-.85,5.72-3.17,7H24A24,24,0,0,0,0,75V99H71.25V74.94A24,24,0,0,0,47.32,51Z" transform="translate(0 0)"/></g></g></g></svg>