<svg xmlns="http://www.w3.org/2000/svg" xmlns:xlink="http://www.w3.org/1999/xlink" viewBox="0 0 149.38 99.03"><defs><style>.cls-1{fill:none;}.cls-2{clip-path:url(#clip-path);}.cls-3{fill:#ff5d00;}.cls-4{clip-path:url(#clip-path-2);}.cls-5{clip-path:url(#clip-path-3);}.cls-6{clip-path:url(#clip-path-4);}.cls-7{clip-path:url(#clip-path-5);}.cls-8{clip-path:url(#clip-path-7);}</style><clipPath id="clip-path" transform="translate(-0.15)"><rect class="cls-1" width="51" height="99"/></clipPath><clipPath id="clip-path-2" transform="translate(-0.15)"><rect class="cls-1" x="41.11" y="3.37" width="9.75" height="24.95"/></clipPath><clipPath id="clip-path-3" transform="translate(-0.15)"><rect class="cls-1" x="0.15" width="50.71" height="99"/></clipPath><clipPath id="clip-path-4" transform="translate(-0.15)"><rect class="cls-1" x="100.06" y="24.82" width="27.93" height="49.47"/></clipPath><clipPath id="clip-path-5" transform="translate(-0.15)"><rect class="cls-1" x="100.06" y="24.82" width="49.5" height="49.5"/></clipPath><clipPath id="clip-path-7" transform="translate(-0.15)"><rect class="cls-1" x="128.58" y="24.82" width="20.95" height="41.6"/></clipPath></defs><title>3</title><g id="Layer_2" data-name="Layer 2"><g id="Layer_1-2" data-name="Layer 1"><g class="cls-2"><path class="cls-3" d="M17.1,5.74a3.06,3.06,0,0,0,2.2.77,12.06,12.06,0,0,0-2.81-4.6c0,.06,0,.13,0,.18-.4,1.69-.19,2.84.65,3.65" transform="translate(-0.15)"/></g><g class="cls-4"><path class="cls-3" d="M47.6,3.53a6.42,6.42,0,0,0-3.21,2c1.21,4.62.31,11-1,14.75a8.1,8.1,0,0,1-2,3.37c.37,1.83,1.1,3.49,2.5,3.89,2.33.63,4.09-2.1,5.29-5.09a23,23,0,0,0,1.23-11.91,18.6,18.6,0,0,0-2.82-7" transform="translate(-0.15)"/></g><g class="cls-5"><path class="cls-3" d="M46.83,44.32c2.1-6.11,4.31-15.62,4-20.09-3.17,10-7.86,9.2-11.17,5.12a16.16,16.16,0,0,1-2.74-6.64A30.53,30.53,0,0,1,39.84,4.6a8.2,8.2,0,0,1,4.55-4A13.78,13.78,0,0,0,38.73.08C35,1.11,28.6,10.32,19.9,10.69a7.84,7.84,0,0,1-6-2C10.6,5.5,12.17,1.19,12.15.94A34.73,34.73,0,0,0,6.52,2.3c-1.7,2.17-.15,12.47,0,13.86C7.69,28,4.66,29.38,7.12,34.44c1.81,4.7,2.1,10.49-1.9,17.9C1.47,59.3-.4,62.56.3,69.53a21.37,21.37,0,0,0,2.92,8.63c1.13,2,3.12,7.8,3.49,14.08,0,.8.62,3.76,5.19,4.47,7.28.78,9.71-1.64,9.71-1.64s0-3.24,0-6.09c-.33-4.13-.4-6.55-3-9.68s-4.74-7.54-2.93-11.24c-.14,5.41,4.63,10.3,4.63,10.3h0A17.17,17.17,0,0,1,25.54,87c.59,1.62.46,7.86.46,7.86s0,.34.08.51c.64,2.33,4.44,3.74,12.22,3.62,10.81-.16,11.5-3.48,11.5-3.48A74.87,74.87,0,0,0,48,69.62c-3.5-13-3.27-19.2-1.17-25.3" transform="translate(-0.15)"/></g><g class="cls-6"><path class="cls-3" d="M122.89,24.82H104.82a4.76,4.76,0,0,0-4.76,4.76V64.37a.95.95,0,0,0,1.9,0V61h23.79v8.56a2.86,2.86,0,0,1-2.86,2.86H104.82A2.86,2.86,0,0,1,102,69.53V68.17a.95.95,0,0,0-1.9,0v1.36a4.76,4.76,0,0,0,4.76,4.76h18.07a4.76,4.76,0,0,0,4.76-4.76V29.58a4.76,4.76,0,0,0-4.76-4.76m-7.25,1.9L115,28.1a1,1,0,0,1-.85.52h-.51a1,1,0,0,1-.85-.52l-.69-1.38Zm10.11,32.35H102V29.58a2.86,2.86,0,0,1,2.86-2.86h5.12L111.05,29a2.86,2.86,0,0,0,2.55,1.58h.51A2.86,2.86,0,0,0,116.66,29l1.11-2.23h5.12a2.86,2.86,0,0,1,2.86,2.86Z" transform="translate(-0.15)"/></g><g class="cls-7"><path class="cls-3" d="M144.69,62.08a1,1,0,0,0-1.2.61,6.49,6.49,0,0,1-1.62,2.63,1,1,0,0,0,0,1.35,1,1,0,0,0,1.35,0,8.45,8.45,0,0,0,2.08-3.39.94.94,0,0,0-.61-1.2" transform="translate(-0.15)"/><path class="cls-3" d="M118.48,41.66a.29.29,0,0,1,0-.09.36.36,0,0,0,0-.09s0,0,0-.08a.56.56,0,0,0,0-.08.35.35,0,0,0,0-.08l-.06-.07-.08-.07,0,0L115,38.78a3.39,3.39,0,0,0,1.67-3,2.89,2.89,0,1,0-5.71,0,3.39,3.39,0,0,0,1.67,3l-3.07,2.28,0,0-.08.07-.06.07a.35.35,0,0,0,0,.08.22.22,0,0,0-.05.08s0,.05,0,.08l0,.09a.29.29,0,0,1,0,.09.45.45,0,0,1,0,.11v3.9a1,1,0,1,0,1.9,0V42.3L112.9,41v6a2.85,2.85,0,0,0-1.9,2.68V56.3a1,1,0,0,0,1.9,0V49.64a1,1,0,0,1,1.91,0V56.3a.95.95,0,1,0,1.9,0V49.64a2.85,2.85,0,0,0-1.9-2.68V41l1.78,1.32v3.37a1,1,0,1,0,1.9,0v-3.9s0-.08,0-.11m-4.63-4.47c-.5,0-.95-.67-.95-1.43s.45-1.43.95-1.43,1,.67,1,1.43S114.36,37.19,113.85,37.19Z" transform="translate(-0.15)"/></g><g class="cls-7"><path class="cls-3" d="M147.77,65a1,1,0,0,0-1.29.41A10.1,10.1,0,0,1,144.56,68a1,1,0,0,0,0,1.35,1,1,0,0,0,1.35,0,12.55,12.55,0,0,0,2.27-3.11,1,1,0,0,0-.41-1.28" transform="translate(-0.15)"/></g><g class="cls-8"><path class="cls-3" d="M141.75,58.64,139,55.86a2.82,2.82,0,0,0-1-.65V54.3a2.67,2.67,0,0,1,.77-1.88A4.61,4.61,0,0,0,140,49.2v-.69a4.78,4.78,0,0,0,3.73-3.87,10.47,10.47,0,1,0-9.37,0,4.78,4.78,0,0,0,3.73,3.87v.69a2.71,2.71,0,0,1-.76,1.89,4.6,4.6,0,0,0-1.3,3.21v.91a3,3,0,0,0-1,.65l-2.77,2.78a2.79,2.79,0,0,0,0,4L135,65.37a2.81,2.81,0,0,0,2,.81,2.77,2.77,0,0,0,2-.81l2.78-2.78a2.79,2.79,0,0,0,0-4m-7.44-18.48V42.4a8.57,8.57,0,1,1,9.51,0V40.16a1.48,1.48,0,0,0,0-.21,6.65,6.65,0,0,0,1.92-4.67,1,1,0,0,0-1.91,0,4.71,4.71,0,0,1-.89,2.76,2.93,2.93,0,0,0-1-.64V34.33a1,1,0,0,0-1-.95H137.2a1,1,0,0,0-.95.95v3A3,3,0,0,0,134.31,40.16Zm5.75-4.88v1.91h-1.91V35.28Zm-3.33,10.2a2.85,2.85,0,0,1-.47-1.1,3.19,3.19,0,0,1,0-.54V40.16a1.07,1.07,0,0,1,1.07-1.07h3.57a1.07,1.07,0,0,1,.68.25,1.06,1.06,0,0,1,.39.82v3.68a3.19,3.19,0,0,1,0,.54,2.85,2.85,0,0,1-.47,1.1A2.88,2.88,0,0,1,140,46.53V45.08a1.14,1.14,0,0,0-.06-.33,1,1,0,0,0-.89-.63,1,1,0,0,0-.9.63,1.14,1.14,0,0,0-.06.33v1.45A2.88,2.88,0,0,1,136.73,45.48Zm3.67,15.76L137.63,64a.91.91,0,0,1-1.26,0l-2.78-2.78a.91.91,0,0,1,0-1.26l2.78-2.77.12-.1a.89.89,0,0,1,1,0l.12.1L140.4,60a.9.9,0,0,1,.27.63A.87.87,0,0,1,140.4,61.24Z" transform="translate(-0.15)"/></g><g class="cls-7"><path class="cls-3" d="M147.33,56.37a1,1,0,0,0,.44-.11,1,1,0,0,0,.41-1.28,12.55,12.55,0,0,0-2.27-3.11,1,1,0,0,0-1.35,0,1,1,0,0,0,0,1.34,10.32,10.32,0,0,1,1.92,2.64,1,1,0,0,0,.85.52" transform="translate(-0.15)"/><path class="cls-3" d="M112.73,63.28a1,1,0,0,0-1.32-.24L108,65.42a1,1,0,0,0-.4.78,1,1,0,0,0,.4.79l3.43,2.37a.89.89,0,0,0,.54.17.95.95,0,0,0,.54-1.73l-2.3-1.6,2.3-1.59a1,1,0,0,0,.24-1.33" transform="translate(-0.15)"/><path class="cls-3" d="M141.87,54.56a1,1,0,0,0,0,1.35,6.42,6.42,0,0,1,1.62,2.63,1,1,0,0,0,.91.66.93.93,0,0,0,.29-.05.94.94,0,0,0,.61-1.2,8.45,8.45,0,0,0-2.08-3.39,1,1,0,0,0-1.35,0" transform="translate(-0.15)"/><path class="cls-3" d="M140,29.58a1,1,0,0,0-1-1,6.66,6.66,0,0,0-6.66,6.66,1,1,0,1,0,1.9,0,4.76,4.76,0,0,1,4.76-4.75,1,1,0,0,0,1-1" transform="translate(-0.15)"/><path class="cls-3" d="M115,69.13a1,1,0,0,0,.78.4.91.91,0,0,0,.54-.17L119.72,67a1,1,0,0,0,.41-.79,1,1,0,0,0-.41-.78L116.3,63a1,1,0,0,0-1.32.24,1,1,0,0,0,.23,1.33l2.31,1.59-2.31,1.6a1,1,0,0,0-.23,1.33" transform="translate(-0.15)"/></g><path class="cls-3" d="M87.37,64.29H78.54v8.62h-8V64.29H61.63V56.67H70.5V48.05h8v8.62h8.83Z" transform="translate(-0.15)"/></g></g></svg>