<svg xmlns="http://www.w3.org/2000/svg" xmlns:xlink="http://www.w3.org/1999/xlink" viewBox="0 0 201.53 85.5"><defs><style>.cls-1{fill:none;}.cls-2{clip-path:url(#clip-path);}.cls-3{fill:#ff5d00;}.cls-4{clip-path:url(#clip-path-2);}.cls-5{font-size:12.26px;fill:#fff;font-family:Montserrat-ExtraBold, Montserrat;font-weight:800;}</style><clipPath id="clip-path"><rect class="cls-1" width="73.5" height="85.5"/></clipPath><clipPath id="clip-path-2"><rect class="cls-1" x="116.03" width="85.5" height="85.5"/></clipPath></defs><title>4</title><g id="Layer_2" data-name="Layer 2"><g id="Layer_1-2" data-name="Layer 1"><g class="cls-2"><path class="cls-3" d="M50.88,69.83h8.49a1.41,1.41,0,0,0,1.41-1.42V54.19a1.41,1.41,0,0,0-1.41-1.42H50.88a1.41,1.41,0,0,0-1.41,1.42V57H46.64V49.92a1.42,1.42,0,0,0-1.41-1.42H39.58a1.43,1.43,0,0,0-1.42,1.42v1.43H31.05a4.21,4.21,0,0,0-4.19,4.22V57H24V54.19a1.41,1.41,0,0,0-1.41-1.42H14.13a1.41,1.41,0,0,0-1.41,1.42V68.41a1.41,1.41,0,0,0,1.41,1.42h8.49A1.41,1.41,0,0,0,24,68.41V65.57h2.83v2.84a1.41,1.41,0,0,0,.41,1l2.41,2.43v6.52h2.83V71.26a1.46,1.46,0,0,0-.41-1l-2.42-2.43V65.57h6.48l-1.82,1.84,2,2,4.24-4.27a1.43,1.43,0,0,0,.3-1.55,1.41,1.41,0,0,0-1.3-.88,4.25,4.25,0,0,1-4-2.84h8.24v7.94L40,71.67a1.46,1.46,0,0,0-.41,1v5.69H42.4v-5.1l3.83-3.85a1.41,1.41,0,0,0,.41-1V65.57h2.83v2.84a1.41,1.41,0,0,0,1.41,1.42M52.3,55.61H58V67H52.3ZM21.2,67H15.55V55.61H21.2ZM24,62.72V59.88h8.62a7.13,7.13,0,0,0,1.28,2.84ZM43.82,57H29.68V55.57a1.38,1.38,0,0,1,1.37-1.38h8.53A1.42,1.42,0,0,0,41,52.77V51.35h2.83Zm2.82,5.69V59.88h2.83v2.84Z"/><path class="cls-3" d="M37.73.54a1.41,1.41,0,0,0-2,0L.43,34.68a1.4,1.4,0,0,0-.43,1,1.48,1.48,0,0,0,.41,1L7.07,43.4V84.06a1.42,1.42,0,0,0,1.41,1.42H65a1.42,1.42,0,0,0,1.41-1.42V51.35H63.61V82.63H9.89V42.81a1.39,1.39,0,0,0-.41-1L3.43,35.72,36.75,3.54,70.07,35.72l-6,6.09a1.39,1.39,0,0,0-.41,1V48.5h2.82V43.4l6.66-6.69a1.48,1.48,0,0,0,.41-1,1.4,1.4,0,0,0-.43-1L37.73.54"/><path class="cls-3" d="M36.75,34.28a10,10,0,1,0-9.89-10,9.93,9.93,0,0,0,9.89,10m0-17.07a7.11,7.11,0,1,1-7.07,7.11A7.1,7.1,0,0,1,36.75,17.21Z"/><path class="cls-3" d="M36.75,25.75H41V22.9H38.16V18.63H35.34v5.69a1.42,1.42,0,0,0,1.41,1.43"/></g><g class="cls-4"><path class="cls-3" d="M184.43,15.68h2.85V17.1a5.7,5.7,0,0,0,11.4,0V5.7a5.7,5.7,0,0,0-11.4,0V7.12h-57V5.7a5.7,5.7,0,0,0-11.4,0V17.1a5.7,5.7,0,0,0,11.4,0V15.68h2.85v11.4H116V48.45h2.85V85.5h79.8v-37h2.85V27.08h-17.1V15.68m-2.85,11.4h-2.85V15.68h2.85Zm-5.7,0h-34.2V15.68h34.2ZM190.13,5.7a2.85,2.85,0,0,1,5.7,0V17.1a2.85,2.85,0,0,1-5.7,0Zm-62.7,11.4a2.85,2.85,0,0,1-5.7,0V5.7a2.85,2.85,0,0,1,5.7,0Zm2.85-4.27V10h57v2.85Zm5.7,2.85h2.85v11.4H136Zm-8.55,67V57h14.25V82.65Zm68.4-8.55H153.08V54.15h42.75Zm0-22.8h-45.6V77h45.6v5.7h-51.3V54.15h-20v28.5h-2.85V48.45h74.1Zm2.85-21.37V45.6h-79.8V29.93Z"/><path class="cls-3" d="M146,38.48V39.9h-4.27V35.62h5.7V32.78h-7.13a1.43,1.43,0,0,0-1.42,1.42v7.13a1.43,1.43,0,0,0,1.42,1.42h7.13a1.43,1.43,0,0,0,1.42-1.42V39.9h1.43V37.05h-2.85A1.43,1.43,0,0,0,146,38.48"/><path class="cls-3" d="M161.63,35.62h-5.7V32.78h-2.85v4.27a1.43,1.43,0,0,0,1.42,1.43h2.85v4.27h2.85V38.48h2.85a1.44,1.44,0,0,0,1.43-1.43V32.78h-2.85v2.84"/><path class="cls-3" d="M172.79,33.41a1.41,1.41,0,0,0-1.19-.63h-2.85a1.43,1.43,0,0,0-1.42,1.42v8.55h2.85V35.62h.66l2.43,3.65a1.48,1.48,0,0,0,2.37,0l2.43-3.65h.66v7.13h2.85V34.2a1.43,1.43,0,0,0-1.43-1.42H177.3a1.39,1.39,0,0,0-1.18.63l-1.67,2.5-1.66-2.5"/><polyline class="cls-3" points="135.98 71.25 138.83 71.25 138.83 65.55 135.98 65.55 135.98 71.25"/><polyline class="cls-3" points="158.78 59.85 163.05 59.85 163.05 57 155.93 57 155.93 62.7 158.78 62.7 158.78 59.85"/><polyline class="cls-3" points="158.78 65.55 155.93 65.55 155.93 68.4 158.78 68.4 158.78 65.55"/></g><rect class="cls-3" x="123.84" y="32.61" width="65.95" height="12"/><text class="cls-5" transform="translate(135.3 42.75)">A</text><text class="cls-5" transform="translate(147.46 42.75)">T</text><text class="cls-5" transform="translate(157.77 42.75)">N</text><text class="cls-5" transform="translate(170.18 42.75)">T</text><path class="cls-3" d="M105.49,60.31H96.66v8.61h-8V60.31H79.75V52.68h8.87V44.07h8v8.61h8.83Z"/></g></g></svg>