<svg xmlns="http://www.w3.org/2000/svg" xmlns:xlink="http://www.w3.org/1999/xlink" viewBox="0 0 84 98.99"><defs><style>.cls-1{fill:none;}.cls-2{clip-path:url(#clip-path);}.cls-3{fill:#ff5d00;}</style><clipPath id="clip-path" transform="translate(0 0)"><rect class="cls-1" width="84" height="99"/></clipPath></defs><title>5</title><g id="Layer_2" data-name="Layer 2"><g id="Layer_1-2" data-name="Layer 1"><g class="cls-2"><path class="cls-3" d="M16.72,52.59a1.56,1.56,0,0,0,1.56,1.55H50.17a1.55,1.55,0,1,0,0-3.09H18.28A1.55,1.55,0,0,0,16.72,52.59Z" transform="translate(0 0)"/><path class="cls-3" d="M51.72,14.08v-.16a1.55,1.55,0,0,0-1.55-1.54H18.28a1.55,1.55,0,1,0,0,3.09H50.09Z" transform="translate(0 0)"/><path class="cls-3" d="M16.72,21.66a1.55,1.55,0,0,0,1.56,1.54H45a23.67,23.67,0,0,1,1.48-3.09H18.28A1.56,1.56,0,0,0,16.72,21.66Z" transform="translate(0 0)"/><path class="cls-3" d="M18.28,30.94H43.56a19.58,19.58,0,0,1,.23-3.1H18.28a1.55,1.55,0,1,0,0,3.1Z" transform="translate(0 0)"/><path class="cls-3" d="M18.28,38.67H45a19.72,19.72,0,0,1-.93-3.09H18.28a1.55,1.55,0,1,0,0,3.09Z" transform="translate(0 0)"/><path class="cls-3" d="M18.28,43.31a1.55,1.55,0,1,0,0,3.1H50.17a19.94,19.94,0,0,1-2.65-3.1Z" transform="translate(0 0)"/><path class="cls-3" d="M40.13,75.49l-8.24,8.19-3.58-3.55a1.51,1.51,0,0,0-2.18,0,1.49,1.49,0,0,0,0,2.16l4.67,4.64a1.5,1.5,0,0,0,2.18,0l9.33-9.28a1.49,1.49,0,0,0,0-2.16A1.51,1.51,0,0,0,40.13,75.49Z" transform="translate(0 0)"/><path class="cls-3" d="M65.33,46.41A15.47,15.47,0,1,1,80.89,30.94,15.56,15.56,0,0,1,65.33,46.41Zm1.56,23.28a2.26,2.26,0,0,1-1.56.69,2.12,2.12,0,0,1-2.1-2.24L64.32,49.5h2l1.09,18.72A1.75,1.75,0,0,1,66.89,69.69ZM65.33,12.38A18.55,18.55,0,0,0,61.21,49L60.12,68a5.18,5.18,0,0,0,5.21,5.5,5.49,5.49,0,0,0,3.81-1.63A5,5,0,0,0,70.54,68L69.46,49a18.55,18.55,0,0,0-4.13-36.66Z" transform="translate(0 0)"/><path class="cls-3" d="M3.11,63.89v-.47H9.33v.47L6.22,70.07Zm0-15.16H9.33v11.6H3.11ZM3.11,24H9.33V45.63H3.11Zm0-7.74a3.11,3.11,0,0,1,6.22,0v4.64H3.11ZM6.22,75a1.55,1.55,0,0,0,1.4-.85l4.67-9.28a2.14,2.14,0,0,0,.15-.7V16.24A6.22,6.22,0,0,0,0,16.24V64.19a2.16,2.16,0,0,0,.16.7l4.66,9.28A1.55,1.55,0,0,0,6.22,75Z" transform="translate(0 0)"/><path class="cls-3" d="M48.38,82.83a9.3,9.3,0,0,0-.86,1.94,6.67,6.67,0,0,0-.23,2.08,5.18,5.18,0,0,1-.23,1.71,4.61,4.61,0,0,1-1.4,1.08,8,8,0,0,0-1.72,1.24,8,8,0,0,0-1.24,1.7A4.3,4.3,0,0,1,41.61,94a3.68,3.68,0,0,1-1.71.23,10.61,10.61,0,0,0-2.1.23,9.36,9.36,0,0,0-1.94.85,4.38,4.38,0,0,1-1.64.62,4.34,4.34,0,0,1-1.63-.62,10.25,10.25,0,0,0-2-.85,6.76,6.76,0,0,0-2.1-.23A5.18,5.18,0,0,1,26.83,94a4.3,4.3,0,0,1-1.09-1.39,8,8,0,0,0-1.24-1.7,8,8,0,0,0-1.71-1.24,4.49,4.49,0,0,1-1.4-1.08,3.68,3.68,0,0,1-.23-1.71,9.77,9.77,0,0,0-.24-2.08,8.4,8.4,0,0,0-.85-1.94,4.35,4.35,0,0,1-.63-1.62,4.32,4.32,0,0,1,.63-1.63,8.93,8.93,0,0,0,.85-1.93,6.44,6.44,0,0,0,.24-2.09,4.9,4.9,0,0,1,.23-1.7,4.49,4.49,0,0,1,1.4-1.08,8,8,0,0,0,1.71-1.24,8,8,0,0,0,1.24-1.7,4.3,4.3,0,0,1,1.09-1.39,3.68,3.68,0,0,1,1.71-.23,9.88,9.88,0,0,0,2.1-.24,8.48,8.48,0,0,0,2-.85,4.34,4.34,0,0,1,1.63-.62,4.38,4.38,0,0,1,1.64.62A8.81,8.81,0,0,0,37.8,68a6.53,6.53,0,0,0,2.1.24,4.93,4.93,0,0,1,1.71.23,4.3,4.3,0,0,1,1.09,1.39,8,8,0,0,0,1.24,1.7,8,8,0,0,0,1.72,1.24,4.61,4.61,0,0,1,1.4,1.08,3.66,3.66,0,0,1,.23,1.7,10.44,10.44,0,0,0,.23,2.09,8.6,8.6,0,0,0,.86,1.93A4.28,4.28,0,0,1,49,81.21,4.31,4.31,0,0,1,48.38,82.83Zm11.9-3.94a1.56,1.56,0,0,1-1.56,1.55H52a7.33,7.33,0,0,0-.93-2.32,5.49,5.49,0,0,1-.54-1.24,6.73,6.73,0,0,1-.16-1.39,6.1,6.1,0,0,0-.7-3.18,7.12,7.12,0,0,0-2.41-2.16c-.47-.31-.86-.54-1.17-.77a5.65,5.65,0,0,1-.78-1.16,6.3,6.3,0,0,0-2.17-2.4,6.83,6.83,0,0,0-3.19-.7,4,4,0,0,1-1.4-.15,5.82,5.82,0,0,1-1.25-.54,6.34,6.34,0,0,0-3.11-1,6.41,6.41,0,0,0-3.11,1,5.76,5.76,0,0,1-1.24.54,6.9,6.9,0,0,1-1.4.15,6.14,6.14,0,0,0-3.19.7,7.06,7.06,0,0,0-2.18,2.4c-.31.46-.54.85-.78,1.16a5.05,5.05,0,0,1-1.16.77,6.4,6.4,0,0,0-2.42,2.16,6.8,6.8,0,0,0-.7,3.18,4,4,0,0,1-.15,1.39,5.57,5.57,0,0,1-.55,1.24,7.83,7.83,0,0,0-.93,2.32H9.72a1.56,1.56,0,0,1-1.55-1.55V77.73a4.21,4.21,0,0,1-1.95.39A5.68,5.68,0,0,1,5.06,78v.93a4.67,4.67,0,0,0,4.66,4.64H17a6.71,6.71,0,0,1,.38.77,5.38,5.38,0,0,1,.55,1.24A6.79,6.79,0,0,1,18,86.93a6,6,0,0,0,.7,3.17,7.08,7.08,0,0,0,2.42,2.17c.46.31.85.54,1.16.77a4.75,4.75,0,0,1,.78,1.16,6.33,6.33,0,0,0,2.18,2.4,6.83,6.83,0,0,0,3.19.7,4,4,0,0,1,1.4.15,5.76,5.76,0,0,1,1.24.54,6.41,6.41,0,0,0,3.11,1,6.34,6.34,0,0,0,3.11-1,5.82,5.82,0,0,1,1.25-.54A6.82,6.82,0,0,1,40,97.3a6.14,6.14,0,0,0,3.19-.7,7,7,0,0,0,2.17-2.4c.32-.46.55-.85.78-1.16a5.14,5.14,0,0,1,1.17-.77A6.32,6.32,0,0,0,49.7,90.1a6.73,6.73,0,0,0,.7-3.17,3.72,3.72,0,0,1,.16-1.39,5.3,5.3,0,0,1,.54-1.24,3.49,3.49,0,0,0,.39-.77h7.23a4.67,4.67,0,0,0,4.67-4.64V76.34a8.39,8.39,0,0,1-3.11-1.47Z" transform="translate(0 0)"/><path class="cls-3" d="M63.39,9.36V4.64A4.67,4.67,0,0,0,58.72,0h-49A4.67,4.67,0,0,0,5.06,4.64V7A5.61,5.61,0,0,1,6.22,7a7.72,7.72,0,0,1,2,.24V4.64A1.55,1.55,0,0,1,9.72,3.1h49a1.55,1.55,0,0,1,1.56,1.54V9.9A20.6,20.6,0,0,1,63.39,9.36Z" transform="translate(0 0)"/></g></g></g></svg>