<?xml version="1.0"?>
<svg xmlns="http://www.w3.org/2000/svg" xmlns:xlink="http://www.w3.org/1999/xlink" xmlns:svgjs="http://svgjs.com/svgjs" version="1.1" width="512" height="512" x="0" y="0" viewBox="0 0 512 512" style="enable-background:new 0 0 512 512" xml:space="preserve" class=""><g><g xmlns="http://www.w3.org/2000/svg"><path d="m59.77 438.538h-32.59c-6.716 0-12.18-5.464-12.18-12.18v-286.54c0-6.716 5.464-12.18 12.18-12.18h253.559c4.142 0 7.5-3.358 7.5-7.5s-3.358-7.5-7.5-7.5h-253.559c-14.987 0-27.18 12.193-27.18 27.18v286.54c0 14.987 12.193 27.18 27.18 27.18h32.59c4.142 0 7.5-3.358 7.5-7.5s-3.358-7.5-7.5-7.5z" fill="#ffffff" data-original="#000000" style="" class=""/><path d="m484.82 112.638h-34.607c3.292-9.689 5.263-18.364 5.263-25.269 0-42.737-34.77-77.506-77.507-77.506s-77.506 34.769-77.506 77.506c0 13.098 7.048 32.525 16.882 53.269h-281.845c-4.142 0-7.5 3.358-7.5 7.5v269.9c0 4.142 3.358 7.5 7.5 7.5h441c4.142 0 7.5-3.358 7.5-7.5v-269.9c0-4.142-3.358-7.5-7.5-7.5h-37.908c2.091-4.41 4.055-8.758 5.852-13h40.376c6.716 0 12.18 5.464 12.18 12.18v286.54c0 6.716-5.464 12.18-12.18 12.18h-130.44c-2.963 0-5.649 1.745-6.853 4.453l-16.414 36.918c-1.946 4.391-6.312 7.228-11.123 7.228h-127.98c-4.812 0-9.177-2.837-11.127-7.237l-16.41-36.91c-1.204-2.708-3.89-4.453-6.853-4.453h-62.774c-4.142 0-7.5 3.358-7.5 7.5s3.358 7.5 7.5 7.5h57.901l14.426 32.448c4.347 9.812 14.096 16.152 24.837 16.152h127.98c10.741 0 20.49-6.34 24.833-16.143l14.43-32.457h125.567c14.987 0 27.18-12.193 27.18-27.18v-286.54c0-14.986-12.193-27.179-27.18-27.179zm-106.852-87.776c34.466 0 62.507 28.04 62.507 62.506 0 19.225-21.905 65.275-58.597 123.186-1.232 1.944-3.144 2.154-3.91 2.154-.765 0-2.677-.21-3.909-2.154-36.692-57.909-58.597-103.959-58.597-123.186 0-34.466 28.04-62.506 62.506-62.506zm-209.078 385.676v-35.909c1.389.346 2.796.52 4.194.52 4.409 0 8.73-1.701 12.121-4.978 5.492-5.31 6.933-13.203 3.669-20.11l-18.698-39.57c1.625-11.849 4.831-23.484 9.582-34.611l51.276-120.242h58.98v130.51c0 16.565 7.09 32.389 19.453 43.415l23.021 20.532-51.713 60.443zm-55.598-50.718c-1.339.69-2.334.146-2.933-.433s-1.176-1.554-.532-2.917l30.441-64.424c.599-1.268 1.698-1.458 2.3-1.458s1.702.189 2.301 1.458l30.441 64.424c.644 1.363.066 2.338-.532 2.917-.599.578-1.592 1.125-2.933.433l-25.845-13.301c-2.154-1.108-4.71-1.108-6.864 0zm101.436-204.182-48.766 114.355c-2.523 5.908-4.637 11.951-6.377 18.084l-1.153-2.44c-2.929-6.199-9.008-10.05-15.864-10.049-2.88 0-5.619.687-8.048 1.935 1.864-6.131 4.063-12.178 6.599-18.123l44.256-103.763h29.353zm-171.728 0h65.509l-23.983 53.061c-4.905 10.849-15.764 17.859-27.666 17.859h-13.86zm0 85.92h13.86c17.783 0 34.007-10.473 41.334-26.681l26.776-59.239h44.097l-41.745 97.878c-8.516 19.964-13.548 40.995-14.985 62.532l-16.072 34.014c-3.264 6.907-1.823 14.8 3.669 20.11 3.348 3.236 7.605 4.926 11.956 4.968v35.399h-68.89zm83.89 168.98v-40.847l15.679-8.069 11.321 5.826v43.09zm211.797 0 20.957-24.495c2.693-3.147 2.324-7.882-.823-10.575-3.148-2.693-7.882-2.324-10.575.823l-29.301 34.247h-18.429l168.484-196.927v21.546l-97.899 114.423c-2.693 3.147-2.325 7.882.823 10.575 3.147 2.693 7.881 2.324 10.575-.823l86.501-101.102v152.308zm130.313-254.9v34.9l-126.757 148.157-22.791-20.326c-9.175-8.183-14.437-19.927-14.437-32.221v-130.51h19.779c11.912 22.991 25.942 46.133 36.594 62.945 3.621 5.714 9.818 9.125 16.58 9.126 6.761 0 12.959-3.412 16.581-9.126 10.652-16.812 24.682-39.954 36.593-62.945z" fill="#ffffff" data-original="#000000" style="" class=""/><path d="m297.515 465.715c4.142 0 7.5-3.358 7.5-7.5s-3.358-7.5-7.5-7.5h-83.03c-4.142 0-7.5 3.358-7.5 7.5s3.358 7.5 7.5 7.5z" fill="#ffffff" data-original="#000000" style="" class=""/><path d="m410.035 87.369c0-17.682-14.385-32.066-32.066-32.066s-32.066 14.385-32.066 32.066 14.385 32.066 32.066 32.066 32.066-14.385 32.066-32.066zm-49.133 0c0-9.411 7.656-17.066 17.066-17.066s17.066 7.656 17.066 17.066-7.656 17.066-17.066 17.066-17.066-7.656-17.066-17.066z" fill="#ffffff" data-original="#000000" style="" class=""/><path d="m440.476 376.433c-4.142 0-7.499 3.358-7.499 7.499 0 4.142 3.358 7.499 7.499 7.499 4.142 0 7.499-3.358 7.499-7.499s-3.357-7.499-7.499-7.499z" fill="#ffffff" data-original="#000000" style="" class=""/></g></g></svg>
