<svg xmlns="http://www.w3.org/2000/svg" viewBox="0 0 648.2 648.2"><title>3</title><g id="a892221b-c01f-4250-8422-f630302d741e" data-name="Layer 2"><g id="a3298e65-b8ef-4c4d-9f49-74fc724da462" data-name="Layer 1"><g id="a2150156-bd9e-422d-9348-02406e47822d" data-name="Layer 2"><g id="a6fe628a-f54c-477e-b9c7-4d78972cd67e" data-name="Layer 1-2"><path d="M206.4,648.2l-3-1.1c-19.2-5.2-31.1-20.3-31.2-40.1q-.1-70.2-.1-140.4V284.1a47,47,0,0,0-5-.5H84.9c-3.1,0-5.2,0-6.7,3.8C71,305.2,55.8,315,37.9,313.9S6.8,301.3,1.2,283.1a8.2,8.2,0,0,0-1.2-2V265.9c.7-1.7,1.5-3.4,2.1-5.1C7.6,244.7,22,233.7,38.5,233s32.4,8.7,38.9,24.8c1.9,4.5,4.1,5.7,8.8,5.7,26.5-.3,53.1-.2,79.7-.2h6.3V227c0-28.2,16.5-44.7,44.8-44.7h96.5a47.7,47.7,0,0,0,.4-5c0-30.8.1-61.6.1-92.4,0-3.1-.1-5.2-3.9-6.7-17.7-7.2-27.4-22.3-26.4-40.4S296.3,6.7,314.4,1.2A7.2,7.2,0,0,0,316.5,0h13.9c5.9,2.7,12.5,4.4,17.6,8.1C360.5,17,366,29.9,364.3,45S354,71.7,339.6,77.6c-4.4,1.7-5.4,4-5.4,8.2.1,31.9.1,63.7.1,96.5h98.6c26.1,0,43.1,17,43.1,43.2v37.8h15.6c23.8,0,47.6-.1,71.5.1,3.9,0,5.7-1,7.2-4.9A40,40,0,0,1,610.2,233c17,.9,31.3,12.5,36.5,29.4l1.5,4.7v12.7a91.9,91.9,0,0,1-3.6,10c-7.5,15.7-20.2,24.3-37.6,24s-29.7-9-36.3-24.9c-1.8-4.4-4-5.4-8.3-5.4H476.1V599.3c0,28.7-7.5,39.3-34.2,48.9ZM455.8,415.1V227.8c0-18.1-7.1-25.2-25.4-25.2H216.5c-16.4,0-24,7.5-24,23.9V603.7c0,16.8,7.5,24.2,24.4,24.2H431.4c16.9,0,24.4-7.4,24.4-24.2ZM324,20.3a20.2,20.2,0,1,0,20.3,20.2v-.2A20.3,20.3,0,0,0,324,20.3ZM40.4,253.3a20.2,20.2,0,1,0,20.3,20.1h0a20.3,20.3,0,0,0-20.3-20.1Zm567.4,0a20.2,20.2,0,1,0,20.1,20.4v-.2a20.3,20.3,0,0,0-20.1-20.3Z" fill="#fff"/><path d="M445.6,415.3V563.4c0,10.7-3.1,13.9-13.9,13.9H216.5c-10.8,0-14-3.2-14-13.9V267.1c0-10.7,3.2-13.9,14-13.9H431.7c10.7,0,13.9,3.2,13.9,13.9C445.6,316.5,445.7,365.9,445.6,415.3ZM223.1,556.6H424.9V273.8H223.1Z" fill="#fff"/><path d="M324.6,607.7H314.4c-6.4-.3-10.6-4.6-10.5-10.3s4.2-9.7,10.2-9.9,13.1-.2,19.7,0,10.6,4.5,10.5,10.3-4.2,9.5-10.2,9.9Z" fill="#fff"/><path d="M334.2,233.4a10.1,10.1,0,1,1-9.6-10.5A10.1,10.1,0,0,1,334.2,233.4Z" fill="#fff"/><path d="M253.5,607.6a10.1,10.1,0,1,1-.6-20.1,10.1,10.1,0,1,1,.6,20.1Z" fill="#fff"/><path d="M405.1,597.3a10.1,10.1,0,1,1-20.2.2,10.1,10.1,0,0,1,20.2-.2Z" fill="#fff"/><path d="M324.7,354.4c23.5.5,44.4,8.5,62,25,5.4,5.1,6.2,11,2.3,15.6s-10.2,4.9-16-.7a71,71,0,0,0-97.9.2c-3.8,3.7-8.2,5.4-13.1,2.7s-6.1-6.2-4.9-10.7a17.4,17.4,0,0,1,4.7-7.2C279.3,362.8,300.2,354.8,324.7,354.4Z" fill="#fff"/><path d="M364.4,417.5c-2.9,3.3-4.8,7.6-7.7,8.3a15.3,15.3,0,0,1-11.4-2.2c-8.8-6.8-18.2-10-28.8-6.9-4.7,1.3-9.1,4.2-13.2,7-5.7,4-11.4,4.3-15.3,0s-3.3-10.4,2.1-15.5c18.8-17.4,49.3-17.6,67.8-.1C360.4,410.4,361.8,413.8,364.4,417.5Z" fill="#fff"/><path d="M334.2,445.9a10.1,10.1,0,1,1-20.2-.5v-.3a10.1,10.1,0,0,1,20.2.8Z" fill="#fff"/></g></g></g></g></svg>