<svg xmlns="http://www.w3.org/2000/svg" viewBox="0 0 426.8 351.4"><title>ab-img-1</title><g style="isolation:isolate"><g id="e7a57e2f-52cf-44f0-8b38-6c5bf27aa1f7" data-name="Layer 2"><g id="f48f7bfb-42bf-4f09-9abd-73c85395ab71" data-name="OBJECTS"><path d="M163.4,336a41.7,41.7,0,0,1-.4,6.1H0v-1a38.4,38.4,0,0,1,11.8-27.8,16.5,16.5,0,0,1-4.2-11A16.8,16.8,0,0,1,15,288.5a10.2,10.2,0,0,1,7-16.8c-5.4-33.2-1.9-67.9,10.8-99C52.9,123.3,95,83.1,145.8,66.9c1.9,4.8,4.3,10.1,6.3,14.9C114,107.2,88.2,150.3,83.9,195.9a155,155,0,0,0,8.6,66.5,11,11,0,0,1,4.5-1,10.2,10.2,0,0,1,9.9,7.8,21,21,0,0,1,5.1-.6,21.3,21.3,0,0,1,21.3,21.3,21,21,0,0,1-.5,4.3A43.8,43.8,0,0,1,163.4,336Z" fill="#fff"/><path d="M44.4,270.1a.5.5,0,0,1-.5-.4C22.1,146,110,91.1,127.9,81.4a.5.5,0,0,1,.6.2.4.4,0,0,1-.2.6c-17.7,9.7-105.1,64.3-83.5,187.3.1.3-.1.5-.4.6Z" fill="#dceaff"/><path d="M68.8,265.3a.5.5,0,0,1-.5-.3c-24.5-98.6,36.1-156.5,63.3-176.9a.5.5,0,0,1,.7.1.6.6,0,0,1-.1.7c-27.1,20.2-87.3,77.9-62.9,175.8,0,.3-.1.6-.4.6Z" fill="#dceaff"/><path d="M34.1,306.9h0a.5.5,0,0,1-.5-.5,21.9,21.9,0,0,1,14.3-19.2,22,22,0,0,1,23.2,6.1.4.4,0,0,1-.1.6c-.2.2-.5.2-.6,0a21,21,0,0,0-22.2-5.8,20.9,20.9,0,0,0-13.6,18.3A.5.5,0,0,1,34.1,306.9Z" fill="#dceaff"/><path d="M67.3,300.8h-.1c-.2-.1-.4-.4-.3-.6a11.4,11.4,0,0,1,7.5-8.5,11.7,11.7,0,0,1,11.2,2.2.5.5,0,0,1,0,.7.6.6,0,0,1-.7.1,10.3,10.3,0,0,0-10.2-2.1,10.5,10.5,0,0,0-6.9,7.8A.5.5,0,0,1,67.3,300.8Z" fill="#dceaff"/><path d="M92.7,318h-.1a.5.5,0,0,1-.4-.5,12.8,12.8,0,0,1,23.6-5.5.4.4,0,0,1-.2.6.4.4,0,0,1-.6-.1,11.9,11.9,0,0,0-21.8,5.1C93.2,317.9,92.9,318,92.7,318Z" fill="#dceaff"/><path d="M67,328.1h-.1c-.2,0-.4-.3-.3-.6a9.7,9.7,0,0,1,17.8-2.8.4.4,0,0,1-.1.6.5.5,0,0,1-.7-.1,8.7,8.7,0,0,0-16.1,2.6C67.5,328,67.3,328.1,67,328.1Z" fill="#dceaff"/><path d="M106.1,290.7h0a.5.5,0,0,1-.5-.5,8.7,8.7,0,0,1,4.9-7.4,8.9,8.9,0,0,1,8.9,1c.2.1.2.4,0,.7s-.4.2-.6,0a8,8,0,0,0-7.9-.8,7.7,7.7,0,0,0-4.3,6.6A.5.5,0,0,1,106.1,290.7Z" fill="#dceaff"/><path d="M112.6,318.5h0c-.3-.1-.5-.3-.5-.5a7.9,7.9,0,0,1,14.7-3.9.4.4,0,0,1-.1.6.5.5,0,0,1-.7-.1,7.3,7.3,0,0,0-7.7-3.1,7.2,7.2,0,0,0-5.2,6.5A.5.5,0,0,1,112.6,318.5Z" fill="#dceaff"/><path d="M15.9,329.7h-.1a.5.5,0,0,1-.4-.6,14.7,14.7,0,0,1,13.1-11,14.8,14.8,0,0,1,14.3,9.3.5.5,0,0,1-.3.6.5.5,0,0,1-.7-.3A13.7,13.7,0,0,0,28.5,319a13.9,13.9,0,0,0-12.1,10.3A.7.7,0,0,1,15.9,329.7Z" fill="#dceaff"/><path d="M150.8,53.8h0a39,39,0,0,0-16.1-21.7l-8.8-5.8,20.1-.4a39.5,39.5,0,0,1,26.1,9.4l18.6,16Z" fill="#475889"/><path d="M162.7,95.1h0a39,39,0,0,1-1.9,26.9l-4.4,9.6,17.2-10.4a39.1,39.1,0,0,0,17-21.9l7.2-23.4Z" fill="#475889"/><path d="M147.5,94.2c7.6,1.5,15.8,1.2,26.3-1.8,21.8-6.4,55.5-25,65.2-41.8-17.1-9-55.6-6.7-77.4-.4-10.5,3-17.6,7.2-23.3,12.5Z" fill="#475889"/><path d="M195.1,96.2c-15.2,4.4-27,4.8-37.9,2.7L144.1,53.6l2.6-2.4c7.7-6.5,17.3-11.7,30.8-15.6,17.6-5.1,42.6-8.3,65.6-7.9l6.1.2a136.2,136.2,0,0,1,14.7,1.3c9.1,1.3,17.2,3.3,23.5,6.4l1.2.6a40.7,40.7,0,0,1-4.4,6.4,89.9,89.9,0,0,1-12.7,12.8,138.6,138.6,0,0,1-11.7,9l-5.1,3.4C235.5,80.5,212.6,91.1,195.1,96.2Z" fill="#7d98d4"/><circle cx="210.3" cy="58.9" r="20.2" transform="translate(56.9 214.4) rotate(-61)" fill="#475889"/><circle cx="210.3" cy="58.9" r="16" transform="translate(81.1 235) rotate(-69.4)" fill="#abc9ff"/><path d="M259.8,64.4,249.2,27.9a136.2,136.2,0,0,1,14.7,1.3c9.1,1.3,17.2,3.3,23.5,6.4l1.2.6c-3.6,6.4-9.6,12.9-17.1,19.2A138.6,138.6,0,0,1,259.8,64.4Z" fill="#d16a4a"/><path d="M195.1,96.2c-15.2,4.4-27,4.8-37.9,2.7L144.1,53.6l2.6-2.4c2.7,6,4.7,12.3,7.5,18.2s8.3,13.5,15.3,16.4,14.3,1.8,21.4.6c34.3-6.1,67.8-20.4,93.3-43.8a89.9,89.9,0,0,1-12.7,12.8,138.6,138.6,0,0,1-11.7,9l-5.1,3.4C235.5,80.5,212.6,91.1,195.1,96.2Z" fill="#c9d5f2" style="mix-blend-mode:multiply"/><path d="M243.5,30.4a152.6,152.6,0,0,0-21.4,1c-4.4.5-3.8,7.4.7,6.9a167,167,0,0,1,21.3-1C248.6,37.4,247.9,30.5,243.5,30.4Z" fill="#fff" opacity="0.5" style="mix-blend-mode:soft-light"/><path d="M400,126.7c-4.2,12.6-14.6,21.8-25.7,29.4a7.5,7.5,0,0,1,4.7.7,9,9,0,0,1,3.9,8.3,21.2,21.2,0,0,1-3.2,9,56.9,56.9,0,0,1-30.9,25.1,8.4,8.4,0,0,1,8.9,3.2,12.2,12.2,0,0,1,1.3,10.2,25.7,25.7,0,0,1-5.1,9.3,76.3,76.3,0,0,1-37.5,26.4,10.6,10.6,0,0,1,11.4,9.5c.4,5.9-4,10.9-8.4,14.7a104.3,104.3,0,0,1-44,22.8,24.8,24.8,0,0,1,7.2,0,7.8,7.8,0,0,1,5.9,3.5,7.7,7.7,0,0,1-.5,7.6c-1.3,2.3-3.5,4-5.6,5.6-11.4,8.3-24.1,13.6-38.3,21.1h-4.8c3.1-10.6,3.5-24.2,2.9-35.2-.3-5-1-10.1.4-14.8s5.7-9.2,10.6-8.9,7.3,3.6,8.8,7.3,1.3,7.9,1,11.9c10.4-12.8,12.3-31.4,14.3-47.8.6-4.3,1.3-8.7,3.5-12.4s6.5-6.5,10.8-5.7,6,3.1,7.4,6.1a23.2,23.2,0,0,1,2,9.8c7.8-11.4,11.7-25.8,11.5-39.6-.1-5.1-.6-10.8,2.5-14.8a10.1,10.1,0,0,1,10.6-3.1,9.7,9.7,0,0,1,6.5,8.8c1.7-10.6,2.9-22.4.5-32.8-1.3-5.6-3-11.8,0-16.8a10.3,10.3,0,0,1,12.9-3.6,10.5,10.5,0,0,1,5.2,8.1,86.6,86.6,0,0,0-.2-24.4,93.3,93.3,0,0,1-1.8-11.8c-.1-4,.7-8.1,3.2-11.2a12,12,0,0,1,21,4.5c4.5-8.4,1.5-19-.8-28.3s-4.6-19.4-.3-27.9c1.8-3.8,5.4-7,9.4-7.5H383a10.9,10.9,0,0,1,7.8,5.2,25.1,25.1,0,0,1,3.4,9,70.5,70.5,0,0,1-8.7,49.8c1.9-1.7,4.8-1.6,7.8-.8s6.7,4.8,7.7,8.7A22,22,0,0,1,400,126.7Z" fill="#abc9ff"/><path d="M362.6,152.8c-22.5,42.1-42.8,74.8-63.8,102.9-4.1,5.6-8.3,11.1-12.5,16.7-14.8,19.6-30,39.7-43.7,60.6h-1.3c13.9-21.2,29.2-41.4,44.1-61.2L298,255.1c20.9-28.1,41.2-60.8,63.7-102.8,17.5-32.7,24.2-70.4,19.5-109.4h1.1C387,82.1,380.2,119.9,362.6,152.8Z" fill="#7d98d4"/><path d="M72.9,181.6l-.7.6-.3-.9c-10.8-34.1,2.7-68.4,27.8-90.7l1-.8a6.4,6.4,0,0,1,.2.7C110.8,122.5,97.3,158.6,72.9,181.6Z" fill="#abc9ff"/><path d="M72.9,181.6l-.7.6-.3-.9A312.8,312.8,0,0,1,99.7,90.6l1-.8a6.4,6.4,0,0,1,.2.7A310.8,310.8,0,0,0,72.9,181.6Z" fill="#7d98d4"/><path d="M96,233l-.6.7a3.6,3.6,0,0,0-.4-.9c-15.2-32.4-6.5-68.2,15.5-93.6l.8-1,.3.7C125.7,169.2,117.1,206.9,96,233Z" fill="#abc9ff"/><path d="M96,233l-.6.7a3.6,3.6,0,0,0-.4-.9,312.2,312.2,0,0,1,15.5-93.6l.8-1,.3.7A312.4,312.4,0,0,0,96,233Z" fill="#7d98d4"/><path d="M122.2,272.2l-.6.8-.4-.9c-16.6-31.7-9.3-67.9,11.6-94.2l.8-.9.3.6C149.3,207.4,142.2,245.3,122.2,272.2Z" fill="#abc9ff"/><path d="M122.2,272.2l-.6.8-.4-.9a314.6,314.6,0,0,1,11.6-94.2l.8-.9.3.6A314.5,314.5,0,0,0,122.2,272.2Z" fill="#7d98d4"/><path d="M67,166.2a2.9,2.9,0,0,1,.2.9l-.9-.2C31.4,158.8,8.8,129.7,2.5,96.7l-.3-1.2H3C35.5,103.4,59.7,133.5,67,166.2Z" fill="#abc9ff"/><path d="M67,166.2a2.9,2.9,0,0,1,.2.9l-.9-.2A310.8,310.8,0,0,1,2.5,96.7l-.3-1.2H3A309.2,309.2,0,0,0,67,166.2Z" fill="#7d98d4"/><path d="M85.8,215.8l.3.8h-1c-35.7-2.6-62.5-27.8-73.9-59.4-.1-.4-.3-.8-.4-1.2h.7C44.9,158.6,73.5,184.6,85.8,215.8Z" fill="#abc9ff"/><path d="M85.8,215.8l.3.8h-1a312.3,312.3,0,0,1-73.9-59.4c-.1-.4-.3-.8-.4-1.2h.7A314.3,314.3,0,0,0,85.8,215.8Z" fill="#7d98d4"/><path d="M114,263.5a3.5,3.5,0,0,1,.5.8h-1c-35.5,4-66.6-15.7-83.6-44.7l-.7-1.1H30C63.2,214.9,96.1,235.1,114,263.5Z" fill="#abc9ff"/><path d="M114,263.5a3.5,3.5,0,0,1,.5.8h-1a313.1,313.1,0,0,1-83.6-44.7l-.7-1.1H30A309.2,309.2,0,0,0,114,263.5Z" fill="#7d98d4"/><path d="M60.6,134.9a3,3,0,0,0-.4.8l-.6-.8c-20.9-29.1-18.8-65.8-1.9-94.8l.7-1.1.4.6C78.2,66.9,76.6,105.4,60.6,134.9Z" fill="#abc9ff"/><path d="M189.6,336.1l-.6.8A312.7,312.7,0,0,1,78.9,201.5a306.4,306.4,0,0,1-19.3-66.6,314,314,0,0,1-1.9-94.8l.7-1.1.4.6a310.9,310.9,0,0,0,1.8,95.3,301.2,301.2,0,0,0,19.2,66.2A311.6,311.6,0,0,0,189.6,336.1Z" fill="#7d98d4"/><path d="M360.6,245.5c-13.6-33.6-41.8-55-67.3-52.9l-.7-1.7-11.1,4.4c-27.9,11.3-37.8,52.1-22.1,91.1s51.2,61.5,79.1,50.2l11.1-4.5-.7-1.7C368.7,314.2,374.2,279.2,360.6,245.5Z" fill="#475889"/><ellipse cx="321.1" cy="261.5" rx="54.6" ry="76.2" transform="translate(-74.5 139.2) rotate(-22)" fill="#7d98d4"/><ellipse cx="321.1" cy="261.5" rx="50.4" ry="70.4" transform="translate(-74.5 139.2) rotate(-22)" fill="#ce4d5f"/><ellipse cx="321.1" cy="261.5" rx="39.1" ry="54.6" transform="translate(-74.5 139.2) rotate(-22)" fill="#fff"/><ellipse cx="321.1" cy="261.5" rx="28.4" ry="39.6" transform="translate(-74.5 139.2) rotate(-22)" fill="#ce4d5f"/><ellipse cx="321.1" cy="261.5" rx="17.5" ry="24.5" transform="translate(-74.5 139.2) rotate(-22)" fill="#fff"/><ellipse cx="321.1" cy="261.5" rx="8" ry="11.1" transform="translate(-74.5 139.2) rotate(-22)" fill="#ce4d5f"/><rect x="306.6" y="210.6" width="116.8" height="3.87" transform="translate(-37.1 341.8) rotate(-48)" fill="#abc9ff"/><polygon points="412.4 159.7 426.8 158.1 408.4 178.6 394 180.2 394 165.7 412.5 145.2 412.4 159.7" fill="#ce4d5f"/><polygon points="426.8 158.1 408.4 178.6 394 180.2 412.4 159.7 426.8 158.1" fill="#a3343f"/><path d="M321.5,260.8l12.3-13.7-5.4-15.4-8,27.5Z" fill="#7d98d4"/><path d="M322.5,262.1l27.3-11.2-16-3.8-12.3,13.7A11.3,11.3,0,0,1,322.5,262.1Z" fill="#475889"/><path d="M130.6,176.9a2,2,0,0,0,0,1.1l16.6,76.8,14.9,68.8a2.6,2.6,0,0,0,3.1,2,2.5,2.5,0,0,0,1.9-1.9,2.4,2.4,0,0,0,0-1.2l-14.2-65.8L135.6,177a2.6,2.6,0,0,0-3.1-2A2.5,2.5,0,0,0,130.6,176.9Z" fill="#7d98d4"/><path d="M147.2,254.8l14.9,68.8a2.6,2.6,0,0,0,3.1,2,2.5,2.5,0,0,0,1.9-1.9,2.4,2.4,0,0,0,0-1.2l-14.2-65.8A22.5,22.5,0,0,1,147.2,254.8Z" fill="#c9d5f2" style="mix-blend-mode:multiply"/><path d="M27.9,224.1c.7-6,4.4-10.9,9.5-14.1a24.3,24.3,0,0,1,17.5-3.1c6.3,1.1,11.9,4.5,17,8.4s9.7,8.3,14.9,12a69.1,69.1,0,0,0,62.9,8.2c-.8-6.6-2-13.4-3.4-20.1a337.3,337.3,0,0,0-9.4-34.6c-6.7,4-15,4.6-22.7,3.3s-15.1-4.1-22.5-6.8-15-5.1-22.8-5.3a41.3,41.3,0,0,0-41,52.1Z" fill="#ce4d5f"/><path d="M27.9,224.1c.7-6,4.4-10.9,9.5-14.1a24.3,24.3,0,0,1,17.5-3.1c6.3,1.1,11.9,4.5,17,8.4s9.7,8.3,14.9,12a69.1,69.1,0,0,0,62.9,8.2c-.8-6.6-2-13.4-3.4-20.1a81.4,81.4,0,0,1-57.9-7.5c-9.1-5-17.6-11.9-27.8-13.5a28.4,28.4,0,0,0-32.7,29.7Z" fill="#a3343f"/><polygon points="237.4 317.2 207 317.2 207.7 310.5 216.1 228.5 226.4 228.5 227.6 238.7 236.6 310.5 237.1 314.5 237.4 317.1 237.4 317.2" fill="#abc9ff"/><polygon points="254.9 324 187.4 324 189.4 318.4 192.2 310.5 249.9 310.5 252.2 316.7 253.4 319.8 254.9 324" fill="#7d98d4"/><path d="M291.2,342.1H153.3v-6A17,17,0,0,1,169.9,319l19.5-.6,42-1.2h6l4.4-.2,10.4-.2,21-.6a17.1,17.1,0,0,1,17.6,16.5Z" fill="#475889"/><path d="M270.5,342.1v-8.8a11.9,11.9,0,0,0-9.1-11.5l-8-2-11.6-2.9-2.3-3.7-10.4-2.7-6.9-72.4,5.4.6,9,71.8h13.3l2.3,6.2,21-.6a17.1,17.1,0,0,1,17.6,16.5l.4,9.5Z" fill="#c9d5f2" style="mix-blend-mode:multiply"/><path d="M182.4,219.2l-52.1-8.6-13.7-45.7,38.8,8.4,1.2.2a10.2,10.2,0,1,0,2-20.3l-51.4-5.1h-.5a6.3,6.3,0,0,0-2.7.3,7.3,7.3,0,0,0-4.9,9l18.6,61.8v.2a7,7,0,0,0,6,4.9l57.3,5.3a5.2,5.2,0,0,0,1.3-10.3Z" fill="#475889"/><path d="M343.6,154.8a7.3,7.3,0,0,0-7.7-6.8h-.4l-50,3.3-1.2.2a10.2,10.2,0,1,0,3.7,20.1l38-7.1-13.9,46.1L260,219.2a5.2,5.2,0,0,0,1.3,10.3l57.4-5.3a6.8,6.8,0,0,0,5.9-4.9v-.2l18.6-61.8A6.9,6.9,0,0,0,343.6,154.8Z" fill="#475889"/><path d="M296.9,125.4v57.1a51,51,0,0,1-26.2,44.6l-25.1,14.1-10.9,6a26.1,26.1,0,0,1-24.3.6l-37-18.4a51,51,0,0,1-28.3-45.7V125.4Z" fill="#7d98d4"/><polygon points="221 211.2 198.7 222.9 203 198.1 185 180.6 209.9 176.9 221 154.4 232.1 176.9 257 180.6 239 198.1 243.2 222.9 221 211.2" fill="#abc9ff"/><polygon points="221 161.4 230.1 180 250.6 182.9 235.8 197.4 239.3 217.7 221 208.1 202.7 217.7 206.2 197.4 191.4 182.9 211.8 180 221 161.4" fill="#d16a4a"/><path d="M296.9,125.4v57.1a51,51,0,0,1-26.2,44.6l-25.1,14.1a161.4,161.4,0,0,0,17.7-14.4c8.4-8,15.5-17.6,19.1-28.7,4.9-15.1,4-30.9,1.9-46.6l-139.2-8.2V125.4Z" fill="#c9d5f2" style="mix-blend-mode:multiply"/><path d="M176.9,204.4c-11.8-7.9-10.6-24.7-10-37,.4-8.7-13.2-8.7-13.6,0-.8,18,.3,37.7,16.7,48.7C177.3,221,184.1,209.3,176.9,204.4Z" fill="#fff" opacity="0.5" style="mix-blend-mode:soft-light"/><polygon points="134.7 109.4 134.7 139.1 306.2 141.6 306.2 100.9 134.7 109.4" fill="#abc9ff"/><path d="M22.6,281.9l13.7-14.3C54,249.5,76.5,244.8,95.9,258c0,0,12.4,9.9,5.8,32.1l-6,22.9Z" fill="#475889"/><circle cx="54" cy="309.5" r="41.9" transform="translate(-203 128.9) rotate(-45)" fill="#7d98d4"/><circle cx="54" cy="309.5" r="32.9" transform="translate(-203 128.9) rotate(-45)" fill="#0e2a3a"/><circle cx="54" cy="309.5" r="30.3" transform="translate(-203 128.9) rotate(-45)" fill="#abc9ff"/><path d="M53.7,289.6c-.7-2.8-4.2-5.2-7.1-4.1a25.6,25.6,0,0,0-15.7,16.1c-1.1,3,1.2,6.4,4,7.2a5.9,5.9,0,0,0,7.2-4.1,14,14,0,0,1,7.6-7.9C52.6,295.6,54.6,292.9,53.7,289.6Z" fill="#fff" opacity="0.5" style="mix-blend-mode:soft-light"/><path d="M207.6,281.9l-13.7-14.3c-17.7-18.1-40.2-22.8-59.6-9.6,0,0-12.4,9.9-5.8,32.1l5.9,22.9Z" fill="#475889"/><circle cx="176.2" cy="309.5" r="41.9" transform="translate(-46.7 31.7) rotate(-9.1)" fill="#7d98d4"/><circle cx="176.2" cy="309.5" r="32.9" transform="translate(-174.8 369.6) rotate(-70.1)" fill="#0e2a3a"/><circle cx="176.2" cy="309.5" r="30.3" transform="translate(-46.9 31.9) rotate(-9.1)" fill="#abc9ff"/><path d="M176.4,289.6c.8-2.8,4.3-5.2,7.2-4.1a25.9,25.9,0,0,1,15.7,16.1c1.1,3-1.2,6.4-4.1,7.2a5.8,5.8,0,0,1-7.1-4.1,14,14,0,0,0-7.6-7.9C177.6,295.6,175.5,292.9,176.4,289.6Z" fill="#fff" opacity="0.5" style="mix-blend-mode:soft-light"/><path d="M90.5,264.6c4.4,6.2,8.8,12.3,7,19.2l2.3.8,16.8-6a6.6,6.6,0,0,0,5-8.2h0a7.5,7.5,0,0,0-7.9-6.1Z" fill="#0e2a3a"/><path d="M87.4,263.4s8.6,6.3,10.1,20.4l18-6.8a7.7,7.7,0,0,0,5.4-9h0a7.6,7.6,0,0,0-7.9-6.1Z" fill="#7d98d4"/><path d="M139.7,264.6c-4.4,6.2-8.8,12.3-7,19.2l-2.3.8-16.8-6c-3.9-1.1-5.9-4.3-5-8.2h0a7.5,7.5,0,0,1,7.9-6.1Z" fill="#0e2a3a"/><path d="M142.8,263.4s-8.6,6.3-10.1,20.4l-18-6.8a7.6,7.6,0,0,1-5.4-9h0a7.6,7.6,0,0,1,7.9-6.1Z" fill="#7d98d4"/><circle cx="115.1" cy="268.8" r="10.8" transform="translate(-156.3 160.1) rotate(-45)" fill="#475889"/><path d="M119.6,268.8a4.5,4.5,0,1,1-4.5-4.6A4.5,4.5,0,0,1,119.6,268.8Z" fill="#0e2a3a"/><polygon points="31.4 0 33.3 8.4 41.7 10.3 33.3 12.2 31.4 20.5 29.5 12.2 21.2 10.3 29.5 8.4 31.4 0" fill="#fff"/><polygon points="313.3 66.7 315 74.2 322.5 75.9 315 77.6 313.3 85.1 311.6 77.6 304.1 75.9 311.6 74.2 313.3 66.7" fill="#fff"/><polygon points="16 32.9 16.9 37.1 21.2 38 16.9 39 16 43.2 15 39 10.8 38 15 37.1 16 32.9" fill="#fff"/><polygon points="108.4 46.5 109.3 50.7 113.5 51.7 109.3 52.7 108.4 56.9 107.4 52.7 103.2 51.7 107.4 50.7 108.4 46.5" fill="#fff"/><polygon points="300.9 58.7 301.9 62.9 306.1 63.9 301.9 64.8 300.9 69.1 300 64.8 295.7 63.9 300 62.9 300.9 58.7" fill="#fff"/><polygon points="387.9 224.3 388.6 227.7 392 228.5 388.6 229.3 387.9 232.6 387.1 229.3 383.7 228.5 387.1 227.7 387.9 224.3" fill="#fff"/><polygon points="6.4 246.1 7.2 249.5 10.5 250.3 7.2 251.1 6.4 254.4 5.6 251.1 2.2 250.3 5.6 249.5 6.4 246.1" fill="#fff"/><polygon points="394 241.5 395.6 248.7 402.7 250.3 395.6 251.9 394 259 392.4 251.9 385.2 250.3 392.4 248.7 394 241.5" fill="#fff"/><polygon points="349.8 54.8 350.5 58.2 353.9 58.9 350.5 59.7 349.8 63.1 349 59.7 345.6 58.9 349 58.2 349.8 54.8" fill="#fff"/></g></g></g></svg>