<svg xmlns="http://www.w3.org/2000/svg" xmlns:xlink="http://www.w3.org/1999/xlink" viewBox="0 0 631.9 374.2"><defs><linearGradient id="b7799271-ccff-4624-9054-37553a7b1e8e" x1="445.35" y1="173.2" x2="374.79" y2="199.03" gradientUnits="userSpaceOnUse"><stop offset="0" stop-color="#237fdb"/><stop offset="1" stop-color="#49a4fa"/></linearGradient><linearGradient id="a3f9c0a5-8873-433b-bb13-942c72518603" x1="382.41" y1="223.02" x2="560.47" y2="223.02" xlink:href="#b7799271-ccff-4624-9054-37553a7b1e8e"/><linearGradient id="b73a34cd-cc43-4062-8ca5-41d7951ef079" x1="401.16" y1="261.12" x2="475.24" y2="210.55" gradientUnits="userSpaceOnUse"><stop offset="0" stop-color="#1b4889"/><stop offset="1" stop-color="#152f54"/></linearGradient><linearGradient id="ecc8fbb1-ec4e-4042-809a-9da638219a5c" x1="70.44" y1="296.05" x2="56.72" y2="301.19" gradientUnits="userSpaceOnUse"><stop offset="0" stop-color="#95c7f4"/><stop offset="0.34" stop-color="#a0cdf7"/><stop offset="0.94" stop-color="#bcddfe"/><stop offset="1" stop-color="#bfdfff"/></linearGradient><linearGradient id="afc46579-37d7-4daf-9439-3361a04858f4" x1="0.44" y1="303.14" x2="77.17" y2="303.14" xlink:href="#b7799271-ccff-4624-9054-37553a7b1e8e"/><linearGradient id="b8771e8c-c4c0-4717-8649-2180f6a1c8ff" x1="492.54" y1="141.38" x2="595.34" y2="38.58" xlink:href="#b73a34cd-cc43-4062-8ca5-41d7951ef079"/><linearGradient id="b2bf7be6-3824-4a17-92e0-b8d7ba16f4ff" x1="491.04" y1="80.76" x2="615.29" y2="80.76" gradientUnits="userSpaceOnUse"><stop offset="0" stop-color="#f8fcff"/><stop offset="1" stop-color="#e3f2ff"/></linearGradient><linearGradient id="f3b3ef67-8091-4ac3-ab12-bec57651a837" x1="492.54" y1="141.38" x2="595.34" y2="38.58" xlink:href="#b73a34cd-cc43-4062-8ca5-41d7951ef079"/><linearGradient id="f9ec2df6-0485-4283-8195-c57e2acd08b5" x1="523.08" y1="80.76" x2="583.24" y2="80.76" xlink:href="#b2bf7be6-3824-4a17-92e0-b8d7ba16f4ff"/><linearGradient id="a696f969-b9e1-4cb9-8310-ea6ecfc0abe7" x1="492.54" y1="141.38" x2="595.34" y2="38.58" gradientTransform="translate(505.3 -476.2) rotate(76.8)" xlink:href="#b73a34cd-cc43-4062-8ca5-41d7951ef079"/><linearGradient id="b32d095c-ea7e-43db-b250-12620a7d7d44" x1="436.5" y1="32.59" x2="367.34" y2="73.7" xlink:href="#b7799271-ccff-4624-9054-37553a7b1e8e"/><linearGradient id="fd1ab487-0eaa-4850-9fa9-e8f8bec89557" x1="375.75" y1="55.34" x2="327.9" y2="80.13" xlink:href="#b7799271-ccff-4624-9054-37553a7b1e8e"/><linearGradient id="a93debd7-57c1-44cb-8758-5aa686601d74" x1="310.53" y1="85.87" x2="275.29" y2="101.53" xlink:href="#b7799271-ccff-4624-9054-37553a7b1e8e"/><linearGradient id="a2371461-e349-4414-b2ce-341221fa4e7b" x1="95.45" y1="52.77" x2="200.62" y2="52.77" xlink:href="#b7799271-ccff-4624-9054-37553a7b1e8e"/><linearGradient id="b9522155-9a73-4ae4-8e95-e50bba7fde9d" x1="96.84" y1="180.8" x2="264.78" y2="391.46" xlink:href="#ecc8fbb1-ec4e-4042-809a-9da638219a5c"/><linearGradient id="aae9e8fe-2731-4900-874c-9ae21cb67aee" x1="579.08" y1="292.17" x2="566.98" y2="296.71" gradientTransform="translate(610.4 -316.5) rotate(65.2)" xlink:href="#b7799271-ccff-4624-9054-37553a7b1e8e"/><linearGradient id="ef8c21b6-cd5b-4b18-955e-61cd3a33503c" x1="490.36" y1="298.69" x2="547.87" y2="298.69" gradientTransform="translate(102.7 -130.7) rotate(15.9)" xlink:href="#b7799271-ccff-4624-9054-37553a7b1e8e"/><linearGradient id="bf26fdeb-dc34-4224-b3a6-bfc175b0b973" x1="571.7" y1="401.21" x2="503.47" y2="344.57" xlink:href="#b73a34cd-cc43-4062-8ca5-41d7951ef079"/><linearGradient id="a76528b0-5f6e-44f1-8f55-680216e1cd7c" x1="525.16" y1="277.24" x2="610.7" y2="277.24" xlink:href="#ecc8fbb1-ec4e-4042-809a-9da638219a5c"/><linearGradient id="b4b049e0-25b4-46b8-b2f1-9e12c04de4d5" x1="367.48" y1="362.59" x2="418.12" y2="362.59" xlink:href="#b7799271-ccff-4624-9054-37553a7b1e8e"/><linearGradient id="b9411dbf-8fbf-4df8-93a6-a87b4108d238" x1="319.99" y1="237.42" x2="384.27" y2="299.56" xlink:href="#b73a34cd-cc43-4062-8ca5-41d7951ef079"/><linearGradient id="efda9e2b-2ea9-4487-8020-38c7759b8cd8" x1="340.05" y1="162.96" x2="456.66" y2="162.96" xlink:href="#b7799271-ccff-4624-9054-37553a7b1e8e"/><linearGradient id="beaced20-fcd9-40b3-98ff-3fc4746aa1e4" x1="164.27" y1="183.39" x2="206.04" y2="226.89" gradientUnits="userSpaceOnUse"><stop offset="0" stop-color="#f4bc93"/><stop offset="1" stop-color="#f1a46a"/></linearGradient><linearGradient id="fddb41ce-d06b-4b6a-bf30-bf297ee45aed" x1="227.48" y1="342.14" x2="309.77" y2="211.85" xlink:href="#b73a34cd-cc43-4062-8ca5-41d7951ef079"/><linearGradient id="ee9a3fa6-cb6e-4088-bc46-bf7ecdfaeb6c" x1="306.16" y1="138.2" x2="318.42" y2="203.45" xlink:href="#ecc8fbb1-ec4e-4042-809a-9da638219a5c"/><linearGradient id="f92a40c3-69dc-457c-81a0-a9f7a8f6d899" x1="349.61" y1="89.07" x2="329.07" y2="131.8" xlink:href="#beaced20-fcd9-40b3-98ff-3fc4746aa1e4"/><linearGradient id="f2620a9d-2da0-494c-8d6c-6faf4b727d51" x1="360.57" y1="134.4" x2="227.45" y2="202.26" xlink:href="#b7799271-ccff-4624-9054-37553a7b1e8e"/><linearGradient id="fdf64d56-0cb0-4c13-b746-c42585d9c2ea" x1="451.7" y1="95.88" x2="483.64" y2="95.88" xlink:href="#beaced20-fcd9-40b3-98ff-3fc4746aa1e4"/><linearGradient id="b4257442-5b4d-4025-9e6c-0e2d5a23df33" x1="211.47" y1="362.59" x2="262.1" y2="362.59" xlink:href="#b7799271-ccff-4624-9054-37553a7b1e8e"/><linearGradient id="a2fe99f9-adf2-4b73-827a-712077e536d4" x1="123.95" y1="179.79" x2="127.27" y2="172.6" xlink:href="#b7799271-ccff-4624-9054-37553a7b1e8e"/><linearGradient id="b940a369-25b0-438f-b83e-c566725a6ce0" x1="80.54" y1="176.6" x2="80.54" y2="167.99" xlink:href="#b7799271-ccff-4624-9054-37553a7b1e8e"/><linearGradient id="ffc6f9a4-be25-4c45-82d6-8e5e94ec3cb9" x1="95.39" y1="192.68" x2="80.71" y2="195.22" xlink:href="#b7799271-ccff-4624-9054-37553a7b1e8e"/><linearGradient id="bd8a239a-4781-4510-b554-132b0c0912f2" x1="103.32" y1="194.02" x2="134.7" y2="194.02" xlink:href="#b7799271-ccff-4624-9054-37553a7b1e8e"/><linearGradient id="fe03f08e-b516-4c23-87a8-d9210467debf" x1="84.3" y1="169.67" x2="122.43" y2="169.67" xlink:href="#b7799271-ccff-4624-9054-37553a7b1e8e"/><linearGradient id="b7d5a47d-2780-4309-8ebf-7840747c0a9a" x1="128.27" y1="204.16" x2="102.65" y2="189.58" xlink:href="#b7799271-ccff-4624-9054-37553a7b1e8e"/><linearGradient id="aecd0d65-7493-43f5-a191-4d77d798acbe" x1="280.66" y1="28.14" x2="305.22" y2="7.56" xlink:href="#b7799271-ccff-4624-9054-37553a7b1e8e"/><linearGradient id="a2cbee8a-c2aa-4704-b6f7-19135b43347b" x1="240.81" y1="21.23" x2="240.81" y2="10.86" xlink:href="#b7799271-ccff-4624-9054-37553a7b1e8e"/><linearGradient id="be772460-1ae7-4b63-9f36-83bb73c3ec22" x1="258.72" y1="40.62" x2="241.02" y2="43.68" xlink:href="#b7799271-ccff-4624-9054-37553a7b1e8e"/><linearGradient id="bd88920e-7a5c-46a3-8e67-1c127bd82fc9" x1="268.28" y1="42.24" x2="306.11" y2="42.24" xlink:href="#b7799271-ccff-4624-9054-37553a7b1e8e"/><linearGradient id="a87af387-957b-4412-a782-76edcaccf051" x1="245.35" y1="12.88" x2="291.31" y2="12.88" xlink:href="#b7799271-ccff-4624-9054-37553a7b1e8e"/><linearGradient id="f7ca5e62-b98e-4af1-aace-d3c5becc3d1e" x1="298.35" y1="54.46" x2="267.47" y2="36.88" xlink:href="#b7799271-ccff-4624-9054-37553a7b1e8e"/><linearGradient id="a4b3e31e-0f62-440d-89ac-1ea58d1b8c3a" x1="469.37" y1="308.3" x2="477" y2="288.47" xlink:href="#b7799271-ccff-4624-9054-37553a7b1e8e"/><linearGradient id="b7e7126d-08e4-4095-a502-ad7a19c6fb24" x1="429" y1="290.36" x2="429" y2="281.39" xlink:href="#b7799271-ccff-4624-9054-37553a7b1e8e"/><linearGradient id="b1b9b4d3-d318-42ec-aa21-90abdab55ed2" x1="444.49" y1="307.13" x2="429.18" y2="309.77" xlink:href="#b7799271-ccff-4624-9054-37553a7b1e8e"/><linearGradient id="f6a10f2a-362f-48e3-9fe5-d7a1ff8b7fdd" x1="452.75" y1="308.53" x2="485.46" y2="308.53" xlink:href="#b7799271-ccff-4624-9054-37553a7b1e8e"/><linearGradient id="b4608924-a229-4345-810e-bf07ba122176" x1="432.92" y1="283.14" x2="472.67" y2="283.14" xlink:href="#b7799271-ccff-4624-9054-37553a7b1e8e"/><linearGradient id="b280931e-428c-4f79-863a-be03153011e7" x1="478.75" y1="319.09" x2="452.05" y2="303.9" xlink:href="#b7799271-ccff-4624-9054-37553a7b1e8e"/><linearGradient id="affebe0c-57e0-4f28-8d20-0c9200e7f69f" x1="198.37" y1="254.25" x2="177.17" y2="328.44" xlink:href="#b7799271-ccff-4624-9054-37553a7b1e8e"/><linearGradient id="af5bb655-de4a-48d2-9a79-a4d3692116eb" x1="93.53" y1="256.58" x2="128.86" y2="341.38" xlink:href="#b7799271-ccff-4624-9054-37553a7b1e8e"/><linearGradient id="a28afd14-580e-4fa8-a196-d860c785cb7d" x1="98.78" y1="325.53" x2="146.67" y2="392.07" xlink:href="#b73a34cd-cc43-4062-8ca5-41d7951ef079"/><linearGradient id="a49353cf-cb5f-4f43-afda-4351245cdb97" x1="72.03" y1="150.46" x2="14.52" y2="92.96" xlink:href="#b7799271-ccff-4624-9054-37553a7b1e8e"/><linearGradient id="f9455426-26d5-4da3-a08d-044b76aa04d2" x1="23.67" y1="209.33" x2="54.05" y2="178.96" xlink:href="#b73a34cd-cc43-4062-8ca5-41d7951ef079"/><linearGradient id="eac2690f-58f6-42f6-8313-ae0af36e505a" x1="109.89" y1="133.16" x2="140.26" y2="102.79" xlink:href="#b73a34cd-cc43-4062-8ca5-41d7951ef079"/><linearGradient id="b0777650-cd99-459a-a0d7-c0d8c62c8c1e" x1="591.28" y1="194.91" x2="621.65" y2="164.53" xlink:href="#b73a34cd-cc43-4062-8ca5-41d7951ef079"/></defs><title>ab-ic-2</title><g id="ebe72414-a0dd-4df6-9ac7-b746e2c004b1" data-name="Layer 2"><g id="beb2c8f8-c06f-4f29-b31b-b4490194d2b6" data-name="OBJECTS"><polygon points="469.9 163 422.5 142.8 432.4 167.2 328.7 208.9 336.2 227.6 439.9 185.9 449.7 210.4 469.9 163" fill="url(#b7799271-ccff-4624-9054-37553a7b1e8e)"/><polygon points="560.5 195 500.7 169.5 513.1 200.4 382.4 252.9 391.9 276.5 522.6 224 535 254.8 560.5 195" fill="url(#a3f9c0a5-8873-433b-bb13-942c72518603)"/><polygon points="503.9 199.9 472.3 186.4 478.8 202.7 379.8 244.3 384.8 256.8 483.9 215.2 490.4 231.5 503.9 199.9" fill="url(#b73a34cd-cc43-4062-8ca5-41d7951ef079)"/><path d="M77.7,343.4c-.6-.1,18.1-59.7-15.4-94.4,0,0-24.5,56.8,14.8,94.3Z" fill="url(#ecc8fbb1-ec4e-4042-809a-9da638219a5c)"/><rect x="71.3" y="270" width="1" height="73.93" transform="translate(-48.1 15.4) rotate(-9.2)" fill="#1a3942"/><path d="M77.2,366.7c-1,.2-8.5-96.6-76.8-127.3,0,0-2.6,96,75.8,127.5Z" fill="url(#afc46579-37d7-4daf-9439-3361a04858f4)"/><rect x="47.1" y="260.1" width="1" height="114.86" transform="matrix(0.86, -0.51, 0.51, 0.86, -156.55, 69.74)" fill="#1a3942"/><circle cx="553.2" cy="80.8" r="78.8" fill="url(#b8771e8c-c4c0-4717-8649-2180f6a1c8ff)"/><circle cx="553.2" cy="80.8" r="62.1" fill="url(#b2bf7be6-3824-4a17-92e0-b8d7ba16f4ff)"/><circle cx="553.2" cy="80.8" r="46.6" fill="url(#f3b3ef67-8091-4ac3-ab12-bec57651a837)"/><circle cx="553.2" cy="80.8" r="30.1" fill="url(#f9ec2df6-0485-4283-8195-c57e2acd08b5)"/><circle cx="553.2" cy="80.8" r="11.7" transform="translate(348.1 600.8) rotate(-76.8)" fill="url(#a696f969-b9e1-4cb9-8310-ea6ecfc0abe7)"/><polygon points="453.3 64.2 380.1 85.3 360.1 36.4 427 0 453.3 64.2" fill="url(#b32d095c-ea7e-43db-b250-12620a7d7d44)"/><polygon points="309.7 103.8 377.6 79.2 362 41.1 296.5 71.6 309.7 103.8" fill="url(#fd1ab487-0eaa-4850-9fa9-e8f8bec89557)"/><polygon points="307.8 99.2 249.3 121.2 242.3 104.1 299.5 78.9 307.8 99.2" fill="url(#a93debd7-57c1-44cb-8758-5aa686601d74)"/><polygon points="257.3 118.2 249.3 121.2 242.3 104.1 250.1 100.6 257.3 118.2" fill="#1a3942"/><path d="M427.7,1.9l24.1,58.6c6-5.2,6.4-19.5.3-34.4S435.6,1.4,427.7,1.9Z" fill="#1a3942"/><path d="M204.2,99h-3.7V24.2a2,2,0,0,1,1.9-1.9h0a1.9,1.9,0,0,1,1.8,1.9Z" fill="#1a3942"/><path d="M200.6,24.8c-7.8-4.1-22.6-9.3-29.8,5-10,19.9-30.9-14.5-41.6,12.2C117.7,70.7,95.4,64.5,95.4,64.5S106.6,95.4,134,78.7s31,20.5,49.6.2c11.7-12.8,13.7-12.8,17-10.5Z" fill="url(#a2371461-e349-4414-b2ce-341221fa4e7b)"/><path d="M448.3,374.2,333.2,218.6l-36.6,48.2L208.2,101.3a7.8,7.8,0,0,0-13.7-.1c-28.1,51.2-133.7,243.3-149.8,273Z" fill="url(#b9522155-9a73-4ae4-8e95-e50bba7fde9d)"/><path d="M553,355.2c-.1-.5,54.6-7.7,70-47.3,0,0-54.6,1.4-70.1,46.8Z" fill="url(#aae9e8fe-2731-4900-874c-9ae21cb67aee)"/><rect x="547.5" y="336.5" width="65.2" height="0.88" transform="matrix(0.83, -0.56, 0.56, 0.83, -89.26, 381.92)" fill="#1a3942"/><path d="M535,352.3c-.7-.1,13.7-71.4-29.2-107.6,0,0-21.6,68.7,28.5,107.5Z" fill="url(#ef8c21b6-cd5b-4b18-955e-61cd3a33503c)"/><rect x="523.4" y="267.7" width="0.8" height="86.09" transform="translate(-62.8 147.1) rotate(-15.1)" fill="#1a3942"/><path d="M592,374.2c-9.1-20.3-31.3-34.5-57.2-34.5s-48,14.2-57.2,34.5Z" fill="url(#bf26fdeb-dc34-4224-b3a6-bfc175b0b973)"/><path d="M602.5,309c-2.1-6-13.5-3.9-22.4-1.2a1.3,1.3,0,0,1-1-2.3c13.1-8.6,34.5-24.1,31.3-32s-12.1-4.2-19.3-1.1a2.1,2.1,0,0,1-2.6-3.2c9.4-12.6,23.7-36.6,5.3-46-19.8-6.3-26.5,20.8-28.7,36.3a2.1,2.1,0,0,1-4.1.5c-2.9-7.3-7.8-15.6-14.4-12.8s-3.7,29.4-.4,44.8a1.3,1.3,0,0,1-2.4.8c-4.4-8.1-11-17.7-16.7-14.9-8.8,4.2,14.9,43.4,21.7,54.3C561.3,329.3,605.8,318.2,602.5,309Z" fill="url(#a76528b0-5f6e-44f1-8f55-680216e1cd7c)"/><rect x="508.6" y="296.8" width="109.2" height="1" transform="translate(73.7 704.7) rotate(-67.6)" fill="#1a3942"/><path d="M367.5,351v17.6a5.6,5.6,0,0,0,5.5,5.6h43.4a1.7,1.7,0,0,0,1.1-3,33.4,33.4,0,0,0-6.5-4.5l-23-10.3Z" fill="url(#b4b049e0-25b4-46b8-b2f1-9e12c04de4d5)"/><polygon points="341 205.1 408.8 251.7 389.9 356 366.7 354.2 371.2 269.4 299.5 237.2 313.7 200.6 341 205.1" fill="url(#b9411dbf-8fbf-4df8-93a6-a87b4108d238)"/><polygon points="340 127.7 451.4 93.5 456.7 109.4 363 149.8 354.8 232.4 340 228.2 340 127.7" fill="url(#efda9e2b-2ea9-4487-8020-38c7759b8cd8)"/><path d="M198.3,185.8l-13.2,15.9a3.5,3.5,0,0,1-5,.4h0a3.5,3.5,0,0,1-.9-4.2l3.2-5.2c.2-.3-.2-.6-.4-.4l-8.1,5.3a4.1,4.1,0,0,0-1.7,2l-6.9,16.5a2.8,2.8,0,0,1-4.3,1,1.6,1.6,0,0,1-.6-1.7c.3-1.8,4.2-15.6,5.3-20.8a7,7,0,0,1,3.1-4.4l23.9-14.4Z" fill="url(#beaced20-fcd9-40b3-98ff-3fc4746aa1e4)"/><polygon points="330.1 204.8 304.7 275.4 234.8 356.4 211.5 351 263.5 274.5 283.5 198 330.1 204.8" fill="url(#fddb41ce-d06b-4b6a-bf30-bf297ee45aed)"/><polygon points="283.8 205.1 340.9 204.9 339.5 129.5 324.4 124.3 285.1 189 283.8 205.1" fill="url(#ee9a3fa6-cb6e-4088-bc46-bf7ecdfaeb6c)"/><path d="M360.3,92.5s13.2-4.5,12.2-20c0,0-10.2,3.6-24.5-2.4s-28.8,9.2-30.9,23.5c-2.7,19.1,10.6,25.5,10.6,25.5L345,98.4Z" fill="#1a3942"/><path d="M360.3,92.5s2.4,23.9-4.7,27.6c0,0-1.8,1.2-7.6-.8l-5.4-1.9-3.1,12.1-3.4,2.4-11.7-7.6,4.8-20.4s-6.1-.9-5.3-6.4,5.4-5.3,7.7-4L331,99l3.3.5,1-6.2a19.6,19.6,0,0,0,5.3-5.5C342.9,84.3,351.1,92,360.3,92.5Z" fill="url(#f92a40c3-69dc-457c-81a0-a9f7a8f6d899)"/><path d="M324.4,123.7c-5.6,0-21.1-2.3-32.7-4.2a37.9,37.9,0,0,0-26.1,5.4L186,175.7l9.2,16.5,79.7-44.8-31.1,63.7,36.5,22.3Z" fill="url(#f2620a9d-2da0-494c-8d6c-6faf4b727d51)"/><path d="M451.7,94.9s27.9-10.1,30.2-11.3,2.5,3.1-.9,5.5-15.3,7.5-15.3,7.5,3.1,8.6-9.5,11.8Z" fill="url(#fdf64d56-0cb0-4c13-b746-c42585d9c2ea)"/><path d="M211.5,351v17.6a5.6,5.6,0,0,0,5.5,5.6h43.4a1.7,1.7,0,0,0,1.1-3,36.7,36.7,0,0,0-6.5-4.5c-3.2-1.5-20.2-10.3-20.2-10.3Z" fill="url(#b4257442-5b4d-4025-9e6c-0e2d5a23df33)"/><polygon points="134.7 175.9 122.4 163.6 117.6 175.9 134.7 175.9" fill="url(#a2fe99f9-adf2-4b73-827a-712077e536d4)"/><polygon points="84.3 163.6 71.9 175.9 89.1 175.9 84.3 163.6" fill="url(#b940a369-25b0-438f-b83e-c566725a6ce0)"/><polygon points="71.9 175.9 103.3 212.1 99.1 207.3 71.9 175.9" fill="#5c9cd6"/><polygon points="103.3 212.1 103.3 212.1 134.7 175.9 107.5 207.3 103.3 212.1" fill="#5c9cd6"/><polygon points="103.3 212.1 103.3 212.1 103.3 212.1 103.3 212.1" fill="#5c9cd6"/><polygon points="89.1 175.9 71.9 175.9 99.1 207.3 103.3 212.1 103.3 212.1 89.1 175.9" fill="url(#ffc6f9a4-be25-4c45-82d6-8e5e94ec3cb9)"/><polygon points="103.3 212.1 107.5 207.3 134.7 175.9 117.6 175.9 103.3 212.1" fill="url(#bd8a239a-4781-4510-b554-132b0c0912f2)"/><polygon points="103.3 212.1 103.3 212.1 103.3 212.1 103.3 212.1" fill="#5c9cd6"/><polygon points="122.2 163.4 122.4 163.6 122.5 163.4 84.2 163.4 84.3 163.6 84.4 163.4 122.2 163.4" fill="#5c9cd6"/><polygon points="117.6 175.9 122.4 163.6 122.2 163.4 84.4 163.4 84.3 163.6 89.1 175.9 117.6 175.9" fill="url(#fe03f08e-b516-4c23-87a8-d9210467debf)"/><polygon points="103.3 212.1 103.3 212.1 103.3 212.1 103.3 212.1 103.3 212.1" fill="#5c9cd6"/><polygon points="89.1 175.9 103.3 212.1 103.3 212.1 117.6 175.9 89.1 175.9" fill="url(#b7d5a47d-2780-4309-8ebf-7840747c0a9a)"/><polygon points="306.1 20.4 291.3 5.6 285.5 20.4 306.1 20.4" fill="url(#aecd0d65-7493-43f5-a191-4d77d798acbe)"/><polygon points="245.3 5.5 230.4 20.4 251.2 20.4 245.3 5.5" fill="url(#a2cbee8a-c2aa-4704-b6f7-19135b43347b)"/><polygon points="230.4 20.4 268.3 64.1 263.2 58.2 230.4 20.4" fill="#5c9cd6"/><polygon points="268.3 64.1 268.3 64.1 306.1 20.4 273.4 58.2 268.3 64.1" fill="#5c9cd6"/><polygon points="268.3 64.1 268.3 64.1 268.3 64.1 268.3 64.1" fill="#5c9cd6"/><polygon points="251.2 20.4 230.4 20.4 263.2 58.2 268.3 64.1 268.3 64.1 251.2 20.4" fill="url(#be772460-1ae7-4b63-9f36-83bb73c3ec22)"/><polygon points="268.3 64.1 273.4 58.2 306.1 20.4 285.5 20.4 268.3 64.1" fill="url(#bd88920e-7a5c-46a3-8e67-1c127bd82fc9)"/><polygon points="268.3 64.1 268.3 64.1 268.3 64.1 268.3 64.1" fill="#5c9cd6"/><polygon points="291 5.3 291.3 5.6 291.4 5.3 245.3 5.3 245.3 5.5 245.5 5.3 291 5.3" fill="#5c9cd6"/><polygon points="285.5 20.4 291.3 5.6 291 5.3 245.5 5.3 245.3 5.5 251.2 20.4 285.5 20.4" fill="url(#a87af387-957b-4412-a782-76edcaccf051)"/><polygon points="268.3 64.1 268.3 64.1 268.3 64.1 268.3 64.1 268.3 64.1" fill="#5c9cd6"/><polygon points="251.2 20.4 268.3 64.1 268.3 64.1 285.5 20.4 251.2 20.4" fill="url(#f7ca5e62-b98e-4af1-aace-d3c5becc3d1e)"/><polygon points="485.5 289.7 472.7 276.9 467.6 289.7 485.5 289.7" fill="url(#a4b3e31e-0f62-440d-89ac-1ea58d1b8c3a)"/><polygon points="432.9 276.8 420 289.7 438 289.7 432.9 276.8" fill="url(#b7e7126d-08e4-4095-a502-ad7a19c6fb24)"/><polygon points="420 289.7 452.7 327.4 448.3 322.3 420 289.7" fill="#5c9cd6"/><polygon points="452.8 327.4 452.8 327.4 485.5 289.7 457.2 322.3 452.8 327.4" fill="#5c9cd6"/><polygon points="452.7 327.4 452.8 327.4 452.8 327.4 452.7 327.4" fill="#5c9cd6"/><polygon points="438 289.7 420 289.7 448.3 322.3 452.7 327.4 452.8 327.4 438 289.7" fill="url(#b1b9b4d3-d318-42ec-aa21-90abdab55ed2)"/><polygon points="452.8 327.4 457.2 322.3 485.5 289.7 467.6 289.7 452.8 327.4" fill="url(#f6a10f2a-362f-48e3-9fe5-d7a1ff8b7fdd)"/><polygon points="452.8 327.4 452.8 327.4 452.8 327.4 452.8 327.4" fill="#5c9cd6"/><polygon points="472.4 276.6 472.7 276.9 472.8 276.6 432.9 276.6 432.9 276.8 433.1 276.6 472.4 276.6" fill="#5c9cd6"/><polygon points="467.6 289.7 472.7 276.9 472.4 276.6 433.1 276.6 432.9 276.8 438 289.7 467.6 289.7" fill="url(#b4608924-a229-4345-810e-bf07ba122176)"/><polygon points="452.8 327.4 452.8 327.4 452.8 327.4 452.8 327.4 452.8 327.4" fill="#5c9cd6"/><polygon points="438 289.7 452.8 327.4 452.8 327.4 467.6 289.7 438 289.7" fill="url(#b280931e-428c-4f79-863a-be03153011e7)"/><path d="M216,317.2c-1.8-5-11.4-3.2-18.8-1a1.1,1.1,0,0,1-.9-1.9c11-7.2,29-20.3,26.3-26.9s-10.2-3.5-16.2-.9a1.8,1.8,0,0,1-2.2-2.7c7.9-10.5,19.9-30.7,4.4-38.6-16.5-5.3-22.2,17.5-24.1,30.5a1.8,1.8,0,0,1-3.4.4c-2.4-6.1-6.5-13.1-12.1-10.8s-3.1,24.7-.3,37.6a1.1,1.1,0,0,1-2,.7c-3.7-6.8-9.2-14.8-14.1-12.5-7.3,3.6,12.6,36.5,18.3,45.6C181.4,334.2,218.7,324.9,216,317.2Z" fill="url(#affebe0c-57e0-4f28-8d20-0c9200e7f69f)"/><rect x="137.2" y="306.9" width="91.7" height="1" transform="translate(-170.9 359.5) rotate(-67.6)" fill="#1a3942"/><path d="M144.1,301.5c-4-2.2-9.1,4.5-12.5,10.2a.9.9,0,0,1-1.6-.6c2.8-11,6.6-29.7,1-32.3s-8.5,3.7-10.8,8.8a1.5,1.5,0,0,1-2.9-.4c-1.2-11.2-5.3-31-19.6-27-13.6,6.3-3.9,24,2.4,33.3a1.5,1.5,0,0,1-1.9,2.2c-5.1-2.4-11.7-4.5-13.9.2s12.4,17.4,21.6,24a.9.9,0,0,1-.8,1.6c-6.3-2.2-14.5-4-16.2.3-2.6,6.5,29.1,15.7,38,18.2C132.1,332.3,150.3,304.8,144.1,301.5Z" fill="url(#af5bb655-de4a-48d2-9a79-a4d3692116eb)"/><rect x="117.1" y="275.1" width="1" height="78.66" transform="translate(-101.1 59.8) rotate(-20.2)" fill="#1a3942"/><path d="M146.4,340.4a54,54,0,0,0-37.6,15.3,32.5,32.5,0,0,0-9.9-1.5,32,32,0,0,0-29.7,20H196.5A54.1,54.1,0,0,0,146.4,340.4Z" fill="url(#a28afd14-580e-4fa8-a196-d860c785cb7d)"/><path d="M80.5,121.5v-5.6a2.6,2.6,0,0,0-2.2-2.6l-8.6-1.5a4,4,0,0,1-3.1-2.5,20,20,0,0,0-1-2.6,4.1,4.1,0,0,1,.3-4L71,95.6a2.7,2.7,0,0,0-.3-3.4l-4-4a2.5,2.5,0,0,0-3.3-.2l-7.1,5a4.3,4.3,0,0,1-4.1.4l-2.5-1.1a3.9,3.9,0,0,1-2.6-3.1l-1.5-8.6a2.6,2.6,0,0,0-2.5-2.2H37.5a2.6,2.6,0,0,0-2.6,2.2l-1.5,8.6a3.9,3.9,0,0,1-2.6,3.1l-2.5,1.1a4.1,4.1,0,0,1-4-.4l-7.2-5a2.5,2.5,0,0,0-3.3.2l-4,4a2.7,2.7,0,0,0-.3,3.4l5.1,7.1a3.8,3.8,0,0,1,.3,4,20,20,0,0,0-1,2.6,4,4,0,0,1-3.1,2.5l-8.6,1.5A2.6,2.6,0,0,0,0,115.9v5.6a2.7,2.7,0,0,0,2.2,2.6l8.6,1.4a4.1,4.1,0,0,1,3.1,2.6,27.7,27.7,0,0,0,1,2.6,3.8,3.8,0,0,1-.3,4l-5.1,7.1a2.7,2.7,0,0,0,.3,3.4l4,3.9a2.5,2.5,0,0,0,3.3.3l7.2-5a3.8,3.8,0,0,1,4-.4l2.5,1.1a3.9,3.9,0,0,1,2.6,3.1l1.5,8.6a2.6,2.6,0,0,0,2.6,2.1h5.6a2.6,2.6,0,0,0,2.5-2.1l1.5-8.6a3.9,3.9,0,0,1,2.6-3.1l2.5-1.1a4,4,0,0,1,4.1.4l7.1,5a2.5,2.5,0,0,0,3.3-.3l4-3.9a2.7,2.7,0,0,0,.3-3.4l-5.1-7.1a4.1,4.1,0,0,1-.3-4,27.7,27.7,0,0,0,1-2.6,4.1,4.1,0,0,1,3.1-2.6l8.6-1.4A2.7,2.7,0,0,0,80.5,121.5ZM40.3,135.7a17,17,0,1,1,17-17A17.1,17.1,0,0,1,40.3,135.7Z" fill="url(#a49353cf-cb5f-4f43-afda-4351245cdb97)"/><path d="M60.6,201.2v-3.7a1.6,1.6,0,0,0-1.5-1.7l-5.7-1a2.7,2.7,0,0,1-2.1-1.7,13.4,13.4,0,0,0-.7-1.8,2.9,2.9,0,0,1,.2-2.7l3.4-4.7a1.8,1.8,0,0,0-.2-2.3L51.4,179a1.8,1.8,0,0,0-2.3-.2l-4.7,3.4a2.9,2.9,0,0,1-2.7.2l-1.8-.7a2.7,2.7,0,0,1-1.7-2.1l-1-5.7a1.6,1.6,0,0,0-1.7-1.5H31.8a1.6,1.6,0,0,0-1.7,1.5l-1,5.7a2.7,2.7,0,0,1-1.7,2.1l-1.8.7a2.9,2.9,0,0,1-2.7-.2l-4.7-3.4a1.8,1.8,0,0,0-2.3.2l-2.6,2.6a1.8,1.8,0,0,0-.2,2.3l3.4,4.7a2.9,2.9,0,0,1,.2,2.7,13.4,13.4,0,0,0-.7,1.8,2.7,2.7,0,0,1-2.1,1.7l-5.7,1a1.6,1.6,0,0,0-1.5,1.7v3.7a1.6,1.6,0,0,0,1.5,1.7l5.7,1a2.6,2.6,0,0,1,2.1,1.8c.2.5.4,1.1.7,1.7a2.9,2.9,0,0,1-.2,2.7l-3.4,4.7a1.8,1.8,0,0,0,.2,2.3l2.6,2.6a1.8,1.8,0,0,0,2.3.2l4.7-3.4a2.9,2.9,0,0,1,2.7-.2l1.8.7a2.7,2.7,0,0,1,1.7,2.1l1,5.8a1.6,1.6,0,0,0,1.7,1.4h3.7a1.6,1.6,0,0,0,1.7-1.4l1-5.8a2.7,2.7,0,0,1,1.7-2.1l1.8-.7a2.9,2.9,0,0,1,2.7.2l4.7,3.4a1.8,1.8,0,0,0,2.3-.2l2.6-2.6a1.8,1.8,0,0,0,.2-2.3l-3.4-4.7a2.9,2.9,0,0,1-.2-2.7c.3-.6.5-1.2.7-1.7a2.6,2.6,0,0,1,2.1-1.8l5.7-1A1.6,1.6,0,0,0,60.6,201.2Zm-27,9.5A11.4,11.4,0,1,1,45,199.4,11.4,11.4,0,0,1,33.6,210.7Z" fill="url(#f9455426-26d5-4da3-a08d-044b76aa04d2)"/><path d="M146.8,125.1v-3.8a1.7,1.7,0,0,0-1.4-1.7l-5.8-1a3,3,0,0,1-2.1-1.7,8.7,8.7,0,0,0-.7-1.7,2.6,2.6,0,0,1,.3-2.7l3.3-4.8a1.7,1.7,0,0,0-.2-2.2l-2.6-2.7a1.7,1.7,0,0,0-2.2-.2l-4.8,3.4a2.4,2.4,0,0,1-2.7.2l-1.7-.7a2.8,2.8,0,0,1-1.8-2l-.9-5.8a1.9,1.9,0,0,0-1.8-1.5H118a1.7,1.7,0,0,0-1.7,1.5l-1,5.8a2.7,2.7,0,0,1-1.7,2l-1.8.7a2.3,2.3,0,0,1-2.6-.2l-4.8-3.4a1.8,1.8,0,0,0-2.3.2l-2.6,2.7a1.7,1.7,0,0,0-.2,2.2l3.4,4.8a2.9,2.9,0,0,1,.2,2.7c-.2.5-.5,1.1-.7,1.7a2.7,2.7,0,0,1-2.1,1.7l-5.7,1a1.7,1.7,0,0,0-1.5,1.7v3.8a1.8,1.8,0,0,0,1.5,1.7l5.7,1a2.5,2.5,0,0,1,2.1,1.7c.2.6.5,1.2.7,1.7a2.9,2.9,0,0,1-.2,2.7l-3.4,4.8a1.7,1.7,0,0,0,.2,2.2l2.6,2.7a1.8,1.8,0,0,0,2.3.2l4.8-3.4a2.5,2.5,0,0,1,2.6-.3l1.8.8a2.7,2.7,0,0,1,1.7,2l1,5.8a1.6,1.6,0,0,0,1.7,1.4h3.7a1.8,1.8,0,0,0,1.8-1.4l.9-5.8a2.8,2.8,0,0,1,1.8-2l1.7-.8a2.6,2.6,0,0,1,2.7.3l4.8,3.4a1.7,1.7,0,0,0,2.2-.2l2.6-2.7a1.7,1.7,0,0,0,.2-2.2l-3.3-4.8a2.6,2.6,0,0,1-.3-2.7,8.7,8.7,0,0,0,.7-1.7,2.8,2.8,0,0,1,2.1-1.7l5.8-1A1.8,1.8,0,0,0,146.8,125.1Zm-26.9,9.5a11.4,11.4,0,1,1,11.4-11.4A11.4,11.4,0,0,1,119.9,134.6Z" fill="url(#eac2690f-58f6-42f6-8313-ae0af36e505a)"/><path d="M628.2,186.8v-3.7a1.8,1.8,0,0,0-1.4-1.8l-5.8-1a2.5,2.5,0,0,1-2.1-1.7,12.2,12.2,0,0,0-.7-1.7,2.9,2.9,0,0,1,.2-2.7l3.4-4.8a1.7,1.7,0,0,0-.2-2.2l-2.6-2.7a1.8,1.8,0,0,0-2.3-.1l-4.7,3.3a2.6,2.6,0,0,1-2.7.3l-1.7-.7a2.9,2.9,0,0,1-1.8-2.1l-1-5.8a1.6,1.6,0,0,0-1.7-1.4h-3.7a1.6,1.6,0,0,0-1.7,1.4l-1,5.8a3,3,0,0,1-1.7,2.1l-1.8.7a2.7,2.7,0,0,1-2.7-.3l-4.7-3.3a1.8,1.8,0,0,0-2.3.1l-2.6,2.7a1.7,1.7,0,0,0-.2,2.2l3.4,4.8a2.9,2.9,0,0,1,.2,2.7,12.2,12.2,0,0,0-.7,1.7,2.5,2.5,0,0,1-2.1,1.7l-5.7,1a1.8,1.8,0,0,0-1.5,1.8v3.7a1.6,1.6,0,0,0,1.5,1.7l5.7,1a2.7,2.7,0,0,1,2.1,1.7,13.4,13.4,0,0,0,.7,1.8,2.7,2.7,0,0,1-.2,2.6l-3.4,4.8a1.8,1.8,0,0,0,.2,2.3l2.6,2.6a1.8,1.8,0,0,0,2.3.2l4.7-3.4a2.9,2.9,0,0,1,2.7-.2l1.8.7a2.7,2.7,0,0,1,1.7,2.1l1,5.7a1.6,1.6,0,0,0,1.7,1.5h3.7a1.6,1.6,0,0,0,1.7-1.5l1-5.7a2.6,2.6,0,0,1,1.8-2.1l1.7-.7a2.9,2.9,0,0,1,2.7.2l4.7,3.4a1.8,1.8,0,0,0,2.3-.2l2.6-2.6a1.8,1.8,0,0,0,.2-2.3l-3.4-4.8a2.7,2.7,0,0,1-.2-2.6,13.4,13.4,0,0,0,.7-1.8,2.7,2.7,0,0,1,2.1-1.7l5.8-1A1.6,1.6,0,0,0,628.2,186.8Zm-26.9,9.5a11.4,11.4,0,1,1,11.3-11.4A11.4,11.4,0,0,1,601.3,196.3Z" fill="url(#b0777650-cd99-459a-a0d7-c0d8c62c8c1e)"/></g></g></svg>