<svg id="erGsajUvOSc1" xmlns="http://www.w3.org/2000/svg" xmlns:xlink="http://www.w3.org/1999/xlink" viewBox="0 0 512 512" shape-rendering="geometricPrecision" text-rendering="geometricPrecision"><style><![CDATA[#erGsajUvOSc4_tr {animation: erGsajUvOSc4_tr__tr 3000ms linear infinite normal forwards}@keyframes erGsajUvOSc4_tr__tr { 0% {transform: translate(255.900904px,256.000031px) rotate(0deg)} 50% {transform: translate(255.900904px,256.000031px) rotate(90deg)} 100% {transform: translate(255.900904px,256.000031px) rotate(180deg)}} #erGsajUvOSc7_tr {animation: erGsajUvOSc7_tr__tr 3000ms linear infinite normal forwards}@keyframes erGsajUvOSc7_tr__tr { 0% {transform: translate(256px,256px) rotate(-180deg)} 50% {transform: translate(256px,256px) rotate(-270deg)} 100% {transform: translate(256px,256px) rotate(-360deg)}}]]></style><g id="erGsajUvOSc2"><g id="erGsajUvOSc3"><g id="erGsajUvOSc4_tr" transform="translate(255.900904,256.000031) rotate(0)"><path id="erGsajUvOSc4" d="M511.8,227.6C511.7,210.7,498.2,196.1,480,196.1L479.7,196.1C478.4,196.1,477.3,195.2,476.9,193.9C471.9,176,464.7,158.8,455.5,142.7C454.7,141.3,454.9,139.6,456,138.5C456,138.5,456,138.5,456,138.5C461.9,132.7,465.1,124.9,465.1,116.5C465.1,108,461.7,99.7,455.7,93.8L416.7,55.1C416.7,55.1,416.7,55.1,416.7,55.1C404.4,42.9,384.2,42.6,372,55.1C371.8,55.3,371.6,55.5,371.5,55.6C370.7,56.4,369.3,56.5,368.2,55.8C351.9,46.7,334.5,39.5,316.5,34.6C315.2,34.2,314.3,33.1,314.2,31.8L314.2,31.5C314.3,14.1,300,0,282.6,0C282.6,0,282.5,0,282.5,0L227.4,0.2C218.9,0.2,211,3.6,205.1,9.6C199.2,15.6,196,23.6,196.1,32L196.1,32.3C196.1,33.6,195.2,34.7,193.9,35.1C175.9,40.1,158.6,47.4,142.4,56.7C141.3,57.3,139.9,57.3,139.1,56.5C138.9,56.3,138.7,56.2,138.6,56C132.8,50.1,125,46.9,116.6,46.8C116.6,46.8,116.6,46.8,116.5,46.8C108.1,46.8,99.8,50.2,93.8,56.2L55.1,95.2C43,107.4,42.6,127.7,55.1,139.9C55.1,140,57.1,141.6,55.8,143.9C46.7,160.1,39.6,177.5,34.7,195.4C34.4,196.6,33.2,197.7,31.6,197.7C14.1,197.8,-0.1,212,0,229.5L0.2,284.3C0.3,301.7,14.4,315.9,31.9,315.9L32,315.9C32.1,315.9,34.4,315.7,35.1,318.1C40.1,336.1,47.4,353.4,56.6,369.6C57.9,371.9,55.9,373.4,55.9,373.5C43.3,385.9,44.1,406.2,56.2,418.2L95.2,456.9C107.5,469.1,127.6,469.5,139.9,456.9C141,455.8,142.2,455.3,143.7,456.1C160,465.2,177.4,472.4,195.4,477.3C196.7,477.7,197.6,478.8,197.6,480.1C197.7,480.5,196.8,492.7,206.9,502.8C212.9,508.7,220.8,512,229.2,512L229.3,512L284.1,511.8C301.5,511.7,315.8,497.5,315.9,480L315.9,479.7C315.9,478.4,316.8,477.3,318.1,476.9C336.1,471.9,353.4,464.6,369.6,455.4C370.7,454.8,372.1,454.8,372.9,455.6C387.4,469,406.2,467.9,418.1,455.8L456.8,416.8C468.9,404.6,469.3,384.3,456.8,372.1L456.8,372.1C455.7,371,455.5,369.3,456.2,368C465.3,351.8,472.3,334.5,477.2,316.6C477.6,315.3,478.7,314.4,480,314.4C480.3,314.3,492.9,315.3,503,304.7C508.8,298.6,511.9,290.4,511.8,282L511.8,227.6ZM479.8,299.4C471.9,299.6,465,305,462.9,312.7C457.8,331.5,451.1,347.9,441,364.6C437.7,370.1,439.8,376.1,446.4,383C452.7,389.6,452.5,400.1,446.3,406.4L407.6,445.4C402.2,450.8,395.5,450.4,395.6,450.4C389.4,450.4,386.2,447.5,383.2,444.7C377.5,439.5,369.1,438.6,362.2,442.5C347.1,451.1,330.9,457.9,314.1,462.6C306.5,464.7,301,471.7,300.9,479.6C300.7,490.2,292.7,496.9,284,496.9L229.2,497.1C220.6,497.1,212.8,490.8,212.5,479.9C212.3,472,206.9,465.1,199.2,463C182.4,458.4,166.1,451.7,150.9,443.2C144.3,439.5,135.5,439.8,129,446.6C122.6,453.2,112,452.8,105.6,446.5L66.6,407.8C60.6,401.9,59.3,391.7,66.8,383.9C72.3,378.2,73.5,369.3,69.5,362.4C60.9,347.3,54.1,331.1,49.4,314.3C47.4,307,40.7,301.1,31.8,301.1C22.6,301.2,15.1,293.7,15.1,284.5L15,229.5C15,220.3,22.4,212.7,31.6,212.7C31.6,212.7,31.7,212.7,31.7,212.7C39.8,212.7,47,207.2,49.1,199.4C53.7,182.6,60.3,166.4,68.8,151.3C72.6,144.5,71.9,135.4,65.5,129.2C59,122.9,59.4,112.1,65.6,105.8L104.3,66.8C107.5,63.6,111.8,61.8,116.3,61.8L116.3,61.8C120.6,61.8,124.7,63.5,127.6,66.5C127.9,66.8,128.3,67.2,128.6,67.5C134.3,72.7,142.7,73.6,149.5,69.7C164.6,61.1,180.8,54.3,197.6,49.6C205.2,47.5,210.7,40.5,210.8,32.6L210.8,31.9C210.7,27.5,212.4,23.3,215.5,20.1C218.7,16.9,223.1,15.2,227.6,15.2L282.3,15L282.6,15C291.8,15,299.1,22.5,299.1,31.7C299.1,31.9,299.1,32.1,299.1,32.3C299.3,40.2,304.7,47.1,312.4,49.2C329.2,53.8,345.5,60.5,360.7,69C367.5,72.8,376.2,72.3,382.7,65.6C389.1,59,399.7,59.4,406.1,65.8L406.1,65.8L445.1,104.5C448.3,107.6,450.1,112,450.1,116.5C450.1,120.9,448.4,124.9,445.5,127.8C444.1,129.2,442.9,130.6,441.8,132.2C438.5,136.9,438.4,143.1,441.3,148C450.9,164,457.3,179.8,462.4,197.9C464.5,205.5,471.5,210.9,479.4,211.1C490.4,211.3,496.8,219.2,496.8,227.7L497,282.7C497,291.1,490.7,299.1,479.8,299.4L479.8,299.4Z" transform="translate(-255.900904,-256.000031)" fill="rgb(255,255,255)" stroke="none" stroke-width="1"/></g><path id="erGsajUvOSc5" d="M256,101.6C170.9,101.6,101.6,170.9,101.6,256C101.6,341.1,170.9,410.4,256,410.4C341.1,410.4,410.4,341.2,410.4,256C410.4,170.8,341.2,101.6,256,101.6L256,101.6ZM256,395.4C179.1,395.4,116.6,332.9,116.6,256C116.6,179.1,179.1,116.6,256,116.6C332.9,116.6,395.4,179.1,395.4,256C395.4,332.9,332.9,395.4,256,395.4L256,395.4Z" fill="rgb(255,255,255)" stroke="none" stroke-width="1"/><path id="erGsajUvOSc6" d="M342.1,178.4C336.6,173.8,329.6,171.6,322.5,172.3C315.4,172.9,308.9,176.3,304.3,181.8L224.4,277.4L197,249.3C192,244.2,185.3,241.3,178.1,241.2C170.9,241.1,164.2,243.8,159,248.8C153.9,253.8,151,260.5,150.9,267.7C150.8,274.9,153.5,281.6,158.5,286.8L206.6,336.3C211.6,341.5,218.6,344.4,225.8,344.4C226.1,344.4,226.5,344.4,226.8,344.4C234.4,344.1,241.5,340.6,246.4,334.8L345.4,216.3C355,204.9,353.4,187.9,342.1,178.4L342.1,178.4ZM334,206.6L235,325.1C232.9,327.7,229.7,329.2,226.4,329.3C223,329.4,219.8,328.1,217.5,325.7L169.4,276.2C167.2,273.9,166,270.9,166.1,267.8C166.2,264.7,167.4,261.7,169.7,259.5C171.9,257.3,174.8,256.1,177.9,256.1C178,256.1,178,256.1,178.1,256.1C181.3,256.1,184.2,257.4,186.4,259.7L219.5,293.8C221,295.3,223,296.1,225.2,296.1C227.3,296,229.3,295,230.7,293.4L315.9,191.4C317.9,189,320.8,187.5,323.9,187.2C327.1,186.9,330.1,187.9,332.6,189.9C337.5,194.1,338.1,201.6,334,206.6L334,206.6Z" fill="rgb(255,255,255)" stroke="none" stroke-width="1" stroke-dashoffset="123123"/><g id="erGsajUvOSc7_tr" transform="translate(256,256) rotate(-180)"><g id="erGsajUvOSc7" transform="translate(-256,-256)"><path id="erGsajUvOSc8" d="M365.2,388.9C334.5,414.1,295.7,428,256,428C161.2,428,84,350.8,84,256C84,216.3,97.9,177.5,123.1,146.9C125.7,143.7,125.3,139,122.1,136.3C118.9,133.7,114.2,134.1,111.5,137.3C84.1,170.6,69,212.8,69,256C69,359.1,152.9,443,256,443C299.2,443,341.4,427.9,374.7,400.5C377.9,397.9,378.4,393.1,375.7,389.9C373.1,386.8,368.4,386.3,365.2,388.9L365.2,388.9Z" fill="rgb(255,255,255)" stroke="none" stroke-width="1"/><path id="erGsajUvOSc9" d="M256,69C212.8,69,170.6,84.1,137.3,111.5C134.1,114.1,133.6,118.9,136.3,122.1C138.9,125.3,143.7,125.8,146.9,123.1C177.5,97.9,216.2,84,256,84C350.8,84,428,161.2,428,256C428,295.7,414.1,334.5,388.9,365.2C386.3,368.4,386.7,373.1,389.9,375.8C391.3,376.9,393,377.5,394.7,377.5C396.9,377.5,399,376.6,400.5,374.8C427.9,341.4,443,299.2,443,256C443,152.9,359.1,69,256,69Z" fill="rgb(255,255,255)" stroke="none" stroke-width="1"/></g></g></g></g></svg>