<svg xmlns="http://www.w3.org/2000/svg" xmlns:xlink="http://www.w3.org/1999/xlink" viewBox="0 0 1160.2 1054.5"><defs><radialGradient id="bfedbd04-0d23-4f8f-9739-d0b0bb8a305f" cx="345.17" cy="4738.18" r="2213.8" gradientTransform="matrix(0.42, 0, 0, -0.42, 493.16, 2510.12)" gradientUnits="userSpaceOnUse"><stop offset="0.22"/><stop offset="0.32" stop-color="#282828"/><stop offset="0.57" stop-color="#838383"/><stop offset="0.78" stop-color="#c6c6c6"/><stop offset="0.92" stop-color="#efefef"/><stop offset="1" stop-color="#fff"/></radialGradient><radialGradient id="bf5bd76c-4095-4807-8dba-5271028e3079" cx="345.17" cy="4738.18" r="2213.78" xlink:href="#bfedbd04-0d23-4f8f-9739-d0b0bb8a305f"/><mask id="bd1141f4-95b2-4458-986a-9dfe82b5e3b4" x="541.2" y="185" width="552.41" height="869.5" maskUnits="userSpaceOnUse"><g id="aa87ab42-e346-4581-815c-a7c31cecd374" data-name="eHLmoAjTIGK9"><g id="a0f8db30-5401-4603-8a46-f7046109477c" data-name="eHLmoAjTIGK10"><g id="b53f8e9b-95fe-4583-a155-a4ead97e59c7" data-name="eHLmoAjTIGK11"><g id="a915bca1-5e8a-437b-821a-ed76868d029c" data-name="eHLmoAjTIGK12"><g id="b037356d-bef0-4fe2-a4a5-6e4a82efb70e" data-name="eHLmoAjTIGK13"><path id="f945bc7e-877f-4348-bc27-fe297a74a155" data-name="eHLmoAjTIGK14" d="M960.2,186.1l-1.1-1.1-62.3,59.1a390.9,390.9,0,0,0-59-49.2l-1.3-.9-119,175.5-.9,1.3,1.3.9a176.9,176.9,0,0,1,71.5,102.8H789l-1,.3.4,1.4a178.4,178.4,0,0,1,4.8,41.2,180.9,180.9,0,0,1-5,42.1l-.4,1.5,22,5.1a201.4,201.4,0,0,1-11.2,32.8l-18.4-8-1-.4-.6,1.3a179.5,179.5,0,0,1-64.9,74.8l-.3-.5-1.3.8a177.5,177.5,0,0,1-95.7,28h-1.6l-.9,263.8a446.1,446.1,0,0,1-71.2-5.9h-1l-.5,3,1,.2a465.5,465.5,0,0,0,71.7,5.9l-.3,91.1v1.5h1.5a533.1,533.1,0,0,0,293.7-87.8l1.3-.8L833.2,848.6a398.5,398.5,0,0,0,54.5-43.3l4.4-4.2,57.7,57.7,1.1-1C1137.5,674.3,1141.6,374.7,960.2,186.1ZM616.6,1051.3l.4-89.5a442.3,442.3,0,0,0,159.2-30l.9-.3-1.1-2.9-.9.4A440.5,440.5,0,0,1,617,958.7l.9-260.7a181.4,181.4,0,0,0,59.7-10.7l77,200.2.4,1,1.4-.6a386.9,386.9,0,0,0,74.3-37.6l75.1,114.6A530.6,530.6,0,0,1,616.6,1051.3Zm64.1-364.6a180.9,180.9,0,0,0,32.1-15.9L829,847.7a389.5,389.5,0,0,1-72.2,36.8Zm34.7-17.6a181.6,181.6,0,0,0,65.4-74.6l16.5,7.2a199,199,0,0,1-42.7,59.7l-1.1,1.1L889.9,798.9l-4.3,4.2a398.9,398.9,0,0,1-54.1,43ZM892.1,796.8,757.9,662.5A204.5,204.5,0,0,0,800.1,603l173.3,75.9A388.4,388.4,0,0,1,892.1,796.8Zm84.8-118.1.6-1.4L801.4,600.2a195.3,195.3,0,0,0,11.4-33.3l236.4,54.3,1,.2.3-1.5a450.7,450.7,0,0,0-1.7-210.1l-.4-1.5-50.9,13a392.9,392.9,0,0,0-98.5-175l60-56.9c179.2,187,175.1,483.2-9.2,665.1l-55.5-55.6A391.9,391.9,0,0,0,976.9,678.7Zm30.2-158.5v.2H818.7v-2.3a201.7,201.7,0,0,0-5.4-46.5l182-46.5A390.7,390.7,0,0,1,1007.1,520.2ZM812.6,468.6a201,201,0,0,0-51.5-91.7L896.8,248.4a390,390,0,0,1,97.7,173.7Zm3,49.5v2.3H797.9v-2.6a178.2,178.2,0,0,0-4.8-41.1l17.2-4.4A201.8,201.8,0,0,1,815.6,518.1Zm194.5,5.4v-3.3a392.9,392.9,0,0,0-11.8-95.9l47.9-12.2a445.4,445.4,0,0,1,1.7,205.7L813.5,563.9a196.8,196.8,0,0,0,5.1-40.4ZM757.8,375.8l-1.1,1.1,1.1,1.1a197.5,197.5,0,0,1,51.8,91.3l-17.2,4.4A180.7,180.7,0,0,0,720.9,370L837.3,198.3a386.1,386.1,0,0,1,57.3,47.9Zm38.4,147.7h19.4a203.6,203.6,0,0,1-5.1,39.7l-19-4.4A182.7,182.7,0,0,0,796.2,523.5Z" fill="url(#bfedbd04-0d23-4f8f-9739-d0b0bb8a305f)"/></g></g></g></g></g></mask><radialGradient id="fcc9a50e-c1ef-4de6-b0d3-df15fcaa7058" cx="345.17" cy="4738.18" r="2213.8" gradientTransform="matrix(0.42, 0, 0, -0.42, 493.16, 2510.12)" gradientUnits="userSpaceOnUse"><stop offset="0.22" stop-color="#73a4d6"/><stop offset="0.45" stop-color="#7dc1e4"/><stop offset="0.81" stop-color="#8beaf7"/><stop offset="1" stop-color="#90faff"/></radialGradient><mask id="a18e56cc-cb06-4277-a749-4029aac05c2e" x="138.31" y="36.6" width="420.09" height="987.5" maskUnits="userSpaceOnUse"><g id="ec9393bb-a178-4680-9256-d34b855e01a1" data-name="eHLmoAjTIGK18"><g id="bc55de91-e6ee-4162-b5d4-2b0175070633" data-name="eHLmoAjTIGK19"><g id="e20c77d6-6927-42d0-a6a7-544663a3dd12" data-name="eHLmoAjTIGK20"><g id="e94c2202-5d7e-4f92-a248-cde6b609a1b7" data-name="eHLmoAjTIGK21"><g id="b9309760-86b7-40df-bffa-dc01d917bd4c" data-name="eHLmoAjTIGK22"><path id="b440602e-13ed-451e-8381-b24da8afafee" data-name="eHLmoAjTIGK23" d="M558.4,685.3l-1.4-.5a179.2,179.2,0,0,1-51.1-28.4l-1.2-1-13.5,16.7a206,206,0,0,1-15.5-14l15.2-14.8,1.1-1.1-1.1-1.1a175.3,175.3,0,0,1-42.4-70.2h0a177.2,177.2,0,0,1-8.1-53.1,179.1,179.1,0,0,1,7.1-49.9l.5-1.4L426.7,460a205.9,205.9,0,0,1,18.2-41.7,201.5,201.5,0,0,1,52-58.7l11.2,15.5.9,1.2,1.2-.9a187.8,187.8,0,0,1,27.1-16.7l1.4-.6L383.6,36.6l-1.3.7a529.5,529.5,0,0,0-80.6,48.1l-1.3.9.9,1.3,32,44.7A477.4,477.4,0,0,0,316,888.9l-36.6,45.3-1,1.2,1.2.9a532.3,532.3,0,0,0,155.8,87.2l1.5.6,121-337.4ZM282.8,934.9l35.6-44.1a482.8,482.8,0,0,0,46.3,32.7l1.3.8L513.5,689.8l.9-1.3-1.4-.8a217.7,217.7,0,0,1-19.4-13.6l11.6-14.4a179.2,179.2,0,0,0,49.3,27.4L435,1020.1A530.4,530.4,0,0,1,282.8,934.9ZM382.2,40.7l152.4,316A177,177,0,0,0,509.7,372l-10.3-14.2c5.2-3.8,10.6-7.4,16.1-10.7l1.4-.8L372.6,106.2l-1.3.8c-12.2,7.3-24.1,15.1-35.5,23.5C323.7,113.7,313.2,99,304.7,87A532.5,532.5,0,0,1,382.2,40.7ZM512.6,345.3c-5.1,3.1-10.1,6.4-15,10-53.2-73.8-116-161-160-222.3,11-8,22.3-15.6,34-22.6Zm-17.5,11.8a202.6,202.6,0,0,0-52.8,59.7,196.7,196.7,0,0,0-18.5,42.3L242.3,404.2l-1-.3-.4,1.4a392.7,392.7,0,0,0-17,111.4h-53l-1.5.3v1.5a444.2,444.2,0,0,0,127.2,312l1.1,1.1L473.5,660.2c5,5,10.3,9.8,15.8,14.3l-171.4,212A480.5,480.5,0,0,1,203.3,751.6C84.3,542.3,141,277.1,335.1,134.8,379,196.1,441.8,283.2,495.1,357.1ZM473.6,655.9a196.1,196.1,0,0,1-46-77l18.5-5.7a179.5,179.5,0,0,0,41.5,69ZM415,519.8a204,204,0,0,0,8.7,57L243.2,632.1a392.5,392.5,0,0,1-16.3-111.9v-.4Zm-242.6,0h51.4v.4a395.5,395.5,0,0,0,16.9,114.3l.4,1.5,183.6-56.2A198.2,198.2,0,0,0,471.4,658L297.7,827.3C217.2,744.5,172.8,635.3,172.4,519.8Zm254.3,56.1a201.3,201.3,0,0,1-8.6-56.1h19.1a188,188,0,0,0,7.9,50.5ZM226.9,516.7a391.2,391.2,0,0,1,16.5-109l179.5,54.4a210.1,210.1,0,0,0-7.9,54.6Zm210.5,0H418.1a199.2,199.2,0,0,1,7.8-53.7l18.3,5.5A178.7,178.7,0,0,0,437.4,516.7ZM365.1,920.1a482.9,482.9,0,0,1-44.8-31.7l171.4-212a197.8,197.8,0,0,0,18.4,13.1Z" fill="url(#bfedbd04-0d23-4f8f-9739-d0b0bb8a305f)"/></g></g></g></g></g></mask><mask id="b223b23c-8a66-4832-b046-a5e99b7639d3" x="463.6" y="0" width="374.2" height="356.7" maskUnits="userSpaceOnUse"><g id="a0adfd3d-64bd-438b-9a7d-a6b1a1286a81" data-name="eHLmoAjTIGK27"><g id="e71b4e8a-268f-4fad-9db6-15fc85995d13" data-name="eHLmoAjTIGK28"><g id="b97e898a-c8e3-4584-9d8f-d6943addf24a" data-name="eHLmoAjTIGK29"><g id="a84d53b6-a852-4fb0-92eb-84e0005d9b63" data-name="eHLmoAjTIGK30"><g id="bf8fc91e-6b18-4e4a-9050-f4f66217618e" data-name="eHLmoAjTIGK31"><path id="a5b3ffd1-8b18-4c3e-926a-77355de92b13" data-name="eHLmoAjTIGK32" d="M465.6,99.2a433.5,433.5,0,0,1,67.2-18.3l45.3,240.7.3,1.5,1.5-.3a202.3,202.3,0,0,1,73.6-.1l1.5.3L699.8,81.3c7.7,1.5,15.5,3.2,23.1,5.2L658.4,343.6l-.3,1.5,1.5.4a177.3,177.3,0,0,1,30.2,10.6l1.4.6L837.2,34l.6-1.4-1.4-.6A525.4,525.4,0,0,0,746.1.4L744.6,0,723.7,83.5c-7.8-2-15.5-3.7-23.4-5.2l5.4-29.2.2-1-1.5-.3a481.5,481.5,0,0,0-176.3-.1l-1.5.3,5.7,29.9a429.9,429.9,0,0,0-67.8,18.4l-.9.3,1,2.9ZM616,42.7a480.9,480.9,0,0,1,86.3,7.8l-5,27.2a452.3,452.3,0,0,0-162-.4l-5.1-26.8A474.6,474.6,0,0,1,616,42.7ZM580.8,319.5l-45-239.2a444,444,0,0,1,160.9.5L652.6,319.4A206.1,206.1,0,0,0,580.8,319.5Zm253-285.3L689.7,352.7a184.7,184.7,0,0,0-27.9-9.8l85-339.2A524.9,524.9,0,0,1,833.8,34.2Z" fill="url(#bfedbd04-0d23-4f8f-9739-d0b0bb8a305f)"/></g></g></g></g></g></mask><mask id="ab12b418-13d1-4c97-bc4b-9d2200dd23ea" x="188.9" y="198.1" width="119.3" height="190.1" maskUnits="userSpaceOnUse"><g id="aa0168e2-f4fe-49de-a664-f89e6ff72a5b" data-name="eHLmoAjTIGK36"><g id="ae8c709b-035b-4bbf-a785-83f58ebac1b0" data-name="eHLmoAjTIGK37"><g id="acb7b017-1a46-4801-87a9-2e72264c0bb7" data-name="eHLmoAjTIGK38"><g id="aa32174e-80ba-4eb7-95af-417fc657ee03" data-name="eHLmoAjTIGK39"><g id="ab9d120e-b8a3-4448-b049-44a8c888f4c6" data-name="eHLmoAjTIGK40"><path id="b1ef11ab-9b62-45c2-9136-2fec214b28c7" data-name="eHLmoAjTIGK41" d="M188.9,387.3l2.9.9.3-1A438.4,438.4,0,0,1,307.5,201.1l.7-.7-2.1-2.3-.8.7A443,443,0,0,0,189.2,386.3Z" fill="url(#bf5bd76c-4095-4807-8dba-5271028e3079)"/></g></g></g></g></g></mask><radialGradient id="b1da6688-35cb-498b-b45c-f9c73044a95b" cx="345.17" cy="4738.18" r="2213.78" xlink:href="#fcc9a50e-c1ef-4de6-b0d3-df15fcaa7058"/><linearGradient id="b77ff02e-6631-4272-b6a0-a25c3db5a741" x1="991.2" y1="2316.53" x2="282.93" y2="3032.26" gradientTransform="matrix(1, 0, 0, -1, 1.6, 3214.6)" gradientUnits="userSpaceOnUse"><stop offset="0" stop-color="#73a4d6"/><stop offset="0.95" stop-color="#8ff6fc"/><stop offset="1" stop-color="#90faff"/></linearGradient><linearGradient id="a1d3005f-9d42-4dc2-8ab4-8e932495d0de" x1="991.18" y1="2316.51" x2="282.91" y2="3032.24" xlink:href="#b77ff02e-6631-4272-b6a0-a25c3db5a741"/><linearGradient id="a75ff952-1ec5-41c2-91aa-0f38c0dfaa0d" x1="574.63" y1="2728.89" x2="397.79" y2="2923.48" xlink:href="#b77ff02e-6631-4272-b6a0-a25c3db5a741"/><clipPath id="ebab9df7-192b-4937-af33-f124a2119b84"><path d="M616,252.2c-146.4-.3-265.3,118.5-265.5,265.1s118.3,265.8,264.7,266S880.5,664.8,880.7,518.1,762.4,252.4,616,252.2ZM797.7,600c-2,4.4-4.2,8.8-6.5,13A200.1,200.1,0,0,1,615.4,717.3C505,717.3,415.5,628.1,415.5,518a197.7,197.7,0,0,1,32.9-109.5c2.8-4.2,5.7-8.3,8.9-12.4l4.3-5.4a200.3,200.3,0,0,1,295.2-13.6c2.4,2.4,4.7,4.8,7,7.3s3.7,4.2,5.4,6.3l1.1,1.3a198.4,198.4,0,0,1,17.6,25.1l2,3.6c.9,1.5,1.7,3,2.5,4.6s3,5.7,4.3,8.7a35.4,35.4,0,0,1,1.6,3.4A198.6,198.6,0,0,1,797.7,600Z" fill="none"/></clipPath><linearGradient id="ec934e4f-b399-4a2d-ade0-d77c20b0fc74" x1="-123.35" y1="3310.66" x2="26.55" y2="3160.74" gradientTransform="matrix(1, 0, 0, -1, 505.6, 4180.9)" xlink:href="#b77ff02e-6631-4272-b6a0-a25c3db5a741"/><linearGradient id="b8e86564-ec96-492b-bd74-201bd3c270fc" x1="-142.8" y1="3330.1" x2="46" y2="3141.3" gradientTransform="matrix(1, 0, 0, -1, 1075.1, 3989.4)" xlink:href="#b77ff02e-6631-4272-b6a0-a25c3db5a741"/><linearGradient id="bddc17b3-2e72-471b-a2d5-04426c50e431" x1="-142.8" y1="3330.1" x2="46" y2="3141.3" gradientTransform="matrix(1, 0, 0, -1, 1024.1, 3435.4)" xlink:href="#b77ff02e-6631-4272-b6a0-a25c3db5a741"/><linearGradient id="b73e9026-c698-48c5-b567-13bc66cefec9" x1="-114.51" y1="3301.81" x2="17.71" y2="3169.59" gradientTransform="matrix(1, 0, 0, -1, 422.6, 3343.4)" xlink:href="#b77ff02e-6631-4272-b6a0-a25c3db5a741"/><linearGradient id="ae960de9-aadd-4fdf-a644-2b249e65b7a0" x1="-146.76" y1="3334.06" x2="49.96" y2="3137.34" gradientTransform="matrix(1, 0, 0, -1, 187.5, 3773.1)" xlink:href="#b77ff02e-6631-4272-b6a0-a25c3db5a741"/></defs><title>home-3_1</title><g id="b301e51a-5556-4dfb-9b0f-2e97ba960e79" data-name="Layer 2"><g id="bc76e10e-8439-4795-9777-a8727ad817c2" data-name="eHLmoAjTIGK1"><g id="ae510cff-52b0-4def-93d4-83063662466e" data-name="eHLmoAjTIGK2"><g id="b6665cb2-1a0c-42ac-b33f-7ef5a217cd17" data-name="eHLmoAjTIGK3"><g id="a59b6a50-93e0-429b-bfcb-2741e89ccf13" data-name="eHLmoAjTIGK4"><g id="be38db24-a09d-4e46-bde3-a54e84e32c10" data-name="eHLmoAjTIGK5 tr"><g id="b7a7b0af-4e62-4925-9da2-ae46be50fdd8" data-name="eHLmoAjTIGK5"><g mask="url(#bd1141f4-95b2-4458-986a-9dfe82b5e3b4)"><g id="e52902d8-e58d-4307-a011-514fe0ff6494" data-name="eHLmoAjTIGK6"><g id="ee18298b-e606-44cc-a00b-9a1c87ec3e94" data-name="eHLmoAjTIGK7"><path id="ad5df20b-caa1-40db-9a00-53f42811605e" data-name="eHLmoAjTIGK8" d="M960.2,186.1l-1.1-1.1-62.3,59.1a390.9,390.9,0,0,0-59-49.2l-1.3-.9-119,175.5-.9,1.3,1.3.9a176.9,176.9,0,0,1,71.5,102.8H789l-1,.3.4,1.4a178.4,178.4,0,0,1,4.8,41.2,180.9,180.9,0,0,1-5,42.1l-.4,1.5,22,5.1a201.4,201.4,0,0,1-11.2,32.8l-18.4-8-1-.4-.6,1.3a179.5,179.5,0,0,1-64.9,74.8l-.3-.5-1.3.8a177.5,177.5,0,0,1-95.7,28h-1.6l-.9,263.8a446.1,446.1,0,0,1-71.2-5.9h-1l-.5,3,1,.2a465.5,465.5,0,0,0,71.7,5.9l-.3,91.1v1.5h1.5a533.1,533.1,0,0,0,293.7-87.8l1.3-.8L833.2,848.6a398.5,398.5,0,0,0,54.5-43.3l4.4-4.2,57.7,57.7,1.1-1C1137.5,674.3,1141.6,374.7,960.2,186.1ZM616.6,1051.3l.4-89.5a442.3,442.3,0,0,0,159.2-30l.9-.3-1.1-2.9-.9.4A440.5,440.5,0,0,1,617,958.7l.9-260.7a181.4,181.4,0,0,0,59.7-10.7l77,200.2.4,1,1.4-.6a386.9,386.9,0,0,0,74.3-37.6l75.1,114.6A530.6,530.6,0,0,1,616.6,1051.3Zm64.1-364.6a180.9,180.9,0,0,0,32.1-15.9L829,847.7a389.5,389.5,0,0,1-72.2,36.8Zm34.7-17.6a181.6,181.6,0,0,0,65.4-74.6l16.5,7.2a199,199,0,0,1-42.7,59.7l-1.1,1.1L889.9,798.9l-4.3,4.2a398.9,398.9,0,0,1-54.1,43ZM892.1,796.8,757.9,662.5A204.5,204.5,0,0,0,800.1,603l173.3,75.9A388.4,388.4,0,0,1,892.1,796.8Zm84.8-118.1.6-1.4L801.4,600.2a195.3,195.3,0,0,0,11.4-33.3l236.4,54.3,1,.2.3-1.5a450.7,450.7,0,0,0-1.7-210.1l-.4-1.5-50.9,13a392.9,392.9,0,0,0-98.5-175l60-56.9c179.2,187,175.1,483.2-9.2,665.1l-55.5-55.6A391.9,391.9,0,0,0,976.9,678.7Zm30.2-158.5v.2H818.7v-2.3a201.7,201.7,0,0,0-5.4-46.5l182-46.5A390.7,390.7,0,0,1,1007.1,520.2ZM812.6,468.6a201,201,0,0,0-51.5-91.7L896.8,248.4a390,390,0,0,1,97.7,173.7Zm3,49.5v2.3H797.9v-2.6a178.2,178.2,0,0,0-4.8-41.1l17.2-4.4A201.8,201.8,0,0,1,815.6,518.1Zm194.5,5.4v-3.3a392.9,392.9,0,0,0-11.8-95.9l47.9-12.2a445.4,445.4,0,0,1,1.7,205.7L813.5,563.9a196.8,196.8,0,0,0,5.1-40.4ZM757.8,375.8l-1.1,1.1,1.1,1.1a197.5,197.5,0,0,1,51.8,91.3l-17.2,4.4A180.7,180.7,0,0,0,720.9,370L837.3,198.3a386.1,386.1,0,0,1,57.3,47.9Zm38.4,147.7h19.4a203.6,203.6,0,0,1-5.1,39.7l-19-4.4A182.7,182.7,0,0,0,796.2,523.5Z" fill="url(#fcc9a50e-c1ef-4de6-b0d3-df15fcaa7058)"/></g></g></g><g mask="url(#a18e56cc-cb06-4277-a749-4029aac05c2e)"><g id="e178aefb-76f9-4ba9-9d05-7ab2be02a8ab" data-name="eHLmoAjTIGK15"><g id="b69592b6-ae60-4204-bd31-8de56907714e" data-name="eHLmoAjTIGK16"><path id="b3e4cd42-0e55-4d31-a8a4-4bb96ea4cf31" data-name="eHLmoAjTIGK17" d="M558.4,685.3l-1.4-.5a179.2,179.2,0,0,1-51.1-28.4l-1.2-1-13.5,16.7a206,206,0,0,1-15.5-14l15.2-14.8,1.1-1.1-1.1-1.1a175.3,175.3,0,0,1-42.4-70.2h0a177.2,177.2,0,0,1-8.1-53.1,179.1,179.1,0,0,1,7.1-49.9l.5-1.4L426.7,460a205.9,205.9,0,0,1,18.2-41.7,201.5,201.5,0,0,1,52-58.7l11.2,15.5.9,1.2,1.2-.9a187.8,187.8,0,0,1,27.1-16.7l1.4-.6L383.6,36.6l-1.3.7a529.5,529.5,0,0,0-80.6,48.1l-1.3.9.9,1.3,32,44.7A477.4,477.4,0,0,0,316,888.9l-36.6,45.3-1,1.2,1.2.9a532.3,532.3,0,0,0,155.8,87.2l1.5.6,121-337.4ZM282.8,934.9l35.6-44.1a482.8,482.8,0,0,0,46.3,32.7l1.3.8L513.5,689.8l.9-1.3-1.4-.8a217.7,217.7,0,0,1-19.4-13.6l11.6-14.4a179.2,179.2,0,0,0,49.3,27.4L435,1020.1A530.4,530.4,0,0,1,282.8,934.9ZM382.2,40.7l152.4,316A177,177,0,0,0,509.7,372l-10.3-14.2c5.2-3.8,10.6-7.4,16.1-10.7l1.4-.8L372.6,106.2l-1.3.8c-12.2,7.3-24.1,15.1-35.5,23.5C323.7,113.7,313.2,99,304.7,87A532.5,532.5,0,0,1,382.2,40.7ZM512.6,345.3c-5.1,3.1-10.1,6.4-15,10-53.2-73.8-116-161-160-222.3,11-8,22.3-15.6,34-22.6Zm-17.5,11.8a202.6,202.6,0,0,0-52.8,59.7,196.7,196.7,0,0,0-18.5,42.3L242.3,404.2l-1-.3-.4,1.4a392.7,392.7,0,0,0-17,111.4h-53l-1.5.3v1.5a444.2,444.2,0,0,0,127.2,312l1.1,1.1L473.5,660.2c5,5,10.3,9.8,15.8,14.3l-171.4,212A480.5,480.5,0,0,1,203.3,751.6C84.3,542.3,141,277.1,335.1,134.8,379,196.1,441.8,283.2,495.1,357.1ZM473.6,655.9a196.1,196.1,0,0,1-46-77l18.5-5.7a179.5,179.5,0,0,0,41.5,69ZM415,519.8a204,204,0,0,0,8.7,57L243.2,632.1a392.5,392.5,0,0,1-16.3-111.9v-.4Zm-242.6,0h51.4v.4a395.5,395.5,0,0,0,16.9,114.3l.4,1.5,183.6-56.2A198.2,198.2,0,0,0,471.4,658L297.7,827.3C217.2,744.5,172.8,635.3,172.4,519.8Zm254.3,56.1a201.3,201.3,0,0,1-8.6-56.1h19.1a188,188,0,0,0,7.9,50.5ZM226.9,516.7a391.2,391.2,0,0,1,16.5-109l179.5,54.4a210.1,210.1,0,0,0-7.9,54.6Zm210.5,0H418.1a199.2,199.2,0,0,1,7.8-53.7l18.3,5.5A178.7,178.7,0,0,0,437.4,516.7ZM365.1,920.1a482.9,482.9,0,0,1-44.8-31.7l171.4-212a197.8,197.8,0,0,0,18.4,13.1Z" fill="url(#fcc9a50e-c1ef-4de6-b0d3-df15fcaa7058)"/></g></g></g><g mask="url(#b223b23c-8a66-4832-b046-a5e99b7639d3)"><g id="b63fa6c6-c48d-48a6-9689-9025fd71ee98" data-name="eHLmoAjTIGK24"><g id="b4445ae4-4fa5-4492-9ed5-a6b276828d3c" data-name="eHLmoAjTIGK25"><path id="b416de11-c768-4d8e-b239-97ee73d263c1" data-name="eHLmoAjTIGK26" d="M465.6,99.2a433.5,433.5,0,0,1,67.2-18.3l45.3,240.7.3,1.5,1.5-.3a202.3,202.3,0,0,1,73.6-.1l1.5.3L699.8,81.3c7.7,1.5,15.5,3.2,23.1,5.2L658.4,343.6l-.3,1.5,1.5.4a177.3,177.3,0,0,1,30.2,10.6l1.4.6L837.2,34l.6-1.4-1.4-.6A525.4,525.4,0,0,0,746.1.4L744.6,0,723.7,83.5c-7.8-2-15.5-3.7-23.4-5.2l5.4-29.2.2-1-1.5-.3a481.5,481.5,0,0,0-176.3-.1l-1.5.3,5.7,29.9a429.9,429.9,0,0,0-67.8,18.4l-.9.3,1,2.9ZM616,42.7a480.9,480.9,0,0,1,86.3,7.8l-5,27.2a452.3,452.3,0,0,0-162-.4l-5.1-26.8A474.6,474.6,0,0,1,616,42.7ZM580.8,319.5l-45-239.2a444,444,0,0,1,160.9.5L652.6,319.4A206.1,206.1,0,0,0,580.8,319.5Zm253-285.3L689.7,352.7a184.7,184.7,0,0,0-27.9-9.8l85-339.2A524.9,524.9,0,0,1,833.8,34.2Z" fill="url(#fcc9a50e-c1ef-4de6-b0d3-df15fcaa7058)"/></g></g></g><g mask="url(#ab12b418-13d1-4c97-bc4b-9d2200dd23ea)"><g id="a10f374d-426b-4df2-aed0-bf6dad3d3e53" data-name="eHLmoAjTIGK33"><g id="a1139fb4-e4af-4a99-b2e7-b39435589ce9" data-name="eHLmoAjTIGK34"><path id="bfcddab1-ed57-4e96-b498-01291c51fad5" data-name="eHLmoAjTIGK35" d="M188.9,387.3l2.9.9.3-1A438.4,438.4,0,0,1,307.5,201.1l.7-.7-2.1-2.3-.8.7A443,443,0,0,0,189.2,386.3Z" fill="url(#b1da6688-35cb-498b-b45c-f9c73044a95b)"/></g></g></g></g></g><g id="e9c18b24-03af-4c43-8a73-aba1bb0106b0" data-name="eHLmoAjTIGK42 tr"><g id="babaa8eb-c9f1-49bb-a413-b3c069481bdb" data-name="eHLmoAjTIGK42"><path id="ba3556c3-865d-477b-8958-c69782203200" data-name="eHLmoAjTIGK43" d="M616,719.2c-110.8-.6-200.5-91.1-199.9-201.9S507.2,316.8,618,317.4s200.4,91.1,199.9,201.8S726.8,719.7,616,719.2ZM617.9,339c-98.9-.5-179.7,79.5-180.2,178.4S517.3,697,616.1,697.5,795.7,618,796.2,519.1,716.7,339.5,617.9,339Z" fill="url(#b77ff02e-6631-4272-b6a0-a25c3db5a741)"/><path id="ac505058-2aaa-4d9f-ab0b-98cd221b82be" data-name="eHLmoAjTIGK44" d="M615.8,761.4c-134.1-.6-242.6-110.2-242-244.3h18.7c-.6,123.8,99.6,225,223.4,225.6s225-99.6,225.6-223.4-99.6-225-223.4-225.6V275.1c134.1.7,242.6,110.3,241.9,244.4S749.9,762.1,615.8,761.4Z" fill="url(#a1d3005f-9d42-4dc2-8ab4-8e932495d0de)"/><path id="e1ee9832-6198-4f5e-8b62-a123d13df96a" data-name="eHLmoAjTIGK45" d="M540,307.6l-6.5-17.9A244,244,0,0,0,390.1,429.9l17.7,6.9A225,225,0,0,1,540,307.6Z" fill="url(#a75ff952-1ec5-41c2-91aa-0f38c0dfaa0d)"/></g></g><g id="a105a17f-11ff-446f-a899-94c51c9061cb" data-name="eHLmoAjTIGK63"><path id="adb6fda5-b70c-43d3-b343-43e69ffb1a98" data-name="eHLmoAjTIGK64" d="M547.6,542.7h-9.5L522.8,516h-.2c.3,4.7.4,8.1.4,10.1v16.6h-6.7V507.4h9.5l15.3,26.4h.2c-.3-4.6-.4-7.8-.4-9.7V507.4h6.7Z" fill="#28abe2"/><path id="a2bd4ae6-3437-442c-a36e-d35ef1110d4b" data-name="eHLmoAjTIGK65" d="M570.4,542.7,569,539h-.2a9.8,9.8,0,0,1-3.8,3.2,11.3,11.3,0,0,1-5.1.9,7.6,7.6,0,0,1-6.1-2.2,8.7,8.7,0,0,1-2.3-6.3q0-4.4,3-6.3c2-1.4,5.1-2.1,9.1-2.3h4.7v-1.2c0-2.7-1.4-4.1-4.2-4.1a18.5,18.5,0,0,0-7.6,1.9l-2.5-4.9a22.2,22.2,0,0,1,10.4-2.5c3.6,0,6.4.8,8.3,2.4s2.9,4,2.9,7.2v18Zm-2.1-12.5h-2.9a8.9,8.9,0,0,0-4.8,1.1,3.9,3.9,0,0,0-1.5,3.3c0,2,1.2,3.1,3.5,3.1a5.3,5.3,0,0,0,4.1-1.5,4.8,4.8,0,0,0,1.6-3.9Z" fill="#28abe2"/><path id="a3a148a9-e7ce-4f8b-8a03-8587fbe8d454" data-name="eHLmoAjTIGK66" d="M605.4,542.7h-7.3V526.9a7.6,7.6,0,0,0-1.1-4.4,3.8,3.8,0,0,0-3.3-1.4,5,5,0,0,0-4.4,2c-.9,1.4-1.4,3.7-1.4,6.9v12.7h-7.4v-27h5.7l.9,3.4h.5a7.2,7.2,0,0,1,3.3-2.9,12.4,12.4,0,0,1,5-1c3.1,0,5.5.8,7.1,2.5s2.4,4.2,2.4,7.4Z" fill="#28abe2"/><path id="b9e9212d-4e4e-4dca-a12f-638b7f0cef8f" data-name="eHLmoAjTIGK67" d="M634.9,529.1c0,4.4-1.2,7.9-3.5,10.3a12.7,12.7,0,0,1-9.6,3.7,12.9,12.9,0,0,1-6.9-1.7,11.2,11.2,0,0,1-4.6-4.8,17.7,17.7,0,0,1-1.5-7.5c0-4.4,1.1-7.8,3.4-10.2s5.5-3.7,9.7-3.7a12.9,12.9,0,0,1,6.9,1.7,11,11,0,0,1,4.5,4.8A15.7,15.7,0,0,1,634.9,529.1Zm-18.6,0c0,2.7.4,4.7,1.3,6.1s2.3,2,4.3,2a4.6,4.6,0,0,0,4.2-2,11.8,11.8,0,0,0,1.3-6.1,12.5,12.5,0,0,0-1.3-6,4.8,4.8,0,0,0-4.3-2,4.6,4.6,0,0,0-4.2,2C616.7,524.4,616.3,526.4,616.3,529.1Z" fill="#28abe2"/><path id="f1d918c6-d1e8-4397-bf3a-d9252d356e16" data-name="eHLmoAjTIGK68" d="M650.2,542.7h-4.1V511H634.9v-3.6h26.5V511H650.2Z" fill="#231f20"/><path id="a0d01399-74db-4b12-a045-cd50e0992404" data-name="eHLmoAjTIGK69" d="M681.6,542.7V525.6a7.2,7.2,0,0,0-1.5-4.9,6.5,6.5,0,0,0-4.6-1.6c-2.8,0-4.8.8-6.1,2.3s-1.9,4-1.9,7.4v13.9h-4V505.1h4v11.4c0,1.1-.1,2.3-.2,3.4h.2a7.6,7.6,0,0,1,3.4-3,12.5,12.5,0,0,1,5-1.1c3.2,0,5.6.8,7.2,2.3s2.5,4,2.5,7.3v17.3Z" fill="#231f20"/><path id="fbf9fbd0-581b-4769-ae1a-635723ef0ff0" data-name="eHLmoAjTIGK70" d="M690.8,509.1a3.1,3.1,0,0,1,.7-2.1,2.7,2.7,0,0,1,1.7-.6,2.2,2.2,0,0,1,1.7.7,2.9,2.9,0,0,1,.7,2,3.1,3.1,0,0,1-.7,2,2.7,2.7,0,0,1-3.4,0A3.1,3.1,0,0,1,690.8,509.1Zm4.4,33.6h-4V516.2h4Z" fill="#231f20"/><path id="afbf3434-51ca-4bcd-b295-7000862d77f1" data-name="eHLmoAjTIGK71" d="M719.1,542.7V525.6c0-2.2-.4-3.8-1.4-4.9a6.5,6.5,0,0,0-4.6-1.6c-2.8,0-4.8.8-6.1,2.3s-1.9,4-1.9,7.4v13.9h-4V516.2h3.2l.7,3.6h.2a7.6,7.6,0,0,1,3.4-3,11.7,11.7,0,0,1,4.9-1.1c3.2,0,5.6.8,7.2,2.3s2.5,4,2.5,7.4v17.3Z" fill="#231f20"/><path id="a3fceef4-4f34-4d2b-be32-adcff5174635" data-name="eHLmoAjTIGK72" d="M750.4,516.2v2.6l-4.9.5a7.8,7.8,0,0,1,1.2,2.2,8.1,8.1,0,0,1,.5,3.1,7.7,7.7,0,0,1-2.6,6.2c-1.8,1.6-4.2,2.3-7.3,2.3a8.2,8.2,0,0,1-2.2-.2c-1.7.9-2.6,2.1-2.6,3.4a1.5,1.5,0,0,0,.9,1.6,5.6,5.6,0,0,0,3.1.6h4.7a11,11,0,0,1,6.6,1.8,6.5,6.5,0,0,1,2.3,5.2,7.6,7.6,0,0,1-3.6,6.7c-2.3,1.6-5.7,2.3-10.2,2.3s-6.2-.6-8-1.9a6.5,6.5,0,0,1-2.7-4.5A6.3,6.3,0,0,1,727,543a7.2,7.2,0,0,1,4.3-2.4,4.6,4.6,0,0,1-1.7-1.4,4.6,4.6,0,0,1-.6-2.3,4.3,4.3,0,0,1,.7-2.5,8.5,8.5,0,0,1,2.5-2.1,7.4,7.4,0,0,1-3.4-2.9,9.4,9.4,0,0,1-1.3-4.6,8.9,8.9,0,0,1,2.6-6.7c1.8-1.6,4.2-2.4,7.4-2.4a15.8,15.8,0,0,1,3.8.5Zm-21.1,30.9a4,4,0,0,0,1.8,3.3,10.4,10.4,0,0,0,5.2,1.1q5.1,0,7.5-1.5a4.6,4.6,0,0,0,2.4-4.1c0-1.5-.4-2.5-1.3-3a11.3,11.3,0,0,0-5-.8h-4.8a6.6,6.6,0,0,0-4.3,1.3A4.6,4.6,0,0,0,729.3,547.1Zm2.2-22.4a5.4,5.4,0,0,0,1.6,4.2,6,6,0,0,0,4.3,1.4c3.9,0,5.9-1.9,5.9-5.7s-2-5.9-6-5.9a5.7,5.7,0,0,0-4.3,1.5A6.2,6.2,0,0,0,731.5,524.7Z" fill="#231f20"/><path id="b12c2a7b-7819-4656-9ae3-0498331b30d6" data-name="eHLmoAjTIGK73" d="M770.3,535.5a6.6,6.6,0,0,1-2.8,5.6c-1.8,1.4-4.4,2-7.7,2a17.6,17.6,0,0,1-8.2-1.6v-3.7a28.6,28.6,0,0,0,4.1,1.5,15.1,15.1,0,0,0,4.2.5,8.9,8.9,0,0,0,4.8-1,3.2,3.2,0,0,0,1.7-3,3.7,3.7,0,0,0-1.3-2.7,25.7,25.7,0,0,0-5.3-2.5,49,49,0,0,1-5.2-2.4,7.6,7.6,0,0,1-2.3-2.4,6.5,6.5,0,0,1-.8-3.1,6.1,6.1,0,0,1,2.7-5.1,12.2,12.2,0,0,1,7.2-1.9,19.7,19.7,0,0,1,8.3,1.8l-1.4,3.2a19.8,19.8,0,0,0-7.2-1.6,8,8,0,0,0-4.3.9,2.8,2.8,0,0,0-1.5,2.4,3.1,3.1,0,0,0,.6,1.9,4.6,4.6,0,0,0,1.7,1.4,38.5,38.5,0,0,0,4.7,1.9c3.1,1.2,5.2,2.3,6.3,3.5A6.1,6.1,0,0,1,770.3,535.5Z" fill="#231f20"/><path id="ecccd816-e5d0-428a-bef7-427c3f4c837a" data-name="eHLmoAjTIGK74" d="M499.4,544.2H457.1c8.3-31.4,45.4-62.8,81-69.5v2.1c-34.5,7.4-62.1,29.6-59.6,50.2v.8h20.1" fill="#231f20" fill-rule="evenodd"/><path id="e3c7a97a-e8b7-4446-8a60-2def61b61dcb" data-name="eHLmoAjTIGK75" d="M486.6,527.8H503a2.1,2.1,0,0,1,2.2,2.2v12a2.1,2.1,0,0,1-2.2,2.2H486.6" fill="#231f20"/></g><g id="e7971c5b-9f2e-4e29-9d7a-2cdb507f0802" data-name="eHLmoAjTIGK76"><g id="b7d60c15-7244-48f8-8f01-6eed91f7bc3f" data-name="eHLmoAjTIGK77 ts"><g id="a136e894-0141-4b81-bc55-35719cbd552d" data-name="eHLmoAjTIGK77"><circle id="a69f34fc-d4a3-45dd-a622-22f02f8e2371" data-name="eHLmoAjTIGK78" cx="457.2" cy="945.2" r="106" fill="url(#ec934e4f-b399-4a2d-ade0-d77c20b0fc74)"/><path id="bac62d17-bbf5-4a0b-ad8d-9afdddde6c39" data-name="eHLmoAjTIGK96" d="M458.4,1039.8a96.4,96.4,0,1,1,96.3-96.3A96.3,96.3,0,0,1,458.4,1039.8Zm0-190.6a94.3,94.3,0,1,0,94.3,94.3A94.3,94.3,0,0,0,458.4,849.2Z" fill="#fff"/><path id="ade85789-1d12-4466-b447-1c07ed9e71bf" data-name="eHLmoAjTIGK97" d="M507.4,908.5l-9.9-9.9a15.7,15.7,0,0,0-12.7-4.4,19.6,19.6,0,0,0-12.4,5.9L453.5,919a6.9,6.9,0,0,0-1.1,1.3,16.7,16.7,0,0,0-6.3-.6,20.7,20.7,0,0,0-12.4,5.9l-30.1,30.1a20.1,20.1,0,0,0-5.9,12.2,16,16,0,0,0,4.4,13l9.9,9.8a15.7,15.7,0,0,0,11.2,4.6H425a20.7,20.7,0,0,0,12.1-5.9l17.3-17.3a6.8,6.8,0,0,0,1.8-3.2,18.4,18.4,0,0,0,5.7.9,20.2,20.2,0,0,0,13.9-5.9l30.1-30.2a20.1,20.1,0,0,0,5.9-12.2A15.6,15.6,0,0,0,507.4,908.5ZM451,945.1a2.8,2.8,0,0,1-.3-1.3,6.1,6.1,0,0,1,1.7-3.4l1.1-1.2,5,5c.3.3.3,1.1.3,1.4a6.2,6.2,0,0,1-1.7,3.3,6.9,6.9,0,0,0-1.1,1.3ZM468.7,934l-4.9-4.9,18.8-18.8a5.9,5.9,0,0,1,3.3-1.7,2.2,2.2,0,0,1,1.4.2l9.8,9.9c.4.3.3,1,.3,1.3a5.1,5.1,0,0,1-1.7,3.4l-22.5,22.4A15.7,15.7,0,0,0,468.7,934Zm-24.6,27.8L426.9,979a6,6,0,0,1-3.3,1.8,3.2,3.2,0,0,1-1.4-.3l-9.8-9.9c-.4-.3-.3-1-.3-1.3a6.1,6.1,0,0,1,1.7-3.4l22.5-22.4a15.5,15.5,0,0,0,4.5,11.9l5.1,5.1Z" fill="#fff"/></g></g><g id="b3ff7015-5dbd-4d22-b363-e4639bec2774" data-name="eHLmoAjTIGK98 ts"><g id="ed133f0b-48ae-4ef7-9d04-47ab7fd8db6c" data-name="eHLmoAjTIGK98"><circle id="a66a368a-a2e3-4d14-b2cf-f0212c2c7f1d" data-name="eHLmoAjTIGK99" cx="1026.7" cy="753.7" r="133.5" fill="url(#b8e86564-ec96-492b-bd74-201bd3c270fc)"/><path id="a46006c5-e4ca-4a3b-ad5e-264534e09707" data-name="eHLmoAjTIGK117" d="M1027.9,870.6A116.5,116.5,0,0,1,911.5,754.2c0-64.1,52.2-116.3,116.4-116.3a116.5,116.5,0,0,1,116.3,116.3C1144.2,818.4,1092,870.6,1027.9,870.6Zm0-230.7c-63.1,0-114.4,51.3-114.4,114.3s51.3,114.3,114.4,114.3a114.3,114.3,0,0,0,0-228.6Z" fill="#fff"/><path id="bb604aae-757e-448d-b085-fbcea7db18f4" data-name="eHLmoAjTIGK118" d="M1068.6,745.4a25.5,25.5,0,0,0-3.9.2,21.7,21.7,0,0,0,.2-3.6,35.9,35.9,0,0,0-70.1-10.9h-3.1a38.1,38.1,0,0,0,0,76.2h76.9a30.9,30.9,0,1,0,0-61.8Z" fill="#fff"/></g></g><g id="a3431de5-3cb7-4bd1-a1db-e9fccf8bc951" data-name="eHLmoAjTIGK119 ts"><g id="a8322742-e421-4e8c-a494-c678482daa1b" data-name="eHLmoAjTIGK119"><circle id="a608fa89-ef6d-4f79-b390-db2626f9b60d" data-name="eHLmoAjTIGK120" cx="975.7" cy="199.7" r="133.5" fill="url(#bddc17b3-2e72-471b-a2d5-04426c50e431)"/><path id="a3cf07b5-ab01-4c3c-b4ca-b083126e53c4" data-name="eHLmoAjTIGK121" d="M975.9,321.2A121.8,121.8,0,0,1,854.2,199.5c0-67.2,54.6-121.8,121.7-121.8s121.7,54.6,121.7,121.8A121.8,121.8,0,0,1,975.9,321.2Zm0-241.4A119.8,119.8,0,0,0,856.2,199.5c0,65.9,53.7,119.6,119.7,119.6s119.7-53.7,119.7-119.6A119.8,119.8,0,0,0,975.9,79.8Z" fill="#fff"/><path id="acb9ec8f-7bb4-4e3d-bfaa-8278cd85cf61" data-name="eHLmoAjTIGK139" d="M999.3,184.6h-3.4c-.4-3.7-1-8.9-1.6-10a13.9,13.9,0,0,0-1.2-2.8,19.4,19.4,0,0,0-17.4-10.3c-10.8,0-19.6,8.6-19.6,19.1v4h-3.6a3.8,3.8,0,0,0-3.9,3.9v37.6a3.8,3.8,0,0,0,3.9,3.9h46.8a3.8,3.8,0,0,0,3.9-3.9V188.5a3.8,3.8,0,0,0-3.9-3.9Zm-35.4-4a11.6,11.6,0,0,1,3.5-8.1,11.4,11.4,0,0,1,8.3-3.3,12.3,12.3,0,0,1,9.7,4.8l.5.8h0l.2.3c.1.1.1.3.2.4a.4.4,0,0,1,.1.3c1,2.1,1,6.1.9,8.8H963.9ZM979.8,213a3.9,3.9,0,0,1-5.8,3.4,3.8,3.8,0,0,1-2-3.4V201.6a3.8,3.8,0,0,1,2-3.4,3.9,3.9,0,0,1,5.8,3.4Z" fill="#fff"/><path id="e978888e-d1c9-42ec-af26-dd8d7519a3b2" data-name="eHLmoAjTIGK140" d="M1033.4,142.4a4.2,4.2,0,0,0-1.4-.9l-2.2-.9a148.5,148.5,0,0,0-107.8,0l-.5.2a10.2,10.2,0,0,0-6.5,9.5v83.6a9.4,9.4,0,0,0,4.2,7.8l51.7,34.4a9.1,9.1,0,0,0,10,0l51.5-34.3a9.7,9.7,0,0,0,4.4-8.1v-87A4.5,4.5,0,0,0,1033.4,142.4ZM924,150a1,1,0,0,1,.5-.8,141.4,141.4,0,0,1,102.8,0l.6.3v84.2a.8.8,0,0,1-.4.7l-51.1,34a1.7,1.7,0,0,1-1,0l-51.1-34a.9.9,0,0,1-.3-.7Z" fill="#fff"/></g></g><g id="fb82be04-af8d-4026-89e8-da836b25f088" data-name="eHLmoAjTIGK141 ts"><g id="b77dbc27-8122-46a2-a1b3-d4960d78b37d" data-name="eHLmoAjTIGK141"><circle id="bdca0757-faaf-4411-a4b3-6c04087edba0" data-name="eHLmoAjTIGK142" cx="374.2" cy="107.7" r="93.5" fill="url(#b73e9026-c698-48c5-b567-13bc66cefec9)"/><path id="a66153cc-5763-4392-a67b-30b045ba6859" data-name="eHLmoAjTIGK143" d="M374.2,195.4a87.7,87.7,0,1,1,87.6-87.7A87.7,87.7,0,0,1,374.2,195.4Zm0-173.3a85.6,85.6,0,1,0,85.6,85.6A85.6,85.6,0,0,0,374.2,22.1Z" fill="#fff"/><rect id="e3930221-3909-44b5-82c6-42a1047bd90c" data-name="eHLmoAjTIGK161" x="384.5" y="67.3" width="10.2" height="2.94" fill="#fff"/><rect id="f95cf44c-e41a-436e-950a-9efe1dac795c" data-name="eHLmoAjTIGK162" x="384.5" y="75.6" width="5.5" height="2.94" fill="#fff"/><rect id="bcc3604f-83a9-4e5f-bdfe-9ff2739b68bd" data-name="eHLmoAjTIGK163" x="384.5" y="83.9" width="10.2" height="2.94" fill="#fff"/><rect id="aade7e08-e510-4529-b3d2-a4c49c225428" data-name="eHLmoAjTIGK164" x="384.5" y="92.3" width="5.5" height="2.94" fill="#fff"/><rect id="b041c547-5a8f-4bd2-96fd-7c6dacdabafe" data-name="eHLmoAjTIGK165" x="384.5" y="100.6" width="10.2" height="2.94" fill="#fff"/><rect id="e32cda3f-17a8-48c5-9037-4a0d68365c0a" data-name="eHLmoAjTIGK166" x="384.5" y="108.9" width="5.5" height="2.94" fill="#fff"/><rect id="a3cf9cc4-2a30-4452-9d22-8bf357599316" data-name="eHLmoAjTIGK167" x="384.5" y="117.2" width="10.2" height="2.94" fill="#fff"/><path id="e9480d22-0ed2-4d42-af7a-5438de7facf5" data-name="eHLmoAjTIGK168" d="M383,138a11.2,11.2,0,0,0-6.6-10.2l-2.1-.9V107.2c0-1.9-1.1-3.4-2.5-3.4v45.4A11.3,11.3,0,0,0,383,138Z" fill="#fff"/><path id="bca30399-daae-4128-ae60-001c3b1ff736" data-name="eHLmoAjTIGK169" d="M369.3,107.2v19.7l-2.1.9a11.2,11.2,0,0,0-5.8,14.4,9.6,9.6,0,0,0,6,6.1,11.2,11.2,0,0,0,4.4.9h0V103.8h0C370.4,103.8,369.3,105.3,369.3,107.2Z" fill="#fff"/><path id="e4c17eb4-8e89-406e-a4ed-ef56a1b188e5" data-name="eHLmoAjTIGK170" d="M390,138a18.4,18.4,0,0,1-18.2,18.2v-3.5h2.3l1.1-.2.6-.2,1-.3.5-.2,1.3-.6h.2l1.3-.8.4-.3.9-.7.4-.4.8-.7.3-.4.8-1,.2-.3a6.4,6.4,0,0,0,.8-1.4l.2-.3a3.7,3.7,0,0,0,.5-1.1l.2-.6.3-1c.1-.2.1-.4.2-.6s.1-.7.2-1.1.1-.3.1-.5.1-1.1.1-1.7a14.7,14.7,0,0,0-8.7-13.4v-55a8.4,8.4,0,0,0-.4-2.7,6.1,6.1,0,0,0-5.6-4.2V59.2c5.3,0,9.5,4.7,9.5,10.4v52.9A18.2,18.2,0,0,1,390,138Z" fill="#fff"/><path id="a15707c5-e1b1-4bbe-b5d3-941d4eab7da1" data-name="eHLmoAjTIGK171" d="M358.1,143.4a13.8,13.8,0,0,0,8,8.2l1.8.6h.5l1.3.2h2.1v3.5h0a20.1,20.1,0,0,1-6.9-1.3,17.1,17.1,0,0,1-10.1-10.3,18.6,18.6,0,0,1,7.5-22.1V69.6c0-5.7,4.2-10.4,9.5-10.4h0v3.5h0a6.1,6.1,0,0,0-5.6,4.2,8.4,8.4,0,0,0-.4,2.7v55A14.8,14.8,0,0,0,358.1,143.4Z" fill="#fff"/></g></g><g id="aef6af43-8610-4748-bec8-75e86c47309f" data-name="eHLmoAjTIGK172 ts"><g id="aa694b27-9f3f-4553-943a-3eb4bb828a30" data-name="eHLmoAjTIGK172"><circle id="fe1e6682-4f41-47e9-ba62-06a70dc1403b" data-name="eHLmoAjTIGK173" cx="139.1" cy="537.4" r="139.1" fill="url(#ae960de9-aadd-4fdf-a644-2b249e65b7a0)"/><path id="b9ad9e57-c6f8-48f3-9d91-2f3c7d116852" data-name="eHLmoAjTIGK174" d="M139.2,664.8A127.2,127.2,0,0,1,12.1,537.7c0-70,57-127,127.1-127s127.1,57,127.1,127A127.2,127.2,0,0,1,139.2,664.8Zm0-252.1c-68.9,0-125,56.1-125,125s56.1,125.1,125,125.1,125-56.1,125-125.1A125.1,125.1,0,0,0,139.2,412.7Z" fill="#fff"/><g id="adffbebc-6964-4971-b628-040a46636f71" data-name="eHLmoAjTIGK195"><circle id="b5cee98d-b43a-4727-9a38-16a100af353b" data-name="eHLmoAjTIGK196" cx="139.2" cy="536" r="75.3" stroke-width="10.01" stroke="#fff" stroke-linecap="round" stroke-linejoin="round" fill="none"/><ellipse id="a2c379c4-05a7-4eee-af52-929763aa78ab" data-name="eHLmoAjTIGK197" cx="139.2" cy="536" rx="41.2" ry="75.3" stroke-width="10.01" stroke="#fff" stroke-linecap="round" stroke-linejoin="round" fill="none"/><path id="e470936d-926d-483d-90d1-8f0d24ee3cf7" data-name="eHLmoAjTIGK198" d="M192,589.7A89.3,89.3,0,0,0,139.2,573a89.3,89.3,0,0,0-52.8,16.7" fill="none" stroke="#fff" stroke-linecap="round" stroke-linejoin="round" stroke-width="10.01"/><path id="abbb46e5-0078-42ad-a03a-970366f7e658" data-name="eHLmoAjTIGK199" d="M192,482.3A89.3,89.3,0,0,1,139.2,499a89.3,89.3,0,0,1-52.8-16.7" fill="none" stroke="#fff" stroke-linecap="round" stroke-linejoin="round" stroke-width="10.01"/><line id="b84ea6a0-9314-4f23-90d2-316dbbccfe80" data-name="eHLmoAjTIGK200" x1="63.9" y1="536" x2="214.5" y2="536" stroke-width="10.01" stroke="#fff" stroke-linecap="round" stroke-linejoin="round" fill="none"/><line id="b46bf712-148d-4a69-ae0d-6b9827f07e35" data-name="eHLmoAjTIGK201" x1="139.2" y1="460.7" x2="139.2" y2="611.3" stroke-width="10.01" stroke="#fff" stroke-linecap="round" stroke-linejoin="round" fill="none"/></g></g></g></g></g></g></g></g></g></svg>