<svg id="eRdlmC0Kbht1" xmlns="http://www.w3.org/2000/svg" xmlns:xlink="http://www.w3.org/1999/xlink" viewBox="0 0 430.499969 290.509277" shape-rendering="geometricPrecision" text-rendering="geometricPrecision"><defs><linearGradient id="eRdlmC0Kbht4-stroke" x1="33.5" y1="0" x2="425.8" y2="0" spreadMethod="pad" gradientUnits="userSpaceOnUse" gradientTransform="matrix(1 0 0 1 0 0)"><stop id="eRdlmC0Kbht4-stroke-0" offset="0%" stop-color="rgb(0,149,211)"/><stop id="eRdlmC0Kbht4-stroke-1" offset="100%" stop-color="rgb(152,217,95)"/></linearGradient><linearGradient id="eRdlmC0Kbht6-stroke" x1="297.3" y1="0" x2="430.5" y2="0" spreadMethod="pad" gradientUnits="userSpaceOnUse" gradientTransform="matrix(1 0 0 1 0 0)"><stop id="eRdlmC0Kbht6-stroke-0" offset="0%" stop-color="rgb(0,149,211)"/><stop id="eRdlmC0Kbht6-stroke-1" offset="100%" stop-color="rgb(152,217,95)"/></linearGradient><linearGradient id="eRdlmC0Kbht11-stroke" x1="244.3" y1="0" x2="280" y2="0" spreadMethod="pad" gradientUnits="userSpaceOnUse" gradientTransform="matrix(1 0 0 1 0 0)"><stop id="eRdlmC0Kbht11-stroke-0" offset="0%" stop-color="rgb(0,149,211)"/><stop id="eRdlmC0Kbht11-stroke-1" offset="100%" stop-color="rgb(152,217,95)"/></linearGradient><linearGradient id="eRdlmC0Kbht12-stroke" x1="244.3" y1="0" x2="280" y2="0" spreadMethod="pad" gradientUnits="userSpaceOnUse" gradientTransform="matrix(1 0 0 1 0 0)"><stop id="eRdlmC0Kbht12-stroke-0" offset="0%" stop-color="rgb(0,149,211)"/><stop id="eRdlmC0Kbht12-stroke-1" offset="100%" stop-color="rgb(152,217,95)"/></linearGradient><linearGradient id="eRdlmC0Kbht13-stroke" x1="244.3" y1="0" x2="280" y2="0" spreadMethod="pad" gradientUnits="userSpaceOnUse" gradientTransform="matrix(1 0 0 1 0 0)"><stop id="eRdlmC0Kbht13-stroke-0" offset="0%" stop-color="rgb(0,149,211)"/><stop id="eRdlmC0Kbht13-stroke-1" offset="100%" stop-color="rgb(152,217,95)"/></linearGradient><linearGradient id="eRdlmC0Kbht14-stroke" x1="244.3" y1="0" x2="280" y2="0" spreadMethod="pad" gradientUnits="userSpaceOnUse" gradientTransform="matrix(1 0 0 1 0 0)"><stop id="eRdlmC0Kbht14-stroke-0" offset="0%" stop-color="rgb(0,149,211)"/><stop id="eRdlmC0Kbht14-stroke-1" offset="100%" stop-color="rgb(152,217,95)"/></linearGradient><linearGradient id="eRdlmC0Kbht15-stroke" x1="244.3" y1="0" x2="280" y2="0" spreadMethod="pad" gradientUnits="userSpaceOnUse" gradientTransform="matrix(1 0 0 1 0 0)"><stop id="eRdlmC0Kbht15-stroke-0" offset="0%" stop-color="rgb(0,149,211)"/><stop id="eRdlmC0Kbht15-stroke-1" offset="100%" stop-color="rgb(152,217,95)"/></linearGradient><linearGradient id="eRdlmC0Kbht16-stroke" x1="244.3" y1="0" x2="280" y2="0" spreadMethod="pad" gradientUnits="userSpaceOnUse" gradientTransform="matrix(1 0 0 1 0 0)"><stop id="eRdlmC0Kbht16-stroke-0" offset="0%" stop-color="rgb(0,149,211)"/><stop id="eRdlmC0Kbht16-stroke-1" offset="100%" stop-color="rgb(152,217,95)"/></linearGradient><linearGradient id="eRdlmC0Kbht17-stroke" x1="244.3" y1="0" x2="280" y2="0" spreadMethod="pad" gradientUnits="userSpaceOnUse" gradientTransform="matrix(1 0 0 1 0 0)"><stop id="eRdlmC0Kbht17-stroke-0" offset="0%" stop-color="rgb(0,149,211)"/><stop id="eRdlmC0Kbht17-stroke-1" offset="100%" stop-color="rgb(152,217,95)"/></linearGradient><linearGradient id="eRdlmC0Kbht23-stroke" x1="161.9" y1="0" x2="197.5" y2="0" spreadMethod="pad" gradientUnits="userSpaceOnUse" gradientTransform="matrix(1 0 0 1 0 0)"><stop id="eRdlmC0Kbht23-stroke-0" offset="0%" stop-color="rgb(0,149,211)"/><stop id="eRdlmC0Kbht23-stroke-1" offset="100%" stop-color="rgb(152,217,95)"/></linearGradient><linearGradient id="eRdlmC0Kbht24-stroke" x1="161.9" y1="0" x2="197.5" y2="0" spreadMethod="pad" gradientUnits="userSpaceOnUse" gradientTransform="matrix(1 0 0 1 0 0)"><stop id="eRdlmC0Kbht24-stroke-0" offset="0%" stop-color="rgb(0,149,211)"/><stop id="eRdlmC0Kbht24-stroke-1" offset="100%" stop-color="rgb(152,217,95)"/></linearGradient><linearGradient id="eRdlmC0Kbht25-stroke" x1="161.9" y1="0" x2="197.5" y2="0" spreadMethod="pad" gradientUnits="userSpaceOnUse" gradientTransform="matrix(1 0 0 1 0 0)"><stop id="eRdlmC0Kbht25-stroke-0" offset="0%" stop-color="rgb(0,149,211)"/><stop id="eRdlmC0Kbht25-stroke-1" offset="100%" stop-color="rgb(152,217,95)"/></linearGradient><linearGradient id="eRdlmC0Kbht26-stroke" x1="161.9" y1="0" x2="197.5" y2="0" spreadMethod="pad" gradientUnits="userSpaceOnUse" gradientTransform="matrix(1 0 0 1 0 0)"><stop id="eRdlmC0Kbht26-stroke-0" offset="0%" stop-color="rgb(0,149,211)"/><stop id="eRdlmC0Kbht26-stroke-1" offset="100%" stop-color="rgb(152,217,95)"/></linearGradient><linearGradient id="eRdlmC0Kbht27-stroke" x1="161.9" y1="0" x2="197.5" y2="0" spreadMethod="pad" gradientUnits="userSpaceOnUse" gradientTransform="matrix(1 0 0 1 0 0)"><stop id="eRdlmC0Kbht27-stroke-0" offset="0%" stop-color="rgb(0,149,211)"/><stop id="eRdlmC0Kbht27-stroke-1" offset="100%" stop-color="rgb(152,217,95)"/></linearGradient><linearGradient id="eRdlmC0Kbht28-stroke" x1="161.9" y1="0" x2="197.5" y2="0" spreadMethod="pad" gradientUnits="userSpaceOnUse" gradientTransform="matrix(1 0 0 1 0 0)"><stop id="eRdlmC0Kbht28-stroke-0" offset="0%" stop-color="rgb(0,149,211)"/><stop id="eRdlmC0Kbht28-stroke-1" offset="100%" stop-color="rgb(152,217,95)"/></linearGradient><linearGradient id="eRdlmC0Kbht29-stroke" x1="161.9" y1="0" x2="197.5" y2="0" spreadMethod="pad" gradientUnits="userSpaceOnUse" gradientTransform="matrix(1 0 0 1 0 0)"><stop id="eRdlmC0Kbht29-stroke-0" offset="0%" stop-color="rgb(0,149,211)"/><stop id="eRdlmC0Kbht29-stroke-1" offset="100%" stop-color="rgb(152,217,95)"/></linearGradient><linearGradient id="eRdlmC0Kbht34-stroke" x1="201" y1="0" x2="241" y2="0" spreadMethod="pad" gradientUnits="userSpaceOnUse" gradientTransform="matrix(1 0 0 1 0 0)"><stop id="eRdlmC0Kbht34-stroke-0" offset="0%" stop-color="rgb(0,149,211)"/><stop id="eRdlmC0Kbht34-stroke-1" offset="100%" stop-color="rgb(152,217,95)"/></linearGradient><linearGradient id="eRdlmC0Kbht35-stroke" x1="201" y1="0" x2="241" y2="0" spreadMethod="pad" gradientUnits="userSpaceOnUse" gradientTransform="matrix(1 0 0 1 0 0)"><stop id="eRdlmC0Kbht35-stroke-0" offset="0%" stop-color="rgb(0,149,211)"/><stop id="eRdlmC0Kbht35-stroke-1" offset="100%" stop-color="rgb(152,217,95)"/></linearGradient><linearGradient id="eRdlmC0Kbht36-stroke" x1="201" y1="0" x2="241" y2="0" spreadMethod="pad" gradientUnits="userSpaceOnUse" gradientTransform="matrix(1 0 0 1 0 0)"><stop id="eRdlmC0Kbht36-stroke-0" offset="0%" stop-color="rgb(0,149,211)"/><stop id="eRdlmC0Kbht36-stroke-1" offset="100%" stop-color="rgb(152,217,95)"/></linearGradient><linearGradient id="eRdlmC0Kbht37-stroke" x1="201" y1="0" x2="241" y2="0" spreadMethod="pad" gradientUnits="userSpaceOnUse" gradientTransform="matrix(1 0 0 1 0 0)"><stop id="eRdlmC0Kbht37-stroke-0" offset="0%" stop-color="rgb(0,149,211)"/><stop id="eRdlmC0Kbht37-stroke-1" offset="100%" stop-color="rgb(152,217,95)"/></linearGradient><linearGradient id="eRdlmC0Kbht38-stroke" x1="201" y1="0" x2="241" y2="0" spreadMethod="pad" gradientUnits="userSpaceOnUse" gradientTransform="matrix(1 0 0 1 0 0)"><stop id="eRdlmC0Kbht38-stroke-0" offset="0%" stop-color="rgb(0,149,211)"/><stop id="eRdlmC0Kbht38-stroke-1" offset="100%" stop-color="rgb(152,217,95)"/></linearGradient><linearGradient id="eRdlmC0Kbht39-stroke" x1="201" y1="0" x2="241" y2="0" spreadMethod="pad" gradientUnits="userSpaceOnUse" gradientTransform="matrix(1 0 0 1 0 0)"><stop id="eRdlmC0Kbht39-stroke-0" offset="0%" stop-color="rgb(0,149,211)"/><stop id="eRdlmC0Kbht39-stroke-1" offset="100%" stop-color="rgb(152,217,95)"/></linearGradient><linearGradient id="eRdlmC0Kbht40-stroke" x1="201" y1="0" x2="241" y2="0" spreadMethod="pad" gradientUnits="userSpaceOnUse" gradientTransform="matrix(1 0 0 1 0 0)"><stop id="eRdlmC0Kbht40-stroke-0" offset="0%" stop-color="rgb(0,149,211)"/><stop id="eRdlmC0Kbht40-stroke-1" offset="100%" stop-color="rgb(152,217,95)"/></linearGradient></defs><path id="eRdlmC0Kbht2" d="M380.7,155.2C379.3,124.5,353.3,100.8,322.6,102.2C320.3,102.3,318,102.5,315.8,102.9C315.8,85,309.2,67.8,297.2,54.6L297.2,153.9C297.2,158.3,293.7,161.8,289.3,161.8L152.3,161.8C147.9,161.8,144.4,158.3,144.4,153.9L144.4,69.4C125.8,77.4,113.7,95.8,113.8,116.1L113.8,118.1C69,119.8,33.5,156.6,33.5,201.5C33.5,204.3,33.6,207.1,33.9,209.9L425.1,209.9C429.5,184.4,412.4,160.2,386.9,155.8C384.9,155.5,382.8,155.3,380.7,155.2Z" fill="rgb(255,255,255)" stroke="none" stroke-width="1"/><path id="eRdlmC0Kbht3" d="M144.5,69.4C125.8,77.4,113.7,95.9,113.8,116.2L113.8,118.2C69,119.9,33.5,156.7,33.5,201.6C33.5,204.4,33.6,207.2,33.9,210L425.1,210C429.5,184.5,412.5,160.3,387,155.9C384.9,155.5,382.8,155.3,380.7,155.2C379.3,124.5,353.3,100.8,322.6,102.2C320.3,102.3,318,102.5,315.8,102.9C315.8,85,309.2,67.8,297.2,54.6" fill="none" stroke="rgb(137,203,223)" stroke-width="2.7"/><path id="eRdlmC0Kbht4" d="M144.5,69.4C125.8,77.4,113.7,95.9,113.8,116.2L113.8,118.2C69,119.9,33.5,156.7,33.5,201.6C33.5,204.4,33.6,207.2,33.9,210L425.1,210C429.5,184.5,412.5,160.3,387,155.9C384.9,155.5,382.8,155.3,380.7,155.2C379.3,124.5,353.3,100.8,322.6,102.2C320.3,102.3,318,102.5,315.8,102.9C315.8,85,309.2,67.8,297.2,54.6" fill="none" stroke="url(#eRdlmC0Kbht4-stroke)" stroke-width="2.7" stroke-dashoffset="820" stroke-dasharray="820,820"/><path id="eRdlmC0Kbht5" d="M297.3,17.3C305,10.1,315.1,6.2,325.6,6.3C346.8,6.9,364.3,23.3,366.1,44.5C366.3,46.7,366.3,48.9,366.1,51.1L378.3,51.1C393.8,51.2,406.3,63.7,406.4,79.2L408.2,79.2C420.5,79.3,430.4,89.2,430.5,101.5L374.1,101.5" fill="none" stroke="rgb(137,203,223)" stroke-width="2.7"/><path id="eRdlmC0Kbht6" d="M297.3,17.3C305,10.1,315.1,6.2,325.6,6.3C346.8,6.9,364.3,23.3,366.1,44.5C366.3,46.7,366.3,48.9,366.1,51.1L378.3,51.1C393.8,51.2,406.3,63.7,406.4,79.2L408.2,79.2C420.5,79.3,430.4,89.2,430.5,101.5L374.1,101.5" fill="none" stroke="url(#eRdlmC0Kbht6-stroke)" stroke-width="2.7" stroke-dashoffset="248" stroke-dasharray="248,248"/><path id="eRdlmC0Kbht7" d="M238.1,27L285.5,27C287.4,27,288.9,28.5,288.9,30.4L288.9,149C288.9,150.9,287.4,152.4,285.5,152.4L238.1,152.4C236.2,152.4,234.7,150.9,234.7,149L234.7,30.4C234.7,28.5,236.2,27,238.1,27Z" fill="rgb(250,250,250)" stroke="rgb(145,159,168)" stroke-width="1.68" stroke-linecap="round"/><path id="eRdlmC0Kbht8" d="M235.5,101.7L235.5,149C235.5,150.3,236.6,151.6,237.9,151.6L285.4,151.6C286.8,151.6,288,150.4,288,149L288,54.4L235.5,101.7Z" opacity="0.3" fill="rgb(193,205,212)" stroke="none" stroke-width="1"/><path id="eRdlmC0Kbht9" d="M235.5,129.1L288.1,129.1" fill="none" stroke="rgb(193,205,212)" stroke-width="2.52"/><path id="eRdlmC0Kbht10" d="M280,113.5L244.3,113.5C243.6,113.5,243.1,113,243.1,112.3C243.1,111.6,243.6,111.1,244.3,111.1L280,111.1C280.7,111.1,281.2,111.6,281.2,112.3C281.2,113,280.7,113.5,280,113.5ZM281.2,101.4C281.2,100.7,280.7,100.2,280,100.2L244.3,100.2C243.6,100.2,243.1,100.7,243.1,101.4C243.1,102.1,243.6,102.6,244.3,102.6L280,102.6C280.7,102.6,281.2,102.1,281.2,101.4ZM281.2,90.6C281.2,89.9,280.7,89.4,280,89.4L244.3,89.4C243.6,89.4,243.1,89.9,243.1,90.6C243.1,91.3,243.6,91.8,244.3,91.8L280,91.8C280.7,91.8,281.2,91.3,281.2,90.6ZM281.2,79.8C281.2,79.1,280.7,78.6,280,78.6L244.3,78.6C243.6,78.6,243.1,79.1,243.1,79.8C243.1,80.5,243.6,81,244.3,81L280,81C280.7,81,281.2,80.5,281.2,79.8ZM281.2,69C281.2,68.3,280.7,67.8,280,67.8L244.3,67.8C243.6,67.8,243.1,68.3,243.1,69C243.1,69.7,243.6,70.2,244.3,70.2L280,70.2C280.7,70.2,281.2,69.7,281.2,69ZM281.2,58.2C281.2,57.5,280.7,57,280,57L244.3,57C243.6,57,243.1,57.5,243.1,58.2C243.1,58.9,243.6,59.4,244.3,59.4L280,59.4C280.7,59.4,281.2,58.9,281.2,58.2ZM281.2,47.4C281.2,46.7,280.7,46.2,280,46.2L244.3,46.2C243.6,46.2,243.1,46.7,243.1,47.4C243.1,48.1,243.6,48.6,244.3,48.6L280,48.6C280.7,48.6,281.2,48.1,281.2,47.4Z" fill="rgb(193,205,212)" stroke="none" stroke-width="1"/><path id="eRdlmC0Kbht11" d="M244.3,112.3L280,112.3" fill="rgb(0,0,0)" stroke="url(#eRdlmC0Kbht11-stroke)" stroke-width="3.21333" stroke-linecap="round" stroke-dashoffset="26.6667" stroke-dasharray="26.6667,53.3333"/><path id="eRdlmC0Kbht12" d="M244.3,101.4L280,101.4" fill="rgb(0,0,0)" stroke="url(#eRdlmC0Kbht12-stroke)" stroke-width="3.21333" stroke-linecap="round" stroke-dashoffset="26.6667" stroke-dasharray="26.6667,53.3333"/><path id="eRdlmC0Kbht13" d="M244.3,90.6L280,90.6" fill="rgb(0,0,0)" stroke="url(#eRdlmC0Kbht13-stroke)" stroke-width="3.21333" stroke-linecap="round" stroke-dashoffset="26.6667" stroke-dasharray="26.6667,53.3333"/><path id="eRdlmC0Kbht14" d="M244.3,79.8L280,79.8" fill="rgb(0,0,0)" stroke="url(#eRdlmC0Kbht14-stroke)" stroke-width="3.21333" stroke-linecap="round" stroke-dashoffset="26.6667" stroke-dasharray="26.6667,53.3333"/><path id="eRdlmC0Kbht15" d="M244.3,69L280,69" fill="rgb(0,0,0)" stroke="url(#eRdlmC0Kbht15-stroke)" stroke-width="3.21333" stroke-linecap="round" stroke-dashoffset="26.6667" stroke-dasharray="26.6667,53.3333"/><path id="eRdlmC0Kbht16" d="M244.3,58.2L280,58.2" fill="rgb(0,0,0)" stroke="url(#eRdlmC0Kbht16-stroke)" stroke-width="3.21333" stroke-linecap="round" stroke-dashoffset="26.6667" stroke-dasharray="26.6667,53.3333"/><path id="eRdlmC0Kbht17" d="M244.3,47.4L280,47.4" fill="rgb(0,0,0)" stroke="url(#eRdlmC0Kbht17-stroke)" stroke-width="3.21333" stroke-linecap="round" stroke-dashoffset="26.6667" stroke-dasharray="26.6667,53.3333"/><circle id="eRdlmC0Kbht18" r="2.2" transform="matrix(1 0 0 1 279.1 36.2)" fill="none" stroke="rgb(193,205,212)" stroke-width="1.68" stroke-linecap="round"/><path id="eRdlmC0Kbht19" d="M155.7,27L203.1,27C205,27,206.5,28.5,206.5,30.4L206.5,149C206.5,150.9,205,152.4,203.1,152.4L155.7,152.4C153.8,152.4,152.3,150.9,152.3,149L152.3,30.4C152.3,28.5,153.8,27,155.7,27Z" fill="rgb(250,250,250)" stroke="rgb(145,159,168)" stroke-width="1.68" stroke-linecap="round"/><path id="eRdlmC0Kbht20" d="M153.1,101.2L153.1,149.1C153.1,150.4,154.2,151.5,155.5,151.5L203.2,151.5C204.6,151.5,205.6,150.4,205.6,149.1L205.6,53.4L153.1,101.2Z" opacity="0.3" fill="rgb(193,205,212)" stroke="none" stroke-width="1"/><path id="eRdlmC0Kbht21" d="M153.1,129.1L205.7,129.1" fill="none" stroke="rgb(193,205,212)" stroke-width="2.52"/><path id="eRdlmC0Kbht22" d="M198.7,112.3C198.7,113,198.2,113.5,197.5,113.5L161.9,113.5C161.2,113.5,160.7,113,160.7,112.3C160.7,111.6,161.2,111.1,161.9,111.1L197.5,111.1C198.2,111.1,198.7,111.6,198.7,112.3ZM197.5,100.2L161.9,100.2C161.2,100.2,160.7,100.7,160.7,101.4C160.7,102.1,161.2,102.6,161.9,102.6L197.5,102.6C198.2,102.6,198.7,102.1,198.7,101.4C198.7,100.7,198.2,100.2,197.5,100.2ZM197.5,89.4L161.9,89.4C161.2,89.4,160.7,89.9,160.7,90.6C160.7,91.3,161.2,91.8,161.9,91.8L197.5,91.8C198.2,91.8,198.7,91.3,198.7,90.6C198.7,89.9,198.2,89.4,197.5,89.4ZM197.5,78.6L161.9,78.6C161.2,78.6,160.7,79.1,160.7,79.8C160.7,80.5,161.2,81,161.9,81L197.5,81C198.2,81,198.7,80.5,198.7,79.8C198.7,79.1,198.2,78.6,197.5,78.6ZM197.5,67.8L161.9,67.8C161.2,67.8,160.7,68.3,160.7,69C160.7,69.7,161.2,70.2,161.9,70.2L197.5,70.2C198.2,70.2,198.7,69.7,198.7,69C198.7,68.3,198.2,67.8,197.5,67.8ZM197.5,57L161.9,57C161.2,57,160.7,57.5,160.7,58.2C160.7,58.9,161.2,59.4,161.9,59.4L197.5,59.4C198.2,59.4,198.7,58.9,198.7,58.2C198.7,57.5,198.2,57,197.5,57ZM161.9,48.6L197.5,48.6C198.2,48.6,198.7,48.1,198.7,47.4C198.7,46.7,198.2,46.2,197.5,46.2L161.9,46.2C161.2,46.2,160.7,46.7,160.7,47.4C160.7,48.1,161.2,48.6,161.9,48.6Z" fill="rgb(193,205,212)" stroke="none" stroke-width="1"/><path id="eRdlmC0Kbht23" d="M161.9,112.3L197.5,112.3" fill="rgb(0,0,0)" stroke="url(#eRdlmC0Kbht23-stroke)" stroke-width="3.21333" stroke-linecap="round" stroke-dashoffset="26.6667" stroke-dasharray="26.6667,53.3333"/><path id="eRdlmC0Kbht24" d="M161.9,101.4L197.5,101.4" fill="rgb(0,0,0)" stroke="url(#eRdlmC0Kbht24-stroke)" stroke-width="3.21333" stroke-linecap="round" stroke-dashoffset="26.6667" stroke-dasharray="26.6667,53.3333"/><path id="eRdlmC0Kbht25" d="M161.9,90.6L197.5,90.6" fill="rgb(0,0,0)" stroke="url(#eRdlmC0Kbht25-stroke)" stroke-width="3.21333" stroke-linecap="round" stroke-dashoffset="26.6667" stroke-dasharray="26.6667,53.3333"/><path id="eRdlmC0Kbht26" d="M161.9,79.8L197.5,79.8" fill="rgb(0,0,0)" stroke="url(#eRdlmC0Kbht26-stroke)" stroke-width="3.21333" stroke-linecap="round" stroke-dashoffset="26.6667" stroke-dasharray="26.6667,53.3333"/><path id="eRdlmC0Kbht27" d="M161.9,69L197.5,69" fill="rgb(0,0,0)" stroke="url(#eRdlmC0Kbht27-stroke)" stroke-width="3.21333" stroke-linecap="round" stroke-dashoffset="26.6667" stroke-dasharray="26.6667,53.3333"/><path id="eRdlmC0Kbht28" d="M161.9,58.2L197.5,58.2" fill="rgb(0,0,0)" stroke="url(#eRdlmC0Kbht28-stroke)" stroke-width="3.21333" stroke-linecap="round" stroke-dashoffset="26.6667" stroke-dasharray="26.6667,53.3333"/><path id="eRdlmC0Kbht29" d="M161.9,47.4L197.5,47.4" fill="rgb(0,0,0)" stroke="url(#eRdlmC0Kbht29-stroke)" stroke-width="3.21333" stroke-linecap="round" stroke-dashoffset="26.6667" stroke-dasharray="26.6667,53.3333"/><path id="eRdlmC0Kbht30" d="M194,11.8L247.9,11.8C249.8,11.8,251.3,13.3,251.3,15.2L251.3,148.9C251.3,150.8,249.8,152.3,247.9,152.3L194,152.3C192.1,152.3,190.6,150.8,190.6,148.9L190.6,15.2C190.6,13.3,192.1,11.8,194,11.8Z" fill="rgb(250,250,250)" stroke="rgb(145,159,168)" stroke-width="1.68" stroke-linecap="round"/><path id="eRdlmC0Kbht31" d="M191.4,100.2L191.4,148.8C191.4,150.3,192.5,151.4,194.1,151.4L247.8,151.4C249.4,151.4,250.5,150.1,250.4,148.5L250.4,44.5L191.4,100.2Z" opacity="0.3" fill="rgb(193,205,212)" stroke="none" stroke-width="1"/><path id="eRdlmC0Kbht32" d="M191.4,126.2L250.5,126.2" fill="none" stroke="rgb(193,205,212)" stroke-width="2.52"/><path id="eRdlmC0Kbht33" d="M241,108.5L201,108.5C200.3,108.5,199.8,108,199.8,107.3C199.8,106.6,200.3,106.1,201,106.1L241,106.1C241.7,106.1,242.2,106.6,242.2,107.3C242.2,108,241.6,108.5,241,108.5ZM242.2,95.2C242.2,94.5,241.7,94,241,94L201,94C200.3,94,199.8,94.5,199.8,95.2C199.8,95.9,200.3,96.4,201,96.4L241,96.4C241.6,96.4,242.2,95.9,242.2,95.2ZM242.2,83.1C242.2,82.4,241.7,81.9,241,81.9L201,81.9C200.3,81.9,199.8,82.4,199.8,83.1C199.8,83.8,200.3,84.3,201,84.3L241,84.3C241.6,84.3,242.2,83.8,242.2,83.1ZM242.2,71C242.2,70.3,241.7,69.8,241,69.8L201,69.8C200.3,69.8,199.8,70.3,199.8,71C199.8,71.7,200.3,72.2,201,72.2L241,72.2C241.6,72.2,242.2,71.7,242.2,71ZM242.2,58.8C242.2,58.1,241.7,57.6,241,57.6L201,57.6C200.3,57.6,199.8,58.1,199.8,58.8C199.8,59.5,200.3,60,201,60L241,60C241.6,60,242.2,59.5,242.2,58.8ZM242.2,46.7C242.2,46,241.7,45.5,241,45.5L201,45.5C200.3,45.5,199.8,46,199.8,46.7C199.8,47.4,200.3,47.9,201,47.9L241,47.9C241.6,47.9,242.2,47.4,242.2,46.7ZM242.2,34.6C242.2,33.9,241.7,33.4,241,33.4L201,33.4C200.3,33.4,199.8,33.9,199.8,34.6C199.8,35.3,200.3,35.8,201,35.8L241,35.8C241.6,35.8,242.2,35.3,242.2,34.6Z" fill="rgb(193,205,212)" stroke="none" stroke-width="1"/><path id="eRdlmC0Kbht34" d="M201,107.2L241,107.2" fill="rgb(0,0,0)" stroke="url(#eRdlmC0Kbht34-stroke)" stroke-width="3.21333" stroke-linecap="round" stroke-dashoffset="26.6667" stroke-dasharray="26.6667,53.3333"/><path id="eRdlmC0Kbht35" d="M201,95.1L241,95.1" fill="rgb(0,0,0)" stroke="url(#eRdlmC0Kbht35-stroke)" stroke-width="3.21333" stroke-linecap="round" stroke-dashoffset="26.6667" stroke-dasharray="26.6667,53.3333"/><path id="eRdlmC0Kbht36" d="M201,83L241,83" fill="rgb(0,0,0)" stroke="url(#eRdlmC0Kbht36-stroke)" stroke-width="3.21333" stroke-linecap="round" stroke-dashoffset="26.6667" stroke-dasharray="26.6667,53.3333"/><path id="eRdlmC0Kbht37" d="M201,70.9L241,70.9" fill="rgb(0,0,0)" stroke="url(#eRdlmC0Kbht37-stroke)" stroke-width="3.21333" stroke-linecap="round" stroke-dashoffset="26.6667" stroke-dasharray="26.6667,53.3333"/><path id="eRdlmC0Kbht38" d="M201,58.8L241,58.8" fill="rgb(0,0,0)" stroke="url(#eRdlmC0Kbht38-stroke)" stroke-width="3.21333" stroke-linecap="round" stroke-dashoffset="26.6667" stroke-dasharray="26.6667,53.3333"/><path id="eRdlmC0Kbht39" d="M201,46.7L241,46.7" fill="rgb(0,0,0)" stroke="url(#eRdlmC0Kbht39-stroke)" stroke-width="3.21333" stroke-linecap="round" stroke-dashoffset="26.6667" stroke-dasharray="26.6667,53.3333"/><path id="eRdlmC0Kbht40" d="M201,34.6L241,34.6" fill="rgb(0,0,0)" stroke="url(#eRdlmC0Kbht40-stroke)" stroke-width="3.21333" stroke-linecap="round" stroke-dashoffset="26.6667" stroke-dasharray="26.6667,53.3333"/><circle id="eRdlmC0Kbht41" r="2.4" transform="matrix(1 0 0 1 240.3 22.1)" fill="none" stroke="rgb(193,205,212)" stroke-width="1.68" stroke-linecap="round"/><path id="eRdlmC0Kbht42" d="M163.4,41.7C159.3,41.7,155.8,44.8,155.3,48.8L115.3,48.8C114.7,48.8,114.2,49.3,114.2,49.9C114.2,50.5,114.7,51,115.3,51L155.3,51C155.8,55,159.2,58.1,163.4,58.1C167.9,58.1,171.6,54.4,171.6,49.9C171.5,45.4,167.9,41.7,163.4,41.7Z" fill="rgb(169,182,190)" stroke="none" stroke-width="1"/><path id="eRdlmC0Kbht43" d="M163.4,43.9C166.7,43.9,169.4,46.6,169.4,49.9C169.4,53.2,166.7,55.9,163.4,55.9C160.1,55.9,157.4,53.2,157.4,49.9C157.3,46.6,160.1,43.9,163.4,43.9Z" fill="rgb(255,255,255)" stroke="none" stroke-width="1"/><path id="eRdlmC0Kbht44" d="M346.3,169.6C379.5,173.9,403,204.3,398.7,237.6C394.4,270.9,364,294.3,330.7,290C297.4,285.7,274,255.3,278.3,222C282.2,191.7,308,169,338.6,169.1C341.2,169.1,343.7,169.3,346.3,169.6" fill="rgb(250,250,250)" stroke="none" stroke-width="1"/><path id="eRdlmC0Kbht45" d="M370,194.8C379.2,202.4,385.2,213.2,386.7,225.1C390,251,371.6,274.6,345.8,277.8C343.9,278,341.9,278.2,339.9,278.2C331,278.2,322.2,275.7,314.7,270.9L370,194.8Z" fill="rgb(224,238,174)" stroke="none" stroke-width="1"/><path id="eRdlmC0Kbht46" d="M377.3,200C370.6,191.3,361.5,185.3,351.1,182.5C350.1,181.3,348.7,180.5,347,180.5C346.1,180.5,345.2,180.8,344.4,181.2C342.5,181,340.5,180.8,338.6,180.8C314,180.7,293.1,199.1,289.9,223.4C288.2,236.4,291.7,249.2,299.6,259.6C307.6,270,319.1,276.6,332.1,278.3C334.3,278.6,336.4,278.7,338.6,278.7C349.3,278.7,359.7,275.2,368.3,268.6C378.7,260.6,385.3,249.1,387,236.1C388.7,223.2,385.3,210.3,377.3,200ZM365.9,196.8C357.1,196.6,347,197.8,336.4,200.2C338.7,196.3,341.1,192.8,343.5,189.7C344.4,190.5,345.6,191,346.9,191C349.6,191,351.8,189,352.1,186.4C357.1,188,361.8,190.4,365.9,193.6C366,194.7,366,195.8,365.9,196.8ZM358,229.3C357.1,231.5,356.2,233.7,355.2,235.9C352.8,241.2,350.2,246.2,347.4,250.9C342,249.3,336.5,247.3,331,244.9C328.3,243.7,325.8,242.6,323.3,241.3C323.3,241.1,323.4,240.9,323.4,240.7C323.4,239.1,322.7,237.6,321.5,236.7C322.6,232.4,324,228,325.6,223.5C328.3,216.1,331.5,209.1,334.9,203C346,200.3,356.7,198.9,365.8,199.1C365.2,205,363.9,211.6,361.8,218.5C361.5,218.5,361.3,218.4,361,218.4C357.8,218.4,355.2,221,355.2,224.2C355.1,226.4,356.3,228.3,358,229.3ZM319.3,245.9C320.6,245.6,321.7,244.7,322.4,243.6C324.8,244.8,327.3,245.9,330,247.1C335.4,249.4,340.8,251.4,346.1,253C340.3,262.2,334,269.7,328.1,274.1C324.6,273.3,321.2,272,318,270.4C317,264,317.5,255.4,319.3,245.9ZM294,220.8C296.3,219.1,298.9,217.4,301.7,215.8C302.7,217,304.1,217.7,305.8,217.7C308.7,217.7,311.1,215.3,311.1,212.4C311.1,212,311,211.5,310.9,211.1C317.3,208.3,324.4,205.7,331.8,203.8C328.7,209.6,325.9,216,323.4,222.7C321.8,227,320.5,231.3,319.4,235.6C319,235.5,318.6,235.4,318.1,235.4C316.8,235.4,315.6,235.9,314.7,236.7C306.3,231.9,299.4,226.7,294,221.1C293.9,221,293.9,220.9,294,220.8ZM368.4,195.6C368.9,196.1,369.5,196.6,370,197.1C369.5,197.1,368.9,197,368.4,197C368.3,196.5,368.3,196,368.4,195.6ZM338.5,184.4L338.6,184.4C339.7,184.4,340.8,184.5,341.9,184.5C341.8,184.9,341.7,185.3,341.7,185.8C341.7,186.5,341.8,187.2,342.1,187.8C339.1,191.5,336.1,196,333.2,201C332.5,201.2,331.8,201.3,331.1,201.5C323.5,203.5,316.2,206.1,309.6,209.1C308.6,207.9,307.2,207.2,305.6,207.2C302.7,207.2,300.3,209.6,300.3,212.5C300.3,212.9,300.4,213.3,300.5,213.7C298.5,214.9,296.5,216.1,294.7,217.3C300.3,198.1,318,184.4,338.5,184.4ZM293.4,224C298.7,229.2,305.3,234.1,313.1,238.6C312.8,239.3,312.6,240,312.6,240.7C312.6,243.3,314.4,245.4,316.8,245.9C315.2,254.6,314.7,262.6,315.4,268.9C300.3,260,291,242.6,293.4,224ZM366.1,265.8C356.5,273.2,344.6,276.4,332.5,274.8C332.1,274.7,331.6,274.7,331.2,274.6C337,269.9,343,262.6,348.5,253.6C352.9,254.8,357.2,255.8,361.2,256.5L361.2,256.6C361.2,258.8,363,260.6,365.2,260.6C367.1,260.6,368.7,259.2,369.1,257.4C370.8,257.5,372.4,257.6,373.9,257.6L374.3,257.6C372,260.7,369.2,263.4,366.1,265.8ZM383.5,235.7C382.6,242.8,380,249.5,376.1,255.3C373.9,255.4,371.5,255.3,368.9,255.1C368.3,253.7,366.9,252.7,365.2,252.7C363.9,252.7,362.7,253.3,362,254.3C358.1,253.7,354,252.7,349.7,251.6C352.4,247,355,242.1,357.3,236.9C358.3,234.6,359.3,232.3,360.2,230.1L360.9,230.1C364.1,230.1,366.7,227.5,366.7,224.3C366.7,222.2,365.6,220.4,364,219.4C366.2,212.3,367.6,205.4,368.2,199.3C369.7,199.4,371.1,199.5,372.5,199.7C373.2,200.5,373.9,201.3,374.5,202.2C381.9,211.7,385.1,223.7,383.5,235.7Z" fill="rgb(170,219,30)" stroke="none" stroke-width="1"/><path id="eRdlmC0Kbht47" d="M309.7,254.1L227.6,254.1C224.7,254.1,222.4,251.3,222.4,247.8L222.4,196.3C226.4,195.8,229.5,192.3,229.5,188.2C229.5,183.7,225.8,180,221.3,180C216.8,180,213.1,183.7,213.1,188.2C213.1,192.3,216.2,195.8,220.2,196.3L220.2,247.8C220.2,252.5,223.5,256.3,227.6,256.3L309.7,256.3C310.3,256.3,310.8,255.8,310.8,255.2C310.8,254.6,310.3,254.1,309.7,254.1ZM215.2,188.2C215.2,184.9,217.9,182.2,221.2,182.2C224.5,182.2,227.2,184.9,227.2,188.2C227.2,191.5,224.5,194.2,221.2,194.2C218,194.2,215.2,191.5,215.2,188.2Z" fill="rgb(169,182,190)" stroke="none" stroke-width="1"/><path id="eRdlmC0Kbht48" d="M370.2,86.1C370.2,86.1,337.5,74.9,337.5,42.5L337.5,19C337.5,19,343.1,17.9,354.9,12.3C363.7,8.1,370.2,0,370.2,0C370.2,0,376.7,8.1,385.5,12.3C397.3,17.9,402.9,19,402.9,19L402.9,42.5C403,74.9,370.2,86.1,370.2,86.1Z" fill="rgb(250,250,250)" stroke="none" stroke-width="1"/><path id="eRdlmC0Kbht49" d="M370.2,9C370.2,9,375.4,15.4,382.3,18.7C391.6,23.1,396.1,24,396.1,24L396.1,42.6C396.1,68.2,370.2,77.1,370.2,77.1L370.2,9Z" opacity="0.3" fill="rgb(0,212,184)" stroke="none" stroke-width="1"/><path id="eRdlmC0Kbht50" d="M370.2,77.1C370.2,77.1,344.3,68.3,344.3,42.6L344.3,24C344.3,24,348.8,23.1,358.1,18.7C365,15.4,370.2,9,370.2,9C370.2,9,375.4,15.4,382.3,18.7C391.6,23.1,396.1,24,396.1,24L396.1,42.6C396.1,68.2,370.2,77.1,370.2,77.1Z" fill="none" stroke="rgb(0,212,184)" stroke-width="2.13" stroke-linecap="round" stroke-linejoin="round"/><path id="eRdlmC0Kbht51" d="M356.8,41.7L367.4,52.3L386.2,33.5" fill="none" stroke="rgb(0,212,184)" stroke-width="3" stroke-linecap="round" stroke-linejoin="round"/><path id="eRdlmC0Kbht52" d="M370.1,81.3C369.5,81.3,369,81.8,369,82.4L369,115.3C369,118.2,366.2,120.5,362.7,120.5L317.6,120.5C317.1,116.5,313.7,113.4,309.5,113.4C305,113.4,301.3,117.1,301.3,121.6C301.3,126.1,305,129.8,309.5,129.8C313.6,129.8,317.1,126.7,317.6,122.7L362.7,122.7C367.4,122.7,371.2,119.4,371.2,115.3L371.2,82.4C371.2,81.8,370.7,81.3,370.1,81.3ZM309.5,127.6C306.2,127.6,303.5,124.9,303.5,121.6C303.5,118.3,306.2,115.6,309.5,115.6C312.8,115.6,315.5,118.3,315.5,121.6C315.5,124.9,312.8,127.6,309.5,127.6Z" fill="rgb(169,182,190)" stroke="none" stroke-width="1"/><path id="eRdlmC0Kbht53" d="M115.9,65.1L115.1,60.8C115,60.4,114.7,60.1,114.3,60.1L108.9,59.5C108.6,59.4,108.3,59.2,108.2,58.9C107.7,57.6,107.2,56.4,106.6,55.2C106.5,54.9,106.5,54.6,106.7,54.3L110.1,50C110.4,49.7,110.4,49.2,110.1,48.9L107.6,45.4C107.4,45.1,107,45,106.6,45.1L101.5,46.9C101.2,47,100.8,46.9,100.6,46.7C99.6,45.7,98.6,44.8,97.5,43.9C97.2,43.7,97.1,43.3,97.2,43L98.3,37.7C98.4,37.3,98.2,36.9,97.9,36.7L94.1,34.6C93.7,34.4,93.3,34.5,93,34.8L89.2,38.6C89,39,88.6,39,88.3,38.9L84.3,37.8C83.9,37.7,83.7,37.5,83.6,37.1L82.4,32C82.3,31.6,82,31.3,81.6,31.3L77.1,31.2C76.7,31.2,76.3,31.4,76.2,31.8L74.5,36.8C74.4,37.1,74.1,37.3,73.8,37.4L69.7,38C69.4,38.1,69,38,68.8,37.7L65.5,33.6C65.3,33.3,64.9,33.2,64.5,33.3L60.5,35C60.2,35.2,60,35.6,60,36L60.6,41.2C60.7,41.6,60.5,41.9,60.2,42.1C59,42.9,57.9,43.7,56.8,44.6C56.5,44.8,56.2,44.8,55.9,44.7L51.2,42.5C50.9,42.4,50.5,42.4,50.2,42.7L47.3,46C47,46.2,47,46.7,47.2,47L49.7,51.3C49.9,51.6,49.9,52,49.7,52.3L48.6,54.2L47.7,56.1C47.5,56.4,47.2,56.6,46.9,56.6L41.6,56.6C41.2,56.6,40.9,56.9,40.8,57.2L39.6,61.4C39.5,61.8,39.7,62.2,40,62.4L44.4,65.2C44.7,65.4,44.9,65.7,44.8,66.1C44.6,67.5,44.6,68.9,44.6,70.3C44.6,70.6,44.4,70.9,44.1,71.1L39.4,73.4C39,73.6,38.8,74,38.9,74.4L39.7,78.7C39.8,79.1,40.1,79.4,40.5,79.4L45.7,80C46,80.1,46.3,80.3,46.4,80.6C46.8,81.9,47.4,83.2,48,84.5C48.1,84.8,48.1,85.1,47.9,85.4L44.7,89.5C44.4,89.8,44.4,90.3,44.7,90.6L47.3,94.1C47.5,94.4,47.9,94.5,48.3,94.4L53.3,92.6C53.6,92.5,54,92.6,54.2,92.8C55.2,93.8,56.3,94.7,57.4,95.6C57.7,95.8,57.8,96.2,57.7,96.5L56.6,101.7C56.5,102.1,56.7,102.5,57,102.7L60.8,104.8C61.2,105,61.6,104.9,61.9,104.6L65.7,100.8C65.9,100.6,66.3,100.5,66.6,100.6L70.6,101.7C71,101.8,71.2,102,71.3,102.4L72.5,107.6C72.6,108,72.9,108.3,73.3,108.3L77.6,108.5C78,108.5,78.4,108.3,78.5,107.9L80.3,102.8C80.4,102.5,80.7,102.3,81,102.2L85,101.5C85.3,101.4,85.7,101.5,85.9,101.8L89.3,106C89.5,106.3,89.9,106.4,90.3,106.3L94.3,104.6C94.6,104.4,94.8,104.1,94.8,103.7L94.2,98.3C94.1,97.9,94.3,97.6,94.6,97.4C95.8,96.7,97,95.9,98.1,95.1C98.4,94.9,98.7,94.9,99,95L103.9,97.3C104.2,97.4,104.6,97.4,104.9,97.1L107.8,93.8C108.1,93.5,108.1,93,107.9,92.7L105,88.1C104.8,87.8,104.8,87.5,105,87.2L106,85.5L106.9,83.7C107.1,83.4,107.4,83.2,107.7,83.2L113.2,83.2C113.6,83.2,113.9,82.9,114,82.6L115.2,78.4C115.3,78,115.1,77.6,114.8,77.4L110.2,74.5C109.9,74.3,109.7,74,109.8,73.6C109.9,72.3,110,70.9,110,69.6C109.9,69.2,110.1,68.8,110.5,68.6L115.4,66.2C115.8,65.9,116,65.5,115.9,65.1ZM77.4,85.8C68.5,85.8,61.3,78.6,61.3,69.7C61.3,60.8,68.5,53.6,77.4,53.6C86.3,53.6,93.5,60.8,93.5,69.7C93.5,78.6,86.3,85.8,77.4,85.8Z" fill="rgb(250,250,250)" stroke="rgb(0,183,214)" stroke-width="2.4"/><path id="eRdlmC0Kbht54" d="M48.3,32.6C48.2,29.6,47.5,26.6,46,23.9L50.2,20L47.3,16.3L42.5,19.3C40.3,17.2,37.7,15.7,34.8,14.8L35,9.1L30.4,8.5L29.1,14C26.1,14,23.1,14.8,20.4,16.2L16.6,12L12.9,14.8L15.9,19.6C13.8,21.8,12.2,24.5,11.3,27.4L5.7,27.2L5.1,31.8L10.5,33C10.5,36.1,11.3,39.1,12.8,41.8L8.7,45.6L11.5,49.4L16.2,46.5C18.4,48.6,21.1,50.2,24,51.1L23.8,56.6L28.4,57.2L29.7,51.8C32.8,51.8,35.8,51,38.5,49.5L42.3,53.6L46,50.8L43,46C45.2,43.8,46.7,41.1,47.6,38.1L53.2,38.5L53.8,33.9L48.3,32.6ZM29.4,43.7C23.4,43.7,18.6,38.9,18.6,32.9C18.6,26.9,23.5,22,29.4,22C35.3,22,40.2,26.8,40.2,32.8C40.2,38.8,35.4,43.7,29.4,43.7Z" fill="rgb(170,219,30)" stroke="none" stroke-width="1"/></svg>