<?xml version="1.0" encoding="utf-8"?>
<!-- Generator: Adobe Illustrator 24.0.0, SVG Export Plug-In . SVG Version: 6.00 Build 0)  -->
<svg version="1.1" id="Layer_1" xmlns="http://www.w3.org/2000/svg" xmlns:xlink="http://www.w3.org/1999/xlink" x="0px" y="0px"
	 viewBox="0 0 1290.4 1102.6" style="enable-background:new 0 0 1290.4 1102.6;" xml:space="preserve">
<style type="text/css">
	.st0{clip-path:url(#SVGID_2_);}
	.st1{fill:#423434;}
	.st2{clip-path:url(#SVGID_4_);}
	.st3{fill:#B2D9F9;}
	.st4{fill:#2AACE3;}
	.st5{fill:#FFFFFF;}
	.st6{fill:#FFD0A6;}
	.st7{fill:#6AB8F1;}
	.st8{fill:#281A10;}
	.st9{fill:#2B3D59;}
	.st10{fill:#081233;}
	.st11{fill:#89603E;}
</style>
<title>icon-9</title>
<g id="b98f8c76-22b9-4487-b207-3f9f0ccfc1fc">
	<g id="edbd5c91-b57b-465d-9266-2888c34c919d">
		<g id="aa34a571-ac39-43c4-8edf-56498e146d93">
			<g>
				<defs>
					<ellipse id="SVGID_1_" cx="841.3" cy="857" rx="163.9" ry="94.6"/>
				</defs>
				<clipPath id="SVGID_2_">
					<use xlink:href="#SVGID_1_"  style="overflow:visible;"/>
				</clipPath>
				<g class="st0">
					<ellipse class="st1" cx="1283.9" cy="724.3" rx="6.5" ry="3.8"/>
					<path class="st1" d="M1232.7,721.6c-2.5,1.5-2.5,3.9,0,5.3c2.9,1.5,6.3,1.5,9.2,0c2.6-1.4,2.6-3.8,0-5.3
						C1239,720.1,1235.6,720.1,1232.7,721.6z"/>
					<ellipse class="st1" cx="1190.7" cy="724.3" rx="6.5" ry="3.8"/>
					<ellipse class="st1" cx="1144.1" cy="724.3" rx="6.5" ry="3.8"/>
					<ellipse class="st1" cx="1097.5" cy="724.3" rx="6.5" ry="3.8"/>
					<ellipse class="st1" cx="1051" cy="724.3" rx="6.5" ry="3.8"/>
					<path class="st1" d="M999.8,721.6c-2.6,1.5-2.6,3.9,0,5.3c2.9,1.5,6.3,1.5,9.2,0c2.5-1.4,2.5-3.8,0-5.3
						C1006.1,720.1,1002.7,720.1,999.8,721.6z"/>
					<ellipse class="st1" cx="957.8" cy="724.3" rx="6.5" ry="3.8"/>
					<ellipse class="st1" cx="911.2" cy="724.3" rx="6.5" ry="3.8"/>
					<ellipse class="st1" cx="864.6" cy="724.3" rx="6.5" ry="3.8"/>
					<ellipse class="st1" cx="1283.9" cy="724.3" rx="6.5" ry="3.8"/>
					<ellipse class="st1" cx="1283.9" cy="765.9" rx="6.5" ry="3.8"/>
					<path class="st1" d="M1232.7,763.2c-2.5,1.5-2.5,3.9,0,5.3c2.9,1.5,6.3,1.5,9.2,0c2.6-1.4,2.6-3.8,0-5.3
						C1239,761.8,1235.6,761.8,1232.7,763.2z"/>
					<ellipse class="st1" cx="1190.7" cy="765.9" rx="6.5" ry="3.8"/>
					<ellipse class="st1" cx="1144.1" cy="765.9" rx="6.5" ry="3.8"/>
					<ellipse class="st1" cx="1097.5" cy="765.9" rx="6.5" ry="3.8"/>
					<ellipse class="st1" cx="1051" cy="765.9" rx="6.5" ry="3.8"/>
					<path class="st1" d="M999.8,763.2c-2.6,1.5-2.6,3.9,0,5.3c2.9,1.5,6.3,1.5,9.2,0c2.5-1.4,2.5-3.8,0-5.3
						C1006.1,761.8,1002.7,761.8,999.8,763.2z"/>
					<ellipse class="st1" cx="957.8" cy="765.9" rx="6.5" ry="3.8"/>
					<ellipse class="st1" cx="911.2" cy="765.9" rx="6.5" ry="3.8"/>
					<ellipse class="st1" cx="864.6" cy="765.9" rx="6.5" ry="3.8"/>
					<ellipse class="st1" cx="1283.9" cy="765.9" rx="6.5" ry="3.8"/>
					<ellipse class="st1" cx="1283.9" cy="807.5" rx="6.5" ry="3.8"/>
					<path class="st1" d="M1232.7,804.8c-2.5,1.5-2.5,3.9,0,5.4c2.9,1.4,6.3,1.4,9.2,0c2.6-1.5,2.6-3.9,0-5.4
						C1239,803.4,1235.6,803.4,1232.7,804.8z"/>
					<ellipse class="st1" cx="1190.7" cy="807.5" rx="6.5" ry="3.8"/>
					<ellipse class="st1" cx="1144.1" cy="807.5" rx="6.5" ry="3.8"/>
					<ellipse class="st1" cx="1097.5" cy="807.5" rx="6.5" ry="3.8"/>
					<ellipse class="st1" cx="1051" cy="807.5" rx="6.5" ry="3.8"/>
					<path class="st1" d="M999.8,804.8c-2.6,1.5-2.6,3.9,0,5.4c2.9,1.4,6.3,1.4,9.2,0c2.5-1.5,2.5-3.9,0-5.4
						C1006.1,803.4,1002.7,803.4,999.8,804.8z"/>
					<ellipse class="st1" cx="957.8" cy="807.5" rx="6.5" ry="3.8"/>
					<ellipse class="st1" cx="911.2" cy="807.5" rx="6.5" ry="3.8"/>
					<ellipse class="st1" cx="864.6" cy="807.5" rx="6.5" ry="3.8"/>
					<ellipse class="st1" cx="1283.9" cy="807.5" rx="6.5" ry="3.8"/>
					<ellipse class="st1" cx="1283.9" cy="849.1" rx="6.5" ry="3.8"/>
					<path class="st1" d="M1232.7,846.5c-2.5,1.4-2.5,3.8,0,5.3c2.9,1.4,6.3,1.4,9.2,0c2.6-1.5,2.6-3.9,0-5.3
						C1239,845,1235.6,845,1232.7,846.5z"/>
					<ellipse class="st1" cx="1190.7" cy="849.1" rx="6.5" ry="3.8"/>
					<ellipse class="st1" cx="1144.1" cy="849.1" rx="6.5" ry="3.8"/>
					<ellipse class="st1" cx="1097.5" cy="849.1" rx="6.5" ry="3.8"/>
					<ellipse class="st1" cx="1051" cy="849.1" rx="6.5" ry="3.8"/>
					<path class="st1" d="M999.8,846.5c-2.6,1.4-2.6,3.8,0,5.3c2.9,1.4,6.3,1.4,9.2,0c2.5-1.5,2.5-3.9,0-5.3
						C1006.1,845,1002.7,845,999.8,846.5z"/>
					<ellipse class="st1" cx="957.8" cy="849.1" rx="6.5" ry="3.8"/>
					<ellipse class="st1" cx="911.2" cy="849.1" rx="6.5" ry="3.8"/>
					<ellipse class="st1" cx="864.6" cy="849.1" rx="6.5" ry="3.8"/>
					<ellipse class="st1" cx="1283.9" cy="849.1" rx="6.5" ry="3.8"/>
					<ellipse class="st1" cx="1283.9" cy="890.7" rx="6.5" ry="3.8"/>
					<path class="st1" d="M1232.7,888.1c-2.5,1.4-2.5,3.8,0,5.3c2.9,1.5,6.3,1.5,9.2,0c2.6-1.5,2.6-3.9,0-5.3
						C1239,886.6,1235.6,886.6,1232.7,888.1z"/>
					<ellipse class="st1" cx="1190.7" cy="890.7" rx="6.5" ry="3.8"/>
					<ellipse class="st1" cx="1144.1" cy="890.7" rx="6.5" ry="3.8"/>
					<ellipse class="st1" cx="1097.5" cy="890.7" rx="6.5" ry="3.8"/>
					<ellipse class="st1" cx="1051" cy="890.7" rx="6.5" ry="3.8"/>
					<path class="st1" d="M999.8,888.1c-2.6,1.4-2.6,3.8,0,5.3c2.9,1.5,6.3,1.5,9.2,0c2.5-1.5,2.5-3.9,0-5.3
						C1006.1,886.6,1002.7,886.6,999.8,888.1z"/>
					<ellipse class="st1" cx="957.8" cy="890.7" rx="6.5" ry="3.8"/>
					<ellipse class="st1" cx="911.2" cy="890.7" rx="6.5" ry="3.8"/>
					<ellipse class="st1" cx="864.6" cy="890.7" rx="6.5" ry="3.8"/>
					<ellipse class="st1" cx="1283.9" cy="890.7" rx="6.5" ry="3.8"/>
					<ellipse class="st1" cx="818" cy="724.3" rx="6.5" ry="3.8"/>
					<ellipse class="st1" cx="771.4" cy="724.3" rx="6.5" ry="3.8"/>
					<path class="st1" d="M720.2,721.6c-2.5,1.5-2.5,3.9,0,5.3c2.9,1.5,6.3,1.5,9.2,0c2.6-1.4,2.6-3.8,0-5.3
						C726.5,720.1,723.1,720.1,720.2,721.6z"/>
					<ellipse class="st1" cx="678.2" cy="724.3" rx="6.5" ry="3.8"/>
					<path class="st1" d="M627,721.6c-2.5,1.5-2.5,3.9,0,5.3c2.9,1.5,6.3,1.5,9.2,0c2.6-1.4,2.6-3.8,0-5.3
						C633.3,720.1,629.9,720.1,627,721.6z"/>
					<ellipse class="st1" cx="585" cy="724.3" rx="6.5" ry="3.8"/>
					<ellipse class="st1" cx="538.5" cy="724.3" rx="6.5" ry="3.8"/>
					<path class="st1" d="M487.3,721.6c-2.6,1.5-2.6,3.9,0,5.3c2.9,1.5,6.3,1.5,9.2,0c2.5-1.4,2.5-3.8,0-5.3
						C493.6,720.1,490.2,720.1,487.3,721.6z"/>
					<ellipse class="st1" cx="445.3" cy="724.3" rx="6.5" ry="3.8"/>
					<path class="st1" d="M394.1,721.6c-2.6,1.5-2.6,3.9,0,5.3c2.9,1.5,6.3,1.5,9.2,0c2.5-1.4,2.5-3.8,0-5.3
						C400.4,720.1,397,720.1,394.1,721.6z"/>
					<ellipse class="st1" cx="818" cy="724.3" rx="6.5" ry="3.8"/>
					<ellipse class="st1" cx="818" cy="765.9" rx="6.5" ry="3.8"/>
					<ellipse class="st1" cx="771.4" cy="765.9" rx="6.5" ry="3.8"/>
					<path class="st1" d="M720.2,763.2c-2.5,1.5-2.5,3.9,0,5.3c2.9,1.5,6.3,1.5,9.2,0c2.6-1.4,2.6-3.8,0-5.3
						C726.5,761.8,723.1,761.8,720.2,763.2z"/>
					<ellipse class="st1" cx="678.2" cy="765.9" rx="6.5" ry="3.8"/>
					<path class="st1" d="M627,763.2c-2.5,1.5-2.5,3.9,0,5.3c2.9,1.5,6.3,1.5,9.2,0c2.6-1.4,2.6-3.8,0-5.3
						C633.3,761.8,629.9,761.8,627,763.2z"/>
					<ellipse class="st1" cx="585" cy="765.9" rx="6.5" ry="3.8"/>
					<ellipse class="st1" cx="538.5" cy="765.9" rx="6.5" ry="3.8"/>
					<path class="st1" d="M487.3,763.2c-2.6,1.5-2.6,3.9,0,5.3c2.9,1.5,6.3,1.5,9.2,0c2.5-1.4,2.5-3.8,0-5.3
						C493.6,761.8,490.2,761.8,487.3,763.2z"/>
					<ellipse class="st1" cx="445.3" cy="765.9" rx="6.5" ry="3.8"/>
					<path class="st1" d="M394.1,763.2c-2.6,1.5-2.6,3.9,0,5.3c2.9,1.5,6.3,1.5,9.2,0c2.5-1.4,2.5-3.8,0-5.3
						C400.4,761.8,397,761.8,394.1,763.2z"/>
					<ellipse class="st1" cx="818" cy="765.9" rx="6.5" ry="3.8"/>
					<ellipse class="st1" cx="818" cy="807.5" rx="6.5" ry="3.8"/>
					<ellipse class="st1" cx="771.4" cy="807.5" rx="6.5" ry="3.8"/>
					<path class="st1" d="M720.2,804.8c-2.5,1.5-2.5,3.9,0,5.4c2.9,1.4,6.3,1.4,9.2,0c2.6-1.5,2.6-3.9,0-5.4
						C726.5,803.4,723.1,803.4,720.2,804.8z"/>
					<ellipse class="st1" cx="678.2" cy="807.5" rx="6.5" ry="3.8"/>
					<path class="st1" d="M627,804.8c-2.5,1.5-2.5,3.9,0,5.4c2.9,1.4,6.3,1.4,9.2,0c2.6-1.5,2.6-3.9,0-5.4
						C633.3,803.4,629.9,803.4,627,804.8z"/>
					<ellipse class="st1" cx="585" cy="807.5" rx="6.5" ry="3.8"/>
					<ellipse class="st1" cx="538.5" cy="807.5" rx="6.5" ry="3.8"/>
					<path class="st1" d="M487.3,804.8c-2.6,1.5-2.6,3.9,0,5.4c2.9,1.4,6.3,1.4,9.2,0c2.5-1.5,2.5-3.9,0-5.4
						C493.6,803.4,490.2,803.4,487.3,804.8z"/>
					<ellipse class="st1" cx="445.3" cy="807.5" rx="6.5" ry="3.8"/>
					<path class="st1" d="M394.1,804.8c-2.6,1.5-2.6,3.9,0,5.4c2.9,1.4,6.3,1.4,9.2,0c2.5-1.5,2.5-3.9,0-5.4
						C400.4,803.4,397,803.4,394.1,804.8z"/>
					<ellipse class="st1" cx="818" cy="807.5" rx="6.5" ry="3.8"/>
					<ellipse class="st1" cx="818" cy="849.1" rx="6.5" ry="3.8"/>
					<ellipse class="st1" cx="771.4" cy="849.1" rx="6.5" ry="3.8"/>
					<path class="st1" d="M720.2,846.5c-2.5,1.4-2.5,3.8,0,5.3c2.9,1.4,6.3,1.4,9.2,0c2.6-1.5,2.6-3.9,0-5.3
						C726.5,845,723.1,845,720.2,846.5z"/>
					<ellipse class="st1" cx="678.2" cy="849.1" rx="6.5" ry="3.8"/>
					<path class="st1" d="M627,846.5c-2.5,1.4-2.5,3.8,0,5.3c2.9,1.4,6.3,1.4,9.2,0c2.6-1.5,2.6-3.9,0-5.3
						C633.3,845,629.9,845,627,846.5z"/>
					<ellipse class="st1" cx="585" cy="849.1" rx="6.5" ry="3.8"/>
					<ellipse class="st1" cx="538.5" cy="849.1" rx="6.5" ry="3.8"/>
					<path class="st1" d="M487.3,846.5c-2.6,1.4-2.6,3.8,0,5.3c2.9,1.4,6.3,1.4,9.2,0c2.5-1.5,2.5-3.9,0-5.3
						C493.6,845,490.2,845,487.3,846.5z"/>
					<ellipse class="st1" cx="445.3" cy="849.1" rx="6.5" ry="3.8"/>
					<path class="st1" d="M394.1,846.5c-2.6,1.4-2.6,3.8,0,5.3c2.9,1.4,6.3,1.4,9.2,0c2.5-1.5,2.5-3.9,0-5.3
						C400.4,845,397,845,394.1,846.5z"/>
					<ellipse class="st1" cx="818" cy="849.1" rx="6.5" ry="3.8"/>
					<ellipse class="st1" cx="818" cy="890.7" rx="6.5" ry="3.8"/>
					<ellipse class="st1" cx="771.4" cy="890.7" rx="6.5" ry="3.8"/>
					<path class="st1" d="M720.2,888.1c-2.5,1.4-2.5,3.8,0,5.3c2.9,1.5,6.3,1.5,9.2,0c2.6-1.5,2.6-3.9,0-5.3
						C726.5,886.6,723.1,886.6,720.2,888.1z"/>
					<ellipse class="st1" cx="678.2" cy="890.7" rx="6.5" ry="3.8"/>
					<path class="st1" d="M627,888.1c-2.5,1.4-2.5,3.8,0,5.3c2.9,1.5,6.3,1.5,9.2,0c2.6-1.5,2.6-3.9,0-5.3
						C633.3,886.6,629.9,886.6,627,888.1z"/>
					<ellipse class="st1" cx="585" cy="890.7" rx="6.5" ry="3.8"/>
					<ellipse class="st1" cx="538.5" cy="890.7" rx="6.5" ry="3.8"/>
					<path class="st1" d="M487.3,888.1c-2.6,1.4-2.6,3.8,0,5.3c2.9,1.5,6.3,1.5,9.2,0c2.5-1.5,2.5-3.9,0-5.3
						C493.6,886.6,490.2,886.6,487.3,888.1z"/>
					<ellipse class="st1" cx="445.3" cy="890.7" rx="6.5" ry="3.8"/>
					<path class="st1" d="M394.1,888.1c-2.6,1.4-2.6,3.8,0,5.3c2.9,1.5,6.3,1.5,9.2,0c2.5-1.5,2.5-3.9,0-5.3
						C400.4,886.6,397,886.6,394.1,888.1z"/>
					<ellipse class="st1" cx="818" cy="890.7" rx="6.5" ry="3.8"/>
					<ellipse class="st1" cx="1283.9" cy="932.4" rx="6.5" ry="3.8"/>
					<path class="st1" d="M1232.7,929.8c-2.5,1.4-2.5,3.8,0,5.3c2.9,1.4,6.3,1.4,9.2,0c2.6-1.5,2.6-3.9,0-5.3
						C1239,928.3,1235.6,928.3,1232.7,929.8z"/>
					<ellipse class="st1" cx="1190.7" cy="932.4" rx="6.5" ry="3.8"/>
					<ellipse class="st1" cx="1144.1" cy="932.4" rx="6.5" ry="3.8"/>
					<ellipse class="st1" cx="1097.5" cy="932.4" rx="6.5" ry="3.8"/>
					<ellipse class="st1" cx="1051" cy="932.4" rx="6.5" ry="3.8"/>
					<path class="st1" d="M999.8,929.8c-2.6,1.4-2.6,3.8,0,5.3c2.9,1.4,6.3,1.4,9.2,0c2.5-1.5,2.5-3.9,0-5.3
						C1006.1,928.3,1002.7,928.3,999.8,929.8z"/>
					<ellipse class="st1" cx="957.8" cy="932.4" rx="6.5" ry="3.8"/>
					<ellipse class="st1" cx="911.2" cy="932.4" rx="6.5" ry="3.8"/>
					<ellipse class="st1" cx="864.6" cy="932.4" rx="6.5" ry="3.8"/>
					<ellipse class="st1" cx="1283.9" cy="932.4" rx="6.5" ry="3.8"/>
					<ellipse class="st1" cx="1283.9" cy="974" rx="6.5" ry="3.8"/>
					<path class="st1" d="M1232.7,971.4c-2.5,1.4-2.5,3.8,0,5.3c2.9,1.5,6.3,1.5,9.2,0c2.6-1.5,2.6-3.9,0-5.3
						C1239,969.9,1235.6,969.9,1232.7,971.4z"/>
					<ellipse class="st1" cx="1190.7" cy="974" rx="6.5" ry="3.8"/>
					<ellipse class="st1" cx="1144.1" cy="974" rx="6.5" ry="3.8"/>
					<ellipse class="st1" cx="1097.5" cy="974" rx="6.5" ry="3.8"/>
					<ellipse class="st1" cx="1051" cy="974" rx="6.5" ry="3.8"/>
					<path class="st1" d="M999.8,971.4c-2.6,1.4-2.6,3.8,0,5.3c2.9,1.5,6.3,1.5,9.2,0c2.5-1.5,2.5-3.9,0-5.3
						C1006.1,969.9,1002.7,969.9,999.8,971.4z"/>
					<ellipse class="st1" cx="957.8" cy="974" rx="6.5" ry="3.8"/>
					<ellipse class="st1" cx="911.2" cy="974" rx="6.5" ry="3.8"/>
					<ellipse class="st1" cx="864.6" cy="974" rx="6.5" ry="3.8"/>
					<ellipse class="st1" cx="1283.9" cy="974" rx="6.5" ry="3.8"/>
					<ellipse class="st1" cx="1283.9" cy="1015.7" rx="6.5" ry="3.8"/>
					<path class="st1" d="M1232.7,1013c-2.5,1.5-2.5,3.8,0,5.3c2.9,1.5,6.3,1.5,9.2,0c2.6-1.5,2.6-3.8,0-5.3
						C1239,1011.5,1235.6,1011.5,1232.7,1013z"/>
					<ellipse class="st1" cx="1190.7" cy="1015.7" rx="6.5" ry="3.8"/>
					<ellipse class="st1" cx="1144.1" cy="1015.7" rx="6.5" ry="3.8"/>
					<ellipse class="st1" cx="1097.5" cy="1015.7" rx="6.5" ry="3.8"/>
					<ellipse class="st1" cx="1051" cy="1015.7" rx="6.5" ry="3.8"/>
					<path class="st1" d="M999.8,1013c-2.6,1.5-2.6,3.8,0,5.3c2.9,1.5,6.3,1.5,9.2,0c2.5-1.5,2.5-3.8,0-5.3
						C1006.1,1011.5,1002.7,1011.5,999.8,1013z"/>
					<ellipse class="st1" cx="957.8" cy="1015.7" rx="6.5" ry="3.8"/>
					<ellipse class="st1" cx="911.2" cy="1015.7" rx="6.5" ry="3.8"/>
					<ellipse class="st1" cx="864.6" cy="1015.7" rx="6.5" ry="3.8"/>
					<ellipse class="st1" cx="1283.9" cy="1015.7" rx="6.5" ry="3.8"/>
					<ellipse class="st1" cx="1283.9" cy="1057.3" rx="6.5" ry="3.8"/>
					<path class="st1" d="M1232.7,1054.6c-2.5,1.5-2.5,3.9,0,5.3c2.9,1.5,6.3,1.5,9.2,0c2.6-1.4,2.6-3.8,0-5.3
						C1239,1053.1,1235.6,1053.1,1232.7,1054.6z"/>
					<ellipse class="st1" cx="1190.7" cy="1057.3" rx="6.5" ry="3.8"/>
					<ellipse class="st1" cx="1144.1" cy="1057.3" rx="6.5" ry="3.8"/>
					<ellipse class="st1" cx="1097.5" cy="1057.3" rx="6.5" ry="3.8"/>
					<ellipse class="st1" cx="1051" cy="1057.3" rx="6.5" ry="3.8"/>
					<path class="st1" d="M999.8,1054.6c-2.6,1.5-2.6,3.9,0,5.3c2.9,1.5,6.3,1.5,9.2,0c2.5-1.4,2.5-3.8,0-5.3
						C1006.1,1053.1,1002.7,1053.1,999.8,1054.6z"/>
					<ellipse class="st1" cx="957.8" cy="1057.3" rx="6.5" ry="3.8"/>
					<ellipse class="st1" cx="911.2" cy="1057.3" rx="6.5" ry="3.8"/>
					<ellipse class="st1" cx="864.6" cy="1057.3" rx="6.5" ry="3.8"/>
					<ellipse class="st1" cx="1283.9" cy="1057.3" rx="6.5" ry="3.8"/>
					<ellipse class="st1" cx="1283.9" cy="1098.9" rx="6.5" ry="3.8"/>
					<path class="st1" d="M1232.7,1096.2c-2.5,1.5-2.5,3.9,0,5.3c2.9,1.5,6.3,1.5,9.2,0c2.6-1.4,2.6-3.8,0-5.3
						C1239,1094.8,1235.6,1094.8,1232.7,1096.2z"/>
					<ellipse class="st1" cx="1190.7" cy="1098.9" rx="6.5" ry="3.8"/>
					<ellipse class="st1" cx="1144.1" cy="1098.9" rx="6.5" ry="3.8"/>
					<ellipse class="st1" cx="1097.5" cy="1098.9" rx="6.5" ry="3.8"/>
					<ellipse class="st1" cx="1051" cy="1098.9" rx="6.5" ry="3.8"/>
					<path class="st1" d="M999.8,1096.2c-2.6,1.5-2.6,3.9,0,5.3c2.9,1.5,6.3,1.5,9.2,0c2.5-1.4,2.5-3.8,0-5.3
						C1006.1,1094.8,1002.7,1094.8,999.8,1096.2z"/>
					<ellipse class="st1" cx="957.8" cy="1098.9" rx="6.5" ry="3.8"/>
					<ellipse class="st1" cx="911.2" cy="1098.9" rx="6.5" ry="3.8"/>
					<ellipse class="st1" cx="864.6" cy="1098.9" rx="6.5" ry="3.8"/>
					<ellipse class="st1" cx="1283.9" cy="1098.9" rx="6.5" ry="3.8"/>
					<ellipse class="st1" cx="818" cy="932.4" rx="6.5" ry="3.8"/>
					<ellipse class="st1" cx="771.4" cy="932.4" rx="6.5" ry="3.8"/>
					<path class="st1" d="M720.2,929.8c-2.5,1.4-2.5,3.8,0,5.3c2.9,1.4,6.3,1.4,9.2,0c2.6-1.5,2.6-3.9,0-5.3
						C726.5,928.3,723.1,928.3,720.2,929.8z"/>
					<ellipse class="st1" cx="678.2" cy="932.4" rx="6.5" ry="3.8"/>
					<path class="st1" d="M627,929.8c-2.5,1.4-2.5,3.8,0,5.3c2.9,1.4,6.3,1.4,9.2,0c2.6-1.5,2.6-3.9,0-5.3
						C633.3,928.3,629.9,928.3,627,929.8z"/>
					<ellipse class="st1" cx="585" cy="932.4" rx="6.5" ry="3.8"/>
					<ellipse class="st1" cx="538.5" cy="932.4" rx="6.5" ry="3.8"/>
					<path class="st1" d="M487.3,929.8c-2.6,1.4-2.6,3.8,0,5.3c2.9,1.4,6.3,1.4,9.2,0c2.5-1.5,2.5-3.9,0-5.3
						C493.6,928.3,490.2,928.3,487.3,929.8z"/>
					<ellipse class="st1" cx="445.3" cy="932.4" rx="6.5" ry="3.8"/>
					<path class="st1" d="M394.1,929.8c-2.6,1.4-2.6,3.8,0,5.3c2.9,1.4,6.3,1.4,9.2,0c2.5-1.5,2.5-3.9,0-5.3
						C400.4,928.3,397,928.3,394.1,929.8z"/>
					<ellipse class="st1" cx="818" cy="932.4" rx="6.5" ry="3.8"/>
					<ellipse class="st1" cx="818" cy="974" rx="6.5" ry="3.8"/>
					<ellipse class="st1" cx="771.4" cy="974" rx="6.5" ry="3.8"/>
					<path class="st1" d="M720.2,971.4c-2.5,1.4-2.5,3.8,0,5.3c2.9,1.5,6.3,1.5,9.2,0c2.6-1.5,2.6-3.9,0-5.3
						C726.5,969.9,723.1,969.9,720.2,971.4z"/>
					<ellipse class="st1" cx="678.2" cy="974" rx="6.5" ry="3.8"/>
					<path class="st1" d="M627,971.4c-2.5,1.4-2.5,3.8,0,5.3c2.9,1.5,6.3,1.5,9.2,0c2.6-1.5,2.6-3.9,0-5.3
						C633.3,969.9,629.9,969.9,627,971.4z"/>
					<ellipse class="st1" cx="585" cy="974" rx="6.5" ry="3.8"/>
					<ellipse class="st1" cx="538.5" cy="974" rx="6.5" ry="3.8"/>
					<path class="st1" d="M487.3,971.4c-2.6,1.4-2.6,3.8,0,5.3c2.9,1.5,6.3,1.5,9.2,0c2.5-1.5,2.5-3.9,0-5.3
						C493.6,969.9,490.2,969.9,487.3,971.4z"/>
					<ellipse class="st1" cx="445.3" cy="974" rx="6.5" ry="3.8"/>
					<path class="st1" d="M394.1,971.4c-2.6,1.4-2.6,3.8,0,5.3c2.9,1.5,6.3,1.5,9.2,0c2.5-1.5,2.5-3.9,0-5.3
						C400.4,969.9,397,969.9,394.1,971.4z"/>
					<ellipse class="st1" cx="818" cy="974" rx="6.5" ry="3.8"/>
					<ellipse class="st1" cx="818" cy="1015.7" rx="6.5" ry="3.8"/>
					<ellipse class="st1" cx="771.4" cy="1015.7" rx="6.5" ry="3.8"/>
					<path class="st1" d="M720.2,1013c-2.5,1.5-2.5,3.8,0,5.3c2.9,1.5,6.3,1.5,9.2,0c2.6-1.5,2.6-3.8,0-5.3
						C726.5,1011.5,723.1,1011.5,720.2,1013z"/>
					<ellipse class="st1" cx="678.2" cy="1015.7" rx="6.5" ry="3.8"/>
					<path class="st1" d="M627,1013c-2.5,1.5-2.5,3.8,0,5.3c2.9,1.5,6.3,1.5,9.2,0c2.6-1.5,2.6-3.8,0-5.3
						C633.3,1011.5,629.9,1011.5,627,1013z"/>
					<ellipse class="st1" cx="585" cy="1015.7" rx="6.5" ry="3.8"/>
					<ellipse class="st1" cx="538.5" cy="1015.7" rx="6.5" ry="3.8"/>
					<path class="st1" d="M487.3,1013c-2.6,1.5-2.6,3.8,0,5.3c2.9,1.5,6.3,1.5,9.2,0c2.5-1.5,2.5-3.8,0-5.3
						C493.6,1011.5,490.2,1011.5,487.3,1013z"/>
					<ellipse class="st1" cx="445.3" cy="1015.7" rx="6.5" ry="3.8"/>
					<path class="st1" d="M394.1,1013c-2.6,1.5-2.6,3.8,0,5.3c2.9,1.5,6.3,1.5,9.2,0c2.5-1.5,2.5-3.8,0-5.3
						C400.4,1011.5,397,1011.5,394.1,1013z"/>
					<ellipse class="st1" cx="818" cy="1015.7" rx="6.5" ry="3.8"/>
					<ellipse class="st1" cx="818" cy="1057.3" rx="6.5" ry="3.8"/>
					<ellipse class="st1" cx="771.4" cy="1057.3" rx="6.5" ry="3.8"/>
					<path class="st1" d="M720.2,1054.6c-2.5,1.5-2.5,3.9,0,5.3c2.9,1.5,6.3,1.5,9.2,0c2.6-1.4,2.6-3.8,0-5.3
						C726.5,1053.1,723.1,1053.1,720.2,1054.6z"/>
					<ellipse class="st1" cx="678.2" cy="1057.3" rx="6.5" ry="3.8"/>
					<path class="st1" d="M627,1054.6c-2.5,1.5-2.5,3.9,0,5.3c2.9,1.5,6.3,1.5,9.2,0c2.6-1.4,2.6-3.8,0-5.3
						C633.3,1053.1,629.9,1053.1,627,1054.6z"/>
					<ellipse class="st1" cx="585" cy="1057.3" rx="6.5" ry="3.8"/>
					<ellipse class="st1" cx="538.5" cy="1057.3" rx="6.5" ry="3.8"/>
					<path class="st1" d="M487.3,1054.6c-2.6,1.5-2.6,3.9,0,5.3c2.9,1.5,6.3,1.5,9.2,0c2.5-1.4,2.5-3.8,0-5.3
						C493.6,1053.1,490.2,1053.1,487.3,1054.6z"/>
					<ellipse class="st1" cx="445.3" cy="1057.3" rx="6.5" ry="3.8"/>
					<path class="st1" d="M394.1,1054.6c-2.6,1.5-2.6,3.9,0,5.3c2.9,1.5,6.3,1.5,9.2,0c2.5-1.4,2.5-3.8,0-5.3
						C400.4,1053.1,397,1053.1,394.1,1054.6z"/>
					<ellipse class="st1" cx="818" cy="1057.3" rx="6.5" ry="3.8"/>
					<ellipse class="st1" cx="818" cy="1098.9" rx="6.5" ry="3.8"/>
					<ellipse class="st1" cx="771.4" cy="1098.9" rx="6.5" ry="3.8"/>
					<path class="st1" d="M720.2,1096.2c-2.5,1.5-2.5,3.9,0,5.3c2.9,1.5,6.3,1.5,9.2,0c2.6-1.4,2.6-3.8,0-5.3
						C726.5,1094.8,723.1,1094.8,720.2,1096.2z"/>
					<ellipse class="st1" cx="678.2" cy="1098.9" rx="6.5" ry="3.8"/>
					<path class="st1" d="M627,1096.2c-2.5,1.5-2.5,3.9,0,5.3c2.9,1.5,6.3,1.5,9.2,0c2.6-1.4,2.6-3.8,0-5.3
						C633.3,1094.8,629.9,1094.8,627,1096.2z"/>
					<ellipse class="st1" cx="585" cy="1098.9" rx="6.5" ry="3.8"/>
					<ellipse class="st1" cx="538.5" cy="1098.9" rx="6.5" ry="3.8"/>
					<path class="st1" d="M487.3,1096.2c-2.6,1.5-2.6,3.9,0,5.3c2.9,1.5,6.3,1.5,9.2,0c2.5-1.4,2.5-3.8,0-5.3
						C493.6,1094.8,490.2,1094.8,487.3,1096.2z"/>
					<ellipse class="st1" cx="445.3" cy="1098.9" rx="6.5" ry="3.8"/>
					<path class="st1" d="M394.1,1096.2c-2.6,1.5-2.6,3.9,0,5.3c2.9,1.5,6.3,1.5,9.2,0c2.5-1.4,2.5-3.8,0-5.3
						C400.4,1094.8,397,1094.8,394.1,1096.2z"/>
					<ellipse class="st1" cx="818" cy="1098.9" rx="6.5" ry="3.8"/>
				</g>
			</g>
			<g>
				<defs>
					<ellipse id="SVGID_3_" cx="461.5" cy="575.9" rx="220.8" ry="127.5"/>
				</defs>
				<clipPath id="SVGID_4_">
					<use xlink:href="#SVGID_3_"  style="overflow:visible;"/>
				</clipPath>
				<g class="st2">
					<ellipse class="st1" cx="6.5" cy="427.8" rx="6.5" ry="3.8"/>
					<ellipse class="st1" cx="53.1" cy="427.8" rx="6.5" ry="3.8"/>
					<ellipse class="st1" cx="99.7" cy="427.8" rx="6.5" ry="3.8"/>
					<ellipse class="st1" cx="146.3" cy="427.8" rx="6.5" ry="3.8"/>
					<ellipse class="st1" cx="192.9" cy="427.8" rx="6.5" ry="3.8"/>
					<ellipse class="st1" cx="239.5" cy="427.8" rx="6.5" ry="3.8"/>
					<ellipse class="st1" cx="286.1" cy="427.8" rx="6.5" ry="3.8"/>
					<ellipse class="st1" cx="332.6" cy="427.8" rx="6.5" ry="3.8"/>
					<ellipse class="st1" cx="379.2" cy="427.8" rx="6.5" ry="3.8"/>
					<ellipse class="st1" cx="425.8" cy="427.8" rx="6.5" ry="3.8"/>
					<ellipse class="st1" cx="6.5" cy="427.8" rx="6.5" ry="3.8"/>
					<ellipse class="st1" cx="6.5" cy="469.5" rx="6.5" ry="3.8"/>
					<ellipse class="st1" cx="53.1" cy="469.5" rx="6.5" ry="3.8"/>
					<ellipse class="st1" cx="99.7" cy="469.5" rx="6.5" ry="3.8"/>
					<ellipse class="st1" cx="146.3" cy="469.5" rx="6.5" ry="3.8"/>
					<ellipse class="st1" cx="192.9" cy="469.5" rx="6.5" ry="3.8"/>
					<ellipse class="st1" cx="239.5" cy="469.5" rx="6.5" ry="3.8"/>
					<ellipse class="st1" cx="286.1" cy="469.5" rx="6.5" ry="3.8"/>
					<ellipse class="st1" cx="332.6" cy="469.5" rx="6.5" ry="3.8"/>
					<ellipse class="st1" cx="379.2" cy="469.5" rx="6.5" ry="3.8"/>
					<ellipse class="st1" cx="425.8" cy="469.5" rx="6.5" ry="3.8"/>
					<ellipse class="st1" cx="6.5" cy="469.5" rx="6.5" ry="3.8"/>
					<ellipse class="st1" cx="6.5" cy="511.1" rx="6.5" ry="3.8"/>
					<ellipse class="st1" cx="53.1" cy="511.1" rx="6.5" ry="3.8"/>
					<ellipse class="st1" cx="99.7" cy="511.1" rx="6.5" ry="3.8"/>
					<ellipse class="st1" cx="146.3" cy="511.1" rx="6.5" ry="3.8"/>
					<ellipse class="st1" cx="192.9" cy="511.1" rx="6.5" ry="3.8"/>
					<ellipse class="st1" cx="239.5" cy="511.1" rx="6.5" ry="3.8"/>
					<ellipse class="st1" cx="286.1" cy="511.1" rx="6.5" ry="3.8"/>
					<ellipse class="st1" cx="332.6" cy="511.1" rx="6.5" ry="3.8"/>
					<ellipse class="st1" cx="379.2" cy="511.1" rx="6.5" ry="3.8"/>
					<ellipse class="st1" cx="425.8" cy="511.1" rx="6.5" ry="3.8"/>
					<ellipse class="st1" cx="6.5" cy="511.1" rx="6.5" ry="3.8"/>
					<ellipse class="st1" cx="6.5" cy="552.7" rx="6.5" ry="3.8"/>
					<ellipse class="st1" cx="53.1" cy="552.7" rx="6.5" ry="3.8"/>
					<ellipse class="st1" cx="99.7" cy="552.7" rx="6.5" ry="3.8"/>
					<ellipse class="st1" cx="146.3" cy="552.7" rx="6.5" ry="3.8"/>
					<ellipse class="st1" cx="192.9" cy="552.7" rx="6.5" ry="3.8"/>
					<ellipse class="st1" cx="239.5" cy="552.7" rx="6.5" ry="3.8"/>
					<ellipse class="st1" cx="286.1" cy="552.7" rx="6.5" ry="3.8"/>
					<ellipse class="st1" cx="332.6" cy="552.7" rx="6.5" ry="3.8"/>
					<ellipse class="st1" cx="379.2" cy="552.7" rx="6.5" ry="3.8"/>
					<ellipse class="st1" cx="425.8" cy="552.7" rx="6.5" ry="3.8"/>
					<ellipse class="st1" cx="6.5" cy="552.7" rx="6.5" ry="3.8"/>
					<ellipse class="st1" cx="6.5" cy="594.3" rx="6.5" ry="3.8"/>
					<ellipse class="st1" cx="53.1" cy="594.3" rx="6.5" ry="3.8"/>
					<ellipse class="st1" cx="99.7" cy="594.3" rx="6.5" ry="3.8"/>
					<ellipse class="st1" cx="146.3" cy="594.3" rx="6.5" ry="3.8"/>
					<ellipse class="st1" cx="192.9" cy="594.3" rx="6.5" ry="3.8"/>
					<ellipse class="st1" cx="239.5" cy="594.3" rx="6.5" ry="3.8"/>
					<ellipse class="st1" cx="286.1" cy="594.3" rx="6.5" ry="3.8"/>
					<ellipse class="st1" cx="332.6" cy="594.3" rx="6.5" ry="3.8"/>
					<ellipse class="st1" cx="379.2" cy="594.3" rx="6.5" ry="3.8"/>
					<ellipse class="st1" cx="425.8" cy="594.3" rx="6.5" ry="3.8"/>
					<ellipse class="st1" cx="6.5" cy="594.3" rx="6.5" ry="3.8"/>
					<path class="st1" d="M477,425.2c2.6,1.5,2.6,3.8,0,5.3c-2.9,1.5-6.3,1.5-9.2,0c-2.5-1.5-2.5-3.8,0-5.3
						C470.7,423.7,474.1,423.7,477,425.2z"/>
					<ellipse class="st1" cx="519" cy="427.8" rx="6.5" ry="3.8"/>
					<path class="st1" d="M570.2,425.2c2.5,1.5,2.5,3.8,0,5.3c-2.9,1.5-6.3,1.5-9.2,0c-2.6-1.5-2.6-3.8,0-5.3
						C563.9,423.7,567.3,423.7,570.2,425.2z"/>
					<ellipse class="st1" cx="612.2" cy="427.8" rx="6.5" ry="3.8"/>
					<ellipse class="st1" cx="658.8" cy="427.8" rx="6.5" ry="3.8"/>
					<path class="st1" d="M710,425.2c2.5,1.5,2.5,3.8,0,5.3c-2.9,1.5-6.3,1.5-9.2,0c-2.6-1.5-2.6-3.8,0-5.3
						C703.7,423.7,707.1,423.7,710,425.2z"/>
					<ellipse class="st1" cx="752" cy="427.8" rx="6.5" ry="3.8"/>
					<path class="st1" d="M803.2,425.2c2.5,1.5,2.5,3.8,0,5.3c-2.9,1.5-6.4,1.5-9.3,0c-2.5-1.5-2.5-3.8,0-5.3
						C796.8,423.7,800.3,423.7,803.2,425.2z"/>
					<ellipse class="st1" cx="845.1" cy="427.8" rx="6.5" ry="3.8"/>
					<ellipse class="st1" cx="891.7" cy="427.8" rx="6.5" ry="3.8"/>
					<path class="st1" d="M477,425.2c2.6,1.5,2.6,3.8,0,5.3c-2.9,1.5-6.3,1.5-9.2,0c-2.5-1.5-2.5-3.8,0-5.3
						C470.7,423.7,474.1,423.7,477,425.2z"/>
					<path class="st1" d="M477,466.8c2.6,1.5,2.6,3.8,0,5.3c-2.9,1.5-6.3,1.5-9.2,0c-2.5-1.5-2.5-3.8,0-5.3
						C470.7,465.3,474.1,465.3,477,466.8z"/>
					<ellipse class="st1" cx="519" cy="469.5" rx="6.5" ry="3.8"/>
					<path class="st1" d="M570.2,466.8c2.5,1.5,2.5,3.8,0,5.3c-2.9,1.5-6.3,1.5-9.2,0c-2.6-1.5-2.6-3.8,0-5.3
						C563.9,465.3,567.3,465.3,570.2,466.8z"/>
					<ellipse class="st1" cx="612.2" cy="469.5" rx="6.5" ry="3.8"/>
					<ellipse class="st1" cx="658.8" cy="469.5" rx="6.5" ry="3.8"/>
					<path class="st1" d="M710,466.8c2.5,1.5,2.5,3.8,0,5.3c-2.9,1.5-6.3,1.5-9.2,0c-2.6-1.5-2.6-3.8,0-5.3
						C703.7,465.3,707.1,465.3,710,466.8z"/>
					<ellipse class="st1" cx="752" cy="469.5" rx="6.5" ry="3.8"/>
					<path class="st1" d="M803.2,466.8c2.5,1.5,2.5,3.8,0,5.3c-2.9,1.5-6.4,1.5-9.3,0c-2.5-1.5-2.5-3.8,0-5.3
						C796.8,465.3,800.3,465.3,803.2,466.8z"/>
					<ellipse class="st1" cx="845.1" cy="469.5" rx="6.5" ry="3.8"/>
					<ellipse class="st1" cx="891.7" cy="469.5" rx="6.5" ry="3.8"/>
					<path class="st1" d="M477,466.8c2.6,1.5,2.6,3.8,0,5.3c-2.9,1.5-6.3,1.5-9.2,0c-2.5-1.5-2.5-3.8,0-5.3
						C470.7,465.3,474.1,465.3,477,466.8z"/>
					<path class="st1" d="M477,508.4c2.6,1.5,2.6,3.9,0,5.3c-2.9,1.5-6.3,1.5-9.2,0c-2.5-1.4-2.5-3.8,0-5.3
						C470.7,506.9,474.1,506.9,477,508.4z"/>
					<ellipse class="st1" cx="519" cy="511.1" rx="6.5" ry="3.8"/>
					<path class="st1" d="M570.2,508.4c2.5,1.5,2.5,3.9,0,5.3c-2.9,1.5-6.3,1.5-9.2,0c-2.6-1.4-2.6-3.8,0-5.3
						C563.9,506.9,567.3,506.9,570.2,508.4z"/>
					<ellipse class="st1" cx="612.2" cy="511.1" rx="6.5" ry="3.8"/>
					<ellipse class="st1" cx="658.8" cy="511.1" rx="6.5" ry="3.8"/>
					<path class="st1" d="M710,508.4c2.5,1.5,2.5,3.9,0,5.3c-2.9,1.5-6.3,1.5-9.2,0c-2.6-1.4-2.6-3.8,0-5.3
						C703.7,506.9,707.1,506.9,710,508.4z"/>
					<ellipse class="st1" cx="752" cy="511.1" rx="6.5" ry="3.8"/>
					<path class="st1" d="M803.2,508.4c2.5,1.5,2.5,3.9,0,5.3c-2.9,1.5-6.4,1.5-9.3,0c-2.5-1.4-2.5-3.8,0-5.3
						C796.8,506.9,800.3,506.9,803.2,508.4z"/>
					<ellipse class="st1" cx="845.1" cy="511.1" rx="6.5" ry="3.8"/>
					<ellipse class="st1" cx="891.7" cy="511.1" rx="6.5" ry="3.8"/>
					<path class="st1" d="M477,508.4c2.6,1.5,2.6,3.9,0,5.3c-2.9,1.5-6.3,1.5-9.2,0c-2.5-1.4-2.5-3.8,0-5.3
						C470.7,506.9,474.1,506.9,477,508.4z"/>
					<path class="st1" d="M477,550c2.6,1.5,2.6,3.9,0,5.3c-2.9,1.5-6.3,1.5-9.2,0c-2.5-1.4-2.5-3.8,0-5.3
						C470.7,548.6,474.1,548.6,477,550z"/>
					<ellipse class="st1" cx="519" cy="552.7" rx="6.5" ry="3.8"/>
					<path class="st1" d="M570.2,550c2.5,1.5,2.5,3.9,0,5.3c-2.9,1.5-6.3,1.5-9.2,0c-2.6-1.4-2.6-3.8,0-5.3
						C563.9,548.6,567.3,548.6,570.2,550z"/>
					<ellipse class="st1" cx="612.2" cy="552.7" rx="6.5" ry="3.8"/>
					<ellipse class="st1" cx="658.8" cy="552.7" rx="6.5" ry="3.8"/>
					<path class="st1" d="M710,550c2.5,1.5,2.5,3.9,0,5.3c-2.9,1.5-6.3,1.5-9.2,0c-2.6-1.4-2.6-3.8,0-5.3
						C703.7,548.6,707.1,548.6,710,550z"/>
					<ellipse class="st1" cx="752" cy="552.7" rx="6.5" ry="3.8"/>
					<path class="st1" d="M803.2,550c2.5,1.5,2.5,3.9,0,5.3c-2.9,1.5-6.4,1.5-9.3,0c-2.5-1.4-2.5-3.8,0-5.3
						C796.8,548.6,800.3,548.6,803.2,550z"/>
					<ellipse class="st1" cx="845.1" cy="552.7" rx="6.5" ry="3.8"/>
					<ellipse class="st1" cx="891.7" cy="552.7" rx="6.5" ry="3.8"/>
					<path class="st1" d="M477,550c2.6,1.5,2.6,3.9,0,5.3c-2.9,1.5-6.3,1.5-9.2,0c-2.5-1.4-2.5-3.8,0-5.3
						C470.7,548.6,474.1,548.6,477,550z"/>
					<path class="st1" d="M477,591.6c2.6,1.5,2.6,3.9,0,5.4c-2.9,1.4-6.3,1.4-9.2,0c-2.5-1.5-2.5-3.9,0-5.4
						C470.7,590.2,474.1,590.2,477,591.6z"/>
					<ellipse class="st1" cx="519" cy="594.3" rx="6.5" ry="3.8"/>
					<path class="st1" d="M570.2,591.6c2.5,1.5,2.5,3.9,0,5.4c-2.9,1.4-6.3,1.4-9.2,0c-2.6-1.5-2.6-3.9,0-5.4
						C563.9,590.2,567.3,590.2,570.2,591.6z"/>
					<ellipse class="st1" cx="612.2" cy="594.3" rx="6.5" ry="3.8"/>
					<ellipse class="st1" cx="658.8" cy="594.3" rx="6.5" ry="3.8"/>
					<path class="st1" d="M710,591.6c2.5,1.5,2.5,3.9,0,5.4c-2.9,1.4-6.3,1.4-9.2,0c-2.6-1.5-2.6-3.9,0-5.4
						C703.7,590.2,707.1,590.2,710,591.6z"/>
					<ellipse class="st1" cx="752" cy="594.3" rx="6.5" ry="3.8"/>
					<path class="st1" d="M803.2,591.6c2.5,1.5,2.5,3.9,0,5.4c-2.9,1.4-6.4,1.4-9.3,0c-2.5-1.5-2.5-3.9,0-5.4
						C796.8,590.2,800.3,590.2,803.2,591.6z"/>
					<ellipse class="st1" cx="845.1" cy="594.3" rx="6.5" ry="3.8"/>
					<ellipse class="st1" cx="891.7" cy="594.3" rx="6.5" ry="3.8"/>
					<path class="st1" d="M477,591.6c2.6,1.5,2.6,3.9,0,5.4c-2.9,1.4-6.3,1.4-9.2,0c-2.5-1.5-2.5-3.9,0-5.4
						C470.7,590.2,474.1,590.2,477,591.6z"/>
					<ellipse class="st1" cx="6.5" cy="636" rx="6.5" ry="3.8"/>
					<ellipse class="st1" cx="53.1" cy="636" rx="6.5" ry="3.8"/>
					<ellipse class="st1" cx="99.7" cy="636" rx="6.5" ry="3.8"/>
					<ellipse class="st1" cx="146.3" cy="636" rx="6.5" ry="3.8"/>
					<ellipse class="st1" cx="192.9" cy="636" rx="6.5" ry="3.8"/>
					<ellipse class="st1" cx="239.5" cy="636" rx="6.5" ry="3.8"/>
					<ellipse class="st1" cx="286.1" cy="636" rx="6.5" ry="3.8"/>
					<ellipse class="st1" cx="332.6" cy="636" rx="6.5" ry="3.8"/>
					<ellipse class="st1" cx="379.2" cy="636" rx="6.5" ry="3.8"/>
					<ellipse class="st1" cx="425.8" cy="636" rx="6.5" ry="3.8"/>
					<ellipse class="st1" cx="6.5" cy="636" rx="6.5" ry="3.8"/>
					<ellipse class="st1" cx="6.5" cy="677.6" rx="6.5" ry="3.8"/>
					<ellipse class="st1" cx="53.1" cy="677.6" rx="6.5" ry="3.8"/>
					<ellipse class="st1" cx="99.7" cy="677.6" rx="6.5" ry="3.8"/>
					<ellipse class="st1" cx="146.3" cy="677.6" rx="6.5" ry="3.8"/>
					<ellipse class="st1" cx="192.9" cy="677.6" rx="6.5" ry="3.8"/>
					<ellipse class="st1" cx="239.5" cy="677.6" rx="6.5" ry="3.8"/>
					<ellipse class="st1" cx="286.1" cy="677.6" rx="6.5" ry="3.8"/>
					<ellipse class="st1" cx="332.6" cy="677.6" rx="6.5" ry="3.8"/>
					<ellipse class="st1" cx="379.2" cy="677.6" rx="6.5" ry="3.8"/>
					<ellipse class="st1" cx="425.8" cy="677.6" rx="6.5" ry="3.8"/>
					<ellipse class="st1" cx="6.5" cy="677.6" rx="6.5" ry="3.8"/>
					<ellipse class="st1" cx="6.5" cy="719.2" rx="6.5" ry="3.8"/>
					<ellipse class="st1" cx="53.1" cy="719.2" rx="6.5" ry="3.8"/>
					<ellipse class="st1" cx="99.7" cy="719.2" rx="6.5" ry="3.8"/>
					<ellipse class="st1" cx="146.3" cy="719.2" rx="6.5" ry="3.8"/>
					<ellipse class="st1" cx="192.9" cy="719.2" rx="6.5" ry="3.8"/>
					<ellipse class="st1" cx="239.5" cy="719.2" rx="6.5" ry="3.8"/>
					<ellipse class="st1" cx="286.1" cy="719.2" rx="6.5" ry="3.8"/>
					<ellipse class="st1" cx="332.6" cy="719.2" rx="6.5" ry="3.8"/>
					<ellipse class="st1" cx="379.2" cy="719.2" rx="6.5" ry="3.8"/>
					<ellipse class="st1" cx="425.8" cy="719.2" rx="6.5" ry="3.8"/>
					<ellipse class="st1" cx="6.5" cy="719.2" rx="6.5" ry="3.8"/>
					<path class="st1" d="M11.1,758.2c2.6,1.5,2.6,3.8,0,5.3c-2.9,1.5-6.3,1.5-9.2,0c-2.5-1.5-2.5-3.8,0-5.3
						C4.8,756.7,8.2,756.7,11.1,758.2z"/>
					<path class="st1" d="M57.7,758.2c2.5,1.5,2.5,3.8,0,5.3c-2.9,1.5-6.3,1.5-9.2,0c-2.6-1.5-2.6-3.8,0-5.3
						C51.4,756.7,54.8,756.7,57.7,758.2z"/>
					<path class="st1" d="M104.3,758.2c2.5,1.5,2.5,3.8,0,5.3c-2.9,1.5-6.3,1.5-9.2,0c-2.6-1.5-2.6-3.8,0-5.3
						C98,756.7,101.4,756.7,104.3,758.2z"/>
					<path class="st1" d="M150.9,758.2c2.5,1.5,2.5,3.8,0,5.3c-2.9,1.5-6.3,1.5-9.2,0c-2.6-1.5-2.6-3.8,0-5.3
						C144.6,756.7,148,756.7,150.9,758.2z"/>
					<path class="st1" d="M197.5,758.2c2.5,1.5,2.5,3.8,0,5.3c-2.9,1.5-6.3,1.5-9.2,0c-2.6-1.5-2.6-3.8,0-5.3
						C191.2,756.7,194.6,756.7,197.5,758.2z"/>
					<path class="st1" d="M244.1,758.2c2.5,1.5,2.5,3.8,0,5.3c-2.9,1.5-6.3,1.5-9.2,0c-2.6-1.5-2.6-3.8,0-5.3
						C237.8,756.7,241.2,756.7,244.1,758.2z"/>
					<path class="st1" d="M290.7,758.2c2.5,1.5,2.5,3.8,0,5.3c-2.9,1.5-6.4,1.5-9.3,0c-2.5-1.5-2.5-3.8,0-5.3
						C284.3,756.7,287.8,756.7,290.7,758.2z"/>
					<path class="st1" d="M337.2,758.2c2.6,1.5,2.6,3.8,0,5.3c-2.9,1.5-6.3,1.5-9.2,0c-2.5-1.5-2.5-3.8,0-5.3
						C330.9,756.7,334.3,756.7,337.2,758.2z"/>
					<path class="st1" d="M383.8,758.2c2.6,1.5,2.6,3.8,0,5.3c-2.9,1.5-6.3,1.5-9.2,0c-2.5-1.5-2.5-3.8,0-5.3
						C377.5,756.7,380.9,756.7,383.8,758.2z"/>
					<path class="st1" d="M430.4,758.2c2.6,1.5,2.6,3.8,0,5.3c-2.9,1.5-6.3,1.5-9.2,0c-2.5-1.5-2.5-3.8,0-5.3
						C424.1,756.7,427.5,756.7,430.4,758.2z"/>
					<path class="st1" d="M11.1,758.2c2.6,1.5,2.6,3.8,0,5.3c-2.9,1.5-6.3,1.5-9.2,0c-2.5-1.5-2.5-3.8,0-5.3
						C4.8,756.7,8.2,756.7,11.1,758.2z"/>
					<ellipse class="st1" cx="6.5" cy="802.5" rx="6.5" ry="3.8"/>
					<ellipse class="st1" cx="53.1" cy="802.5" rx="6.5" ry="3.8"/>
					<ellipse class="st1" cx="99.7" cy="802.5" rx="6.5" ry="3.8"/>
					<ellipse class="st1" cx="146.3" cy="802.5" rx="6.5" ry="3.8"/>
					<ellipse class="st1" cx="192.9" cy="802.5" rx="6.5" ry="3.8"/>
					<ellipse class="st1" cx="239.5" cy="802.5" rx="6.5" ry="3.8"/>
					<ellipse class="st1" cx="286.1" cy="802.5" rx="6.5" ry="3.8"/>
					<ellipse class="st1" cx="332.6" cy="802.5" rx="6.5" ry="3.8"/>
					<ellipse class="st1" cx="379.2" cy="802.5" rx="6.5" ry="3.8"/>
					<ellipse class="st1" cx="425.8" cy="802.5" rx="6.5" ry="3.8"/>
					<ellipse class="st1" cx="6.5" cy="802.5" rx="6.5" ry="3.8"/>
					<path class="st1" d="M477,633.3c2.6,1.5,2.6,3.9,0,5.4c-2.9,1.4-6.3,1.4-9.2,0c-2.5-1.5-2.5-3.9,0-5.4
						C470.7,631.9,474.1,631.9,477,633.3z"/>
					<ellipse class="st1" cx="519" cy="636" rx="6.5" ry="3.8"/>
					<path class="st1" d="M570.2,633.3c2.5,1.5,2.5,3.9,0,5.4c-2.9,1.4-6.3,1.4-9.2,0c-2.6-1.5-2.6-3.9,0-5.4
						C563.9,631.9,567.3,631.9,570.2,633.3z"/>
					<ellipse class="st1" cx="612.2" cy="636" rx="6.5" ry="3.8"/>
					<ellipse class="st1" cx="658.8" cy="636" rx="6.5" ry="3.8"/>
					<path class="st1" d="M710,633.3c2.5,1.5,2.5,3.9,0,5.4c-2.9,1.4-6.3,1.4-9.2,0c-2.6-1.5-2.6-3.9,0-5.4
						C703.7,631.9,707.1,631.9,710,633.3z"/>
					<ellipse class="st1" cx="752" cy="636" rx="6.5" ry="3.8"/>
					<path class="st1" d="M803.2,633.3c2.5,1.5,2.5,3.9,0,5.4c-2.9,1.4-6.4,1.4-9.3,0c-2.5-1.5-2.5-3.9,0-5.4
						C796.8,631.9,800.3,631.9,803.2,633.3z"/>
					<ellipse class="st1" cx="845.1" cy="636" rx="6.5" ry="3.8"/>
					<ellipse class="st1" cx="891.7" cy="636" rx="6.5" ry="3.8"/>
					<path class="st1" d="M477,633.3c2.6,1.5,2.6,3.9,0,5.4c-2.9,1.4-6.3,1.4-9.2,0c-2.5-1.5-2.5-3.9,0-5.4
						C470.7,631.9,474.1,631.9,477,633.3z"/>
					<path class="st1" d="M477,675c2.6,1.4,2.6,3.8,0,5.3c-2.9,1.4-6.3,1.4-9.2,0c-2.5-1.5-2.5-3.9,0-5.3
						C470.7,673.5,474.1,673.5,477,675z"/>
					<ellipse class="st1" cx="519" cy="677.6" rx="6.5" ry="3.8"/>
					<path class="st1" d="M570.2,675c2.5,1.4,2.5,3.8,0,5.3c-2.9,1.4-6.3,1.4-9.2,0c-2.6-1.5-2.6-3.9,0-5.3
						C563.9,673.5,567.3,673.5,570.2,675z"/>
					<ellipse class="st1" cx="612.2" cy="677.6" rx="6.5" ry="3.8"/>
					<ellipse class="st1" cx="658.8" cy="677.6" rx="6.5" ry="3.8"/>
					<path class="st1" d="M710,675c2.5,1.4,2.5,3.8,0,5.3c-2.9,1.4-6.3,1.4-9.2,0c-2.6-1.5-2.6-3.9,0-5.3
						C703.7,673.5,707.1,673.5,710,675z"/>
					<ellipse class="st1" cx="752" cy="677.6" rx="6.5" ry="3.8"/>
					<path class="st1" d="M803.2,675c2.5,1.4,2.5,3.8,0,5.3c-2.9,1.4-6.4,1.4-9.3,0c-2.5-1.5-2.5-3.9,0-5.3
						C796.8,673.5,800.3,673.5,803.2,675z"/>
					<ellipse class="st1" cx="845.1" cy="677.6" rx="6.5" ry="3.8"/>
					<ellipse class="st1" cx="891.7" cy="677.6" rx="6.5" ry="3.8"/>
					<path class="st1" d="M477,675c2.6,1.4,2.6,3.8,0,5.3c-2.9,1.4-6.3,1.4-9.2,0c-2.5-1.5-2.5-3.9,0-5.3
						C470.7,673.5,474.1,673.5,477,675z"/>
					<path class="st1" d="M477,716.6c2.6,1.4,2.6,3.8,0,5.3c-2.9,1.5-6.3,1.5-9.2,0c-2.5-1.5-2.5-3.9,0-5.3
						C470.7,715.1,474.1,715.1,477,716.6z"/>
					<ellipse class="st1" cx="519" cy="719.2" rx="6.5" ry="3.8"/>
					<path class="st1" d="M570.2,716.6c2.5,1.4,2.5,3.8,0,5.3c-2.9,1.5-6.3,1.5-9.2,0c-2.6-1.5-2.6-3.9,0-5.3
						C563.9,715.1,567.3,715.1,570.2,716.6z"/>
					<ellipse class="st1" cx="612.2" cy="719.2" rx="6.5" ry="3.8"/>
					<ellipse class="st1" cx="658.8" cy="719.2" rx="6.5" ry="3.8"/>
					<path class="st1" d="M710,716.6c2.5,1.4,2.5,3.8,0,5.3c-2.9,1.5-6.3,1.5-9.2,0c-2.6-1.5-2.6-3.9,0-5.3
						C703.7,715.1,707.1,715.1,710,716.6z"/>
					<ellipse class="st1" cx="752" cy="719.2" rx="6.5" ry="3.8"/>
					<path class="st1" d="M803.2,716.6c2.5,1.4,2.5,3.8,0,5.3c-2.9,1.5-6.4,1.5-9.3,0c-2.5-1.5-2.5-3.9,0-5.3
						C796.8,715.1,800.3,715.1,803.2,716.6z"/>
					<ellipse class="st1" cx="845.1" cy="719.2" rx="6.5" ry="3.8"/>
					<ellipse class="st1" cx="891.7" cy="719.2" rx="6.5" ry="3.8"/>
					<path class="st1" d="M477,716.6c2.6,1.4,2.6,3.8,0,5.3c-2.9,1.5-6.3,1.5-9.2,0c-2.5-1.5-2.5-3.9,0-5.3
						C470.7,715.1,474.1,715.1,477,716.6z"/>
					<path class="st1" d="M477,758.2c2.6,1.5,2.6,3.8,0,5.3c-2.9,1.5-6.3,1.5-9.2,0c-2.5-1.5-2.5-3.8,0-5.3
						C470.7,756.7,474.1,756.7,477,758.2z"/>
					<path class="st1" d="M523.6,758.2c2.6,1.5,2.6,3.8,0,5.3c-2.9,1.5-6.3,1.5-9.2,0c-2.5-1.5-2.5-3.8,0-5.3
						C517.3,756.7,520.7,756.7,523.6,758.2z"/>
					<path class="st1" d="M570.2,758.2c2.5,1.5,2.5,3.8,0,5.3c-2.9,1.5-6.3,1.5-9.2,0c-2.6-1.5-2.6-3.8,0-5.3
						C563.9,756.7,567.3,756.7,570.2,758.2z"/>
					<path class="st1" d="M616.8,758.2c2.5,1.5,2.5,3.8,0,5.3c-2.9,1.5-6.3,1.5-9.2,0c-2.6-1.5-2.6-3.8,0-5.3
						C610.5,756.7,613.9,756.7,616.8,758.2z"/>
					<path class="st1" d="M663.4,758.2c2.5,1.5,2.5,3.8,0,5.3c-2.9,1.5-6.3,1.5-9.2,0c-2.6-1.5-2.6-3.8,0-5.3
						C657.1,756.7,660.5,756.7,663.4,758.2z"/>
					<path class="st1" d="M710,758.2c2.5,1.5,2.5,3.8,0,5.3c-2.9,1.5-6.3,1.5-9.2,0c-2.6-1.5-2.6-3.8,0-5.3
						C703.7,756.7,707.1,756.7,710,758.2z"/>
					<path class="st1" d="M756.6,758.2c2.5,1.5,2.5,3.8,0,5.3c-2.9,1.5-6.4,1.5-9.3,0c-2.5-1.5-2.5-3.8,0-5.3
						C750.2,756.7,753.7,756.7,756.6,758.2z"/>
					<path class="st1" d="M803.2,758.2c2.5,1.5,2.5,3.8,0,5.3c-2.9,1.5-6.4,1.5-9.3,0c-2.5-1.5-2.5-3.8,0-5.3
						C796.8,756.7,800.3,756.7,803.2,758.2z"/>
					<path class="st1" d="M849.7,758.2c2.6,1.5,2.6,3.8,0,5.3c-2.9,1.5-6.3,1.5-9.2,0c-2.5-1.5-2.5-3.8,0-5.3
						C843.4,756.7,846.8,756.7,849.7,758.2z"/>
					<path class="st1" d="M896.3,758.2c2.6,1.5,2.6,3.8,0,5.3c-2.9,1.5-6.3,1.5-9.2,0c-2.5-1.5-2.5-3.8,0-5.3
						C890,756.7,893.4,756.7,896.3,758.2z"/>
					<path class="st1" d="M477,758.2c2.6,1.5,2.6,3.8,0,5.3c-2.9,1.5-6.3,1.5-9.2,0c-2.5-1.5-2.5-3.8,0-5.3
						C470.7,756.7,474.1,756.7,477,758.2z"/>
					<path class="st1" d="M477,799.8c2.6,1.5,2.6,3.8,0,5.3c-2.9,1.5-6.3,1.5-9.2,0c-2.5-1.5-2.5-3.8,0-5.3
						C470.7,798.3,474.1,798.3,477,799.8z"/>
					<ellipse class="st1" cx="519" cy="802.5" rx="6.5" ry="3.8"/>
					<path class="st1" d="M570.2,799.8c2.5,1.5,2.5,3.8,0,5.3c-2.9,1.5-6.3,1.5-9.2,0c-2.6-1.5-2.6-3.8,0-5.3
						C563.9,798.3,567.3,798.3,570.2,799.8z"/>
					<ellipse class="st1" cx="612.2" cy="802.5" rx="6.5" ry="3.8"/>
					<ellipse class="st1" cx="658.8" cy="802.5" rx="6.5" ry="3.8"/>
					<path class="st1" d="M710,799.8c2.5,1.5,2.5,3.8,0,5.3c-2.9,1.5-6.3,1.5-9.2,0c-2.6-1.5-2.6-3.8,0-5.3
						C703.7,798.3,707.1,798.3,710,799.8z"/>
					<ellipse class="st1" cx="752" cy="802.5" rx="6.5" ry="3.8"/>
					<path class="st1" d="M803.2,799.8c2.5,1.5,2.5,3.8,0,5.3c-2.9,1.5-6.4,1.5-9.3,0c-2.5-1.5-2.5-3.8,0-5.3
						C796.8,798.3,800.3,798.3,803.2,799.8z"/>
					<ellipse class="st1" cx="845.1" cy="802.5" rx="6.5" ry="3.8"/>
					<ellipse class="st1" cx="891.7" cy="802.5" rx="6.5" ry="3.8"/>
					<path class="st1" d="M477,799.8c2.6,1.5,2.6,3.8,0,5.3c-2.9,1.5-6.3,1.5-9.2,0c-2.5-1.5-2.5-3.8,0-5.3
						C470.7,798.3,474.1,798.3,477,799.8z"/>
				</g>
			</g>
			<path class="st1" d="M647.9,43.9l-53.8-31.1l-17-9.7l0,0l-0.7-0.3l0,0c-9.6-5.3-24.4-2.9-40.2,8.5l-7.6,5.5
				c-12.2,8.9-24.5,12.7-34.2,10.7l-43.6-9c-16-3.3-38.6,9.5-54.8,31.2L347.8,114c-10.1,13.3-22.9,23.8-35.3,28.6l0,0
				c-27.6,10.8-53.1,46.8-53.1,74.8v53.4c0,81.1,29.5,141.7,81.8,171.8l0,0l61.5,35l-12-17.2c21.2,1.9,49.3-15.2,69.6-42.9l0,0
				c80.5-109.9,127.4-233.8,127.4-336.3v-1.8L647.9,43.9z"/>
			<path class="st3" d="M531.7,458.6L531.7,458.6c-21.6,29.4-51.9,47-73.5,42.4l0,0c-80.4-17-127.4-86.7-127.4-189.1v-53.3
				c0-28.1,25.5-64,53.1-74.8l0,0c12.4-4.9,25.2-15.3,35.3-28.8l48.2-64.3c16.2-21.7,38.7-34.5,54.8-31.1l43.5,9
				c9.7,2,22.1-1.9,34.3-10.7l7.6-5.5c27.1-19.7,51.5-12.7,51.5,14.7v55.3C659.1,224.8,612.1,348.7,531.7,458.6z"/>
			<path class="st1" d="M465.3,503.2c-2.5,0-5-0.2-7.4-0.7c-39.9-8.4-72.6-30.3-94.8-63.2s-33.8-76.8-33.8-127.4v-53.3
				c0-28.8,25.8-65.1,54.1-76.2c12.1-4.8,24.7-15.1,34.6-28.3l48.2-64.3c16.5-22.1,39.7-35.1,56.3-31.7l43.5,9
				c9.3,1.9,21.3-1.9,33.1-10.4l7.6-5.6c15.2-11,30.6-14.3,41.3-8.9c8.1,4.2,12.6,13,12.6,24.9v55.3c0,50.4-11.6,107.8-33.6,165.8
				s-54.6,117.3-94.1,171.3C513.3,486.3,486.6,503.2,465.3,503.2z M516.9,60.5c-15,0-34.1,12.1-48.3,31.1l-48.2,64.3
				c-10.2,13.6-23.3,24.3-36,29.3c-12.7,5-26.1,16.1-36.2,30.4s-15.9,29.9-15.9,43v53.3c0,102.3,46,170.7,126.2,187.7
				c21.1,4.4,50.7-12.8,72-41.9l1.2,0.9l-1.2-0.9c80.8-110.3,127.1-232.5,127.1-335.3V67.1c0-10.7-3.9-18.6-11-22.2
				c-9.6-4.9-23.8-1.7-38.1,8.7l-7.6,5.5c-12.5,9-25.4,13-35.5,10.9l-43.5-9C520.3,60.7,518.6,60.5,516.9,60.5z"/>
			
				<ellipse transform="matrix(0.6004 -0.7997 0.7997 0.6004 -3.697 521.3198)" class="st4" cx="519.8" cy="264.4" rx="115.8" ry="65.5"/>
			<path class="st1" d="M476.3,366.8c-8.1,0.2-16.1-1.8-23.1-5.8c-14.1-8.1-22-24.5-22-46c0-48.5,39.5-110.8,87.9-138.7
				c25.8-14.9,50.4-17.8,67.4-8c14.2,8.2,22,24.6,22,46.1c0,48.5-39.4,110.7-87.9,138.7C504.9,362.2,489.7,366.8,476.3,366.8z
				 M563.4,165.6c-12.8,0-27.5,4.4-42.8,13.2c-47.6,27.5-86.4,88.6-86.4,136.2c0,20.4,7.3,35.8,20.5,43.4
				c16.1,9.3,39.6,6.5,64.4-7.9c47.7-27.5,86.4-88.6,86.4-136.1c0-20.4-7.3-35.8-20.5-43.5C578.8,167.3,571.5,165.6,563.4,165.6
				L563.4,165.6z"/>
			<path class="st5" d="M509.7,320.3c-1,0-1.9-0.4-2.7-1l-38.2-28.5c-2.2-1.3-2.9-4.1-1.6-6.3c1.3-2.2,4.1-2.9,6.3-1.6
				c0.3,0.2,0.6,0.4,0.8,0.6l34.1,25.6l66.4-111.8c1.3-2.1,4.1-2.8,6.3-1.5c2.1,1.3,2.8,4.1,1.5,6.2c0,0,0,0,0,0l-69,116
				c-0.6,1.1-1.7,1.9-3,2.2L509.7,320.3z"/>
			<path class="st6" d="M573.2,313.3l-13.8-11.7c-1.1-1-2.1-2.1-2.7-3.5l-0.8-1.5c-1.1-2.2-0.8-4.9,0.7-6.9l4.5-5.8
				c0.1-0.2,0.3-0.3,0.5-0.4l7.5-3.3c0.6-0.2,0.9-0.9,0.7-1.5l-9.7-22.7c-0.2-0.6,0-1.2,0.6-1.5l0,0c1.4-0.7,3.2-0.2,4,1.2l11.8,20
				l0.2,0.2l7,7.4c0.5,0.4,1.3,0.4,1.7-0.1c0.2-0.2,0.3-0.5,0.3-0.8l-0.3-10.3c-0.1-2.3,1.4-4.4,3.6-5.1h0.2
				c0.6-0.2,1.2,0.1,1.4,0.6c0.1,0.2,0.1,0.3,0.1,0.5v6.4c-0.1,1.9,0.2,3.8,0.8,5.6l1.9,6c0.6,2,0.4,4.1-0.6,5.9l-3.1,5.6
				c-0.1,0.3-0.2,0.6-0.1,0.9l1.7,6.5c0.2,0.6-0.1,1.2-0.6,1.4l-16.2,7.1C574.1,313.7,573.5,313.6,573.2,313.3z"/>
			<path class="st1" d="M573.9,315.1c-0.6,0-1.2-0.2-1.7-0.6l-13.8-11.8c-1.3-1.1-2.3-2.4-3.1-3.9l-0.7-1.5c-1.4-2.8-1.1-6,0.8-8.5
				l4.5-5.8c0.3-0.4,0.7-0.7,1.1-0.8l7.2-3.2l-9.4-22.4c-0.6-1.2-0.1-2.7,1.1-3.4c0,0,0.1,0,0.1,0c2.1-1.1,4.8-0.4,6,1.7l11.8,20
				l6.4,6.7l-0.3-9.5c-0.1-2.9,1.8-5.6,4.6-6.5h0.2c0.8-0.2,1.7-0.1,2.4,0.4c0.7,0.5,1.1,1.3,1.1,2.2v6.4c-0.1,1.7,0.2,3.5,0.7,5.1
				l1.9,6.1c0.8,2.3,0.5,4.8-0.6,7l-3.1,5.5l1.7,6.5c0.3,1.3-0.3,2.5-1.5,3.1l-16.2,7.1L573.9,315.1z M562.3,284.9l-4.5,5.7
				c-1.2,1.5-1.4,3.7-0.5,5.4l0.7,1.5c0.6,1.1,1.4,2.1,2.3,2.9l13.7,11.7l15.7-6.9l-1.7-6.3c-0.1-0.7,0-1.4,0.3-2l3.1-5.7
				c0.8-1.4,1-3.1,0.5-4.6l-1.9-6.1c-0.7-1.9-1-4-0.9-6v-6c-1.4,0.6-2.3,2-2.3,3.5l0.3,10.4c0,1.1-0.6,2.1-1.6,2.5
				c-1,0.5-2.2,0.2-3-0.6l-7-7.4l-0.4-0.5l-11.8-20c-0.3-0.6-1-0.9-1.7-0.7l9.4,22.4c0.6,1.3,0,2.8-1.3,3.4c0,0-0.1,0-0.1,0.1
				L562.3,284.9z"/>
			<path class="st7" d="M847.4,369.8L861,456c1,6.4-0.6,12.9-4.4,18.1l-33.7,46.5L807,487.5l24.7-41L807,369.8H847.4z"/>
			<path class="st1" d="M822.9,522.1h-0.2c-0.5-0.1-1-0.4-1.2-0.9l-15.9-33c-0.2-0.5-0.2-1,0.1-1.5l24.4-40.4l-24.6-76
				c-0.1-0.5,0-1,0.2-1.4c0.3-0.4,0.8-0.6,1.3-0.6h40.4c0.8-0.1,1.4,0.5,1.5,1.3c0,0,0,0,0,0l13.5,86.2c1.1,6.8-0.5,13.7-4.6,19.2
				l-33.7,46.5C823.8,521.9,823.4,522.1,822.9,522.1z M808.7,487.6l14.4,30.1l32.3-44.5c3.6-4.9,5-11,4.1-17l-13.4-84.9H809
				l24.1,74.8c0.2,0.4,0.1,0.8-0.1,1.2L808.7,487.6z"/>
			<path class="st8" d="M793.6,843.2v-0.9l-9-31.6h-28.2l0.4,3.7l1.3,11.6c-7.7-2.5-16.2-1.2-22.9,3.3l-2.8,2.3
				c-2.8,2.2-3.2,6.2-1.1,9c0.9,1.1,2,1.9,3.4,2.2l38.6,13.6c9.5,4.2,20.3-2.5,20.3-12.7l0,0V843.2z"/>
			<path class="st8" d="M838.6,798.7L838.6,798.7c-0.2,7.9-6.7,14.2-14.6,14c-2,0-3.9-0.5-5.7-1.3l-37.6-13.1c-0.9-2.5,0-5.4,2.1-7
				l2.8-2.2c7.1-4.8,16-5.9,24-3l28.7,10.6c0,0.2,0.1,0.5,0.1,0.7C838.5,797.8,838.6,798.3,838.6,798.7z"/>
			<path class="st8" d="M844,802.9V802l-9-31.6h-28.2l0.4,3.7l1.3,11.6c-7.8-2.4-16.2-1.2-22.9,3.4l-2.8,2.2c-2.1,1.6-3,4.5-2.1,7
				c0.6,2.1,2.3,3.7,4.4,4.3l38.6,13.5c9.5,4.3,20.3-2.5,20.3-12.7l0,0V802.9z"/>
			<path class="st1" d="M779.3,859.2c-2.2,0-4.5-0.5-6.5-1.4l-38.6-13.5c-2.5-0.8-4.5-2.7-5.3-5.2c-1.1-3.2,0-6.7,2.6-8.7l2.8-2.3
				h0.1c6.4-4.4,14.4-5.9,22-4.1l-1.5-13.2c-0.1-0.4,0.1-0.8,0.4-1.1c0.2-0.4,0.6-0.5,1.1-0.5h28.2c0.7,0,1.3,0.4,1.5,1.1l8.9,31.6
				c0.1,0.1,0.1,0.2,0.1,0.3v1.5c0,5.2-2.7,10.1-7.1,12.9C785.4,858.3,782.4,859.2,779.3,859.2z M736.1,830.5l-2.7,2.2
				c-1.7,1.3-2.3,3.4-1.7,5.4c0.5,1.6,1.8,2.8,3.4,3.3l38.7,13.6h0.1c4,1.8,8.7,1.5,12.4-0.9c3.6-2.2,5.8-6.2,5.8-10.4l0,0v-1
				l-8.6-30.4H758l1.6,13.6c0,0.5-0.2,0.9-0.5,1.3c-0.4,0.4-1,0.5-1.5,0.3C750.3,825.2,742.4,826.3,736.1,830.5L736.1,830.5z"/>
			<path class="st1" d="M829.7,818.9c-2.3,0-4.5-0.5-6.6-1.4L784.6,804c-2.6-0.7-4.6-2.7-5.4-5.2c-1-3.2,0.1-6.7,2.7-8.7l2.8-2.2
				l0,0c6.5-4.3,14.4-5.8,22-4.1l-1.4-13.1c-0.1-0.4,0-0.9,0.3-1.2c0.3-0.3,0.7-0.5,1.2-0.5H835c0.7-0.1,1.3,0.4,1.4,1.1l9,31.6
				c0.1,0.1,0.1,0.2,0.1,0.3v1.5c0,5.2-2.7,10.1-7.1,12.9C835.8,818,832.8,818.9,829.7,818.9z M786.5,790.3l-2.8,2.2
				c-1.6,1.3-2.3,3.4-1.6,5.4c0.5,1.6,1.8,2.8,3.4,3.2l38.7,13.6h0.1c4,1.9,8.7,1.5,12.4-0.9c3.6-2.2,5.8-6.2,5.8-10.4v-1.1
				l-8.6-30.4h-25.5l1.6,13.6c0,0.5-0.2,1.1-0.6,1.4c-0.4,0.3-0.9,0.4-1.4,0.2C800.7,784.9,792.8,786,786.5,790.3L786.5,790.3z"/>
			<path class="st9" d="M844,779v0.2l-39.1-0.7l-22.5-103.2L775.5,550l63.7-7.7v1.3l-11.3,127.2c4.8,15.8,8.5,31.9,11.1,48.2
				c2.7,16.3,4.2,32.7,4.7,49.2L844,779z"/>
			<path class="st10" d="M844,779l-28.4-0.5l-22.5-103.2l-14.7-124.4l60.7-7.3l-11.2,127.2c4.8,15.8,8.5,31.9,11.1,48.2
				c2.7,16.3,4.2,32.7,4.7,49.2L844,779z"/>
			<path class="st1" d="M844,780.7L844,780.7l-39.1-0.7c-0.7,0-1.3-0.5-1.5-1.2l-22.5-103.2v-0.2L774,550c0-0.8,0.6-1.4,1.3-1.5
				l63.7-7.7c0.4-0.1,0.9,0.1,1.2,0.4c0.3,0.3,0.5,0.8,0.5,1.2v1.3l-11.3,126.9c4.7,15.8,8.4,31.8,11.1,48.1
				c2.6,16.3,4.2,32.8,4.7,49.4l0,0l0.3,11.1c0.1,0.8-0.5,1.4-1.3,1.5C844.1,780.7,844.1,780.7,844,780.7L844,780.7z M806.1,777
				l36.4,0.7l-0.3-9.5c-0.5-16.4-2.1-32.8-4.7-49c-2.6-16.2-6.3-32.3-11-48c-0.1-0.2-0.1-0.4-0.1-0.6L837.5,544l-60.4,7.3l6.8,123.8
				L806.1,777z"/>
			<path class="st9" d="M793.6,817.1v0.3l-43.8-0.8l-25.3-115.8l-7.7-140.6l71.4-8.6l-0.2,1.8l-12.4,142.4
				c5.3,17.7,9.5,35.7,12.4,54c3,18.3,4.7,36.8,5.3,55.3L793.6,817.1z"/>
			<path class="st10" d="M793.6,817.1l-28.9-0.5l-25.3-115.8l-7.7-140.6l56.3-6.8l-12.4,142.4c5.3,17.7,9.5,35.7,12.4,54
				c3,18.3,4.7,36.8,5.3,55.3L793.6,817.1z"/>
			<path class="st1" d="M793.6,818.9L793.6,818.9l-43.9-0.8c-0.7,0-1.3-0.4-1.4-1.1L723,701.1v-0.2l-7.7-140.6
				c-0.1-0.8,0.5-1.5,1.3-1.6l71.4-8.6c0.9,0,1.7,0.8,1.7,1.7l0,0l-0.2,1.8l-12.4,142c5.3,17.7,9.5,35.7,12.4,54
				c2.9,18.3,4.7,36.8,5.3,55.4l0,0l0.3,12.4c0.1,0.8-0.5,1.4-1.3,1.5C793.7,818.9,793.7,818.9,793.6,818.9L793.6,818.9z M751,815.2
				l41.1,0.7l-0.3-10.8c-0.6-18.4-2.3-36.8-5.2-55c-3-18.2-7.2-36.2-12.5-53.9v-0.6l12.4-142.3l-68.2,8.2l7.7,139.1L751,815.2z"/>
			<path class="st4" d="M756,361.8c-26.9,4.6-46.8,31.1-47.2,58.3c-0.9,46.3-6.2,117,0.2,161.4c0.9,6.3,6,11.1,12.4,11.5l22.6,1.6
				c33.3,2.3,52-17,83.4-28.4l0,0c12.3-4.5,20.2-16.6,19.3-29.7L834,457.3l13.4-87.5c0.2-17.8-14-32.4-31.8-32.6
				c-2.9,0-5.8,0.3-8.5,1L756,361.8z"/>
			<path class="st1" d="M749.3,596.3l-5.4-0.2l-22.7-1.6c-7-0.5-12.7-5.8-13.7-12.8c-4.8-33.4-3-81-1.5-123
				c0.6-13.9,1.1-27,1.3-38.6c0.5-28.9,21.7-55.1,48.2-59.7l51-23.6h0.2c18-4.7,36.4,6.1,41.1,24.1c0.8,2.9,1.1,5.9,1.1,8.9v0.2
				l-13.4,87.3l12.7,79l0,0c0.9,13.8-7.3,26.5-20.3,31.2c-9.6,3.7-18.9,7.9-27.9,12.8C784.2,588.5,769.2,596.3,749.3,596.3z
				 M807.6,339.6l-51,23.6h-0.4c-25.2,4.3-45.4,29.3-45.9,56.9c-0.2,11.6-0.7,24.7-1.3,38.6c-1.5,41.9-3.3,89.4,1.5,122.5
				c0.8,5.6,5.4,9.9,11,10.2l22.6,1.6c21.8,1.5,37-6.3,54.6-15.4c8.7-4.5,17.7-9.1,28.2-12.9c11.7-4.3,19.1-15.7,18.3-28.1
				l-12.7-79.1V457l13.4-87.4c0.1-17-13.6-30.9-30.6-31c-2.6,0-5.2,0.3-7.7,0.9V339.6z"/>
			<path class="st6" d="M804.1,340.5l-6.4-15.4l9.2-26.3c8.2-14.1,7-31.8-3.1-44.6l0,0c-9.4-12-24.7-17.6-39.6-14.4l-18,3.7
				c-7.3,1.6-12,8.8-10.5,16.1c0,0.1,0.1,0.3,0.1,0.4v0.2c0.8,3.2,1,6.5,0.5,9.7l-2,15.2l0,0c-1.7,5.3-2,10.9-0.9,16.3l1.3,6.4
				c3.4,10.3,14.4,16,24.8,12.7l0,0l3.3,39.3L804.1,340.5z"/>
			<path class="st1" d="M762.8,361.3c-0.3,0-0.6,0-0.8-0.2c-0.4-0.2-0.7-0.6-0.7-1.1l-3.1-37.6c-10.7,2.4-21.5-3.8-24.9-14.2l0,0
				l-1.3-6.4c-1.2-5.6-0.9-11.5,0.8-17l2-15c0.4-3.1,0.3-6.2-0.4-9.2v-0.2c-2-8.2,3.1-16.4,11.2-18.3c0.1,0,0.2,0,0.3-0.1l17.9-3.7
				c15.5-3.3,31.5,2.5,41.2,15c10.5,13.2,11.8,31.6,3.2,46.1l-8.9,25.7l6.1,14.8c0.4,0.7,0,1.6-0.7,2l-41.3,19.3L762.8,361.3z
				 M759.5,319c0.3,0,0.6,0.1,0.9,0.3c0.4,0.3,0.6,0.7,0.6,1.1l3.1,37.2l38-17.8l-5.8-14.1c-0.1-0.4-0.1-0.7,0-1.1l9.2-26.3
				c0-0.1,0-0.2,0.1-0.3c10.6-18.4,4.3-41.9-14-52.5c-8.2-4.7-17.8-6.3-27.1-4.3l-18,3.8c-3.2,0.7-5.9,2.6-7.7,5.3
				c-1.8,2.8-2.3,6.1-1.6,9.3v0.2c0.8,3.4,1,6.9,0.5,10.3l-2,15.2v0.2c-1.6,5.1-1.8,10.4-0.8,15.6l1.3,6.3
				c3.1,9.5,13.4,14.7,22.9,11.7L759.5,319z"/>
			<path class="st11" d="M736.5,268l12.5,10.6c1.2,5.4,1.5,11,0.7,16.5c-1.3,8.7,15.6,20.2,15.6,20.2l9.7,12.4
				c2,2.6,5.3,4.1,8.6,3.8l11.4-0.9c6.2-0.5,11.6-4.5,13.9-10.3c2-5.3,4.2-11.4,4.6-14.5s3.3-9.7,5.9-15.2
				c3.5-7.2,4.3-15.3,2.5-23.1c-1.1-4.7-2.7-9.5-5.1-12.7c-5.9-8.1-7.2-16.7-22.8-20.4s-40.7-4.8-47-1.2s-5.5,6-11.4,15.1
				C729.7,257.4,736.5,268,736.5,268z"/>
			<path class="st1" d="M782.8,333c-3.5,0-6.8-1.6-9-4.4l-9.6-12.2c-2.5-1.8-17.4-12.5-16-21.6c0.7-5.1,0.5-10.3-0.6-15.4
				l-12.1-10.2l-0.3-0.4c-0.3-0.4-7.2-11.4-0.8-21.3c1.9-2.9,3-5.1,4-6.9c2-3.9,3.1-6,7.8-8.7c6.9-3.9,32.2-2.7,48.1,1.1
				c12.8,3,16.5,9.1,20.3,15.6l3.4,5.3c2.2,2.9,4,7.4,5.4,13.2c1.9,8.1,1,16.6-2.7,24.1c-4.3,9.1-5.5,13.1-5.7,14.8
				s-1.9,7.7-4.7,14.8c-2.5,6.4-8.4,10.8-15.2,11.3l-11.3,0.9L782.8,333z M737.7,267l12.2,10.4c0.3,0.2,0.4,0.5,0.5,0.8
				c1.3,5.6,1.6,11.4,0.8,17.1c-1,6.4,10.4,15.7,14.9,18.7l0.3,0.3l9.8,12.5c1.8,2.2,4.5,3.4,7.3,3.2l11.4-0.9
				c5.6-0.4,10.5-4,12.6-9.3c2.7-6.9,4.2-11.8,4.5-14.2s2.4-8.1,6-15.7c3.3-6.9,4.2-14.7,2.5-22.1c-1.3-5.4-3-9.5-4.9-12.1
				c-1.3-1.8-2.5-3.7-3.5-5.6c-3.7-6.2-6.9-11.5-18.5-14.2c-16.3-3.8-40.3-4.5-45.9-1.4c-3.9,2.3-4.7,3.8-6.7,7.5
				c-0.9,1.8-2.2,4.1-4.1,7.1C732,256.7,736.9,265.7,737.7,267z"/>
			<polygon class="st7" points="807,339.9 800.7,332.3 761.8,348 760.8,360.9 			"/>
			<path class="st1" d="M760.8,362.4l-0.9-0.2c-0.4-0.3-0.7-0.9-0.6-1.4l1-12.9c0.1-0.6,0.5-1,1-1.2l38.8-15.8
				c0.6-0.3,1.3-0.1,1.7,0.4l6.3,7.6c0.3,0.4,0.4,0.8,0.3,1.3c-0.1,0.4-0.4,0.8-0.8,1l-46.2,21.1L760.8,362.4z M763.2,349.1
				l-0.7,9.4l42.1-19.2l-4.4-5.2L763.2,349.1z"/>
			<path class="st6" d="M750.4,303.1l3.8-5.6c1.9-2.3,5.3-2.7,7.7-1l0,0c1.3,0.8,1.9,2.5,1.4,4l-5.1,15l-11.3-4.8L750.4,303.1z"/>
			<path class="st7" d="M722.5,430.4L626.6,415l-3.5-0.6c-5.3-0.9-9.7-4.5-11.7-9.5l-38.5-92l18.1-8.7l43.4,72.3l91.1-2.8
				c15.8-0.6,29.1,11.7,29.6,27.5c0.6,15.4-11.1,28.4-26.4,29.6C726.6,430.9,724.5,430.8,722.5,430.4z"/>
			<path class="st1" d="M727.2,432.3c-1.6,0-3.3-0.1-4.9-0.4l0,0l-99.4-16c-5.8-1-10.7-5-12.9-10.5l-38.5-91.9
				c-0.3-0.7,0-1.5,0.7-1.9l18.1-8.8c0.7-0.3,1.6-0.1,2,0.6l42.9,71.6l90.3-2.8c16.6-0.9,30.7,11.8,31.6,28.4
				c0.5,8-2.2,15.8-7.6,21.7c-5.3,5.9-12.7,9.5-20.7,10L727.2,432.3z M722.8,429c1.9,0.3,3.9,0.4,5.8,0.3
				c14.9-1.2,26-14.3,24.8-29.2c-1.2-14.4-13.4-25.4-27.8-24.9l-91.1,2.8h-0.1c-0.5,0-1-0.3-1.3-0.7l-42.7-71.2l-15.6,7.6l38,90.6
				c1.8,4.5,5.8,7.8,10.6,8.6L722.8,429z"/>
		</g>
	</g>
</g>
</svg>
