<svg xmlns="http://www.w3.org/2000/svg" xmlns:xlink="http://www.w3.org/1999/xlink" viewBox="0 0 265 284.2"><defs><linearGradient id="f9e68dbe-6b1b-4cdc-b496-9a21445859cb" x1="179.94" y1="72.04" x2="187.96" y2="90.03" gradientUnits="userSpaceOnUse"><stop offset="0.04" stop-color="#ffa98c"/><stop offset="0.32" stop-color="#ffb892"/><stop offset="0.86" stop-color="#fee1a3"/><stop offset="1" stop-color="#feeca8"/></linearGradient><linearGradient id="bdd62df9-e279-4f7f-ad6c-e7b4cf8eaa62" x1="100.22" y1="18.96" x2="177.25" y2="112.78" xlink:href="#f9e68dbe-6b1b-4cdc-b496-9a21445859cb"/><linearGradient id="e9426c5f-05d3-4c60-bfd6-4914bea38ad3" x1="178" y1="-30.83" x2="154" y2="76.17" xlink:href="#f9e68dbe-6b1b-4cdc-b496-9a21445859cb"/><radialGradient id="b7c999ef-2e0d-42f2-9210-8122e7480fd7" cx="159.18" cy="63.9" r="27.81" gradientUnits="userSpaceOnUse"><stop offset="0.1" stop-color="#ffe4a7"/><stop offset="0.42" stop-color="#f4be4c"/><stop offset="0.67" stop-color="#eca30a"/><stop offset="1"/></radialGradient><linearGradient id="ad87e2d5-64bc-4402-9aa4-d7cca194287d" x1="179.94" y1="61.71" x2="187.96" y2="79.7" xlink:href="#f9e68dbe-6b1b-4cdc-b496-9a21445859cb"/><linearGradient id="a9a7bf23-58ba-4238-b84d-0daa07291362" x1="100.22" y1="8.63" x2="177.25" y2="102.44" xlink:href="#f9e68dbe-6b1b-4cdc-b496-9a21445859cb"/><linearGradient id="aafc2c9c-7431-4877-93cc-c4e3ed4fe9ed" x1="178" y1="-41.16" x2="154" y2="65.84" xlink:href="#f9e68dbe-6b1b-4cdc-b496-9a21445859cb"/><radialGradient id="a0358907-5710-4d38-b64b-97fbbe83b758" cx="159.18" cy="53.57" r="27.81" xlink:href="#b7c999ef-2e0d-42f2-9210-8122e7480fd7"/><linearGradient id="aba44c6e-2042-424f-8e63-8ff16a536d6a" x1="179.94" y1="51.37" x2="187.96" y2="69.36" xlink:href="#f9e68dbe-6b1b-4cdc-b496-9a21445859cb"/><linearGradient id="aba10837-70ec-4f34-9d32-12cec8a20739" x1="100.22" y1="-1.71" x2="177.25" y2="92.11" xlink:href="#f9e68dbe-6b1b-4cdc-b496-9a21445859cb"/><linearGradient id="e6d8e3ed-e596-479c-988a-99df7427b1ff" x1="178" y1="-51.49" x2="154" y2="55.51" xlink:href="#f9e68dbe-6b1b-4cdc-b496-9a21445859cb"/><radialGradient id="fcfe3eb7-1546-449e-bd2f-0da959623926" cx="159.18" cy="43.24" r="27.81" xlink:href="#b7c999ef-2e0d-42f2-9210-8122e7480fd7"/><linearGradient id="a227fb69-4425-40f6-b398-83916dfa1c7c" x1="179.94" y1="41.04" x2="187.96" y2="59.03" xlink:href="#f9e68dbe-6b1b-4cdc-b496-9a21445859cb"/><linearGradient id="f8287851-97e5-4ca7-ac04-16dc43dca890" x1="100.22" y1="-12.04" x2="177.25" y2="81.78" xlink:href="#f9e68dbe-6b1b-4cdc-b496-9a21445859cb"/><linearGradient id="bdaa2d15-a3c5-4939-a512-4a5d46067d64" x1="183.86" y1="-87.97" x2="159.86" y2="19.03" xlink:href="#f9e68dbe-6b1b-4cdc-b496-9a21445859cb"/><radialGradient id="bde5b1b9-e594-449f-96ac-d3782a954769" cx="159.18" cy="32.9" r="27.81" xlink:href="#b7c999ef-2e0d-42f2-9210-8122e7480fd7"/><radialGradient id="e8309cb9-8d90-4dd7-b80b-41d561e0d74b" cx="161.28" cy="31.98" r="17.44" gradientUnits="userSpaceOnUse"><stop offset="0" stop-color="#fff"/><stop offset="1"/></radialGradient><radialGradient id="b8ff04eb-51fd-4025-bf06-b26337011f24" cx="183.19" cy="155.93" r="38.66" gradientUnits="userSpaceOnUse"><stop offset="0.1" stop-color="#45108a"/><stop offset="0.67" stop-color="#25054d"/><stop offset="1"/></radialGradient><radialGradient id="a4fef3f9-58b5-4f3b-991e-393ffa89a611" cx="138.38" cy="181.34" r="38.66" xlink:href="#b8ff04eb-51fd-4025-bf06-b26337011f24"/><linearGradient id="be115782-15c6-46f6-ba23-2d3ff18f75f2" x1="31.61" y1="203.19" x2="63.44" y2="185.53" gradientUnits="userSpaceOnUse"><stop offset="0" stop-color="#972a74"/><stop offset="0.04" stop-color="#8a266a"/><stop offset="0.19" stop-color="#601b4a"/><stop offset="0.35" stop-color="#3d112f"/><stop offset="0.51" stop-color="#230a1b"/><stop offset="0.67" stop-color="#0f040c"/><stop offset="0.83" stop-color="#040103"/><stop offset="1"/></linearGradient><linearGradient id="e0b22e3c-bf1d-4b13-9101-0efcad82a91a" x1="52.06" y1="231.27" x2="77.8" y2="289.02" xlink:href="#f9e68dbe-6b1b-4cdc-b496-9a21445859cb"/><linearGradient id="a0e2db78-5aed-4843-963b-2cdfbd66c35e" x1="-61.04" y1="113.99" x2="76.99" y2="282.07" xlink:href="#f9e68dbe-6b1b-4cdc-b496-9a21445859cb"/><linearGradient id="efb21be9-cf47-41b3-81ee-ecd9c52ebb12" x1="39.82" y1="130.34" x2="25.19" y2="195.54" xlink:href="#f9e68dbe-6b1b-4cdc-b496-9a21445859cb"/><radialGradient id="e76e8d76-42ee-4465-b246-f018cefb7b64" cx="27.05" cy="191.96" r="35.88" xlink:href="#b7c999ef-2e0d-42f2-9210-8122e7480fd7"/><radialGradient id="a63839e1-49a9-482e-8445-e3ca62c2a15f" cx="27.6" cy="208.42" r="17.46" xlink:href="#e8309cb9-8d90-4dd7-b80b-41d561e0d74b"/><radialGradient id="e437a61b-e5e3-4c50-990d-2769c0ab84ee" cx="48.85" cy="220.25" r="47.68" gradientUnits="userSpaceOnUse"><stop offset="0" stop-color="#fdd65b"/><stop offset="0.21" stop-color="#b19540"/><stop offset="0.47" stop-color="#52461e"/><stop offset="0.66" stop-color="#171308"/><stop offset="0.75"/></radialGradient><radialGradient id="f53670cf-6de4-493d-af72-cd2fba85b760" cx="95.71" cy="207.56" r="38.4" xlink:href="#b8ff04eb-51fd-4025-bf06-b26337011f24"/><radialGradient id="fd7780d1-0ed8-4602-8d14-61db609d7979" cx="53.03" cy="138.8" r="38.66" xlink:href="#b8ff04eb-51fd-4025-bf06-b26337011f24"/><radialGradient id="b5ec1fff-c517-48f1-88d2-db6524c10c36" cx="30.1" cy="185.88" r="45.86" xlink:href="#e437a61b-e5e3-4c50-990d-2769c0ab84ee"/><radialGradient id="edd056dd-8cea-4a70-8245-351f7172e104" cx="138.38" cy="232.58" r="38.66" xlink:href="#b8ff04eb-51fd-4025-bf06-b26337011f24"/><radialGradient id="fcc295b6-abb7-4314-ad1d-edcbd8368a1e" cx="95.71" cy="163.82" r="38.66" xlink:href="#b8ff04eb-51fd-4025-bf06-b26337011f24"/><radialGradient id="a037d864-1163-4545-96b1-33e0f19ac809" cx="138.38" cy="188.84" r="38.22" xlink:href="#b8ff04eb-51fd-4025-bf06-b26337011f24"/><radialGradient id="e0ff674f-a1cf-4770-a86d-05351c7f0c0a" cx="178.85" cy="194.5" r="38.67" xlink:href="#e437a61b-e5e3-4c50-990d-2769c0ab84ee"/><radialGradient id="b1bbe77e-505b-45cb-89d4-106b77686544" cx="225.86" cy="138.02" r="38.66" xlink:href="#b8ff04eb-51fd-4025-bf06-b26337011f24"/><linearGradient id="a39c812b-4060-423f-9b08-e7652294d355" x1="238.55" y1="202.9" x2="160.67" y2="160.5" xlink:href="#be115782-15c6-46f6-ba23-2d3ff18f75f2"/><linearGradient id="bbf5e594-9f02-413b-bc35-920edba4fae8" x1="240.55" y1="224.57" x2="248.57" y2="242.56" xlink:href="#f9e68dbe-6b1b-4cdc-b496-9a21445859cb"/><linearGradient id="ac97571f-6242-488d-9ccd-c7a140746441" x1="160.83" y1="171.49" x2="237.86" y2="265.3" xlink:href="#f9e68dbe-6b1b-4cdc-b496-9a21445859cb"/><linearGradient id="bdd59f40-3c6e-445e-b4a6-6c64e01873de" x1="238.61" y1="121.7" x2="214.61" y2="228.7" xlink:href="#f9e68dbe-6b1b-4cdc-b496-9a21445859cb"/><radialGradient id="a48c9637-8b71-442c-b644-75f0e3cedc35" cx="219.79" cy="216.43" r="27.81" xlink:href="#b7c999ef-2e0d-42f2-9210-8122e7480fd7"/><linearGradient id="b55c86f7-5598-4655-98c9-4279cdffd9b9" x1="240.55" y1="214.23" x2="248.57" y2="232.22" xlink:href="#f9e68dbe-6b1b-4cdc-b496-9a21445859cb"/><linearGradient id="a13300cf-06df-4055-99ca-9b6cee85fd88" x1="160.83" y1="161.15" x2="237.86" y2="254.97" xlink:href="#f9e68dbe-6b1b-4cdc-b496-9a21445859cb"/><linearGradient id="bff95c50-cdb6-43c1-8d73-ff5406b873f5" x1="238.61" y1="111.37" x2="214.61" y2="218.37" xlink:href="#f9e68dbe-6b1b-4cdc-b496-9a21445859cb"/><radialGradient id="a37319a7-2f21-4f6c-a6d8-853edecde170" cx="219.79" cy="206.1" r="27.81" xlink:href="#b7c999ef-2e0d-42f2-9210-8122e7480fd7"/><linearGradient id="ef616ca7-9b53-4850-bc55-61cdc2204663" x1="240.55" y1="203.9" x2="248.57" y2="221.89" xlink:href="#f9e68dbe-6b1b-4cdc-b496-9a21445859cb"/><linearGradient id="fedf58ba-5564-42c7-a42d-0edab868d22a" x1="160.82" y1="150.82" x2="237.86" y2="244.64" xlink:href="#f9e68dbe-6b1b-4cdc-b496-9a21445859cb"/><linearGradient id="b9949fcc-dc2f-4306-b558-e9f598103e6b" x1="238.61" y1="101.03" x2="214.61" y2="208.03" xlink:href="#f9e68dbe-6b1b-4cdc-b496-9a21445859cb"/><radialGradient id="b627068b-db09-4250-8843-49c8bddd8a26" cx="219.79" cy="195.77" r="27.81" xlink:href="#b7c999ef-2e0d-42f2-9210-8122e7480fd7"/><linearGradient id="a7465351-4208-4026-87c9-1756e8ba01da" x1="240.55" y1="193.57" x2="248.57" y2="211.56" xlink:href="#f9e68dbe-6b1b-4cdc-b496-9a21445859cb"/><linearGradient id="fe85b0b5-eefc-42e9-8305-86ae0bb427df" x1="160.83" y1="140.49" x2="237.86" y2="234.3" xlink:href="#f9e68dbe-6b1b-4cdc-b496-9a21445859cb"/><linearGradient id="a97b2377-834a-4cce-bc28-961b64b69117" x1="244.47" y1="64.56" x2="220.47" y2="171.56" xlink:href="#f9e68dbe-6b1b-4cdc-b496-9a21445859cb"/><radialGradient id="a97f5434-0968-4355-ac96-0638e6095e9e" cx="219.79" cy="185.43" r="27.81" xlink:href="#b7c999ef-2e0d-42f2-9210-8122e7480fd7"/><radialGradient id="effb4edb-cd99-47cd-b12d-b41ef24bb348" cx="224.43" cy="187.35" r="25.91" gradientUnits="userSpaceOnUse"><stop offset="0" stop-color="#fff"/><stop offset="0.1" stop-color="#d3d3d3"/><stop offset="0.23" stop-color="#9c9c9c"/><stop offset="0.37" stop-color="#6c6c6c"/><stop offset="0.5" stop-color="#454545"/><stop offset="0.63" stop-color="#272727"/><stop offset="0.76" stop-color="#111"/><stop offset="0.88" stop-color="#040404"/><stop offset="1"/></radialGradient><radialGradient id="f13d777c-b721-430f-8bde-76216bd3d358" cx="183.19" cy="69.26" r="38.66" xlink:href="#b8ff04eb-51fd-4025-bf06-b26337011f24"/><radialGradient id="ea0d55b9-a14e-47c5-9098-0338d2d9596a" cx="191.65" cy="117.22" r="7.06" gradientUnits="userSpaceOnUse"><stop offset="0.15" stop-color="#72ffff"/><stop offset="0.25" stop-color="#58cff9"/><stop offset="0.8" stop-color="#58cff9"/><stop offset="0.97" stop-color="#2aace3"/></radialGradient><radialGradient id="b24dfb1c-7052-4fd9-83b2-b9823aa65dc8" cx="191.65" cy="84.72" r="7.06" xlink:href="#ea0d55b9-a14e-47c5-9098-0338d2d9596a"/><radialGradient id="af492d2d-a440-40c5-a3f4-8c9a5d9fa48f" cx="223.9" cy="104.22" r="7.06" xlink:href="#ea0d55b9-a14e-47c5-9098-0338d2d9596a"/><radialGradient id="abd70792-fd86-4090-8974-66f4c9869261" cx="214.65" cy="118.97" r="7.06" xlink:href="#ea0d55b9-a14e-47c5-9098-0338d2d9596a"/><radialGradient id="ff3e2258-b27d-4148-a2cb-f6baf767d032" cx="256.65" cy="84.72" r="7.06" xlink:href="#ea0d55b9-a14e-47c5-9098-0338d2d9596a"/><radialGradient id="fd811eda-876f-4e99-a5f5-47ccf34a4f64" cx="256.65" cy="116.72" r="7.06" xlink:href="#ea0d55b9-a14e-47c5-9098-0338d2d9596a"/><radialGradient id="a7fff509-140e-4012-8c04-7878ebed9a9f" cx="223.9" cy="136.47" r="7.06" xlink:href="#ea0d55b9-a14e-47c5-9098-0338d2d9596a"/><radialGradient id="e20f2ca6-2b71-4504-a52d-e17e98d3b524" cx="223.9" cy="65.22" r="7.06" xlink:href="#ea0d55b9-a14e-47c5-9098-0338d2d9596a"/><radialGradient id="bc5237d9-5848-4bde-b3b7-d9f6d20da561" cx="231.65" cy="84.47" r="7.06" xlink:href="#ea0d55b9-a14e-47c5-9098-0338d2d9596a"/><radialGradient id="ac421b79-5a88-4be7-b7e0-9b2528a8a112" cx="242.65" cy="95.97" r="7.06" xlink:href="#ea0d55b9-a14e-47c5-9098-0338d2d9596a"/><radialGradient id="ae6c2288-51b1-4377-9058-ba7b618d3053" cx="236.53" cy="114.72" r="7.06" xlink:href="#ea0d55b9-a14e-47c5-9098-0338d2d9596a"/><radialGradient id="f9c348a9-abe6-44bd-a1cb-872f7637768e" cx="207.65" cy="100.22" r="7.06" xlink:href="#ea0d55b9-a14e-47c5-9098-0338d2d9596a"/><radialGradient id="a569616c-3b33-4d4d-b92c-68f8a53dd430" cx="214.59" cy="82.87" r="7.06" xlink:href="#ea0d55b9-a14e-47c5-9098-0338d2d9596a"/><radialGradient id="bf2bccdb-bbf3-4755-9d07-1b88fe35b8ef" cx="96.77" cy="69.65" r="38.66" xlink:href="#b8ff04eb-51fd-4025-bf06-b26337011f24"/><radialGradient id="acfd6ae9-44c7-433f-bd95-1016bbdda3fa" cx="138.38" cy="94.67" r="38.66" xlink:href="#b8ff04eb-51fd-4025-bf06-b26337011f24"/><radialGradient id="affa6981-b3a4-4ad7-956e-91cd8cda1db4" cx="182.12" cy="119.69" r="41.49" xlink:href="#b8ff04eb-51fd-4025-bf06-b26337011f24"/><radialGradient id="a15f24d6-6ac7-40dc-bacf-ea6cf7341a8f" cx="192.1" cy="186.5" r="92.6" xlink:href="#e437a61b-e5e3-4c50-990d-2769c0ab84ee"/><radialGradient id="ae63f688-f97c-425f-900f-de74acc3cfc0" cx="175.3" cy="167.11" r="62.23" gradientUnits="userSpaceOnUse"><stop offset="0" stop-color="#43e8e1"/><stop offset="0.16" stop-color="#33b1ab"/><stop offset="0.45" stop-color="#185250"/><stop offset="0.66" stop-color="#071716"/><stop offset="0.75"/></radialGradient><radialGradient id="ee44614e-7d35-4fee-b270-31b9397d84d6" cx="175.3" cy="167.11" r="62.23" xlink:href="#ae63f688-f97c-425f-900f-de74acc3cfc0"/><radialGradient id="b34753ae-7605-4b26-801d-f1cefff54b23" cx="175.3" cy="167.11" r="62.23" xlink:href="#ae63f688-f97c-425f-900f-de74acc3cfc0"/><radialGradient id="a0910891-a139-4343-abd6-ece0fc65a9d6" cx="53.03" cy="95.06" r="38.66" xlink:href="#b8ff04eb-51fd-4025-bf06-b26337011f24"/><linearGradient id="b2047744-e685-4e3c-8275-9e2b0b65ee7d" x1="89.51" y1="144.01" x2="165.13" y2="121.37" gradientUnits="userSpaceOnUse"><stop offset="0.03" stop-color="#7c1dc9"/><stop offset="0.21" stop-color="#6e41d2"/><stop offset="0.62" stop-color="#4c9be8"/><stop offset="1" stop-color="#2af6ff"/></linearGradient><linearGradient id="f307f93c-2824-4c40-b275-ce3cafb6a5fc" x1="29.56" y1="147.8" x2="129.01" y2="125.5" gradientUnits="userSpaceOnUse"><stop offset="0.04" stop-color="#138bbd"/><stop offset="0.23" stop-color="#169ac7"/><stop offset="0.59" stop-color="#1fc3df"/><stop offset="1" stop-color="#2af6ff"/></linearGradient><radialGradient id="a8ddd268-f876-4a83-b45e-6a3fd8f0c83e" cx="95.68" cy="120.16" r="38.6" xlink:href="#b8ff04eb-51fd-4025-bf06-b26337011f24"/><linearGradient id="a5f2cbc7-1a85-4ce9-b0b3-2465bab94384" x1="95.67" y1="88.92" x2="95.67" y2="121.28" gradientUnits="userSpaceOnUse"><stop offset="0" stop-color="#2896bc"/><stop offset="0.4" stop-color="#29bad5"/><stop offset="1" stop-color="#2af6ff"/></linearGradient><radialGradient id="abc8223f-1c21-4ef3-b296-a06b5adc6f1f" cx="95.5" cy="125.39" r="15.9" xlink:href="#e8309cb9-8d90-4dd7-b80b-41d561e0d74b"/><radialGradient id="a3e38845-04d5-45e7-9ea5-8a5cac1f01a3" cx="138.38" cy="145.1" r="38.66" xlink:href="#b8ff04eb-51fd-4025-bf06-b26337011f24"/><linearGradient id="ae56de34-9754-473d-8786-a009721f5f0b" x1="47.25" y1="188.24" x2="23.59" y2="197.24" gradientUnits="userSpaceOnUse"><stop offset="0" stop-color="#fff"/><stop offset="1" stop-color="#a3653d"/></linearGradient><linearGradient id="a156d080-f9ed-43c6-9a24-640659a89ab2" x1="27.84" y1="176.82" x2="4.17" y2="185.82" xlink:href="#ae56de34-9754-473d-8786-a009721f5f0b"/><linearGradient id="e3f3464b-c746-40aa-96e4-b222ce521d0f" x1="50.73" y1="215.54" x2="54.06" y2="220.88" xlink:href="#f9e68dbe-6b1b-4cdc-b496-9a21445859cb"/><linearGradient id="be91ebf4-af71-4446-bdfa-25a49a6e80d4" x1="90.92" y1="280.81" x2="98.61" y2="293.12" xlink:href="#f9e68dbe-6b1b-4cdc-b496-9a21445859cb"/><linearGradient id="b3763dac-3f52-48a8-9f08-944f87721793" x1="41.31" y1="193.71" x2="41.31" y2="193.71" xlink:href="#f9e68dbe-6b1b-4cdc-b496-9a21445859cb"/><radialGradient id="bf10aa56-4611-47d0-ac40-d3bd7ec23f35" cx="32.48" cy="175.9" r="29.03" xlink:href="#b7c999ef-2e0d-42f2-9210-8122e7480fd7"/><linearGradient id="b8bdf8af-46c2-4b57-b182-2051f7e04a3a" x1="6.66" y1="217.19" x2="37.16" y2="163.02" gradientUnits="userSpaceOnUse"><stop offset="0.04" stop-color="#ffa98c"/><stop offset="0.31" stop-color="#ffb893"/><stop offset="0.32" stop-color="#ffb993"/><stop offset="0.82" stop-color="#fedda2"/><stop offset="1" stop-color="#feeca8"/></linearGradient><linearGradient id="a6669363-2d97-44d3-bf21-d679da4fd730" x1="218.89" y1="180.97" x2="218.89" y2="124.83" gradientUnits="userSpaceOnUse"><stop offset="0" stop-color="#1bb0d4"/><stop offset="0.05" stop-color="#189dbd"/><stop offset="0.18" stop-color="#12738b"/><stop offset="0.31" stop-color="#0c5060"/><stop offset="0.45" stop-color="#08333e"/><stop offset="0.58" stop-color="#041d23"/><stop offset="0.72" stop-color="#020d0f"/><stop offset="0.85" stop-color="#000304"/><stop offset="1"/></linearGradient></defs><title>img-1</title><g style="isolation:isolate"><g id="f1f9d10b-aa35-475f-a7f4-7fa2029178ab" data-name="Layer 2"><g id="a5072007-b501-41e0-a4c2-3116bcf8551e" data-name="Layer 1"><polygon points="11.7 210.4 138.4 284.2 265 209.8 138.2 135.9 11.7 210.4" fill="#e6e7e8" style="mix-blend-mode:multiply"/><polygon points="159.2 75.1 159.2 82.5 196.9 60.3 196.9 53 159.2 75.1" fill="url(#f9e68dbe-6b1b-4cdc-b496-9a21445859cb)"/><polygon points="159.2 75.1 159.2 82.5 121.5 60.5 121.5 53.2 159.2 75.1" fill="url(#bdd62df9-e279-4f7f-ad6c-e7b4cf8eaa62)"/><polygon points="121.5 53.2 159.2 75.1 196.9 53 159.1 31 121.5 53.2" fill="url(#e9426c5f-05d3-4c60-bfd6-4914bea38ad3)"/><polygon points="159.2 74.5 122 52.9 121.5 53.2 159.2 75.1 196.9 53 196.4 52.7 159.2 74.5" fill="url(#b7c999ef-2e0d-42f2-9210-8122e7480fd7)" style="mix-blend-mode:screen"/><polygon points="159.2 64.8 159.2 72.1 196.9 50 196.9 42.6 159.2 64.8" fill="url(#ad87e2d5-64bc-4402-9aa4-d7cca194287d)"/><polygon points="159.2 64.8 159.2 72.1 121.5 50.2 121.5 42.8 159.2 64.8" fill="url(#a9a7bf23-58ba-4238-b84d-0daa07291362)"/><polygon points="121.5 42.8 159.2 64.8 196.9 42.6 159.1 20.7 121.5 42.8" fill="url(#aafc2c9c-7431-4877-93cc-c4e3ed4fe9ed)"/><polygon points="159.2 64.2 122 42.5 121.5 42.8 159.2 64.8 196.9 42.6 196.4 42.3 159.2 64.2" fill="url(#a0358907-5710-4d38-b64b-97fbbe83b758)" style="mix-blend-mode:screen"/><polygon points="159.2 54.5 159.2 61.8 196.9 39.7 196.9 32.3 159.2 54.5" fill="url(#aba44c6e-2042-424f-8e63-8ff16a536d6a)"/><polygon points="159.2 54.5 159.2 61.8 121.5 39.8 121.5 32.5 159.2 54.5" fill="url(#aba10837-70ec-4f34-9d32-12cec8a20739)"/><polygon points="121.5 32.5 159.2 54.5 196.9 32.3 159.1 10.3 121.5 32.5" fill="url(#e6d8e3ed-e596-479c-988a-99df7427b1ff)"/><polygon points="159.2 53.9 122 32.2 121.5 32.5 159.2 54.5 196.9 32.3 196.4 32 159.2 53.9" fill="url(#fcfe3eb7-1546-449e-bd2f-0da959623926)" style="mix-blend-mode:screen"/><polygon points="159.2 44.1 159.2 51.5 196.9 29.3 196.9 22 159.2 44.1" fill="url(#a227fb69-4425-40f6-b398-83916dfa1c7c)"/><polygon points="159.2 44.1 159.2 51.5 121.5 29.5 121.5 22.2 159.2 44.1" fill="url(#f8287851-97e5-4ca7-ac04-16dc43dca890)"/><polygon points="121.5 22.2 159.2 44.1 196.9 22 159.1 0 121.5 22.2" fill="url(#bdaa2d15-a3c5-4939-a512-4a5d46067d64)"/><polygon points="127.4 22.2 159.1 3.5 190.9 22 159.2 40.7 127.4 22.2" fill="#58cff9"/><polygon points="159.1 5 189.7 22.7 190.9 22 159.1 3.5 127.4 22.2 128.7 22.9 159.1 5" fill="#2896bc"/><polygon points="159.1 5 189.7 22.7 190.9 22 159.1 3.5 159.1 5" fill="#2aace3"/><polygon points="159.2 43.5 122 21.9 121.5 22.2 159.2 44.1 196.9 22 196.4 21.7 159.2 43.5" fill="url(#bde5b1b9-e594-449f-96ac-d3782a954769)" style="mix-blend-mode:screen"/><path d="M178.6,23.9c-3.9-2.2-6.5-5.1-7.5-8.2h0a37,37,0,0,1-14.2-4.3h-.2l-2.1,1.4C147.2,17.9,146,23,147,29.6h.1c11.4.6,20.3-.1,29.2-4.4l2.5-1.2Z" fill="#43e8e1"/><path d="M171.1,21.3h0A35.4,35.4,0,0,1,156.9,17h-.2l-2.1,1.5c-4.9,3.3-7.1,6.7-7.7,10.6a1.3,1.3,0,0,0,.1.6h.1c10.5.6,18.9,0,27.1-3.4A11.9,11.9,0,0,1,171.1,21.3Z" fill="url(#e8309cb9-8d90-4dd7-b80b-41d561e0d74b)" style="mix-blend-mode:color-dodge"/><polygon points="183.2 167.1 183.2 205.5 220.9 183.4 220.9 145 183.2 167.1" fill="#2896bc"/><polygon points="183.2 167.1 183.2 205.5 145.5 183.5 145.5 145.2 183.2 167.1" fill="#2aace3"/><polygon points="145.5 145.2 183.2 167.1 220.9 145 183.1 123 145.5 145.2" fill="#58cff9"/><polygon points="183.2 166.5 146 144.9 145.5 145.2 183.2 167.1 220.9 145 220.4 144.7 183.2 166.5" fill="url(#b8ff04eb-51fd-4025-bf06-b26337011f24)" style="mix-blend-mode:screen"/><polygon points="138.4 192.6 138.4 230.9 176.1 208.8 176.1 170.4 138.4 192.6" fill="#2896bc"/><polygon points="138.4 192.6 138.4 230.9 100.7 208.9 100.7 170.6 138.4 192.6" fill="#2aace3"/><polygon points="100.7 170.6 138.4 192.6 176.1 170.4 138.3 148.4 100.7 170.6" fill="#58cff9"/><polygon points="138.4 192 101.2 170.3 100.7 170.6 138.4 192.6 176.1 170.4 175.6 170.1 138.4 192" fill="url(#a4fef3f9-58b5-4f3b-991e-393ffa89a611)" style="mix-blend-mode:screen"/><polygon points="225.8 193 225.8 231.3 263.6 209.2 263.6 170.8 225.8 193" fill="#2896bc"/><polygon points="225.9 193 225.9 231.3 188.2 209.4 188.2 171 225.9 193" fill="#2aace3"/><polygon points="188.2 171 225.9 193 263.6 170.8 225.8 148.9 188.2 171" fill="#58cff9"/><polygon points="182.1 218.4 182.1 256.7 219.8 234.6 219.8 196.2 182.1 218.4" fill="#2896bc"/><polygon points="182.1 218.4 182.1 256.7 144.4 234.8 144.4 196.4 182.1 218.4" fill="#2aace3"/><polygon points="144.4 196.4 182.1 218.4 219.8 196.2 182.1 174.3 144.4 196.4" fill="#58cff9"/><polygon points="32.5 161.8 16.2 171.5 53.9 193.4 53.9 193.4 53.9 231.8 70.3 222.1 70.3 183.7 32.5 161.8" fill="url(#be115782-15c6-46f6-ba23-2d3ff18f75f2)" style="mix-blend-mode:screen"/><polygon points="37.7 203.1 37.7 241.4 54.1 231.8 54.1 193.4 37.7 203.1" fill="url(#e0b22e3c-bf1d-4b13-9101-0efcad82a91a)"/><polygon points="37.7 203.1 37.7 241.4 0 219.5 0 181.1 37.7 203.1" fill="url(#a0e2db78-5aed-4843-963b-2cdfbd66c35e)"/><polygon points="3 217.7 3 186.4 34.7 204.8 34.7 236.2 3 217.7" fill="#2aace3"/><polygon points="4.1 217.2 4.1 187 3 186.4 3 217.7 34.7 236.2 34.7 235 4.1 217.2" fill="#2896bc"/><polygon points="4.1 217.2 3 217.7 34.7 236.2 34.7 235 4.1 217.2" fill="#58cff9"/><polygon points="0 181.1 37.7 203.1 54.1 193.4 16.4 171.4 0 181.1" fill="url(#efb21be9-cf47-41b3-81ee-ecd9c52ebb12)"/><polygon points="37.7 202.5 0.5 180.8 0 181.1 37.7 203.1 54.1 193.4 53.6 193.1 37.7 202.5" fill="url(#e76e8d76-42ee-4465-b246-f018cefb7b64)" style="mix-blend-mode:screen"/><path d="M20.6,213.3v8.4l-3.8-2.2v-8.3a9.9,9.9,0,0,1-2.5-6.1c0-2.8,2-3.9,4.4-2.5a9.5,9.5,0,0,1,4.4,7.6C23.1,212.2,22.1,213.4,20.6,213.3Z" fill="#43e8e1"/><path d="M20.6,213.3v8.4l-3.8-2.2v-8.3a9.9,9.9,0,0,1-2.5-6.1c0-2.8,2-3.9,4.4-2.5a9.5,9.5,0,0,1,4.4,7.6C23.1,212.2,22.1,213.4,20.6,213.3Z" fill="url(#a63839e1-49a9-482e-8445-e3ca62c2a15f)" style="mix-blend-mode:color-dodge"/><polygon points="95.7 218.8 95.7 257.1 133.4 235 133.4 196.6 95.7 218.8" fill="#2896bc"/><polygon points="95.7 218.8 95.7 257.1 58 235.2 58 196.8 95.7 218.8" fill="#2aace3"/><polygon points="69.3 223 69.3 203.4 58 196.8 58 229.6 69.3 223" opacity="0.2" fill="url(#e437a61b-e5e3-4c50-990d-2769c0ab84ee)" style="mix-blend-mode:lighten"/><polygon points="58 196.8 95.7 218.8 133.4 196.6 95.7 174.7 58 196.8" fill="#58cff9"/><polygon points="95.7 218.2 58.5 196.5 58 196.8 95.7 218.8 133.4 196.6 132.9 196.3 95.7 218.2" fill="url(#f53670cf-6de4-493d-af72-cd2fba85b760)" style="mix-blend-mode:screen"/><polygon points="53 150 53 188.4 90.7 166.2 90.7 127.9 53 150" fill="#2896bc"/><polygon points="53 150 53 188.4 15.3 166.4 15.3 128.1 53 150" fill="#2aace3"/><polygon points="15.3 128.1 53 150 90.7 127.9 53 105.9 15.3 128.1" fill="#58cff9"/><polygon points="53 149.4 15.8 127.8 15.3 128.1 53 150 90.7 127.9 90.2 127.6 53 149.4" fill="url(#fd7780d1-0ed8-4602-8d14-61db609d7979)" style="mix-blend-mode:screen"/><path d="M36.9,168.1l-6.3-3.7c-2.6-1.4-4.9-1.6-6.5-.6h0l-3.3,1.9c1.6-.9,3.9-.7,6.4.7l6.4,3.7c3.9,2.3,7.3,7.2,8.6,12l4,2.3v-.3C46.2,178.2,42,171.1,36.9,168.1Z" opacity="0.2" fill="url(#b5ec1fff-c517-48f1-88d2-db6524c10c36)" style="mix-blend-mode:lighten"/><polygon points="138.4 243.8 138.4 282.2 176.1 260 176.1 221.7 138.4 243.8" fill="#2896bc"/><polygon points="138.4 243.8 138.4 282.2 100.7 260.2 100.7 221.8 138.4 243.8" fill="#2aace3"/><polygon points="100.7 221.8 138.4 243.8 176.1 221.7 138.3 199.7 100.7 221.8" fill="#58cff9"/><polygon points="138.4 243.2 101.2 221.5 100.7 221.8 138.4 243.8 176.1 221.7 175.6 221.4 138.4 243.2" fill="url(#edd056dd-8cea-4a70-8245-351f7172e104)" style="mix-blend-mode:screen"/><polygon points="95.7 175 95.7 213.4 133.4 191.2 133.4 152.9 95.7 175" fill="#2896bc"/><polygon points="95.7 175 95.7 213.4 58 191.4 58 153.1 95.7 175" fill="#2aace3"/><polygon points="58 153.1 95.7 175 133.4 152.9 95.7 130.9 58 153.1" fill="#58cff9"/><polygon points="95.7 174.4 58.5 152.8 58 153.1 95.7 175 133.4 152.9 132.9 152.6 95.7 174.4" fill="url(#fcc295b6-abb7-4314-ad1d-edcbd8368a1e)" style="mix-blend-mode:screen"/><polygon points="138.4 231.1 138.4 238.4 176.1 216.3 176.1 208.9 138.4 231.1" fill="#2896bc"/><polygon points="138.4 231.1 138.4 238.4 100.7 216.4 100.7 209.1 138.4 231.1" fill="#2aace3"/><polygon points="100.7 209.1 138.4 231.1 176.1 208.9 138.3 186.9 100.7 209.1" fill="#58cff9"/><path d="M104.3,206.1,138.4,226l34.1-20-34.2-19.9Zm34.1,21h-.3L103,206.6a.8.8,0,0,1-.2-.5l.2-.4,35.1-20.6h.5l35.1,20.4a.5.5,0,0,1,.3.5.5.5,0,0,1-.3.4L138.6,227Z" fill="#43e8e1"/><path d="M104.3,201.8l34.1,19.8,34.1-20-34.2-19.9Zm34.1,20.9h-.3L103,202.2l-.2-.4a.8.8,0,0,1,.2-.5l35.1-20.6h.5l35.1,20.5c.2,0,.3.2.3.4s-.1.3-.3.4l-35.1,20.6Z" fill="#43e8e1"/><path d="M104.3,197.4l34.1,19.8,34.1-20-34.2-19.9Zm34.1,20.9h-.3L103,197.8a.5.5,0,0,1-.2-.4c0-.2.1-.4.2-.4l35.1-20.7a.4.4,0,0,1,.5,0l35.1,20.5c.2.1.3.2.3.4s-.1.3-.3.4l-35.1,20.6C138.6,218.3,138.5,218.3,138.4,218.3Z" fill="#43e8e1"/><path d="M104.3,193l34.1,19.9,34.1-20.1L138.3,173Zm34.1,20.9h-.3L103,193.4c-.1,0-.2-.2-.2-.4a.5.5,0,0,1,.2-.4l35.1-20.7h.5l35.1,20.5a.5.5,0,0,1,.3.4.5.5,0,0,1-.3.5l-35.1,20.6Z" fill="#43e8e1"/><g opacity="0.5"><path d="M104.3,188.6l34.1,19.9,34.1-20-34.2-19.9Zm34.1,21h-.3L103,189.1a.8.8,0,0,1-.2-.5l.2-.4,35.1-20.6h.5L173.7,188a.5.5,0,0,1,.3.5.5.5,0,0,1-.3.4l-35.1,20.6Z" fill="#43e8e1"/></g><polygon points="138.4 200.1 138.4 206.4 176.1 184.3 176.1 177.9 138.4 200.1" fill="#2896bc"/><polygon points="138.4 200.1 138.4 206.4 100.7 184.4 100.7 178.1 138.4 200.1" fill="#2aace3"/><polygon points="100.7 178.1 138.4 200.1 176.1 177.9 138.3 155.9 100.7 178.1" fill="#58cff9"/><polygon points="138.4 199.5 101.2 177.8 100.7 178.1 138.4 200.1 176.1 177.9 175.6 177.6 138.4 199.5" fill="url(#a037d864-1163-4545-96b1-33e0f19ac809)" style="mix-blend-mode:screen"/><polygon points="176.1 184.3 176.1 177.9 149.2 193.7 154.6 196.9 176.1 184.3" opacity="0.2" fill="url(#e0ff674f-a1cf-4770-a86d-05351c7f0c0a)" style="mix-blend-mode:lighten"/><polygon points="138.4 200.1 138.4 238.4 176.1 216.3 176.1 177.9 138.4 200.1" fill="#2896bc" opacity="0.3"/><polygon points="138.4 200.1 138.4 238.4 100.7 216.4 100.7 178.1 138.4 200.1" fill="#2aace3" opacity="0.1"/><polygon points="225.8 149.2 225.8 187.6 263.6 165.4 263.6 127.1 225.8 149.2" fill="#2896bc"/><polygon points="225.9 149.2 225.9 187.6 188.2 165.6 188.2 127.3 225.9 149.2" fill="#2aace3"/><polygon points="188.2 127.3 225.9 149.2 263.6 127.1 225.8 105.1 188.2 127.3" fill="#58cff9"/><polygon points="225.9 148.6 188.7 127 188.2 127.3 225.9 149.2 263.6 127.1 263 126.8 225.9 148.6" fill="url(#b1bbe77e-505b-45cb-89d4-106b77686544)" style="mix-blend-mode:screen"/><polygon points="222.2 154.2 222.2 154.2 184.4 132.2 146.8 154.4 146.8 192.7 184.4 214.7 184.4 214.7 184.4 214.7 184.5 214.7 184.5 214.7 222.2 192.5 222.2 154.2" fill="url(#a39c812b-4060-423f-9b08-e7652294d355)" style="mix-blend-mode:screen"/><polygon points="219.8 227.7 219.8 235 257.5 212.9 257.5 205.5 219.8 227.7" fill="url(#bbf5e594-9f02-413b-bc35-920edba4fae8)"/><polygon points="219.8 227.7 219.8 235 182.1 213 182.1 205.7 219.8 227.7" fill="url(#ac97571f-6242-488d-9ccd-c7a140746441)"/><polygon points="182.1 205.7 219.8 227.7 257.5 205.5 219.7 183.5 182.1 205.7" fill="url(#bdd59f40-3c6e-445e-b4a6-6c64e01873de)"/><polygon points="219.8 227.1 182.6 205.4 182.1 205.7 219.8 227.7 257.5 205.5 257 205.2 219.8 227.1" fill="url(#a48c9637-8b71-442c-b644-75f0e3cedc35)" style="mix-blend-mode:screen"/><polygon points="219.8 217.3 219.8 224.7 257.5 202.5 257.5 195.2 219.8 217.3" fill="url(#b55c86f7-5598-4655-98c9-4279cdffd9b9)"/><polygon points="219.8 217.3 219.8 224.7 182.1 202.7 182.1 195.4 219.8 217.3" fill="url(#a13300cf-06df-4055-99ca-9b6cee85fd88)"/><polygon points="182.1 195.4 219.8 217.3 257.5 195.2 219.7 173.2 182.1 195.4" fill="url(#bff95c50-cdb6-43c1-8d73-ff5406b873f5)"/><polygon points="219.8 216.7 182.6 195.1 182.1 195.4 219.8 217.3 257.5 195.2 257 194.9 219.8 216.7" fill="url(#a37319a7-2f21-4f6c-a6d8-853edecde170)" style="mix-blend-mode:screen"/><polygon points="219.8 207 219.8 214.3 257.5 192.2 257.5 184.8 219.8 207" fill="url(#ef616ca7-9b53-4850-bc55-61cdc2204663)"/><polygon points="219.8 207 219.8 214.3 182.1 192.4 182.1 185 219.8 207" fill="url(#fedf58ba-5564-42c7-a42d-0edab868d22a)"/><polygon points="182.1 185 219.8 207 257.5 184.8 219.7 162.9 182.1 185" fill="url(#b9949fcc-dc2f-4306-b558-e9f598103e6b)"/><polygon points="219.8 206.4 182.6 184.7 182.1 185 219.8 207 257.5 184.8 257 184.5 219.8 206.4" fill="url(#b627068b-db09-4250-8843-49c8bddd8a26)" style="mix-blend-mode:screen"/><polygon points="219.8 196.7 219.8 204 257.5 181.9 257.5 174.5 219.8 196.7" fill="url(#a7465351-4208-4026-87c9-1756e8ba01da)"/><polygon points="219.8 196.7 219.8 204 182.1 182 182.1 174.7 219.8 196.7" fill="url(#fe85b0b5-eefc-42e9-8305-86ae0bb427df)"/><polygon points="182.1 174.7 219.8 196.7 257.5 174.5 219.7 152.5 182.1 174.7" fill="url(#a97b2377-834a-4cce-bc28-961b64b69117)"/><polygon points="188 174.7 219.7 156 251.5 174.5 219.8 193.2 188 174.7" fill="#58cff9"/><polygon points="219.7 157.5 250.3 175.3 251.5 174.5 219.7 156 188 174.7 189.3 175.4 219.7 157.5" fill="#2896bc"/><polygon points="219.7 157.5 250.3 175.3 251.5 174.5 219.7 156 219.7 157.5" fill="#2aace3"/><polygon points="219.8 196.1 182.6 174.4 182.1 174.7 219.8 196.7 257.5 174.5 257 174.2 219.8 196.1" fill="url(#a97f5434-0968-4355-ac96-0638e6095e9e)" style="mix-blend-mode:screen"/><path d="M217.1,162.3l-19.4,11.2,3,1.8L220.2,164Zm2,15.2-2.9-1.7-3,1.7a3.1,3.1,0,0,1-3.3.2c-1-.6-.9-1.2.3-1.9l10.8-6.3a3.5,3.5,0,0,1,3.4-.2c1,.6.9,1.3-.3,2l-2.2,1.3,2.9,1.7,2-1.2q2.3-1.3,2.4-2.7t-2.1-2.7a7.9,7.9,0,0,0-4.7-1.2,9.7,9.7,0,0,0-4.6,1.3l-10.5,6.1c-1.5.8-2.3,1.7-2.3,2.7s.6,1.8,2.1,2.6a8.4,8.4,0,0,0,4.6,1.3,10.2,10.2,0,0,0,4.7-1.4Zm18.8-3.5a9,9,0,0,0-4.7-1.3,9.2,9.2,0,0,0-4.8,1.4L218.2,180c-1.6.9-2.4,1.8-2.4,2.8s.6,1.8,2.1,2.7a9.1,9.1,0,0,0,4.8,1.3,11,11,0,0,0,4.8-1.4l10.2-5.9c1.6-.9,2.4-1.8,2.4-2.8S239.4,174.8,237.9,174Zm-3.1,3.6-10.6,6.1a3.2,3.2,0,0,1-3.5.2c-1-.6-.9-1.3.3-2l10.6-6.1a3.4,3.4,0,0,1,3.6-.2C236.2,176.2,236.1,176.9,234.8,177.6Z" fill="#43e8e1"/><path d="M217.1,162.3l-19.4,11.2,3,1.8L220.2,164Zm2,15.2-2.9-1.7-3,1.7a3.1,3.1,0,0,1-3.3.2c-1-.6-.9-1.2.3-1.9l10.8-6.3a3.5,3.5,0,0,1,3.4-.2c1,.6.9,1.3-.3,2l-2.2,1.3,2.9,1.7,2-1.2q2.3-1.3,2.4-2.7t-2.1-2.7a7.9,7.9,0,0,0-4.7-1.2,9.7,9.7,0,0,0-4.6,1.3l-10.5,6.1c-1.5.8-2.3,1.7-2.3,2.7s.6,1.8,2.1,2.6a8.4,8.4,0,0,0,4.6,1.3,10.2,10.2,0,0,0,4.7-1.4Zm18.8-3.5a9,9,0,0,0-4.7-1.3,9.2,9.2,0,0,0-4.8,1.4L218.2,180c-1.6.9-2.4,1.8-2.4,2.8s.6,1.8,2.1,2.7a9.1,9.1,0,0,0,4.8,1.3,11,11,0,0,0,4.8-1.4l10.2-5.9c1.6-.9,2.4-1.8,2.4-2.8S239.4,174.8,237.9,174Zm-3.1,3.6-10.6,6.1a3.2,3.2,0,0,1-3.5.2c-1-.6-.9-1.3.3-2l10.6-6.1a3.4,3.4,0,0,1,3.6-.2C236.2,176.2,236.1,176.9,234.8,177.6Z" fill="#43e8e1"/><path d="M217.1,163.3,198.5,174l-.3-.2,2.5,1.5,18.6-10.8Zm2,14.2-2.9-1.7-3,1.7a3.1,3.1,0,0,1-3.3.2c-1-.6-.9-1.2.3-1.9l10.8-6.3a3.5,3.5,0,0,1,3.4-.2c1,.6.9,1.3-.3,2l-2.2,1.3,2.9,1.7,2-1.2c1.3-.8,2.1-1.5,2.3-2.3a4.3,4.3,0,0,0-2-2.1,7.9,7.9,0,0,0-4.7-1.2,9.7,9.7,0,0,0-4.6,1.3l-10.5,6.1a4.6,4.6,0,0,0-2.3,2.3v-.3c.1.8.8,1.6,2.1,2.3a8.4,8.4,0,0,0,4.6,1.3,10.2,10.2,0,0,0,4.7-1.4Zm18.8-2.5a9,9,0,0,0-4.7-1.3,9.2,9.2,0,0,0-4.8,1.4L218.2,181a4.6,4.6,0,0,0-2.4,2.4,4.2,4.2,0,0,0,2.1,2.1,9.1,9.1,0,0,0,4.8,1.3,11,11,0,0,0,4.8-1.4l10.2-5.9a4.7,4.7,0,0,0,2.3-2.4A4.2,4.2,0,0,0,237.9,175Zm-3.1,2.6-10.6,6.1a3.2,3.2,0,0,1-3.5.2c-1-.6-.9-1.3.3-2l10.6-6.1a3.4,3.4,0,0,1,3.6-.2C236.2,176.2,236.1,176.9,234.8,177.6Z" fill="url(#effb4edb-cd99-47cd-b12d-b41ef24bb348)" style="mix-blend-mode:color-dodge"/><polygon points="183.2 80.5 183.2 118.8 220.9 96.7 220.9 58.3 183.2 80.5" fill="#2896bc"/><polygon points="183.2 80.5 183.2 118.8 145.5 96.8 145.5 58.5 183.2 80.5" fill="#2aace3"/><polygon points="145.5 58.5 183.2 80.5 220.9 58.3 183.1 36.4 145.5 58.5" fill="#58cff9"/><polygon points="183.2 79.9 146 58.2 145.5 58.5 183.2 80.5 220.9 58.3 220.4 58 183.2 79.9" fill="url(#f13d777c-b721-430f-8bde-76216bd3d358)" style="mix-blend-mode:screen"/><path d="M257,123.2h-.3l-7.2-3.5c-.3-1.2-2.1-2-4.4-2.1l-18.5-9-1.2,2.5,14,6.8-9-1.6c-.5-1.1-2.4-1.9-4.6-1.9s-4.8,1.2-4.8,2.5,1.6,2.2,3.7,2.4l-.6,22.3c-1.8.4-3.1,1.3-3.1,2.3s2.2,2.5,4.8,2.5,4.8-1.1,4.8-2.5a.7.7,0,0,0-.1-.5L257,128.1h1.1a5.9,5.9,0,0,0,4.5-1.6Zm-30.1,17.2.6-21.1,1.4-.4,11.3,2.1c.2.1.3.3.5.5l-2,1.8h-.4c-2.7,0-4.8,1.1-4.8,2.5s.6,1.4,1.6,1.8Zm3.3,0,7.8-12.2h.3c2.6,0,4.8-1.2,4.8-2.5a2.1,2.1,0,0,0-1.2-1.6l1.8-1.7h1a7.5,7.5,0,0,0,3.1-.6l5.8,2.8a1.4,1.4,0,0,0,.2,1.9Z" fill="#bcbcd6" style="mix-blend-mode:multiply"/><g opacity="0.7"><rect x="218.9" y="94.3" width="21.2" height="3.4" transform="translate(56.2 274.6) rotate(-68.6)" fill="#8770b8" opacity="0.7"/><rect x="219.7" y="94.9" width="19.2" height="1.4" transform="translate(56.5 274.1) rotate(-68.6)" fill="#8770b8" opacity="0.5" style="mix-blend-mode:screen"/></g><g opacity="0.7"><path d="M216.3,122.4a1.6,1.6,0,0,1-1.5-1.1l-7-18.8a1.3,1.3,0,0,1,0-1.2l6.5-17.2a.4.4,0,0,1,.1-.3l9.7-17.7,3,1.6-9.7,17.7-6.2,16.5,6.2,16.8,20.5-3.5.6,3.3-21.9,3.8Z" fill="#8770b8" opacity="0.7"/><path d="M216.1,121a.7.7,0,0,1-.6-.5l-7-18.7a.4.4,0,0,1,0-.5L215,84h0l9.3-16.8,1.2.6-9.2,16.9-6.4,16.9,6.7,18,20.3-3.6.2,1.4L216.3,121Z" fill="#8770b8" opacity="0.5" style="mix-blend-mode:screen"/></g><g opacity="0.7"><path d="M244.3,99.4a1.6,1.6,0,0,1-1.2-.6l-10.5-11-15.8-1.3.3-3.4,16.4,1.4a1.6,1.6,0,0,1,1.1.5l9.9,10.4,12.8-10.3,2.1,2.6L245.4,99A2.1,2.1,0,0,1,244.3,99.4Z" fill="#8770b8" opacity="0.7"/><path d="M244.1,98l-.5-.2L232.8,86.4l-15.1-1.2V83.8l15.4,1.3.5.2,10.5,11,12.7-10.2.9,1.1L244.6,97.8Z" fill="#8770b8" opacity="0.5" style="mix-blend-mode:screen"/></g><g opacity="0.7"><path d="M256.9,119.4l-12-17.9-5.1,15.9-3.2-1.1,6.1-19.2a1.8,1.8,0,0,1,1.4-1.1,1.8,1.8,0,0,1,1.7.7l14,20.8Z" fill="#8770b8" opacity="0.7"/><path d="M244.4,98.9,239,115.7l-1.4-.4,5.9-18.2c.1-.3.3-.5.5-.5h.2a.5.5,0,0,1,.5.3l13.5,19.9-1.2.8Z" fill="#8770b8" opacity="0.5" style="mix-blend-mode:screen"/></g><g opacity="0.7"><path d="M225.6,107.6H225a1.8,1.8,0,0,1-1-.9l-8.2-20-22.3,1.5a1.7,1.7,0,0,1-1.8-1.2,1.7,1.7,0,0,1,.8-1.9l32.2-19.5,1.8,2.9L200.2,84.3l16.6-1.2a1.8,1.8,0,0,1,1.7,1.1l8,19.4L244,95.8l1.4,3.1-19.1,8.6Z" fill="#8770b8" opacity="0.7"/><path d="M225.4,106.2h-.3l-.4-.4-8.4-20.6-23.1,1.5a.7.7,0,0,1-.4-1.3l31.4-19,.7,1.2L199.5,83l.6,1.9,16.6-1.2a.8.8,0,0,1,.7.5l8.4,20.4,17.5-7.9.6,1.3-18.2,8.2Z" fill="#8770b8" opacity="0.5" style="mix-blend-mode:screen"/></g><g opacity="0.7"><path d="M225.6,139.9a1.6,1.6,0,0,1-.9-.3l-32.2-19.2a1.9,1.9,0,0,1-.9-1.5V86.4H195V118l30.6,18.2,28.9-17.4L225,107.5l1.2-3.2L259,116.8a1.6,1.6,0,0,1,1,1.5,1.6,1.6,0,0,1-.8,1.6l-32.7,19.7A1.6,1.6,0,0,1,225.6,139.9Z" fill="#8770b8" opacity="0.7"/><path d="M225.4,138.5H225l-32.2-19.3a.7.7,0,0,1-.4-.6V87h1.4v31.1L225.4,137l31.2-18.8-30.5-11.7.5-1.3,31.8,12.2a.7.7,0,0,1,.4.6c.1.2-.1.5-.3.6l-32.7,19.8Z" fill="#8770b8" opacity="0.5" style="mix-blend-mode:screen"/></g><g opacity="0.7"><path d="M257.5,87.9,229.7,70.8l5.3,15-3.2,1.1-7-19.5a1.8,1.8,0,0,1,.6-1.9,1.7,1.7,0,0,1,1.9-.1L259.2,85Z" fill="#8770b8" opacity="0.7"/><path d="M227.6,68.1l5.9,16.7-1.3.4-6.6-18.5a.8.8,0,0,1,.2-.8l.4-.2h.4l31.1,19.1-.8,1.2Z" fill="#8770b8" opacity="0.5" style="mix-blend-mode:screen"/></g><g opacity="0.7"><path d="M194,120.5l-1.3-3.2,31.2-12.5V67.1h3.4v38.8a1.7,1.7,0,0,1-1.1,1.6Z" fill="#8770b8" opacity="0.7"/><path d="M193.8,117.5,224.7,105V67.7h1.4v37.8a.8.8,0,0,1-.4.7l-31.4,12.6Z" fill="#8770b8" opacity="0.5" style="mix-blend-mode:screen"/></g><g opacity="0.7"><rect x="199.6" y="83.2" width="3.4" height="22.81" transform="translate(-9.3 166.2) rotate(-44)" fill="#8770b8"/><rect x="200.4" y="83.8" width="1.4" height="20.81" transform="translate(-9.1 165.8) rotate(-43.9)" fill="#8770b8" opacity="0.5" style="mix-blend-mode:screen"/></g><g opacity="0.7"><path d="M217.8,121.6l-2.9-1.8,9.3-14.8a1.6,1.6,0,0,1,2.1-.6l14.7,6.5-1.3,3.1-13.4-5.9Z" fill="#8770b8" opacity="0.7"/><path d="M216.1,119l8.7-13.9a.7.7,0,0,1,.6-.3h.3l13.8,6.1-.6,1.3-13.2-5.9-8.4,13.4Z" fill="#8770b8" opacity="0.5" style="mix-blend-mode:screen"/></g><g opacity="0.7"><path d="M225.6,139.9h0a1.7,1.7,0,0,1-1.5-.9l-8.8-16.7-22.1-1.7a1.6,1.6,0,0,1-1.4-1.1,1.5,1.5,0,0,1,.3-1.7l16-17,2.5,2.3L197,117.5l19.5,1.5a1.4,1.4,0,0,1,1.3.9l7.9,14.7,13.2-23a1.8,1.8,0,0,1,2-.8l15.7,5.2V87.9H233.3V84.5h25a1.6,1.6,0,0,1,1.7,1.7v32.1a1.5,1.5,0,0,1-.7,1.4,1.6,1.6,0,0,1-1.5.2l-16.7-5.4-14,24.5A1.9,1.9,0,0,1,225.6,139.9Z" fill="#8770b8" opacity="0.7"/><path d="M225.4,138.5a.7.7,0,0,1-.6-.4l-9.1-17.2-22.6-1.7a.7.7,0,0,1-.6-.4,1.1,1.1,0,0,1,.1-.8L208,101.8l1,.9-14.3,15.2,21.5,1.7a.7.7,0,0,1,.6.3l8.6,16.4,14.1-24.6c.2-.2.4-.4.6-.4h.3l17,5.6V86.5H234.1V85.1h24a.7.7,0,0,1,.7.7v32.1a.8.8,0,0,1-.2.6h-.7l-17.4-5.7L226,138.1a.8.8,0,0,1-.6.4Z" fill="#8770b8" opacity="0.5" style="mix-blend-mode:screen"/></g><path d="M198.4,118.9a5.1,5.1,0,1,1-5.1-5.1A5.1,5.1,0,0,1,198.4,118.9Z" fill="url(#ea0d55b9-a14e-47c5-9098-0338d2d9596a)"/><path d="M198.4,86.4a5.1,5.1,0,1,1-5.1-5.1A5.1,5.1,0,0,1,198.4,86.4Z" fill="url(#b24dfb1c-7052-4fd9-83b2-b9823aa65dc8)"/><path d="M230.7,105.9a5.1,5.1,0,1,1-5.1-5.1A5.1,5.1,0,0,1,230.7,105.9Z" fill="url(#af492d2d-a440-40c5-a3f4-8c9a5d9fa48f)"/><path d="M221.4,120.7a5.1,5.1,0,1,1-5.1-5.1A5.1,5.1,0,0,1,221.4,120.7Z" fill="url(#abd70792-fd86-4090-8974-66f4c9869261)"/><path d="M263.4,86.4a5.1,5.1,0,1,1-5.1-5.1A5.1,5.1,0,0,1,263.4,86.4Z" fill="url(#ff3e2258-b27d-4148-a2cb-f6baf767d032)"/><path d="M263.4,118.4a5.1,5.1,0,1,1-5.1-5.1A5.1,5.1,0,0,1,263.4,118.4Z" fill="url(#fd811eda-876f-4e99-a5f5-47ccf34a4f64)"/><path d="M230.7,138.2a5.1,5.1,0,1,1-5.1-5.1A5.1,5.1,0,0,1,230.7,138.2Z" fill="url(#a7fff509-140e-4012-8c04-7878ebed9a9f)"/><path d="M230.7,66.9a5.1,5.1,0,1,1-5.1-5.1A5.1,5.1,0,0,1,230.7,66.9Z" fill="url(#e20f2ca6-2b71-4504-a52d-e17e98d3b524)"/><path d="M238.4,86.2a5.1,5.1,0,1,1-5.1-5.1A5.1,5.1,0,0,1,238.4,86.2Z" fill="url(#bc5237d9-5848-4bde-b3b7-d9f6d20da561)"/><path d="M249.4,97.7a5.1,5.1,0,1,1-5.1-5.1A5.1,5.1,0,0,1,249.4,97.7Z" fill="url(#ac421b79-5a88-4be7-b7e0-9b2528a8a112)"/><path d="M243.3,116.4a5.1,5.1,0,1,1-5.1-5.1A5.1,5.1,0,0,1,243.3,116.4Z" fill="url(#ae6c2288-51b1-4377-9058-ba7b618d3053)"/><path d="M214.4,101.9a5.1,5.1,0,1,1-5.1-5.1A5.1,5.1,0,0,1,214.4,101.9Z" fill="url(#f9c348a9-abe6-44bd-a1cb-872f7637768e)"/><path d="M221.4,84.6a5.1,5.1,0,0,1-10.2,0,5.1,5.1,0,1,1,10.2,0Z" fill="url(#a569616c-3b33-4d4d-b92c-68f8a53dd430)"/><polygon points="96.8 80.9 96.8 119.2 134.5 97.1 134.5 58.7 96.8 80.9" fill="#2896bc"/><polygon points="96.8 80.9 96.8 119.2 59.1 97.2 59.1 58.9 96.8 80.9" fill="#2aace3"/><polygon points="59.1 58.9 96.8 80.9 134.5 58.7 96.7 36.7 59.1 58.9" fill="#58cff9"/><polygon points="96.8 80.3 59.6 58.6 59.1 58.9 96.8 80.9 134.5 58.7 134 58.4 96.8 80.3" fill="url(#bf2bccdb-bbf3-4755-9d07-1b88fe35b8ef)" style="mix-blend-mode:screen"/><polygon points="138.4 105.9 138.4 144.2 176.1 122.1 176.1 83.7 138.4 105.9" fill="#2896bc"/><polygon points="138.4 105.9 138.4 144.2 100.7 122.3 100.7 83.9 138.4 105.9" fill="#2aace3"/><polygon points="100.7 83.9 138.4 105.9 176.1 83.7 138.3 61.8 100.7 83.9" fill="#58cff9"/><polygon points="138.4 105.3 101.2 83.6 100.7 83.9 138.4 105.9 176.1 83.7 175.6 83.4 138.4 105.3" fill="url(#acfd6ae9-44c7-433f-bd95-1016bbdda3fa)" style="mix-blend-mode:screen"/><polygon points="182.1 130.9 182.1 169.3 219.8 147.1 219.8 108.8 182.1 130.9" fill="#2896bc"/><polygon points="182.1 130.9 182.1 169.3 144.4 147.3 144.4 109 182.1 130.9" fill="#2aace3"/><polygon points="144.4 109 182.1 130.9 219.8 108.8 182.1 86.8 144.4 109" fill="#58cff9"/><polygon points="182.1 130.3 144.9 108.7 144.4 109 182.1 130.9 219.8 108.8 219.3 108.5 182.1 130.3" fill="url(#affa6981-b3a4-4ad7-956e-91cd8cda1db4)" style="mix-blend-mode:screen"/><polygon points="182.5 130.7 182.1 130.9 182.1 134.2 208.9 149.8 182.1 165.5 182.1 169.3 215.3 149.8 182.5 130.7" opacity="0.2" fill="url(#a15f24d6-6ac7-40dc-bacf-ea6cf7341a8f)" style="mix-blend-mode:lighten"/><g opacity="0.2" style="mix-blend-mode:lighten"><polygon points="201.1 150.1 198 148.4 182.1 157.6 182.1 161.1 201.1 150.1" fill="url(#ae63f688-f97c-425f-900f-de74acc3cfc0)"/><path d="M188.6,147.9l-6.5,3.7v3.6l9.4-5.4c1.5-.9,2.3-1.8,2.3-2.8s-.6-1.8-2.1-2.6a7.8,7.8,0,0,0-4.6-1.2,10.1,10.1,0,0,0-4.7,1.3l-.3.2v2.8l.5.3,2.9-1.7a3.1,3.1,0,0,1,3.3-.2C189.9,146.5,189.8,147.2,188.6,147.9Z" fill="url(#ee44614e-7d35-4fee-b270-31b9397d84d6)"/><path d="M182.1,139v3.5a2.2,2.2,0,0,0,0-3.5Z" fill="url(#b34753ae-7605-4b26-801d-f1cefff54b23)"/></g><polygon points="53 106.3 53 144.6 90.7 122.5 90.7 84.1 53 106.3" fill="#2896bc"/><polygon points="53 106.3 53 144.6 15.3 122.6 15.3 84.3 53 106.3" fill="#2aace3"/><polygon points="15.3 84.3 53 106.3 90.7 84.1 53 62.2 15.3 84.3" fill="#58cff9"/><polygon points="53 105.7 15.8 84 15.3 84.3 53 106.3 90.7 84.1 90.2 83.8 53 105.7" fill="url(#a0910891-a139-4343-abd6-ece0fc65a9d6)" style="mix-blend-mode:screen"/><polygon points="95.7 131.3 95.7 169.7 133.4 147.5 133.4 109.2 95.7 131.3" fill="#2896bc"/><polygon points="95.7 131.3 95.7 169.7 58 147.7 58 109.3 95.7 131.3" fill="#2aace3"/><polygon points="58 109.3 95.7 131.3 133.4 109.2 95.7 87.2 58 109.3" fill="#58cff9"/><polygon points="95.7 151.1 95.7 169.5 133.4 147.6 133.4 129.1 95.7 151.1" fill="#2896bc"/><path d="M98,165.5V152.4l33.1-19.3v13.1Zm1.8-12.1v9l29.5-17.2v-9Z" fill="#2896bc"/><polygon points="95.8 151.1 95.8 169.5 58 147.5 58 129.1 95.8 151.1" fill="#2aace3"/><polygon points="61.2 145.7 61.2 134.6 92.6 152.9 92.6 164 61.2 145.7" fill="#25054d"/><path d="M93.5,165.5,60.3,146.2V133.1l33.2,19.3ZM62.1,145.2l29.6,17.2v-9L62.1,136.2Z" fill="#2aace3"/><polygon points="88.3 154 89.5 154.7 89.5 153.3 88.3 152.6 88.3 154" fill="#2af6ff"/><polygon points="86 152.7 87.2 153.4 87.2 152 86 151.3 86 152.7" fill="#2af6ff"/><polygon points="83.7 151.4 84.9 152.1 84.9 150.7 83.7 150 83.7 151.4" fill="#4b61b8"/><polygon points="81.4 150.1 82.6 150.8 82.6 149.4 81.4 148.7 81.4 150.1" fill="#25054d"/><polygon points="79.1 148.7 80.4 149.4 80.4 148 79.1 147.3 79.1 148.7" fill="#25054d"/><polygon points="76.9 147.4 78.1 148.1 78.1 146.7 76.9 146 76.9 147.4" fill="#4b61b8"/><polygon points="74.6 146.1 75.8 146.8 75.8 145.4 74.6 144.7 74.6 146.1" fill="#4b61b8"/><polygon points="72.3 144.8 73.5 145.5 73.5 144.1 72.3 143.4 72.3 144.8" fill="#4b61b8"/><polygon points="70 143.5 71.2 144.2 71.2 142.8 70 142.1 70 143.5" fill="#25054d"/><polygon points="67.7 142.1 69 142.9 69 141.5 67.7 140.8 67.7 142.1" fill="#4b61b8"/><polygon points="65.5 140.8 66.7 141.5 66.7 140.1 65.5 139.4 65.5 140.8" fill="#2af6ff"/><polygon points="63.2 139.5 64.4 140.2 64.4 138.8 63.2 138.1 63.2 139.5" fill="#2af6ff"/><polygon points="88.3 156.5 89.5 157.2 89.5 155.8 88.3 155.1 88.3 156.5" fill="#4b61b8"/><polygon points="86 155.2 87.2 155.9 87.2 154.5 86 153.8 86 155.2" fill="#2af6ff"/><polygon points="83.7 153.9 84.9 154.6 84.9 153.2 83.7 152.5 83.7 153.9" fill="#2af6ff"/><polygon points="81.4 152.5 82.6 153.2 82.6 151.8 81.4 151.1 81.4 152.5" fill="#25054d"/><polygon points="79.1 151.2 80.4 151.9 80.4 150.5 79.1 149.8 79.1 151.2" fill="#2af6ff"/><polygon points="76.9 149.9 78.1 150.6 78.1 149.2 76.9 148.5 76.9 149.9" fill="#2af6ff"/><polygon points="74.6 148.6 75.8 149.3 75.8 147.9 74.6 147.2 74.6 148.6" fill="#2af6ff"/><polygon points="72.3 147.3 73.5 148 73.5 146.6 72.3 145.9 72.3 147.3" fill="#4b61b8"/><polygon points="70 145.9 71.2 146.6 71.2 145.3 70 144.6 70 145.9" fill="#4b61b8"/><polygon points="67.7 144.6 69 145.3 69 143.9 67.7 143.2 67.7 144.6" fill="#4b61b8"/><polygon points="65.5 143.3 66.7 144 66.7 142.6 65.5 141.9 65.5 143.3" fill="#4b61b8"/><polygon points="63.2 142 64.4 142.7 64.4 141.3 63.2 140.6 63.2 142" fill="#4b61b8"/><polygon points="88.3 158.9 89.5 159.6 89.5 158.3 88.3 157.6 88.3 158.9" fill="#2af6ff"/><polygon points="86 157.6 87.2 158.3 87.2 156.9 86 156.2 86 157.6" fill="#4b61b8"/><polygon points="83.7 156.3 84.9 157 84.9 155.6 83.7 154.9 83.7 156.3" fill="#4b61b8"/><polygon points="81.4 155 82.6 155.7 82.6 154.3 81.4 153.6 81.4 155" fill="#4b61b8"/><polygon points="79.1 153.7 80.4 154.4 80.4 153 79.1 152.3 79.1 153.7" fill="#4b61b8"/><polygon points="76.9 152.4 78.1 153.1 78.1 151.7 76.9 151 76.9 152.4" fill="#4b61b8"/><polygon points="74.6 151 75.8 151.7 75.8 150.3 74.6 149.6 74.6 151" fill="#25054d"/><polygon points="72.3 149.7 73.5 150.4 73.5 149 72.3 148.3 72.3 149.7" fill="#2af6ff"/><polygon points="70 148.4 71.2 149.1 71.2 147.7 70 147 70 148.4" fill="#4b61b8"/><polygon points="67.7 147.1 69 147.8 69 146.4 67.7 145.7 67.7 147.1" fill="#4b61b8"/><polygon points="65.5 145.8 66.7 146.5 66.7 145.1 65.5 144.4 65.5 145.8" fill="#2af6ff"/><polygon points="63.2 144.4 64.4 145.2 64.4 143.8 63.2 143.1 63.2 144.4" fill="#2af6ff"/><polygon points="102.9 154 101.7 154.7 101.7 153.3 102.9 152.6 102.9 154" fill="#2af6ff"/><polygon points="105.2 152.7 104 153.4 104 152 105.2 151.3 105.2 152.7" fill="#25054d"/><polygon points="107.5 151.4 106.3 152.1 106.3 150.7 107.5 150 107.5 151.4" fill="#4b61b8"/><polygon points="109.8 150.1 108.5 150.8 108.5 149.4 109.8 148.7 109.8 150.1" fill="#25054d"/><polygon points="112 148.7 110.8 149.4 110.8 148 112 147.3 112 148.7" fill="#25054d"/><polygon points="114.3 147.4 113.1 148.1 113.1 146.7 114.3 146 114.3 147.4" fill="#4b61b8"/><polygon points="116.6 146.1 115.4 146.8 115.4 145.4 116.6 144.7 116.6 146.1" fill="#4b61b8"/><polygon points="118.9 144.8 117.7 145.5 117.7 144.1 118.9 143.4 118.9 144.8" fill="#4b61b8"/><polygon points="121.2 143.5 120 144.2 120 142.8 121.2 142.1 121.2 143.5" fill="#25054d"/><polygon points="123.4 142.1 122.2 142.9 122.2 141.5 123.4 140.8 123.4 142.1" fill="#25054d"/><polygon points="125.7 140.8 124.5 141.5 124.5 140.1 125.7 139.4 125.7 140.8" fill="#2af6ff"/><polygon points="128 139.5 126.8 140.2 126.8 138.8 128 138.1 128 139.5" fill="#2af6ff"/><polygon points="102.9 156.5 101.7 157.2 101.7 155.8 102.9 155.1 102.9 156.5" fill="#4b61b8"/><polygon points="105.2 155.2 104 155.9 104 154.5 105.2 153.8 105.2 155.2" fill="#25054d"/><polygon points="107.5 153.9 106.3 154.6 106.3 153.2 107.5 152.5 107.5 153.9" fill="#2af6ff"/><polygon points="109.8 152.5 108.5 153.2 108.5 151.8 109.8 151.1 109.8 152.5" fill="#25054d"/><polygon points="112 151.2 110.8 151.9 110.8 150.5 112 149.8 112 151.2" fill="#2af6ff"/><polygon points="114.3 149.9 113.1 150.6 113.1 149.2 114.3 148.5 114.3 149.9" fill="#2af6ff"/><polygon points="116.6 148.6 115.4 149.3 115.4 147.9 116.6 147.2 116.6 148.6" fill="#2af6ff"/><polygon points="118.9 147.3 117.7 148 117.7 146.6 118.9 145.9 118.9 147.3" fill="#4b61b8"/><polygon points="121.2 145.9 120 146.6 120 145.3 121.2 144.6 121.2 145.9" fill="#4b61b8"/><polygon points="123.4 144.6 122.2 145.3 122.2 143.9 123.4 143.2 123.4 144.6" fill="#4b61b8"/><polygon points="125.7 143.3 124.5 144 124.5 142.6 125.7 141.9 125.7 143.3" fill="#4b61b8"/><polygon points="128 142 126.8 142.7 126.8 141.3 128 140.6 128 142" fill="#4b61b8"/><polygon points="102.9 158.9 101.7 159.6 101.7 158.3 102.9 157.6 102.9 158.9" fill="#2af6ff"/><polygon points="105.2 157.6 104 158.3 104 156.9 105.2 156.2 105.2 157.6" fill="#4b61b8"/><polygon points="107.5 156.3 106.3 157 106.3 155.6 107.5 154.9 107.5 156.3" fill="#4b61b8"/><polygon points="109.8 155 108.5 155.7 108.5 154.3 109.8 153.6 109.8 155" fill="#4b61b8"/><polygon points="112 153.7 110.8 154.4 110.8 153 112 152.3 112 153.7" fill="#4b61b8"/><polygon points="114.3 152.4 113.1 153.1 113.1 151.7 114.3 151 114.3 152.4" fill="#4b61b8"/><polygon points="116.6 151 115.4 151.7 115.4 150.3 116.6 149.6 116.6 151" fill="#25054d"/><polygon points="118.9 149.7 117.7 150.4 117.7 149 118.9 148.3 118.9 149.7" fill="#2af6ff"/><polygon points="121.2 148.4 120 149.1 120 147.7 121.2 147 121.2 148.4" fill="#4b61b8"/><polygon points="123.4 147.1 122.2 147.8 122.2 146.4 123.4 145.7 123.4 147.1" fill="#4b61b8"/><polygon points="125.7 145.8 124.5 146.5 124.5 145.1 125.7 144.4 125.7 145.8" fill="#4b61b8"/><polygon points="128 144.4 126.8 145.2 126.8 143.8 128 143.1 128 144.4" fill="#2af6ff"/><polygon points="58 129.1 95.8 151.1 133.4 129.1 95.6 107.1 58 129.1" fill="#2aace3"/><polygon points="95.7 144 95.7 150.2 130.7 129.8 130.7 123.6 95.7 144" fill="url(#b2047744-e685-4e3c-8275-9e2b0b65ee7d)"/><polygon points="95.8 144 95.8 150.2 60.7 129.7 60.7 123.6 95.8 144" fill="url(#f307f93c-2824-4c40-b275-ce3cafb6a5fc)"/><polygon points="95.7 131.3 95.7 149.8 133.4 127.8 133.4 109.3 95.7 131.3" fill="#2896bc"/><polygon points="95.8 131.3 95.8 149.8 58 127.7 58 109.3 95.8 131.3" fill="#2aace3"/><polygon points="61.2 125.9 61.2 114.9 92.6 133.1 92.6 144.2 61.2 125.9" fill="#25054d"/><path d="M93.5,145.8,60.3,126.4V113.3l33.2,19.3ZM62.1,125.4l29.6,17.3v-9L62.1,116.4Z" fill="#2aace3"/><polygon points="88.3 134.3 89.5 135 89.5 133.6 88.3 132.9 88.3 134.3" fill="#2af6ff"/><polygon points="86 132.9 87.2 133.6 87.2 132.2 86 131.5 86 132.9" fill="#2af6ff"/><polygon points="83.7 131.6 84.9 132.3 84.9 130.9 83.7 130.2 83.7 131.6" fill="#4b61b8"/><polygon points="81.4 130.3 82.6 131 82.6 129.6 81.4 128.9 81.4 130.3" fill="#25054d"/><polygon points="79.1 129 80.4 129.7 80.4 128.3 79.1 127.6 79.1 129" fill="#25054d"/><polygon points="76.9 127.7 78.1 128.4 78.1 127 76.9 126.3 76.9 127.7" fill="#4b61b8"/><polygon points="74.6 126.4 75.8 127.1 75.8 125.7 74.6 125 74.6 126.4" fill="#4b61b8"/><polygon points="72.3 125 73.5 125.7 73.5 124.3 72.3 123.6 72.3 125" fill="#4b61b8"/><polygon points="70 123.7 71.2 124.4 71.2 123 70 122.3 70 123.7" fill="#25054d"/><polygon points="67.7 122.4 69 123.1 69 121.7 67.7 121 67.7 122.4" fill="#4b61b8"/><polygon points="65.5 121.1 66.7 121.8 66.7 120.4 65.5 119.7 65.5 121.1" fill="#2af6ff"/><polygon points="63.2 119.8 64.4 120.5 64.4 119.1 63.2 118.4 63.2 119.8" fill="#2af6ff"/><polygon points="88.3 136.7 89.5 137.4 89.5 136 88.3 135.3 88.3 136.7" fill="#4b61b8"/><polygon points="86 135.4 87.2 136.1 87.2 134.7 86 134 86 135.4" fill="#2af6ff"/><polygon points="83.7 134.1 84.9 134.8 84.9 133.4 83.7 132.7 83.7 134.1" fill="#2af6ff"/><polygon points="81.4 132.8 82.6 133.5 82.6 132.1 81.4 131.4 81.4 132.8" fill="#25054d"/><polygon points="79.1 131.5 80.4 132.2 80.4 130.8 79.1 130.1 79.1 131.5" fill="#2af6ff"/><polygon points="76.9 130.1 78.1 130.8 78.1 129.5 76.9 128.8 76.9 130.1" fill="#2af6ff"/><polygon points="74.6 128.8 75.8 129.5 75.8 128.1 74.6 127.4 74.6 128.8" fill="#2af6ff"/><polygon points="72.3 127.5 73.5 128.2 73.5 126.8 72.3 126.1 72.3 127.5" fill="#4b61b8"/><polygon points="70 126.2 71.2 126.9 71.2 125.5 70 124.8 70 126.2" fill="#4b61b8"/><polygon points="67.7 124.9 69 125.6 69 124.2 67.7 123.5 67.7 124.9" fill="#4b61b8"/><polygon points="65.5 123.6 66.7 124.3 66.7 122.9 65.5 122.2 65.5 123.6" fill="#4b61b8"/><polygon points="63.2 122.2 64.4 122.9 64.4 121.5 63.2 120.8 63.2 122.2" fill="#4b61b8"/><polygon points="88.3 139.2 89.5 139.9 89.5 138.5 88.3 137.8 88.3 139.2" fill="#2af6ff"/><polygon points="86 137.9 87.2 138.6 87.2 137.2 86 136.5 86 137.9" fill="#4b61b8"/><polygon points="83.7 136.6 84.9 137.3 84.9 135.9 83.7 135.2 83.7 136.6" fill="#4b61b8"/><polygon points="81.4 135.2 82.6 135.9 82.6 134.6 81.4 133.8 81.4 135.2" fill="#4b61b8"/><polygon points="79.1 133.9 80.4 134.6 80.4 133.2 79.1 132.5 79.1 133.9" fill="#4b61b8"/><polygon points="76.9 132.6 78.1 133.3 78.1 131.9 76.9 131.2 76.9 132.6" fill="#4b61b8"/><polygon points="74.6 131.3 75.8 132 75.8 130.6 74.6 129.9 74.6 131.3" fill="#25054d"/><polygon points="72.3 130 73.5 130.7 73.5 129.3 72.3 128.6 72.3 130" fill="#2af6ff"/><polygon points="70 128.7 71.2 129.4 71.2 128 70 127.3 70 128.7" fill="#4b61b8"/><polygon points="67.7 127.3 69 128 69 126.6 67.7 125.9 67.7 127.3" fill="#4b61b8"/><polygon points="65.5 126 66.7 126.7 66.7 125.3 65.5 124.6 65.5 126" fill="#2af6ff"/><polygon points="63.2 124.7 64.4 125.4 64.4 124 63.2 123.3 63.2 124.7" fill="#2af6ff"/><polygon points="95.8 130.7 58.5 109 58 109.3 95.8 131.3 133.4 109.3 132.9 109 95.8 130.7" fill="url(#a8ddd268-f876-4a83-b45e-6a3fd8f0c83e)" style="mix-blend-mode:screen"/><polygon points="67.8 109.6 95.5 125.7 123.5 109.6 95.8 93.5 67.8 109.6" fill="url(#a5f2cbc7-1a85-4ce9-b0b3-2465bab94384)"/><g style="mix-blend-mode:color-dodge"><polygon points="81.8 117.7 95.6 125.7 109.5 117.7 95.8 109.7 81.8 117.7" fill="url(#abc8223f-1c21-4ef3-b296-a06b5adc6f1f)"/></g><polygon points="138.4 156.3 138.4 194.7 176.1 172.5 176.1 134.2 138.4 156.3" fill="#2896bc"/><polygon points="138.4 156.3 138.4 194.7 100.7 172.7 100.7 134.4 138.4 156.3" fill="#2aace3"/><polygon points="100.7 134.4 138.4 156.3 176.1 134.2 138.3 112.2 100.7 134.4" fill="#58cff9"/><polygon points="138.4 155.7 101.2 134.1 100.7 134.4 138.4 156.3 176.1 134.2 175.6 133.9 138.4 155.7" fill="url(#a3e38845-04d5-45e7-9ea5-8a5cac1f01a3)" style="mix-blend-mode:screen"/><polygon points="31.8 192.4 38 196 42 193.7 35.8 190.1 31.8 192.4" fill="#e2953f"/><polygon points="12.3 181.2 18.5 184.8 22.5 182.5 16.3 178.8 12.3 181.2" fill="#e2953f"/><polygon points="37.9 195.7 50.5 191.4 41.5 186 32.6 192.6 37.9 195.7" fill="url(#ae56de34-9754-473d-8786-a009721f5f0b)" style="mix-blend-mode:multiply"/><polygon points="18.5 184.3 31.1 180 22.1 174.6 13.2 181.2 18.5 184.3" fill="url(#a156d080-f9ed-43c6-9a24-640659a89ab2)" style="mix-blend-mode:multiply"/><path d="M32.1,170.6l-6.4-3.7c-5.1-2.9-9.3-.6-9.3,5.3v7.2l5.4,3v-5.3c0-3.3,2.4-4.6,5.3-3l3.6,2.1a11.7,11.7,0,0,1,5.2,9.1v5.3l5.4,3.1v-7.1C41.3,180.7,37.2,173.6,32.1,170.6Z" fill="url(#e3f3464b-c746-40aa-96e4-b222ce521d0f)"/><path d="M32.1,170.6l-6.4-3.7c-2.6-1.4-4.8-1.6-6.5-.6h0l-3.4,2,.6,4.1v7l1.3.7.7,4.3,3.4-2v-5.3c0-3.3,2.4-4.6,5.3-3l3.6,2.1a11.7,11.7,0,0,1,5.2,9.1v5.3l1.5.8.5,4.3,3.4-2h0v-7.1C41.3,180.7,37.2,173.6,32.1,170.6Z" fill="url(#be91ebf4-af71-4446-bdfa-25a49a6e80d4)"/><polygon points="41.3 193.7 41.3 193.7 41.3 193.7 41.3 193.7" fill="url(#b3763dac-3f52-48a8-9f08-944f87721793)"/><polygon points="41.3 193.7 41.3 193.7 41.3 193.7 41.3 193.7" fill="url(#b3763dac-3f52-48a8-9f08-944f87721793)"/><path d="M29.3,172.4l-6.4-3.7c-2.9-1.7-5.4-1.7-7.1-.3l.6,4v7l1.3.7.7,4.3.6-.3v-5.2c0-2.5,1.3-3.9,3.2-3.7.7-1.9,2.6-2.4,4.9-1.1l3.6,2.1a11.7,11.7,0,0,1,5.2,9.1v5.3l1.5.8.5,4.3.6-.3v-7.1C38.5,182.5,34.4,175.3,29.3,172.4Z" fill="url(#bf10aa56-4611-47d0-ac40-d3bd7ec23f35)" style="mix-blend-mode:screen"/><path d="M37.9,195.7Z"/><path d="M28.7,172.6l-6.4-3.7c-5.1-2.9-9.2-.6-9.2,5.3v7.2l5.3,3v-5.3c0-3.3,2.4-4.6,5.3-3l3.6,2.1a11.8,11.8,0,0,1,5.3,9.1v5.3l5.3,3.1v-7.1C37.9,182.7,33.8,175.6,28.7,172.6Z" fill="url(#b8bdf8af-46c2-4b57-b182-2051f7e04a3a)"/><path d="M240,175.9V124.4H197.7v49.1l3,1.8h0l4.3-2.5v3.8c-.1.9.6,1.8,2.1,2.6a8.4,8.4,0,0,0,4.6,1.3,10.5,10.5,0,0,0,4.1-1.1v3.4q-.2,1.3,2.1,2.7a9.1,9.1,0,0,0,4.8,1.3,11,11,0,0,0,4.8-1.4l10.2-5.9c1.6-.9,2.4-1.8,2.4-2.8A2.2,2.2,0,0,0,240,175.9Z" fill="url(#a6669363-2d97-44d3-bf21-d679da4fd730)" style="mix-blend-mode:screen"/></g></g></g></svg>