<svg id="e430FdG6oeq1" xmlns="http://www.w3.org/2000/svg" xmlns:xlink="http://www.w3.org/1999/xlink" viewBox="0 0 512 512" shape-rendering="geometricPrecision" text-rendering="geometricPrecision"><style><![CDATA[#e430FdG6oeq23_to {animation: e430FdG6oeq23_to__to 3000ms linear infinite normal forwards}@keyframes e430FdG6oeq23_to__to { 0% {offset-distance: 0%} 50% {offset-distance: 49.462198%} 100% {offset-distance: 100%}} #e430FdG6oeq23_tr {animation: e430FdG6oeq23_tr__tr 3000ms linear infinite normal forwards}@keyframes e430FdG6oeq23_tr__tr { 0% {transform: rotate(0deg)} 50% {transform: rotate(-179.810034deg)} 100% {transform: rotate(-359.695653deg)}}]]></style><g id="e430FdG6oeq2"><path id="e430FdG6oeq3" d="M71.2,195.7C68,194.8,64.7,196.6,63.7,199.8C63.7,199.8,63.7,199.8,63.7,199.8C61.4,207.7,59.5,215.8,58.2,223.9C57.7,227.2,59.9,230.3,63.2,230.8C63.5,230.9,63.8,230.9,64.2,230.9C67.1,230.9,69.6,228.8,70.1,225.9C71.3,218.3,73.1,210.7,75.3,203.3C76.2,199.9,74.4,196.6,71.2,195.7C71.2,195.7,71.2,195.7,71.2,195.7Z" fill="rgb(255,255,255)" stroke="none" stroke-width="1"/><path id="e430FdG6oeq4" d="M294.8,437.8C287.2,439.5,279.6,440.7,271.9,441.4C268.6,441.7,266.2,444.6,266.5,447.9C266.8,451,269.4,453.3,272.5,453.3C272.7,453.3,272.9,453.3,273.1,453.3C281.3,452.5,289.5,451.2,297.5,449.4C300.7,448.7,302.7,445.4,302,442.2C301.2,439.1,298,437.1,294.8,437.8Z" fill="rgb(255,255,255)" stroke="none" stroke-width="1"/><path id="e430FdG6oeq5" d="M337.6,422.6C330.7,426.1,323.5,429.1,316.2,431.7C313.1,432.8,311.4,436.2,312.4,439.3C313.5,442.4,316.9,444.1,320,443.1C320.1,443.1,320.1,443.1,320.2,443C328,440.2,335.6,437,343,433.3C346,431.8,347.2,428.2,345.7,425.2C344.2,422.2,340.5,421.1,337.6,422.6L337.6,422.6Z" fill="rgb(255,255,255)" stroke="none" stroke-width="1"/><path id="e430FdG6oeq6" d="M414.3,362.4C411.6,360.5,407.9,361.1,405.9,363.8C405.9,363.8,405.9,363.8,405.9,363.8C401.4,370.1,396.5,376.1,391.3,381.9C389.1,384.3,389.2,388.1,391.7,390.4C394.1,392.6,397.9,392.5,400.2,390C405.8,383.9,411,377.5,415.8,370.8C417.6,368.1,417,364.3,414.3,362.4Z" fill="rgb(255,255,255)" stroke="none" stroke-width="1"/><path id="e430FdG6oeq7" d="M375.3,397.4C369.4,402.4,363.2,407.1,356.8,411.4C354,413.2,353.2,416.9,354.9,419.7C356.7,422.5,360.4,423.3,363.2,421.6C363.3,421.6,363.3,421.5,363.4,421.5C370.3,416.9,376.9,412,383.1,406.6C385.6,404.4,385.8,400.6,383.6,398.1C381.5,395.6,377.8,395.3,375.3,397.4L375.3,397.4Z" fill="rgb(255,255,255)" stroke="none" stroke-width="1"/><path id="e430FdG6oeq8" d="M162.7,418.4C155.9,414.6,149.4,410.4,143.2,405.8C140.5,403.8,136.8,404.4,134.8,407C132.8,409.6,133.4,413.4,136,415.4C142.6,420.3,149.6,424.8,156.7,428.9C159.6,430.6,163.2,429.6,164.9,426.7C166.6,423.8,165.6,420.2,162.7,418.5C162.8,418.5,162.7,418.5,162.7,418.4L162.7,418.4Z" fill="rgb(255,255,255)" stroke="none" stroke-width="1"/><path id="e430FdG6oeq9" d="M85.8,336.2C84.4,333.2,80.8,332,77.8,333.4C74.8,334.8,73.6,338.4,75,341.4C78.6,348.8,82.6,356,87,363C88.8,365.8,92.5,366.6,95.3,364.8C98.1,363,98.9,359.3,97.1,356.5L97.1,356.5C92.9,350,89.2,343.2,85.8,336.2Z" fill="rgb(255,255,255)" stroke="none" stroke-width="1"/><path id="e430FdG6oeq10" d="M178.1,439.3C185.7,442.5,193.5,445.1,201.5,447.3C204.7,448.2,208,446.3,208.9,443.1C209.8,439.9,207.9,436.6,204.7,435.7L204.7,435.7C197.2,433.7,189.9,431.1,182.7,428.2C179.6,426.9,176.1,428.4,174.9,431.4C173.6,434.5,175,438,178.1,439.3L178.1,439.3Z" fill="rgb(255,255,255)" stroke="none" stroke-width="1"/><path id="e430FdG6oeq11" d="M77.4,315.6C74.9,308.3,72.9,300.8,71.4,293.2C70.8,289.9,67.6,287.8,64.4,288.4C61.2,289,59,292.2,59.6,295.4C59.6,295.5,59.6,295.5,59.6,295.6C61.2,303.7,63.4,311.7,66,319.5C67.1,322.6,70.5,324.3,73.6,323.3C76.8,322.2,78.5,318.8,77.4,315.6L77.4,315.6Z" fill="rgb(255,255,255)" stroke="none" stroke-width="1"/><path id="e430FdG6oeq12" d="M435.3,320.5C432.2,319.3,428.7,320.8,427.5,323.9C424.7,331.1,421.4,338.2,417.7,345C416.1,347.9,417.2,351.6,420.1,353.1C423,354.7,426.7,353.6,428.2,350.7C432.1,343.4,435.6,336,438.6,328.3C439.9,325.2,438.4,321.7,435.3,320.5C435.3,320.5,435.3,320.5,435.3,320.5Z" fill="rgb(255,255,255)" stroke="none" stroke-width="1"/><path id="e430FdG6oeq13" d="M133.9,111.8C135.3,111.8,136.6,111.3,137.6,110.5C143.6,105.7,150,101.2,156.6,97.1C159.4,95.4,160.4,91.7,158.7,88.9C157,86.1,153.3,85.1,150.5,86.8C150.5,86.8,150.4,86.8,150.4,86.9C143.4,91.2,136.6,96,130.2,101.1C127.6,103.2,127.2,106.9,129.3,109.5C130.3,111,132,111.8,133.9,111.8L133.9,111.8Z" fill="rgb(255,255,255)" stroke="none" stroke-width="1"/><path id="e430FdG6oeq14" d="M173.7,87.2C174.6,87.2,175.4,87,176.2,86.6C183.2,83.4,190.5,80.6,197.9,78.2C201.1,77.2,202.8,73.8,201.8,70.7C200.8,67.5,197.4,65.8,194.3,66.8C186.4,69.3,178.7,72.3,171.2,75.7C168.2,77.1,166.9,80.6,168.2,83.7C169.2,85.8,171.4,87.2,173.7,87.2L173.7,87.2Z" fill="rgb(255,255,255)" stroke="none" stroke-width="1"/><path id="e430FdG6oeq15" d="M110.2,374.5C108.1,371.9,104.3,371.6,101.8,373.7C99.2,375.8,98.9,379.6,101,382.1C106.3,388.5,111.9,394.5,117.9,400.2C120.3,402.5,124.1,402.4,126.4,400C128.7,397.6,128.6,393.8,126.2,391.5C126.2,391.5,126.1,391.5,126.1,391.4C120.5,386.2,115.2,380.5,110.2,374.5Z" fill="rgb(255,255,255)" stroke="none" stroke-width="1"/><path id="e430FdG6oeq16" d="M97.4,144.1C100,146.1,103.8,145.6,105.8,143C110.5,136.8,115.6,131,121,125.4C123.3,123,123.3,119.2,120.9,116.9C118.5,114.6,114.7,114.6,112.4,117C106.6,122.9,101.2,129.1,96.2,135.7C94.3,138.4,94.8,142.1,97.4,144.1Z" fill="rgb(255,255,255)" stroke="none" stroke-width="1"/><path id="e430FdG6oeq17" d="M82.9,182.2C86,175.1,89.5,168.2,93.4,161.5C95.1,158.6,94.1,155,91.3,153.3C88.4,151.6,84.8,152.6,83.1,155.4C78.9,162.5,75.2,169.9,71.9,177.5C70.6,180.5,72,184.1,75,185.4C78,186.6,81.6,185.2,82.9,182.2L82.9,182.2Z" fill="rgb(255,255,255)" stroke="none" stroke-width="1"/><path id="e430FdG6oeq18" d="M445.5,274.7C442.2,274.3,439.2,276.6,438.8,279.9C438.8,279.9,438.8,279.9,438.8,279.9C437.8,287.6,436.4,295.2,434.4,302.7C433.6,305.9,435.5,309.2,438.7,310C441.9,310.8,445.2,308.9,446,305.7L446,305.7C448.1,297.7,449.6,289.6,450.7,281.4C451.1,278.1,448.8,275.1,445.5,274.7C445.5,274.7,445.5,274.7,445.5,274.7Z" fill="rgb(255,255,255)" stroke="none" stroke-width="1"/><path id="e430FdG6oeq19" d="M364.8,91.6C366.2,92.5,367.5,93.5,368.8,94.4C371.5,96.3,375.2,95.7,377.2,93C379.1,90.3,378.5,86.6,375.8,84.6L375.8,84.6C374.4,83.6,373,82.6,371.5,81.6C368.8,79.7,365,80.4,363.2,83.2C361.4,86,362,89.7,364.8,91.6C364.8,91.6,364.8,91.6,364.8,91.6L364.8,91.6Z" fill="rgb(255,255,255)" stroke="none" stroke-width="1"/><path id="e430FdG6oeq20" d="M424.4,154.7C426.1,157.6,429.8,158.5,432.6,156.8C435.4,155.1,436.4,151.4,434.7,148.6C434.7,148.6,434.7,148.6,434.7,148.5C424.3,131,411.3,115,396.3,101.2C393.9,99,390.1,99.1,387.8,101.6C385.6,104,385.7,107.8,388.2,110.1C402.4,123.2,414.6,138.2,424.4,154.7Z" fill="rgb(255,255,255)" stroke="none" stroke-width="1"/><path id="e430FdG6oeq21" d="M431.5,78.5C384.5,31.3,320.6,4.8,254,5C205.1,5.1,157.2,19.4,116.3,46.2C113.5,48,112.7,51.7,114.6,54.5C116.4,57.3,120.1,58,122.9,56.3C160.2,31.9,203.5,18.3,248,17.1L248,62.7C247.3,59.8,244.7,57.9,241.8,58.1C233.6,58.6,225.4,59.6,217.3,61.1C214,61.7,211.9,64.8,212.5,68.1C213.1,71.4,216.2,73.5,219.5,72.9C227.1,71.5,234.8,70.5,242.6,70.1C245.2,69.9,247.5,68.1,248.1,65.5L248.1,114.7C174.8,117.8,115.7,176.9,112.7,250.3L67.8,250.3C67.8,249.5,67.8,248.8,67.9,248C68,244.7,65.5,241.9,62.2,241.7C58.9,241.6,56.1,244.1,55.9,247.4L55.9,247.4C55.9,248.3,55.8,249.3,55.8,250.2L15.1,250.2C16.1,217.7,23.4,185.7,36.7,156C51,159.7,65.6,151.1,69.3,136.8C71.6,128,69.2,118.5,63,111.9C71.7,100.6,81.3,90,91.8,80.4C94.3,78.2,94.4,74.4,92.2,71.9C92.1,71.8,92.1,71.8,92,71.7L92,71.7C89.7,69.4,86.1,69.3,83.7,71.5C72.4,81.7,62.2,93,53,105.1C39.2,99.8,23.7,106.6,18.4,120.4C14.3,131,17.4,143.1,26,150.5C11.2,183.4,3,220.6,3,256C3,394.6,115.4,507,254,507C316.1,507,372.6,486.1,417.8,446.4C430.4,454.1,446.9,450,454.6,437.4C460.1,428.4,459.7,416.9,453.7,408.2C487.2,364.9,505,312.3,505,256C505.2,189.4,478.7,125.5,431.5,78.5ZM43.3,115.3C51.5,115.3,58.1,121.9,58.1,130.1C58.1,138.3,51.5,144.9,43.3,144.9C35.1,144.9,28.5,138.3,28.5,130.1C28.5,130.1,28.5,130.1,28.5,130.1C28.6,121.9,35.2,115.3,43.3,115.3ZM492.9,250.2L452.2,250.2C452.1,246.4,451.9,242.7,451.6,239L492,233.8C492.5,239.2,492.8,244.7,492.9,250.2ZM423,87C459.6,123.4,483.3,170.8,490.6,221.9L282.1,248.7C280.3,241.7,275.8,235.6,269.7,231.6L344,34.4C373.6,46.5,400.4,64.4,423,87ZM440.2,250.2L395.4,250.2C395.4,248.8,395.3,247.5,395.2,246.2L439.7,240.5C439.9,243.7,440.1,247,440.2,250.2L440.2,250.2ZM364.3,250.2L383.3,247.8C383.3,248.6,383.4,249.4,383.4,250.2L364.3,250.2ZM383.3,262.2C380,328.9,326.6,382.2,260,385.3L260,284.4C271.2,282,279.9,273.3,282.4,262.2L383.3,262.2ZM260,67.1C261,68.8,262.8,69.9,264.8,70C272.5,70.4,280.2,71.4,287.9,72.8C288.3,72.9,288.6,72.9,289,72.9C292.3,72.9,295,70.2,295,66.9C295,64,292.9,61.5,290.1,61C282,59.5,273.8,58.5,265.5,58.1C263.3,58,261.2,59.1,260,61L260,17.1C284.8,17.7,309.3,22.1,332.7,30.2L318.3,68.4C316.5,67.8,314.8,67.2,313,66.7C309.8,65.7,306.5,67.4,305.4,70.6C304.4,73.8,306.1,77.1,309.3,78.2C309.3,78.2,309.4,78.2,309.4,78.2C310.9,78.7,312.5,79.2,314,79.7L298.2,121.7C285.8,117.6,272.9,115.3,259.9,114.7L259.9,67.1ZM260,126.7C271.6,127.2,283,129.3,294.1,132.9L260,223.3L260,126.7ZM248,126.7L248,227.6C236.7,230,227.9,238.9,225.6,250.2L124.7,250.2C127.7,183.4,181.2,129.8,248,126.7ZM248,442.2C240.8,442,233.6,441.3,226.5,440.3C223.2,439.8,220.2,442.1,219.7,445.4C219.2,448.7,221.5,451.7,224.8,452.2C232.5,453.3,240.3,454,248.1,454.2L248.1,494.9C120.8,491.7,18.4,389.4,15.1,262.2L55.8,262.2C55.9,265.5,56.1,268.8,56.3,272.1C56.6,275.2,59.1,277.6,62.3,277.6C62.5,277.6,62.6,277.6,62.8,277.6C66.1,277.3,68.6,274.4,68.3,271.1C68.3,271.1,68.3,271.1,68.3,271.1C68.1,268.1,67.9,265.2,67.8,262.2L112.7,262.2C113.9,288.5,122.2,314.1,136.6,336.1C128.5,348.5,132,365.1,144.3,373.2C153.3,379.1,165,379,174,373C196.1,387.6,221.7,396,248.1,397.4L248.1,442.2ZM144.1,350.8C144.1,342.6,150.7,336,158.9,336C167.1,336,173.7,342.6,173.7,350.8C173.7,359,167.1,365.6,158.9,365.6C158.9,365.6,158.9,365.6,158.9,365.6C150.8,365.6,144.1,359,144.1,350.8ZM248,385.3C224.6,384,201.9,376.7,182.2,364C189.5,351.2,185.1,334.8,172.2,327.5C163.9,322.7,153.6,322.8,145.4,327.7C133,308,125.9,285.4,124.7,262.2L225.7,262.2C228.2,273.3,236.9,282,248.1,284.4L248.1,385.3ZM237,256C237,246.6,244.6,239,254,239C263.4,239,271,246.6,271,256C271,265.4,263.4,273,254,273L254,273C244.6,273,237,265.4,237,256ZM431.6,438.3C423.4,438.3,416.8,431.7,416.8,423.5C416.8,415.3,423.4,408.7,431.6,408.7C439.8,408.7,446.4,415.3,446.4,423.5C446.4,431.7,439.8,438.3,431.6,438.3ZM444.7,400.2C431.8,393,415.5,397.6,408.3,410.4C403.4,419.1,403.8,429.7,409.2,438C367.8,474,316.5,493.6,260.1,494.9L260.1,397.3C333.3,394.2,392.3,335.3,395.4,262.2L442.4,262.2C443.5,263.2,444.9,263.7,446.3,263.7L446.4,263.7C447.9,263.7,449.3,263.2,450.4,262.2L493,262.2C491.7,313.2,475.1,360.6,444.7,400.2L444.7,400.2Z" fill="rgb(255,255,255)" stroke="none" stroke-width="1"/></g><g id="e430FdG6oeq22"><g id="e430FdG6oeq23_to" style="offset-path:path('M376,143C203.966744,-8.834851,1.493983,210.470757,127.953918,371.897355C322.618073,547.445526,516.191101,250.590071,374.60654,145.326797');offset-rotate:0deg"><g id="e430FdG6oeq23_tr" transform="rotate(0)"><path id="e430FdG6oeq23" d="M258,233.5L338,28.5C358.3,35.9,403.9,55.6,442,102.5C482.7,152.6,491.6,205.1,494,226.5C421.7,236.8,349.3,247.2,277,257.5C277.1,255.9,277.3,246.5,270,239.5C265.4,235.1,260.2,233.9,258,233.5Z" transform="translate(-376,-143)" fill="rgb(255,255,255)" fill-opacity="0.6" stroke="none" stroke-width="1"/></g></g></g></svg>