<svg xmlns="http://www.w3.org/2000/svg" viewBox="0 0 270.19 238"><defs><style>.cls-1{fill:#fff;}</style></defs><g id="Layer_2" data-name="Layer 2"><g id="Layer_1-2" data-name="Layer 1"><path class="cls-1" d="M207.72,175.76H196.49a5.4,5.4,0,0,1,0-10.8h11.23a51.67,51.67,0,0,0,19.49-99.52A5.41,5.41,0,0,1,223.88,61a54.34,54.34,0,0,0-82.26-40.78,5.42,5.42,0,0,1-5.91-.2,50.21,50.21,0,0,0-29-9.21A50.79,50.79,0,0,0,56.71,54a5.41,5.41,0,0,1-4.13,4.48A54,54,0,0,0,64.79,165h9.94a5.4,5.4,0,1,1,0,10.8H64.79A64.77,64.77,0,0,1,46.65,48.81,61.69,61.69,0,0,1,106.67,0,60.94,60.94,0,0,1,139,9.26a65.14,65.14,0,0,1,95.19,47.45,62.48,62.48,0,0,1-26.5,119Z"/><path class="cls-1" d="M135.1,238a65.33,65.33,0,1,1,65.32-65.33A65.4,65.4,0,0,1,135.1,238Zm0-119.84a54.52,54.52,0,1,0,54.51,54.51A54.58,54.58,0,0,0,135.1,118.16Z"/><path class="cls-1" d="M156.25,199.6l-.2-.22a2.59,2.59,0,0,1,.36-3.66l.1-.08a29,29,0,0,0,2.34-2.1c11.32-11.31,11-30-.6-41.63a31.46,31.46,0,0,0-2.44-2.2,2.63,2.63,0,0,1-.46-3.67,2.6,2.6,0,0,1,3.66-.35c1,.81,2,1.68,2.87,2.59,13.7,13.7,14,35.68.71,49a33.56,33.56,0,0,1-2.75,2.46l-.13.1A2.61,2.61,0,0,1,156.25,199.6Z"/><path class="cls-1" d="M148.72,191.93a3,3,0,0,1-.28-.33A2.58,2.58,0,0,1,149,188a18.22,18.22,0,0,0,2.34-2c7.27-7.27,7.09-19.28-.39-26.77a19.38,19.38,0,0,0-2.45-2.08,2.63,2.63,0,0,1-.66-3.64,2.58,2.58,0,0,1,3.63-.56,25.18,25.18,0,0,1,3.11,2.65c9.55,9.55,9.77,24.86.49,34.14a23.53,23.53,0,0,1-3,2.51A2.63,2.63,0,0,1,148.72,191.93Z"/><path class="cls-1" d="M140.94,184.2a2.62,2.62,0,0,1,.63-4.17,8,8,0,0,0,2.21-1.57,8.43,8.43,0,0,0-.18-11.91,8.79,8.79,0,0,0-2.28-1.65,2.67,2.67,0,0,1-1.25-3.5,2.56,2.56,0,0,1,3.47-1.15,14,14,0,0,1,3.69,2.67,13.65,13.65,0,0,1,.29,19.28,13,13,0,0,1-3.58,2.54A2.64,2.64,0,0,1,140.94,184.2Z"/><ellipse class="cls-1" cx="135.38" cy="172.35" rx="4.36" ry="4.49" transform="translate(-82.22 146.21) rotate(-45)"/><path class="cls-1" d="M115.29,199a2.09,2.09,0,0,0,.2-.22,2.62,2.62,0,0,0-.47-3.66l-.11-.09a28.83,28.83,0,0,1-2.4-2.17c-11.65-11.64-11.92-30.32-.61-41.63a31.78,31.78,0,0,1,2.38-2.13,2.58,2.58,0,0,0,.35-3.65A2.63,2.63,0,0,0,111,145a34.8,34.8,0,0,0-2.79,2.5c-13.32,13.32-13,35.3.71,49a37.72,37.72,0,0,0,2.83,2.54l.12.11A2.6,2.6,0,0,0,115.29,199Z"/><path class="cls-1" d="M122.6,191.55a2.69,2.69,0,0,0,.27-.32,2.65,2.65,0,0,0-.65-3.65,20,20,0,0,1-2.39-2c-7.49-7.49-7.66-19.5-.39-26.77a18.9,18.9,0,0,1,2.38-2,2.57,2.57,0,0,0,.56-3.62,2.62,2.62,0,0,0-3.64-.66,23.87,23.87,0,0,0-3,2.55c-9.27,9.28-9,24.59.5,34.14a25.78,25.78,0,0,0,3,2.6A2.6,2.6,0,0,0,122.6,191.55Z"/><path class="cls-1" d="M130.16,184a2.38,2.38,0,0,0,.48-.68,2.66,2.66,0,0,0-1.23-3.51,8.56,8.56,0,0,1-2.26-1.63,8.43,8.43,0,0,1-.17-11.91,7.78,7.78,0,0,1,2.24-1.58,2.56,2.56,0,0,0,1.14-3.47,2.67,2.67,0,0,0-3.5-1.25,13.08,13.08,0,0,0-3.62,2.56,13.65,13.65,0,0,0,.28,19.28,14,14,0,0,0,3.65,2.64A2.56,2.56,0,0,0,130.16,184Z"/><ellipse class="cls-1" cx="135.38" cy="172.35" rx="4.36" ry="4.49" transform="translate(-82.22 146.21) rotate(-45)"/></g></g></svg>