<svg xmlns="http://www.w3.org/2000/svg" viewBox="0 0 260.09 241"><defs><style>.cls-1{fill:#fff;}</style></defs><g id="Layer_2" data-name="Layer 2"><g id="Layer_1-2" data-name="Layer 1"><path class="cls-1" d="M209.47,134.44a4.46,4.46,0,0,0-4.46,4.45v14.24a4.46,4.46,0,1,0,8.91,0V138.89A4.45,4.45,0,0,0,209.47,134.44Z"/><path class="cls-1" d="M209.47,100.91a4.46,4.46,0,0,0-4.46,4.45v14.25a4.46,4.46,0,0,0,8.91,0V105.36A4.45,4.45,0,0,0,209.47,100.91Z"/><path class="cls-1" d="M237.84,148.68a4.45,4.45,0,0,0-4.45,4.45v39.76a4.45,4.45,0,0,0,4.45,4.45h9l-23.22,31.77-23.21-31.77h9a4.45,4.45,0,0,0,4.45-4.45V153.13a4.46,4.46,0,0,0-8.91,0v35.31H191.67a4.45,4.45,0,0,0-3.59,7.08l32,43.76a4.62,4.62,0,0,0,7.19,0l32-43.76a4.45,4.45,0,0,0-3.59-7.08H242.29V153.13A4.45,4.45,0,0,0,237.84,148.68Z"/><path class="cls-1" d="M237.84,100.91a4.45,4.45,0,0,0-4.45,4.45v14.25a4.45,4.45,0,1,0,8.9,0V105.36A4.45,4.45,0,0,0,237.84,100.91Z"/><path class="cls-1" d="M237.84,134.44a4.45,4.45,0,0,0-4.45,4.45v14.24a4.45,4.45,0,1,0,8.9,0V138.89A4.45,4.45,0,0,0,237.84,134.44Z"/><path class="cls-1" d="M223.65,119.69a4.45,4.45,0,0,0-4.45,4.45v14.25a4.45,4.45,0,1,0,8.9,0V124.14A4.45,4.45,0,0,0,223.65,119.69Z"/><path class="cls-1" d="M223.65,86.16a4.45,4.45,0,0,0-4.45,4.45v14.25a4.45,4.45,0,1,0,8.9,0V90.61A4.45,4.45,0,0,0,223.65,86.16Z"/><path class="cls-1" d="M118.22,83.42a16.28,16.28,0,0,0-8.1,30.39,4.45,4.45,0,1,0,4.44-7.72,7.37,7.37,0,1,1,11-6.39,16.28,16.28,0,1,0,24.25-14.19,4.45,4.45,0,0,0-4.37,7.76,7.37,7.37,0,1,1-11,6.43A16.29,16.29,0,0,0,118.22,83.42Z"/><path class="cls-1" d="M150.75,20.21H109.34a4.45,4.45,0,0,0-3.87,2.25A29.76,29.76,0,0,1,90,35.22a4.45,4.45,0,0,0-2.88,4.16V79.59a4.46,4.46,0,0,0,8.91,0V42.34A38.72,38.72,0,0,0,111.8,29.12h36.48a38.68,38.68,0,0,0,15.78,13.22V79.59a4.45,4.45,0,0,0,8.9,0V39.39a4.46,4.46,0,0,0-2.87-4.17,29.76,29.76,0,0,1-15.47-12.76A4.47,4.47,0,0,0,150.75,20.21Z"/><path class="cls-1" d="M168.51,115.35a4.45,4.45,0,0,0-4.45,4.45v37.26a38.61,38.61,0,0,0-15.78,13.22H111.8A38.64,38.64,0,0,0,96,157.06V119.8a4.46,4.46,0,0,0-8.91,0V160A4.45,4.45,0,0,0,90,164.17a29.78,29.78,0,0,1,15.47,12.77,4.47,4.47,0,0,0,3.87,2.24h41.41a4.48,4.48,0,0,0,3.87-2.24,29.78,29.78,0,0,1,15.47-12.77A4.44,4.44,0,0,0,173,160V119.8A4.45,4.45,0,0,0,168.51,115.35Z"/><path class="cls-1" d="M130,44.06a92.44,92.44,0,0,0-23.79,3,4.45,4.45,0,0,0,2.28,8.6,86.8,86.8,0,0,1,43,0,4.45,4.45,0,1,0,2.29-8.6A92.52,92.52,0,0,0,130,44.06Z"/><path class="cls-1" d="M152.7,143.55a4.6,4.6,0,0,0-1.15.15,86.57,86.57,0,0,1-43,0,4.45,4.45,0,0,0-2.28,8.61,95.64,95.64,0,0,0,47.59,0,4.45,4.45,0,0,0-1.14-8.76Z"/><path class="cls-1" d="M174.3,190.49H85.79a4.45,4.45,0,0,0,0,8.9H174.3a4.45,4.45,0,0,0,0-8.9Z"/><path class="cls-1" d="M187.21,0H72.88a4.45,4.45,0,0,0-4.45,4.45V174.73a4.45,4.45,0,0,0,8.9,0V8.9H182.76V174.73a4.45,4.45,0,0,0,8.9,0V4.45A4.45,4.45,0,0,0,187.21,0Z"/><path class="cls-1" d="M50.62,134.44a4.45,4.45,0,0,0-4.45,4.45v14.24a4.45,4.45,0,1,0,8.9,0V138.89A4.45,4.45,0,0,0,50.62,134.44Z"/><path class="cls-1" d="M50.62,100.91a4.45,4.45,0,0,0-4.45,4.45v14.25a4.45,4.45,0,0,0,8.9,0V105.36A4.45,4.45,0,0,0,50.62,100.91Z"/><path class="cls-1" d="M50.62,148.68a4.45,4.45,0,0,0-4.45,4.45v39.76a4.45,4.45,0,0,0,4.45,4.45h9L36.43,229.11,13.22,197.34h9a4.45,4.45,0,0,0,4.45-4.45V153.13a4.46,4.46,0,0,0-8.91,0v35.31H4.45a4.45,4.45,0,0,0-3.59,7.08l32,43.76a4.62,4.62,0,0,0,7.19,0l32-43.76a4.45,4.45,0,0,0-3.6-7.08H55.07V153.13A4.45,4.45,0,0,0,50.62,148.68Z"/><path class="cls-1" d="M22.25,100.91a4.46,4.46,0,0,0-4.46,4.45v14.25a4.46,4.46,0,0,0,8.91,0V105.36A4.45,4.45,0,0,0,22.25,100.91Z"/><path class="cls-1" d="M22.25,134.44a4.46,4.46,0,0,0-4.46,4.45v14.24a4.46,4.46,0,1,0,8.91,0V138.89A4.45,4.45,0,0,0,22.25,134.44Z"/><path class="cls-1" d="M36.43,119.69A4.45,4.45,0,0,0,32,124.14v14.25a4.45,4.45,0,1,0,8.9,0V124.14A4.45,4.45,0,0,0,36.43,119.69Z"/><path class="cls-1" d="M36.43,86.16A4.45,4.45,0,0,0,32,90.61v14.25a4.45,4.45,0,0,0,8.9,0V90.61A4.45,4.45,0,0,0,36.43,86.16Z"/></g></g></svg>