<svg xmlns="http://www.w3.org/2000/svg" viewBox="0 0 114 234.5"><defs><style>.cls-1{fill:#fff;}</style></defs><g id="Layer_2" data-name="Layer 2"><g id="Layer_1-2" data-name="Layer 1"><path class="cls-1" d="M87.44,74c0-5.26-4-9.53-8.84-9.53H35.41c-4.89,0-8.85,4.27-8.85,9.53V190.2c0,5.26,4,9.53,8.85,9.53H78.6c4.88,0,8.84-4.27,8.84-9.53Z"/><path class="cls-1" d="M99,234.5H15a15,15,0,0,1-15-15v-174a15,15,0,0,1,15-15H29V15A15,15,0,0,1,44,0H70A15,15,0,0,1,85,15V30.5H99a15,15,0,0,1,15,15v174A15,15,0,0,1,99,234.5ZM15,40.5a5,5,0,0,0-5,5v174a5,5,0,0,0,5,5H99a5,5,0,0,0,5-5v-174a5,5,0,0,0-5-5H75V15a5,5,0,0,0-5-5H44a5,5,0,0,0-5,5V40.5Z"/></g></g></svg>