<svg xmlns="http://www.w3.org/2000/svg" viewBox="0 0 187.53 239.64"><defs><style>.cls-1{fill:#fff;}</style></defs><g id="Layer_2" data-name="Layer 2"><g id="Layer_1-2" data-name="Layer 1"><path class="cls-1" d="M93.76,239.64a4.78,4.78,0,0,1-2.4-.65L39.5,208.86C14.17,194.14-.94,166,.05,135.53L3.46,30.77a4.78,4.78,0,0,1,4.79-4.63H49.88L91.26.71a4.76,4.76,0,0,1,5,0l41.38,25.43h41.62a4.78,4.78,0,0,1,4.79,4.63l3.42,104.76c1,30.51-14.12,58.61-39.44,73.33L96.17,239A4.79,4.79,0,0,1,93.76,239.64ZM12.89,35.72,9.63,135.84c-.88,27,12.41,51.79,34.68,64.73L93.76,229.3l49.46-28.73c22.27-12.94,35.56-37.74,34.68-64.73L174.64,35.72H136.29a4.71,4.71,0,0,1-2.5-.71l-40-24.59L53.74,35a4.71,4.71,0,0,1-2.5.71Z"/><path class="cls-1" d="M93.77,213.68a4.81,4.81,0,0,1-2.41-.64L50.77,189.46c-18.17-10.57-29-31-28.29-53.2l2.7-83A4.8,4.8,0,0,1,30,48.58H57.39l34-19.91a4.79,4.79,0,0,1,4.85,0l33.95,19.91h27.42a4.8,4.8,0,0,1,4.79,4.63l2.7,83c.72,22.25-10.12,42.63-28.29,53.19L96.18,213A4.83,4.83,0,0,1,93.77,213.68ZM34.61,58.16l-2.55,78.41c-.61,18.72,8.41,35.81,23.53,44.6l38.18,22.18,38.17-22.19c15.12-8.78,24.14-25.87,23.53-44.59l-2.55-78.41H128.84a4.77,4.77,0,0,1-2.42-.65L93.77,38.36,61.11,57.51a4.77,4.77,0,0,1-2.42.65Z"/><path class="cls-1" d="M115.55,117.28a4.79,4.79,0,0,1-4.79-4.79V90.7a17,17,0,0,0-34,0v21.79a4.8,4.8,0,0,1-9.59,0V90.7a26.58,26.58,0,0,1,53.16,0v21.79A4.79,4.79,0,0,1,115.55,117.28Z"/><path class="cls-1" d="M94,173.65a4.87,4.87,0,0,1-1.91-.39L56.36,157.77a4.79,4.79,0,0,1-2.88-4.4V114.53a4.78,4.78,0,0,1,4.79-4.79h71a4.78,4.78,0,0,1,4.79,4.79v38.86a4.78,4.78,0,0,1-2.87,4.39L95.89,173.25A4.8,4.8,0,0,1,94,173.65Zm-30.9-23.42L94,163.63l30.52-13.37V119.32H63.06Z"/><path class="cls-1" d="M93.76,145.9A4.79,4.79,0,0,1,89,141.11v-3.53a4.8,4.8,0,0,1,9.59,0v3.53A4.79,4.79,0,0,1,93.76,145.9Z"/></g></g></svg>