<svg xmlns="http://www.w3.org/2000/svg" viewBox="0 0 224.16 232"><defs><style>.cls-1{fill:#fff;stroke:#fff;stroke-miterlimit:10;stroke-width:3px;}</style></defs><g id="Layer_2" data-name="Layer 2"><g id="Layer_1-2" data-name="Layer 1"><path class="cls-1" d="M216.93,126.41l-10.64-2.88a101,101,0,0,0,0-15.06l10.64-3a7.8,7.8,0,0,0,4.76-3.69,7.42,7.42,0,0,0,.69-5.75l-5.22-20a7.74,7.74,0,0,0-9.48-5.48L197,73.6a99.16,99.16,0,0,0-7.42-13.08l7.79-7.94a7.58,7.58,0,0,0,2.3-5.4,7.76,7.76,0,0,0-2.28-5.58L183,27.12a7.49,7.49,0,0,0-5.38-2.33,7.37,7.37,0,0,0-5.55,2.3L164.24,35a97.17,97.17,0,0,0-12.94-7.47l2.87-10.86a7.8,7.8,0,0,0-5.44-9.52L129.06,1.76a7.75,7.75,0,0,0-9.46,5.49l-2.85,10.82c-2.17-.17-4.55-.25-7.47-.25a2,2,0,0,0-2,2V64.66a2,2,0,0,0,2,2,49,49,0,0,1,47.15,36.58c6.93,26.21-8.56,53.27-34.49,60.33a51.26,51.26,0,0,1-12.66,1.63,2,2,0,0,0-2,2v44.9a2,2,0,0,0,2,2c2.3,0,4.76-.09,7.46-.28l2.86,10.86a7.76,7.76,0,0,0,7.48,5.74,7.55,7.55,0,0,0,2-.26l19.64-5.35a7.79,7.79,0,0,0,5.46-9.52l-2.86-10.84a92.21,92.21,0,0,0,12.94-7.47l7.78,7.85a7.84,7.84,0,0,0,5.55,2.3,7.36,7.36,0,0,0,5.35-2.3l14.42-14.56a7.64,7.64,0,0,0,0-10.9l-7.88-8A95.73,95.73,0,0,0,197,158.4l10.66,2.86a7.5,7.5,0,0,0,5.84-.67,7.72,7.72,0,0,0,3.67-4.73l5.2-19.89a7.7,7.7,0,0,0-5.42-9.56Zm1.52,8.49-5.22,19.92a3.67,3.67,0,0,1-1.73,2.24,3.57,3.57,0,0,1-2.76.3L196.38,154a2,2,0,0,0-2.37,1.12,91,91,0,0,1-8.79,15.38,2,2,0,0,0,.21,2.6l9.09,9.19a3.57,3.57,0,0,1,0,5.14L180,202.09a3.47,3.47,0,0,1-2.48,1.07,3.87,3.87,0,0,1-2.64-1.1l-9-9.08a2,2,0,0,0-2.62-.21,88.43,88.43,0,0,1-15.22,8.79,2,2,0,0,0-1.12,2.36l3.29,12.48a3.73,3.73,0,0,1-2.59,4.58L128,226.33a3.69,3.69,0,0,1-4.51-2.61l-3.28-12.48a2,2,0,0,0-2-1.51h-.17c-2.46.21-4.7.33-6.79.38V169.25A55.09,55.09,0,0,0,123,167.51c28.1-7.64,44.87-36.92,37.37-65.28a53.1,53.1,0,0,0-49-39.56V21.89c2.6,0,4.74.16,6.74.37a2.08,2.08,0,0,0,2.18-1.49L123.51,8.3A3.7,3.7,0,0,1,128,5.67L147.67,11a3.72,3.72,0,0,1,2.58,4.57L147,28.08a2,2,0,0,0,1.11,2.36,95,95,0,0,1,15.24,8.8,2,2,0,0,0,2.61-.22l9-9.08a3.61,3.61,0,0,1,2.64-1.1A3.47,3.47,0,0,1,180.06,30l14.44,14.5a3.81,3.81,0,0,1,1.1,2.69,3.58,3.58,0,0,1-1.11,2.57l-9,9.16a2,2,0,0,0-.21,2.57A95.42,95.42,0,0,1,194,76.83,2,2,0,0,0,196.4,78l12.33-3.4a3.71,3.71,0,0,1,4.5,2.61l5.24,20a3.5,3.5,0,0,1-.32,2.68,3.7,3.7,0,0,1-2.29,1.76L203.58,105a2,2,0,0,0-1.48,2.14,95.14,95.14,0,0,1,0,17.7,2,2,0,0,0,1.49,2.14l12.29,3.33a3.61,3.61,0,0,1,2.25,1.74A3.68,3.68,0,0,1,218.45,134.9Z"/><path class="cls-1" d="M140.83,116a31.69,31.69,0,0,0-31.55-31.77,31.13,31.13,0,0,0-8,1L81.77,40.75a2,2,0,0,0-1.86-1.21H54.45a12.25,12.25,0,1,0,.08,4.05H78.59L97.42,86.53A31.79,31.79,0,0,0,87.6,93L61.87,73.58a2,2,0,0,0-1.21-.41H32.27a12.25,12.25,0,1,0,0,4H60L84.85,96a32,32,0,0,0-5.74,10.93H49.36a12.24,12.24,0,1,0,0,4.06H78.2a32.37,32.37,0,0,0,2,17.34H25.61a12.18,12.18,0,1,0,0,4.05H82.29a31.86,31.86,0,0,0,12.74,12L81,157.7H38a12.16,12.16,0,1,0,0,4.05h43.8a2,2,0,0,0,1.39-.56L99.09,146.1a31,31,0,0,0,10.19,1.71A31.74,31.74,0,0,0,140.83,116ZM42.52,50a8.19,8.19,0,1,1,8.08-8.18A8.24,8.24,0,0,1,42.52,50ZM20.29,83.38a8.19,8.19,0,1,1,8.09-8.18A8.1,8.1,0,0,1,20.29,83.38Zm17.1,33.72a8.19,8.19,0,1,1,8.08-8.19A8.11,8.11,0,0,1,37.39,117.1ZM13.64,138.41a8.15,8.15,0,1,1,8.08-8.1A8.11,8.11,0,0,1,13.64,138.41ZM26,167.83a8.15,8.15,0,1,1,8.09-8.11A8.11,8.11,0,0,1,26,167.83Zm73.3-26A27.84,27.84,0,0,1,81.86,116a28.45,28.45,0,0,1,.68-6.17,2.06,2.06,0,0,0,.2-.82,27.51,27.51,0,1,1,26.54,34.79,27,27,0,0,1-9.87-1.86Z"/><path class="cls-1" d="M124.87,116a15.55,15.55,0,1,0-15.59,15.72A15.64,15.64,0,0,0,124.87,116Zm-27,0a11.49,11.49,0,1,1,11.45,11.67A11.54,11.54,0,0,1,97.83,116Z"/><path class="cls-1" d="M146.91,59.41a2,2,0,0,0-2.25,3.37c16.59,11.07,26.85,30.32,27.45,51.49s-8.53,40.87-24.41,52.83a2,2,0,1,0,2.43,3.24c16.94-12.75,26.67-33.75,26-56.19S164.59,71.21,146.91,59.41Z"/></g></g></svg>