<svg xmlns="http://www.w3.org/2000/svg" viewBox="0 0 236.16 242"><defs><style>.cls-1{fill:#fff;}</style></defs><g id="Layer_2" data-name="Layer 2"><g id="Layer_1-2" data-name="Layer 1"><path class="cls-1" d="M235.81,79.15a48.67,48.67,0,0,0-6.41-19.27,50.31,50.31,0,0,0-14.09-15.16,68.09,68.09,0,0,0-18.65-9.24,91.18,91.18,0,0,0-13.25-3.17c-1.87-.31-3.14,1-3.33,2.91l0,.29a3.21,3.21,0,0,0,2.59,3.82,82.28,82.28,0,0,1,11.68,2.75A60.55,60.55,0,0,1,211,50.2a45.36,45.36,0,0,1,12.34,13c6.4,10.14,7.67,22.76,5.23,34.67a79.86,79.86,0,0,1-5.66,17.2,125.1,125.1,0,0,0-7.48-12A167,167,0,0,0,183.5,69.81a147.6,147.6,0,0,0-10-24.59l-.12-.2c-.06-.12-.47.07-.93.37-.27.18-.55.35-.85.51a11.37,11.37,0,0,1-1.32.63,4.63,4.63,0,0,0-1.31.63l.06.14A140.29,140.29,0,0,1,176,64.11a212.89,212.89,0,0,0-19.35-12.44,215.83,215.83,0,0,0-22-10.72c3.59-.75,7.2-1.42,10.84-1.92,1.88-.25,1.93-1,.67-2.44a7.27,7.27,0,0,1-.69-.91c-1-1.59-2.36-3.07-4.23-2.81a120,120,0,0,0-17.61,3.84,171,171,0,0,0-43-9.36A131.61,131.61,0,0,0,66.18,27,82.55,82.55,0,0,1,76.52,16.72,62.08,62.08,0,0,1,92.92,6.8a48.64,48.64,0,0,1,37.48.27A61.21,61.21,0,0,1,146.47,17.2c1.67,1.44,3.27,3,4.8,4.53,1.32,1.36,3,1.81,3.92,1.1s.74-2.27-.6-3.61q-2.58-2.58-5.43-4.94a65.42,65.42,0,0,0-17.34-10.4,52,52,0,0,0-40.09.27,64.65,64.65,0,0,0-17,10.61A86.29,86.29,0,0,0,63,27.19a97.25,97.25,0,0,0-22.88,4,67.06,67.06,0,0,0-18.64,9A50.93,50.93,0,0,0,7.15,55.07,48,48,0,0,0,.44,74.3a60.86,60.86,0,0,0,.94,20,82.57,82.57,0,0,0,3.7,12.42c.68,1.77,2.51,2.23,4.24,1.46l.52-.22a3.12,3.12,0,0,0,2-4.11A74.36,74.36,0,0,1,8.53,93a54.62,54.62,0,0,1-1-17.86A43.24,43.24,0,0,1,13.19,58.4C19.2,48,30,40.68,42,36.74a89.05,89.05,0,0,1,16.6-3.68,124.67,124.67,0,0,0-7.5,12.72A157.69,157.69,0,0,0,37.46,86.09a141.35,141.35,0,0,0-16.22,19.3l-.37.56c-.2.3.5,1,1.48,1.6.63.42,1.23.85,1.76,1.18l.27.17c.14.09.31.09.37,0l.11-.17a139.94,139.94,0,0,1,11-13.2,189.48,189.48,0,0,0-1.94,24.58,191.62,191.62,0,0,0,.81,19.6c-1.54-1.7-3.06-3.42-4.51-5.19-1.2-1.46-2.64-1.2-3.74.34q-.18.25-.39.51c-1.18,1.48-1.7,3.32-.49,4.77a132.37,132.37,0,0,0,10.64,11.3,153.46,153.46,0,0,0,13.6,43.65q2.45,4.89,5.33,9.58a87.57,87.57,0,0,1-12.52-3A62.67,62.67,0,0,1,25.44,193a46.13,46.13,0,0,1-12.67-13.7,43.87,43.87,0,0,1-5.83-17.41,55.92,55.92,0,0,1,1.15-18.36q.62-2.72,1.44-5.39c.56-1.8.64-3.41.12-3.65-.31-.14-.62-.29-.93-.46s-.66-.38-1-.59c-.52-.36-1.43.78-2,2.59-.66,2.22-1.23,4.46-1.69,6.73a59.62,59.62,0,0,0-.76,19.54,47.38,47.38,0,0,0,6.52,18.53,49.4,49.4,0,0,0,13.77,14.49,66.12,66.12,0,0,0,18.14,8.75,91.11,91.11,0,0,0,15.11,3.29,91.68,91.68,0,0,0,16.71,19.33A66.78,66.78,0,0,0,91,237.66,54.74,54.74,0,0,0,111.72,242a54.18,54.18,0,0,0,20.8-4.07,67.15,67.15,0,0,0,17.71-10.8,87.34,87.34,0,0,0,9.44-9.3c1.25-1.43.76-3.15-.81-4.21l-.42-.28a3.45,3.45,0,0,0-4.75.35,80.23,80.23,0,0,1-8.28,8.21,60,60,0,0,1-15.71,9.73,48.73,48.73,0,0,1-18,3.7c-12.41.22-24.48-5-34.07-13a85,85,0,0,1-13.5-14.23,135.07,135.07,0,0,0,17.54,0,177.23,177.23,0,0,0,42.18-8.43,169.26,169.26,0,0,0,26.45,4.55c1.88.17,3.22-.45,3.09-1.35a12.66,12.66,0,0,1-.11-1.64c0-.27,0-.52,0-.78,0-.44-1.45-.92-3.33-1.14a158.91,158.91,0,0,1-16.94-2.88,209.76,209.76,0,0,0,24.68-11.25q9.21-5,17.9-10.83c-1,3-2.12,5.94-3.35,8.85-.74,1.75,0,2.43,1.85,2q1-.22,2-.36a6.35,6.35,0,0,0,4.75-3.4,90.79,90.79,0,0,0,4.57-14.16A161.86,161.86,0,0,0,217.8,134.5,123,123,0,0,0,224.56,124a79.36,79.36,0,0,1,4.56,14.57,56.31,56.31,0,0,1,.79,18.52,44.13,44.13,0,0,1-6.1,17.32A46.25,46.25,0,0,1,210.93,188a62.84,62.84,0,0,1-17.22,8.23,81.32,81.32,0,0,1-8,2c-1.85.37-3.26,1.13-3.19,1.8a11.9,11.9,0,0,1,.07,1.2c0,.31,0,.6,0,.91,0,.49,1.42.63,3.26.24a86.07,86.07,0,0,0,9.2-2.47,66.26,66.26,0,0,0,18.1-9.13,49.39,49.39,0,0,0,13.55-14.66,47,47,0,0,0,6.26-18.63,58.87,58.87,0,0,0-1.13-19.37,83,83,0,0,0-5.73-16.72A87.19,87.19,0,0,0,234.61,99,60.54,60.54,0,0,0,235.81,79.15ZM53.2,46.74a108.88,108.88,0,0,1,8.59-14.05,121.48,121.48,0,0,1,18.5-.36A163.74,163.74,0,0,1,116.8,38.8c-.28.09-.54.16-.82.26a199.33,199.33,0,0,0-36.85,16.1c-14.18,8-27.06,17-38.36,27.65A141.44,141.44,0,0,1,53.2,46.74ZM81.52,205.89a119,119,0,0,1-19.16-.24,112.78,112.78,0,0,1-7.84-12.76A146.7,146.7,0,0,1,41.34,156.1c1.19,1,2.36,2.08,3.62,3.15a196.64,196.64,0,0,0,33,22.41,205.49,205.49,0,0,0,41.46,16.8A159.5,159.5,0,0,1,81.52,205.89Zm74.56-23.5a208,208,0,0,1-27.58,12.89,193.6,193.6,0,0,1-47.23-19.05,188.75,188.75,0,0,1-42-31.72,186.38,186.38,0,0,1-2-24.38,186.29,186.29,0,0,1,1.88-28C51.64,79.6,66.29,69.3,82.41,60.58a200,200,0,0,1,45.67-18.14,205.19,205.19,0,0,1,26.86,12,207.5,207.5,0,0,1,22.42,14.12,171.74,171.74,0,0,1,7.22,51.57,175.36,175.36,0,0,1-7,48.1A205.24,205.24,0,0,1,156.08,182.39Zm57.38-50.67a153.61,153.61,0,0,1-26.62,29.14l.48-2.22a177.77,177.77,0,0,0,3.82-38.52,181.42,181.42,0,0,0-6.33-45.88,150.19,150.19,0,0,1,28.73,30.08,109.26,109.26,0,0,1,8.11,13.42A111.48,111.48,0,0,1,213.46,131.72ZM153.55,30l4.59-1.2a14.21,14.21,0,0,0,5.68-3.33l3.3-3.41c1.31-1.36,2.38-.94,2.39.95l.05,7.74.05,7.73c0,1.89-1.31,2.67-3,1.74l-6.72-3.83-6.72-3.83C151.58,31.64,151.72,30.49,153.55,30ZM176.8,194.07l-1.34,4.55a14.38,14.38,0,0,0-.08,6.59l1.22,4.58c.49,1.83-.43,2.53-2,1.56l-6.66-3.94-6.64-4c-1.63-1-1.61-2.5,0-3.42l6.74-3.78,6.74-3.79C176.42,191.53,177.33,192.25,176.8,194.07ZM3.14,123.63c-1.81-.55-1.91-1.71-.23-2.57l6.87-3.55L16.65,114c1.68-.86,3,0,2.88,1.85l-.36,7.72-.36,7.73c-.09,1.89-1.18,2.28-2.43.86l-3.16-3.54A14.2,14.2,0,0,0,7.67,125Zm113.17,47.68A50.31,50.31,0,1,1,166.62,121,50.37,50.37,0,0,1,116.31,171.31Zm3-30.3a.71.71,0,0,0-.5.21.67.67,0,0,0-.22.52v23.94a.74.74,0,0,0,.27.57.69.69,0,0,0,.45.16l.16,0c7.66-1.74,14.68-9.93,18.78-21.91a.73.73,0,0,0,0-.58.77.77,0,0,0-.46-.35A85.09,85.09,0,0,0,119.33,141Zm-6,0a84.91,84.91,0,0,0-18.41,2.54.73.73,0,0,0-.51.94c4.11,12,11.13,20.16,18.78,21.9l.16,0a.7.7,0,0,0,.46-.16.74.74,0,0,0,.27-.57V141.74a.73.73,0,0,0-.22-.52.75.75,0,0,0-.51-.21Zm-24.08,4.31a.67.67,0,0,0-.24,0,48.26,48.26,0,0,0-7.81,3.58.72.72,0,0,0-.35.5A.73.73,0,0,0,81,150a46.17,46.17,0,0,0,16.36,12.59.67.67,0,0,0,.31.07.73.73,0,0,0,.56-1.19,49.71,49.71,0,0,1-8.29-15.69.7.7,0,0,0-.37-.42A.71.71,0,0,0,89.21,145.32Zm54.2,0a.67.67,0,0,0-.31.07.78.78,0,0,0-.38.42,49.67,49.67,0,0,1-8.29,15.7.73.73,0,0,0,.57,1.19.66.66,0,0,0,.3-.07A46.28,46.28,0,0,0,151.66,150a.71.71,0,0,0-.2-1.09,48.42,48.42,0,0,0-7.8-3.59A.69.69,0,0,0,143.41,145.31Zm3.81-22a.72.72,0,0,0-.72.7,80.32,80.32,0,0,1-2.15,16.14.74.74,0,0,0,.47.86,53.22,53.22,0,0,1,9.41,4.33.74.74,0,0,0,.37.1.72.72,0,0,0,.62-.34,45.73,45.73,0,0,0,6.74-21,.7.7,0,0,0-.19-.55.76.76,0,0,0-.53-.23Zm-75.83,0a.74.74,0,0,0-.53.23.75.75,0,0,0-.2.55,45.73,45.73,0,0,0,6.74,21,.74.74,0,0,0,.62.34.71.71,0,0,0,.37-.1A53,53,0,0,1,87.81,141a.72.72,0,0,0,.46-.85A81.24,81.24,0,0,1,86.13,124a.72.72,0,0,0-.73-.7Zm20,0a.68.68,0,0,0-.52.23.69.69,0,0,0-.2.53,74.32,74.32,0,0,0,2,14.65.76.76,0,0,0,.34.46.79.79,0,0,0,.37.1l.18,0a88.53,88.53,0,0,1,19.76-2.75.73.73,0,0,0,.71-.73V124a.73.73,0,0,0-.73-.73Zm27.9,0a.73.73,0,0,0-.72.73v11.74a.73.73,0,0,0,.7.73,89,89,0,0,1,19.76,2.74.58.58,0,0,0,.19,0,.7.7,0,0,0,.37-.11.69.69,0,0,0,.33-.45,75.08,75.08,0,0,0,2-14.65.73.73,0,0,0-.2-.53.72.72,0,0,0-.53-.23ZM154.6,96.6a.74.74,0,0,0-.37.1,53.22,53.22,0,0,1-9.41,4.33.74.74,0,0,0-.47.86A80.32,80.32,0,0,1,146.5,118a.72.72,0,0,0,.72.7h14a.76.76,0,0,0,.53-.23A.7.7,0,0,0,162,118a45.73,45.73,0,0,0-6.74-21A.72.72,0,0,0,154.6,96.6Zm-15.36,6.16a.58.58,0,0,0-.19,0,88.87,88.87,0,0,1-19.76,2.74.73.73,0,0,0-.7.73V118a.73.73,0,0,0,.72.73h21.9a.72.72,0,0,0,.53-.23.73.73,0,0,0,.2-.53,75.08,75.08,0,0,0-2-14.65.69.69,0,0,0-.33-.45A.7.7,0,0,0,139.24,102.76Zm-45.85,0a.79.79,0,0,0-.37.1.76.76,0,0,0-.34.46,74.32,74.32,0,0,0-2,14.65.69.69,0,0,0,.2.53.68.68,0,0,0,.52.23h21.9A.73.73,0,0,0,114,118V106.26a.73.73,0,0,0-.71-.73,88.53,88.53,0,0,1-19.76-2.75ZM78,96.6a.74.74,0,0,0-.62.34,45.73,45.73,0,0,0-6.74,21,.75.75,0,0,0,.2.55.74.74,0,0,0,.53.23h14a.72.72,0,0,0,.73-.7,81.24,81.24,0,0,1,2.14-16.15.72.72,0,0,0-.46-.85,53,53,0,0,1-9.42-4.33A.71.71,0,0,0,78,96.6Zm41.29-21a.69.69,0,0,0-.45.16.73.73,0,0,0-.27.57v23.94a.67.67,0,0,0,.22.52.71.71,0,0,0,.5.21h0a85,85,0,0,0,18.42-2.54.77.77,0,0,0,.46-.35.73.73,0,0,0,0-.58c-4.1-12-11.12-20.17-18.78-21.91Zm-6,0-.16,0c-7.65,1.74-14.67,9.93-18.78,21.9a.73.73,0,0,0,.51.94A85,85,0,0,0,113.29,101h0a.75.75,0,0,0,.51-.21.71.71,0,0,0,.22-.52V76.32a.73.73,0,0,0-.27-.57A.7.7,0,0,0,113.31,75.59ZM135,79.31a.73.73,0,0,0-.57,1.19,49.67,49.67,0,0,1,8.29,15.7.78.78,0,0,0,.38.42.67.67,0,0,0,.31.07.69.69,0,0,0,.25,0,49.42,49.42,0,0,0,7.81-3.59.75.75,0,0,0,.35-.5.74.74,0,0,0-.16-.59A46.17,46.17,0,0,0,135.3,79.38.66.66,0,0,0,135,79.31Zm-37.37,0a.67.67,0,0,0-.31.07A46.17,46.17,0,0,0,81,92a.73.73,0,0,0-.15.59.72.72,0,0,0,.35.5A47.87,47.87,0,0,0,89,96.64a.67.67,0,0,0,.24,0,.71.71,0,0,0,.32-.07.7.7,0,0,0,.37-.42A49.71,49.71,0,0,1,98.19,80.5a.73.73,0,0,0-.56-1.19Z"/></g></g></svg>